<?xml version="1.0" encoding="UTF-8"?>
<svg width="394px" height="82px" viewBox="0 0 394 82" version="1.1" xmlns="http://www.w3.org/2000/svg" xmlns:xlink="http://www.w3.org/1999/xlink">
    <!-- Generator: Sketch 50.2 (55047) - http://www.bohemiancoding.com/sketch -->
    <title>Page 1</title>
    <desc>Created with Sketch.</desc>
    <defs>
        <polygon id="path-1" points="0.304909007 0.630192837 0.637 0.630192837 0.637 2.0363 0.304909007 2.0363"></polygon>
        <polygon id="path-3" points="0.408125525 0.604155887 0.637 0.604155887 0.637 3.6145 0.408125525 3.6145"></polygon>
        <polygon id="path-5" points="0.4554 0.772691476 0.637 0.772691476 0.637 1.87840273 0.4554 1.87840273"></polygon>
        <polygon id="path-7" points="0.415 0.211302287 0.637 0.211302287 0.637 4.651 0.415 4.651"></polygon>
        <polygon id="path-9" points="0.26987823 0.3843 0.637 0.3843 0.637 3.6633 0.26987823 3.6633"></polygon>
        <polygon id="path-11" points="0.4014 0.071 7.13729286 0.071 7.13729286 1.0709 0.4014 1.0709"></polygon>
        <polygon id="path-13" points="0.7238 0.6295 2.7738 0.6295 2.7738 1 0.7238 1"></polygon>
        <polygon id="path-15" points="0.2521 0.0924 0.637 0.0924 0.637 1.0924 0.2521 1.0924"></polygon>
        <polygon id="path-17" points="0.0655 0.7438 2.08595833 0.7438 2.08595833 1 0.0655 1"></polygon>
        <polygon id="path-19" points="0.3243738 0.641 1.3243738 0.641 1.3243738 1 0.3243738 1"></polygon>
        <polygon id="path-21" points="0.2757 0.6491 1.2757 0.6491 1.2757 1 0.2757 1"></polygon>
        <polygon id="path-23" points="0.1131 0.7448 1.1131 0.7448 1.1131 1 0.1131 1"></polygon>
        <polygon id="path-25" points="0.2669 0.067 0.637 0.067 0.637 1.067 0.2669 1.067"></polygon>
        <polygon id="path-27" points="0 0.204698379 393.6368 0.204698379 393.6368 82 0 82"></polygon>
        <polygon id="path-29" points="0.9959 0.7223 1.9959 0.7223 1.9959 1 0.9959 1"></polygon>
        <polygon id="path-31" points="0.4837 0.6262 0.637 0.6262 0.637 3.3102 0.4837 3.3102"></polygon>
        <polygon id="path-33" points="0.8019 0.6438 2.1659 0.6438 2.1659 1 0.8019 1"></polygon>
        <polygon id="path-35" points="0.769005046 0.894077306 5.4436 0.894077306 5.4436 1 0.769005046 1"></polygon>
    </defs>
    <g id="1.0_Homepage-" stroke="none" stroke-width="1" fill="none" fill-rule="evenodd">
        <g id="Landing-Page" transform="translate(-839.000000, -3359.000000)">
            <g id="Page-1" transform="translate(839.000000, 3358.117188)">
                <g id="Group-3" transform="translate(393.000000, 79.929100)">
                    <mask id="mask-2" fill="white">
                        <use xlink:href="#path-1"></use>
                    </mask>
                    <g id="Clip-2"></g>
                    <path d="M0.3089,0.9323 C0.2999,2.3263 0.4049,1.8263 0.4229,2.0363 C0.3999,-0.2967 0.2819,0.9913 0.3089,0.9323" id="Fill-1" fill="#FF5E0E" mask="url(#mask-2)"></path>
                </g>
                <g id="Group-6" transform="translate(393.000000, 23.929100)">
                    <mask id="mask-4" fill="white">
                        <use xlink:href="#path-3"></use>
                    </mask>
                    <g id="Clip-5"></g>
                    <path d="M0.4554,3.1305 C0.4564,2.6665 0.4574,2.0265 0.4594,0.9405 C0.3904,1.6485 0.3994,-1.5415 0.4374,3.6145 C0.4464,3.3575 0.4494,3.2805 0.4554,3.1305" id="Fill-4" fill="#FF5E0E" mask="url(#mask-4)"></path>
                </g>
                <g id="Group-9" transform="translate(393.000000, 25.929100)">
                    <mask id="mask-6" fill="white">
                        <use xlink:href="#path-5"></use>
                    </mask>
                    <g id="Clip-8"></g>
                    <path d="M0.4554,1.1305 C0.4604,3.3965 0.5134,-0.3515 0.4554,1.1305" id="Fill-7" fill="#FF5E0E" mask="url(#mask-6)"></path>
                </g>
                <g id="Group-12" transform="translate(393.000000, 14.929100)">
                    <mask id="mask-8" fill="white">
                        <use xlink:href="#path-7"></use>
                    </mask>
                    <g id="Clip-11"></g>
                    <path d="M0.558,2.358 C0.524,-0.704 0.483,-0.074 0.415,1.667 L0.478,4.651 C0.519,4.028 0.528,1.372 0.558,2.358" id="Fill-10" fill="#FF5E0E" mask="url(#mask-8)"></path>
                </g>
                <g id="Group-15" transform="translate(393.000000, 14.929100)">
                    <mask id="mask-10" fill="white">
                        <use xlink:href="#path-9"></use>
                    </mask>
                    <g id="Clip-14"></g>
                    <path d="M0.3314,1.8903 C0.2784,1.6213 0.3294,2.2703 0.3664,3.6633 L0.3114,0.3843 C0.2824,0.8163 0.2254,0.8623 0.3314,1.8903" id="Fill-13" fill="#FF5E0E" mask="url(#mask-10)"></path>
                </g>
                <path d="M390.0872,1.2217 C389.3902,1.2047 388.8162,1.1857 388.7402,1.1577 C388.5542,1.1957 389.7442,1.2587 389.9672,1.3067 L392.4872,1.2637 C391.8342,1.2517 390.8922,1.2357 390.0872,1.2217" id="Fill-16" fill="#FF5E0E"></path>
                <path d="M389.9671,1.3067 L386.6681,1.3717 C389.6141,1.3797 390.1541,1.3487 389.9671,1.3067" id="Fill-18" fill="#FF5E0E"></path>
                <polygon id="Fill-20" fill="#FF5E0E" points="378.014 1.0645 374.683 1.1975 376.144 1.1525"></polygon>
                <g id="Group-24" transform="translate(361.000000, 0.929100)">
                    <mask id="mask-12" fill="white">
                        <use xlink:href="#path-11"></use>
                    </mask>
                    <g id="Clip-23"></g>
                    <path d="M6.7884,0.2389 C8.1724,0.1659 4.8924,0.1159 6.3534,0.0709 C4.0844,0.0839 2.1464,0.1459 0.4014,0.2029 C2.2554,0.1719 4.2314,0.1789 6.7884,0.2389" id="Fill-22" fill="#FF5E0E" mask="url(#mask-12)"></path>
                </g>
                <path d="M358.471,1.2139 C359.448,1.1729 360.416,1.1489 361.402,1.1319 C360.355,1.1609 359.394,1.1879 358.471,1.2139" id="Fill-25" fill="#FF5E0E"></path>
                <path d="M381.0501,1.3536 C380.7951,1.3306 380.3041,1.2706 378.4541,1.2456 L379.7511,1.3516 C380.1481,1.3526 380.5961,1.3526 381.0501,1.3536" id="Fill-27" fill="#FF5E0E"></path>
                <path d="M379.7972,1.3555 L379.7512,1.3515 C378.3442,1.3485 377.3672,1.3465 376.9482,1.3455 C377.3092,1.3465 378.1652,1.3495 379.7972,1.3555" id="Fill-29" fill="#FF5E0E"></path>
                <path d="M381.3773,1.3536 L381.0503,1.3536 C381.1753,1.3646 381.2513,1.3676 381.3773,1.3536" id="Fill-31" fill="#FF5E0E"></path>
                <path d="M364.472,1.3135 C362.959,1.3605 361.304,1.3645 359.434,1.3715 C361.439,1.3815 363.51,1.3925 365.478,1.4035 C365.755,1.3705 366.62,1.3095 364.472,1.3135" id="Fill-33" fill="#FF5E0E"></path>
                <path d="M371.9193,1.3428 C371.8153,1.3448 371.6813,1.3478 371.5833,1.3498 C371.7903,1.3588 371.9563,1.3618 371.9193,1.3428" id="Fill-35" fill="#FF5E0E"></path>
                <path d="M341.0247,1.3711 C341.1267,1.3771 341.2157,1.3831 341.3197,1.3901 C341.3427,1.3841 341.3627,1.3791 341.3887,1.3721 L341.0247,1.3711 Z" id="Fill-37" fill="#FF5E0E"></path>
                <path d="M365.8138,1.4239 C367.3208,1.4449 368.2198,1.4179 369.0788,1.3849 C367.9518,1.3909 366.7588,1.3969 365.4778,1.4029 C365.3528,1.4189 365.3298,1.4289 365.8138,1.4239" id="Fill-39" fill="#FF5E0E"></path>
                <path d="M353.3353,1.2637 C354.1223,1.2817 355.0113,1.3007 355.9443,1.3227 C355.1773,1.2877 353.6123,1.2357 353.3353,1.2637" id="Fill-41" fill="#FF5E0E"></path>
                <path d="M371.0755,1.3194 C371.1505,1.3184 371.2195,1.3164 371.3015,1.3154 C370.8065,1.2924 370.8685,1.3034 371.0755,1.3194" id="Fill-43" fill="#FF5E0E"></path>
                <path d="M371.0755,1.3194 C370.3045,1.3444 369.6925,1.3654 369.0785,1.3844 C369.9945,1.3724 370.8455,1.3594 371.5835,1.3494 C371.3995,1.3394 371.2125,1.3284 371.0755,1.3194" id="Fill-45" fill="#FF5E0E"></path>
                <path d="M347.9164,1.4004 L349.3414,1.3874 C347.7174,1.3714 346.5544,1.3314 344.4144,1.2544 C342.0444,1.3014 341.5524,1.3384 341.3894,1.3724 L348.4034,1.3854 L347.9164,1.4004 Z" id="Fill-47" fill="#FF5E0E"></path>
                <polygon id="Fill-49" fill="#FF5E0E" points="341.1273 1.2032 337.8763 1.3642 340.3813 1.3172"></polygon>
                <polygon id="Fill-51" fill="#FF5E0E" points="333.3382 1.2315 331.4072 1.2915 333.0672 1.3315"></polygon>
                <path d="M1.6947,81.3565 C1.5837,81.3625 1.4937,81.3675 1.4187,81.3715 L2.6767,81.3425 C2.2857,81.3475 1.9647,81.3525 1.6947,81.3565" id="Fill-53" fill="#FF5E0E"></path>
                <path d="M1.3011,70.3155 L1.2521,70.0215 C1.2791,70.5765 1.2991,70.8035 1.3011,70.3155" id="Fill-55" fill="#FF5E0E"></path>
                <path d="M153.4574,1.3418 C151.0484,1.2488 148.3574,1.1068 148.6484,1.2178 L149.3884,1.3258 C151.0714,1.3068 152.3614,1.3188 153.4574,1.3418" id="Fill-57" fill="#FF5E0E"></path>
                <path d="M32.7806,1.919 C32.0796,1.94 31.2836,1.964 30.4496,1.989 C30.6776,2 30.9176,2.012 31.1536,2.023 C31.7386,1.985 32.2886,1.95 32.7806,1.919" id="Fill-59" fill="#FF5E0E"></path>
                <path d="M25.5746,2.3682 L28.7496,2.4382 C27.3116,2.4062 26.2926,2.3842 25.5746,2.3682" id="Fill-61" fill="#FF5E0E"></path>
                <path d="M66.4056,81.2559 L68.3356,81.1459 C65.3166,81.1459 66.6456,81.2009 66.4056,81.2559" id="Fill-63" fill="#FF5E0E"></path>
                <path d="M258.1664,1.3711 C256.0834,1.3451 254.4324,1.3231 252.9794,1.3061 C255.4844,1.3671 257.5054,1.4611 258.1664,1.3711" id="Fill-65" fill="#FF5E0E"></path>
                <path d="M0.1429,77.5762 C0.1639,78.5882 0.1849,79.0202 0.2089,78.9902 C0.1909,77.9482 0.1689,77.3602 0.1429,77.5762" id="Fill-67" fill="#FF5E0E"></path>
                <path d="M246.9779,1.3057 C247.3449,1.3147 247.7029,1.3227 248.0759,1.3307 C249.5969,1.3237 251.1239,1.3157 252.9799,1.3057 C251.1309,1.2587 249.0129,1.2307 246.9779,1.3057" id="Fill-69" fill="#FF5E0E"></path>
                <path d="M303.5326,81.3458 C303.7056,81.3498 303.9116,81.3548 304.0696,81.3588 C304.1216,81.3438 303.8836,81.3428 303.5326,81.3458" id="Fill-71" fill="#FF5E0E"></path>
                <path d="M303.6419,1.2832 C305.1939,1.2762 303.8879,1.2712 303.6419,1.2832" id="Fill-73" fill="#FF5E0E"></path>
                <path d="M305.2015,1.3204 C304.6105,1.3104 304.2245,1.3044 303.9925,1.3004 C304.4215,1.3074 304.8195,1.3134 305.2015,1.3204" id="Fill-75" fill="#FF5E0E"></path>
                <path d="M305.9759,1.333 C305.7359,1.329 305.4699,1.324 305.2019,1.32 C305.4289,1.324 305.6809,1.328 305.9759,1.333" id="Fill-77" fill="#FF5E0E"></path>
                <path d="M305.6624,1.2813 C306.1974,1.2853 306.6174,1.2893 307.0174,1.2923 C307.2144,1.2733 307.0404,1.2623 305.6624,1.2813" id="Fill-79" fill="#FF5E0E"></path>
                <path d="M303.6419,1.2832 C303.1879,1.2842 302.5459,1.2862 301.4819,1.2892 C302.3689,1.2932 303.1959,1.2972 303.9929,1.3012 C303.6879,1.2932 303.5599,1.2872 303.6419,1.2832" id="Fill-81" fill="#FF5E0E"></path>
                <path d="M293.1253,81.3506 L292.8053,81.3466 C292.8863,81.3486 292.9973,81.3496 293.1253,81.3506" id="Fill-83" fill="#FF5E0E"></path>
                <path d="M1.2669,76.9961 L1.2689,77.6191 C1.2709,77.3751 1.2689,77.1751 1.2669,76.9961" id="Fill-85" fill="#FF5E0E"></path>
                <path d="M140.8089,81.2549 C140.9759,81.2539 141.1279,81.2539 141.2879,81.2529 C141.1129,81.2529 140.9479,81.2539 140.8089,81.2549" id="Fill-87" fill="#FF5E0E"></path>
                <path d="M28.9789,2.3868 C28.6589,2.3658 28.5699,2.3438 28.4949,2.3208 C28.0489,2.3408 28.0409,2.3648 28.9789,2.3868" id="Fill-89" fill="#FF5E0E"></path>
                <path d="M66.0492,81.2764 L66.2272,81.2774 C66.3252,81.2704 66.3772,81.2624 66.4052,81.2554 L66.0492,81.2764 Z" id="Fill-91" fill="#FF5E0E"></path>
                <path d="M319.3626,1.2998 C319.2986,1.2758 318.8256,1.2418 319.3506,1.2328 L316.3356,1.2608 C317.9616,1.2538 318.5416,1.2798 319.3626,1.2998" id="Fill-93" fill="#FF5E0E"></path>
                <path d="M319.3509,1.2325 L319.6969,1.2285 C319.5459,1.2295 319.4389,1.2305 319.3509,1.2325" id="Fill-95" fill="#FF5E0E"></path>
                <path d="M298.5453,1.3662 C299.6613,1.3922 299.2453,1.2372 299.8773,1.2782 C301.1243,1.1492 292.4333,1.4342 298.5453,1.3662" id="Fill-97" fill="#FF5E0E"></path>
                <path d="M1.4837,46.2393 L1.5747,43.7943 L1.5357,43.5553 C1.4937,44.0403 1.4897,44.7723 1.4837,46.2393" id="Fill-99" fill="#FF5E0E"></path>
                <polygon id="Fill-101" fill="#FF5E0E" points="4.2347 81.209 5.5987 81.355 4.9647 81.212"></polygon>
                <path d="M35.9574,81.045 C39.1264,81.019 40.9734,81.208 40.5794,81.024 C39.1264,81.031 37.4174,81.039 35.9574,81.045" id="Fill-103" fill="#FF5E0E"></path>
                <path d="M1.4378,27.544 C1.4468,27.286 1.4498,27.21 1.4558,27.06 C1.4568,26.596 1.4578,25.956 1.4588,24.869 C1.3898,25.577 1.3998,22.388 1.4378,27.544" id="Fill-105" fill="#FF5E0E"></path>
                <path d="M1.4554,27.0596 C1.4604,29.3256 1.5134,25.5776 1.4554,27.0596" id="Fill-107" fill="#FF5E0E"></path>
                <path d="M1.558,17.2871 C1.524,14.2251 1.483,14.8551 1.415,16.5961 L1.478,19.5801 C1.519,18.9571 1.528,16.3011 1.558,17.2871" id="Fill-109" fill="#FF5E0E"></path>
                <path d="M1.3314,16.8194 C1.2784,16.5504 1.3294,17.1994 1.3664,18.5924 L1.3114,15.3134 C1.2824,15.7454 1.2254,15.7914 1.3314,16.8194" id="Fill-111" fill="#FF5E0E"></path>
                <path d="M1.7806,2.6543 L1.6206,2.6603 L1.5466,2.6663 C1.5916,2.6693 1.6416,2.6723 1.6966,2.6753 C1.8636,2.6783 2.0416,2.6813 2.2216,2.6853 C2.5856,2.6923 2.9646,2.7003 3.3136,2.7073 C4.0106,2.7233 4.5856,2.7433 4.6606,2.7713 C4.8466,2.7333 3.6566,2.6713 3.4336,2.6223 L2.3316,2.6433 L1.7806,2.6543 Z" id="Fill-113" fill="#FF5E0E"></path>
                <path d="M3.4339,2.6221 L6.7329,2.5571 C3.7869,2.5491 3.2469,2.5801 3.4339,2.6221" id="Fill-115" fill="#FF5E0E"></path>
                <polygon id="Fill-117" fill="#FF5E0E" points="15.3871 2.8643 18.7181 2.7313 17.2571 2.7763"></polygon>
                <path d="M25.6126,2.7608 C24.2286,2.8338 27.5086,2.8848 26.0476,2.9288 C28.3166,2.9158 30.2546,2.8538 31.9996,2.7978 C30.1456,2.8288 28.1696,2.8208 25.6126,2.7608" id="Fill-119" fill="#FF5E0E"></path>
                <path d="M34.93,2.7159 C34.007,2.7409 33.046,2.7689 31.999,2.7979 C32.985,2.7799 33.953,2.7569 34.93,2.7159" id="Fill-121" fill="#FF5E0E"></path>
                <path d="M12.3509,2.5752 C12.6059,2.5982 13.0969,2.6582 14.9469,2.6832 L13.6499,2.5772 C13.2529,2.5772 12.8049,2.5762 12.3509,2.5752" id="Fill-123" fill="#FF5E0E"></path>
                <path d="M13.6039,2.5743 L13.6499,2.5773 C15.0569,2.5803 16.0339,2.5823 16.4529,2.5833 C16.0919,2.5823 15.2359,2.5793 13.6039,2.5743" id="Fill-125" fill="#FF5E0E"></path>
                <path d="M12.0238,2.5752 L12.3508,2.5752 C12.2258,2.5652 12.1498,2.5612 12.0238,2.5752" id="Fill-127" fill="#FF5E0E"></path>
                <path d="M28.929,2.6153 C30.442,2.5693 32.097,2.5653 33.967,2.5573 C31.962,2.5473 29.891,2.5363 27.923,2.5253 C27.646,2.5593 26.781,2.6193 28.929,2.6153" id="Fill-129" fill="#FF5E0E"></path>
                <path d="M21.4818,2.586 C21.5858,2.584 21.7198,2.581 21.8178,2.58 C21.6108,2.57 21.4448,2.567 21.4818,2.586" id="Fill-131" fill="#FF5E0E"></path>
                <path d="M52.3763,2.5586 C52.2743,2.5516 52.1853,2.5456 52.0813,2.5386 C52.0583,2.5446 52.0383,2.5506 52.0123,2.5576 L52.3763,2.5586 Z" id="Fill-133" fill="#FF5E0E"></path>
                <path d="M27.5872,2.5059 C26.0802,2.4849 25.1802,2.5109 24.3222,2.5439 C25.4492,2.5379 26.6422,2.5319 27.9232,2.5259 C28.0482,2.5109 28.0712,2.4999 27.5872,2.5059" id="Fill-135" fill="#FF5E0E"></path>
                <path d="M40.0658,2.6661 C39.2788,2.6471 38.3898,2.6281 37.4568,2.6061 C38.2238,2.6411 39.7888,2.6931 40.0658,2.6661" id="Fill-137" fill="#FF5E0E"></path>
                <path d="M22.3255,2.6094 C22.2505,2.6114 22.1815,2.6124 22.0995,2.6144 C22.5945,2.6364 22.5325,2.6264 22.3255,2.6094" id="Fill-139" fill="#FF5E0E"></path>
                <path d="M22.3255,2.6094 C23.0965,2.5844 23.7085,2.5644 24.3225,2.5444 C23.4065,2.5564 22.5555,2.5694 21.8175,2.5804 C22.0015,2.5904 22.1885,2.6014 22.3255,2.6094" id="Fill-141" fill="#FF5E0E"></path>
                <path d="M52.0121,2.5577 L44.9971,2.5437 L45.4851,2.5297 L44.0601,2.5407 C45.6841,2.5587 46.8471,2.5977 48.9871,2.6757 C51.3571,2.6267 51.8491,2.5907 52.0121,2.5577" id="Fill-143" fill="#FF5E0E"></path>
                <polygon id="Fill-145" fill="#FF5E0E" points="52.2738 2.7256 55.5248 2.5656 53.0198 2.6126"></polygon>
                <polygon id="Fill-147" fill="#FF5E0E" points="60.0628 2.6973 61.9938 2.6373 60.3338 2.5983"></polygon>
                <g id="Group-151" transform="translate(390.000000, 81.929100)">
                    <mask id="mask-14" fill="white">
                        <use xlink:href="#path-13"></use>
                    </mask>
                    <g id="Clip-150"></g>
                    <path d="M2.7738,0.6295 L0.7238,0.6565 C1.6928,0.6445 2.3158,0.6355 2.7738,0.6295" id="Fill-149" fill="#FF5E0E" mask="url(#mask-14)"></path>
                </g>
                <g id="Group-154" transform="translate(393.000000, 69.929100)">
                    <mask id="mask-16" fill="white">
                        <use xlink:href="#path-15"></use>
                    </mask>
                    <g id="Clip-153"></g>
                    <path d="M0.3011,0.3864 L0.2521,0.0924 C0.2791,0.6474 0.2991,0.8744 0.3011,0.3864" id="Fill-152" fill="#FF5E0E" mask="url(#mask-16)"></path>
                </g>
                <path d="M244.7523,2.712 L244.0133,2.604 C242.3293,2.623 241.0393,2.61 239.9433,2.587 C242.3523,2.68 245.0433,2.823 244.7523,2.712" id="Fill-155" fill="#FF5E0E"></path>
                <path d="M362.9515,1.9395 C362.7225,1.9285 362.4835,1.9185 362.2475,1.9065 C361.6625,1.9445 361.1125,1.9795 360.6205,2.0105 C361.3215,1.9895 362.1165,1.9645 362.9515,1.9395" id="Fill-157" fill="#FF5E0E"></path>
                <path d="M367.8265,1.5606 L366.9165,1.5406 C367.2575,1.5476 367.5695,1.5546 367.8265,1.5606" id="Fill-159" fill="#FF5E0E"></path>
                <path d="M366.9164,1.5411 C366.6654,1.5351 366.3904,1.5291 366.0894,1.5221 L366.9164,1.5411 Z" id="Fill-161" fill="#FF5E0E"></path>
                <path d="M366.0892,1.5225 L364.6522,1.4915 C365.1932,1.5025 365.6592,1.5125 366.0892,1.5225" id="Fill-163" fill="#FF5E0E"></path>
                <g id="Group-167" transform="translate(325.000000, 81.929100)">
                    <mask id="mask-18" fill="white">
                        <use xlink:href="#path-17"></use>
                    </mask>
                    <g id="Clip-166"></g>
                    <path d="M1.9955,0.7438 L0.0655,0.8538 C3.0845,0.8538 1.7555,0.7988 1.9955,0.7438" id="Fill-165" fill="#FF5E0E" mask="url(#mask-18)"></path>
                </g>
                <path d="M135.2347,2.5586 C137.3177,2.5846 138.9687,2.6056 140.4217,2.6236 C137.9167,2.5616 135.8957,2.4676 135.2347,2.5586" id="Fill-168" fill="#FF5E0E"></path>
                <path d="M392.1429,77.5762 C392.1639,78.5882 392.1849,79.0202 392.2089,78.9902 C392.1909,77.9482 392.1689,77.3602 392.1429,77.5762" id="Fill-170" fill="#FF5E0E"></path>
                <path d="M146.4232,2.6231 C146.0562,2.6151 145.6982,2.6061 145.3252,2.5981 C143.8042,2.6051 142.2772,2.6141 140.4212,2.6241 C142.2702,2.6701 144.3882,2.6991 146.4232,2.6231" id="Fill-172" fill="#FF5E0E"></path>
                <g id="Group-176" transform="translate(89.000000, 81.929100)">
                    <mask id="mask-20" fill="white">
                        <use xlink:href="#path-19"></use>
                    </mask>
                    <g id="Clip-175"></g>
                    <path d="M0.8685,0.654 C0.6955,0.65 0.4895,0.645 0.3315,0.641 C0.2795,0.656 0.5175,0.657 0.8685,0.654" id="Fill-174" fill="#FF5E0E" mask="url(#mask-20)"></path>
                </g>
                <path d="M89.7591,2.6455 C88.2071,2.6525 89.5131,2.6575 89.7591,2.6455" id="Fill-177" fill="#FF5E0E"></path>
                <path d="M89.0423,2.6231 C89.1883,2.6251 89.3143,2.6271 89.4083,2.6291 C89.2803,2.6271 89.1653,2.6251 89.0423,2.6231" id="Fill-179" fill="#FF5E0E"></path>
                <path d="M87.4251,2.5967 C87.9051,2.6047 88.4571,2.6137 89.0421,2.6227 C88.6871,2.6177 88.1751,2.6087 87.4251,2.5967" id="Fill-181" fill="#FF5E0E"></path>
                <path d="M87.7386,2.6475 C87.2036,2.6435 86.7836,2.6405 86.3836,2.6365 C86.1866,2.6555 86.3606,2.6675 87.7386,2.6475" id="Fill-183" fill="#FF5E0E"></path>
                <path d="M89.7591,2.6455 C90.2131,2.6445 90.8551,2.6425 91.9191,2.6395 C91.0321,2.6355 90.2051,2.6315 89.4081,2.6285 C89.7131,2.6355 89.8411,2.6415 89.7591,2.6455" id="Fill-185" fill="#FF5E0E"></path>
                <g id="Group-189" transform="translate(100.000000, 81.929100)">
                    <mask id="mask-22" fill="white">
                        <use xlink:href="#path-21"></use>
                    </mask>
                    <g id="Clip-188"></g>
                    <path d="M0.2757,0.6491 L0.5957,0.6531 C0.5147,0.6511 0.4037,0.6501 0.2757,0.6491" id="Fill-187" fill="#FF5E0E" mask="url(#mask-22)"></path>
                </g>
                <g id="Group-192" transform="translate(252.000000, 81.929100)">
                    <mask id="mask-24" fill="white">
                        <use xlink:href="#path-23"></use>
                    </mask>
                    <g id="Clip-191"></g>
                    <path d="M0.5921,0.7448 C0.4251,0.7458 0.2731,0.7458 0.1131,0.7468 C0.2881,0.7468 0.4531,0.7458 0.5921,0.7448" id="Fill-190" fill="#FF5E0E" mask="url(#mask-24)"></path>
                </g>
                <g id="Group-195" transform="translate(393.000000, 76.929100)">
                    <mask id="mask-26" fill="white">
                        <use xlink:href="#path-25"></use>
                    </mask>
                    <g id="Clip-194"></g>
                    <path d="M0.2669,0.067 L0.2689,0.69 C0.2709,0.446 0.2689,0.246 0.2669,0.067" id="Fill-193" fill="#FF5E0E" mask="url(#mask-26)"></path>
                </g>
                <g id="Group-198" transform="translate(0.000000, 0.929100)">
                    <mask id="mask-28" fill="white">
                        <use xlink:href="#path-27"></use>
                    </mask>
                    <g id="Clip-197"></g>
                    <path d="M387.7708,80.6471 C386.2178,80.6721 384.8978,80.7031 384.2398,80.7441 C382.6948,80.5101 377.0318,80.6041 372.3938,80.6621 C370.3898,80.6221 368.2638,80.5941 366.1008,80.6321 C365.9398,80.6151 365.8468,80.5921 365.8508,80.5631 L356.7198,80.5841 L356.9588,80.5441 C352.8348,80.5271 350.5978,80.5671 348.9148,80.6251 C342.9298,80.6011 338.1088,80.5361 329.4638,80.4871 L330.3578,80.6061 C327.7648,80.5891 327.2178,80.5521 326.0038,80.5231 C323.0288,80.7031 333.2878,80.5331 330.5768,80.7311 C330.3858,80.7171 330.1558,80.7061 329.8998,80.6961 L329.4858,80.6261 C329.0438,80.6431 328.1508,80.6411 326.9588,80.6311 C326.6678,80.6281 326.3658,80.6261 326.0558,80.6241 C322.5028,80.5871 316.9538,80.5061 311.6938,80.5431 C310.9058,80.5221 310.3008,80.4931 309.9648,80.4541 C307.7418,80.4531 308.3588,80.4961 308.6518,80.5331 C307.9628,80.5411 307.2618,80.5451 306.5448,80.5471 L306.0888,80.5151 L305.7338,80.5481 C304.5008,80.5491 303.2438,80.5431 301.9788,80.5351 C301.4098,80.5031 301.0928,80.4681 301.0478,80.4391 C301.6828,80.4331 302.8528,80.4221 303.5328,80.4171 C300.3778,80.3351 294.8248,80.4301 293.1248,80.4211 L296.6378,80.4631 C296.2378,80.4661 295.8278,80.4671 295.4208,80.4701 C291.5188,80.4291 288.0208,80.4061 285.7138,80.4921 C277.5948,80.4961 269.1208,80.4831 261.9398,80.5861 L262.4238,80.6201 C254.6448,80.5981 246.9698,80.5771 239.4178,80.5551 C239.0978,80.5361 239.1248,80.5141 240.0018,80.4931 C238.2478,80.5151 237.0308,80.5321 236.1498,80.5461 C230.7578,80.5321 225.4098,80.5161 220.1608,80.5011 L220.6848,80.5581 C219.3848,80.5431 218.1818,80.5401 217.0748,80.5431 C217.4718,80.5401 217.9578,80.5381 218.5668,80.5391 C217.5968,80.4871 216.0518,80.5081 214.7368,80.5481 C214.5378,80.5541 214.3458,80.5611 214.1608,80.5671 C212.5548,80.5871 211.1468,80.6121 209.8628,80.6191 C208.3648,80.5441 214.6898,80.4511 212.8868,80.4481 L209.8818,80.4611 L210.5598,80.4831 C209.1558,80.5261 208.4858,80.5701 207.3258,80.5981 C206.6548,80.5821 206.0018,80.5541 205.3588,80.5091 C204.4528,80.5641 204.3018,80.6011 204.5958,80.6271 C204.2518,80.6281 203.8888,80.6281 203.4778,80.6271 C200.6748,80.5911 202.0408,80.5151 200.9378,80.5071 C200.9408,80.5011 200.8488,80.4971 200.5908,80.4951 C200.3338,80.4971 199.9088,80.4991 199.2458,80.5021 L192.7378,80.4871 L193.5108,80.5301 C190.7838,80.4721 188.1498,80.6191 184.7998,80.5141 C183.1678,80.6471 181.1068,80.5471 180.1928,80.6391 C177.0988,80.6351 173.9328,80.6401 171.2898,80.6421 C172.8668,80.5131 179.6108,80.6291 183.3848,80.4921 C181.3878,80.4081 175.5578,80.6341 177.6368,80.4201 C174.6478,80.6931 170.3198,80.3861 165.2908,80.5941 L165.6218,80.4751 C164.8258,80.4941 163.1768,80.5501 161.7118,80.5471 L164.3638,80.3931 C160.2918,80.5251 156.5138,80.2791 152.6088,80.3501 C160.7868,80.3461 154.4438,80.4931 157.9018,80.5801 C147.9638,80.7361 151.9668,80.2831 141.2888,80.3241 C143.0508,80.3251 146.3328,80.4021 144.1578,80.4531 C142.0078,80.4281 139.1688,80.3821 137.8498,80.3201 C130.3688,80.3441 138.9998,80.4421 135.8138,80.5151 C133.4528,80.3811 132.2908,80.5441 129.5228,80.6061 C129.3998,80.5931 129.1868,80.5811 128.8508,80.5681 L128.8368,80.5001 C124.3128,80.4591 123.9548,80.5321 123.4658,80.5951 C122.3698,80.5981 121.2518,80.5981 120.1148,80.5941 L122.1458,80.4901 L118.1438,80.5341 L118.9698,80.3961 C114.6168,80.4981 113.2608,80.4711 108.9958,80.4331 C109.3468,80.4631 109.3738,80.5001 109.1008,80.5341 C106.5968,80.5191 104.0518,80.5111 101.4818,80.5141 C102.5178,80.4541 103.7388,80.4101 105.6138,80.5001 C105.8518,80.4601 106.8048,80.4231 107.0508,80.3841 C104.2778,80.3021 100.0818,80.3661 98.1428,80.3671 C98.8878,80.3771 99.7768,80.3891 100.2388,80.3951 L94.4238,80.5201 L93.2478,80.4731 C92.6848,80.4791 92.2898,80.5011 91.9328,80.5261 C91.8148,80.4971 92.4968,80.4701 93.1868,80.4451 C91.6168,80.4701 90.5228,80.4881 88.2158,80.5241 C88.8148,80.4261 88.6708,80.3251 91.9428,80.2791 L84.5488,80.3871 C84.0558,80.3441 80.7548,80.2701 81.7148,80.2341 C77.6168,80.1761 71.6618,80.4241 66.2268,80.3481 C65.9448,80.3681 65.3778,80.3851 64.2228,80.4001 C59.1168,80.3771 54.5918,80.2571 48.5388,80.3911 L45.1038,80.2151 C40.3638,80.2551 49.7528,80.4371 41.8598,80.5031 C36.2718,80.5591 39.7738,80.3531 37.8138,80.3041 C35.0348,80.3931 30.2028,80.5741 25.0688,80.4301 C26.7678,80.3971 28.1008,80.4231 29.6878,80.4111 L25.7758,80.3131 C30.4978,80.1531 33.9148,80.2081 30.2418,80.0711 C29.6878,80.4111 15.0348,80.1051 14.4908,80.4451 L11.9118,80.3741 C12.6508,80.3671 12.7688,80.3661 13.4998,80.3601 C10.9838,80.2791 10.0538,80.3401 8.9368,80.4171 L6.1938,80.3701 L8.2138,80.4561 L8.4568,80.4491 C7.4268,80.5141 6.0838,80.5781 3.3108,80.5571 C3.2198,80.5551 3.1388,80.5541 3.0498,80.5531 L2.5798,80.4501 L1.5888,80.5271 C1.5208,80.5241 1.4608,80.5211 1.4158,80.5181 C1.4148,80.4921 1.4138,80.4661 1.4138,80.4421 L1.4178,80.4421 L1.4138,80.4421 C1.3768,78.9591 1.2848,79.9851 1.3088,79.9321 C1.3078,80.1511 1.3098,80.3101 1.3128,80.4461 L1.2888,80.4471 L1.2688,79.8611 L1.2498,78.6871 L1.2098,76.3391 C1.2158,75.1251 1.2568,75.1801 1.2668,76.0671 L1.2428,69.0361 L1.2518,69.0921 C1.2128,67.9911 1.1248,65.5221 1.0818,64.3181 C1.1298,62.3731 1.1178,65.2931 1.1598,64.7951 L1.0778,60.5571 C1.1658,58.8311 1.2508,62.3431 1.2388,65.2711 C1.5778,61.3131 1.1528,61.7541 1.3508,53.2121 L1.3938,57.2141 C1.5868,54.6341 1.5168,51.5111 1.6368,46.9871 C1.5748,48.0601 1.3338,56.0441 1.2498,51.4451 C1.2758,50.1491 1.2878,48.4401 1.2188,45.9591 C1.3398,45.9361 1.3098,43.5131 1.3038,40.4811 L1.4628,40.6881 C1.4168,37.4111 1.3348,37.6691 1.2638,35.7411 C1.2798,32.0871 1.4038,31.3301 1.5078,30.4701 C1.5338,24.6201 1.3088,34.5101 1.2788,27.5851 C1.2938,26.3641 1.3018,25.2341 1.3028,24.1331 C1.3308,23.7371 1.3508,22.1551 1.3388,19.5211 C1.3228,20.2531 1.3078,21.0801 1.2918,21.5261 C1.2748,19.1431 1.2318,16.6761 1.1788,13.4831 C1.2198,10.9731 1.2528,12.4831 1.2878,12.9631 L1.3118,14.3841 C1.3268,14.1391 1.3318,13.7631 1.2958,13.0591 C1.3048,13.1311 1.3138,13.1011 1.3228,12.8571 L1.1948,9.8381 C1.1988,9.0991 1.2378,9.3371 1.2568,9.4591 C1.2088,6.9161 1.0968,9.2501 1.0538,5.2511 C1.0148,5.0141 1.0058,4.4871 1.0128,3.7551 C1.0188,3.3901 1.0268,2.9741 1.0338,2.5161 C1.0388,2.3821 1.0428,2.2261 1.0468,2.0841 C1.0548,2.0721 1.0618,2.0571 1.0698,2.0521 C1.1028,2.0321 1.1388,2.2011 1.1838,3.6591 C1.1728,3.2801 1.1608,2.8221 1.1478,2.3591 C1.1418,2.1761 1.1358,1.9941 1.1288,1.8181 C1.1228,1.6871 1.1168,1.5611 1.1108,1.4451 C1.2728,1.4361 1.4058,1.4261 1.5148,1.4171 C1.9438,1.4291 2.3848,1.4421 2.8448,1.4551 C3.5928,1.4671 4.3668,1.4801 5.1418,1.4931 C5.7488,1.4991 6.3538,1.5011 6.9528,1.4981 C7.1018,1.5251 7.5018,1.5611 6.6508,1.5871 L9.8118,1.5241 C9.5628,1.5491 9.2508,1.5771 9.4278,1.6061 C16.2178,1.4751 15.2498,1.5111 20.8248,1.3341 L25.5748,1.4391 C24.5408,1.4041 24.2158,1.3661 24.3568,1.3281 L27.9188,1.2941 L25.7338,1.2231 C26.9428,1.1671 28.7478,1.1111 30.4498,1.0601 C29.2088,1.0051 28.1498,0.9591 27.4438,0.9271 L33.6768,0.8411 C34.4288,0.8681 33.8018,0.9221 32.7808,0.9901 C33.2048,0.9751 33.6078,0.9611 33.9228,0.9511 C36.1518,1.0101 34.9968,1.1021 33.3988,1.1921 C32.6408,1.1591 31.8868,1.1261 31.1538,1.0931 C29.6148,1.1901 28.1738,1.2981 28.4948,1.3911 C28.8998,1.3741 29.6798,1.3571 30.5378,1.3481 C30.1348,1.3751 29.8778,1.3981 30.0648,1.4151 C30.2758,1.4311 30.9258,1.3961 31.9458,1.3551 L33.3628,1.5331 L33.7068,1.4621 L34.7698,1.4771 C34.7368,1.4771 34.7088,1.4781 34.6748,1.4791 C34.7438,1.4791 34.8018,1.4781 34.8678,1.4781 L36.8708,1.5051 C36.1498,1.5321 35.1448,1.5691 37.6118,1.6001 C36.2848,1.6111 35.0928,1.6201 33.9668,1.6281 C35.1808,1.6461 36.3528,1.6621 37.4568,1.6771 C37.3958,1.6751 37.3528,1.6731 37.3018,1.6711 L37.2708,1.6711 L37.2768,1.6691 C36.9858,1.6561 36.8898,1.6481 37.2178,1.6561 C37.2418,1.6561 37.3228,1.6541 37.3588,1.6541 C37.4048,1.6381 37.5298,1.6261 37.6638,1.6131 C39.6178,1.6351 37.9708,1.6411 37.3588,1.6541 C37.3358,1.6591 37.2838,1.6641 37.2768,1.6691 L37.3018,1.6711 L44.0598,1.6121 C42.6278,1.6121 40.8388,1.6121 37.6638,1.6131 C37.9718,1.5831 38.4588,1.5571 38.9568,1.5341 L41.8608,1.5741 C44.2818,1.5001 46.5758,1.4111 49.0868,1.3271 C49.3618,1.3721 49.7418,1.4171 50.1928,1.4621 C49.9418,1.4611 49.6928,1.4631 49.4408,1.4611 C49.7788,1.4631 50.0568,1.4671 50.2918,1.4711 C50.5718,1.4991 50.8748,1.5241 51.1968,1.5481 C51.0968,1.5601 50.9308,1.5711 50.7568,1.5791 L51.4378,1.5671 C51.6478,1.5821 51.8608,1.5961 52.0818,1.6101 C52.1308,1.5881 52.1618,1.5691 52.5698,1.5461 L59.3168,1.4291 C59.1248,1.5561 61.1338,1.5241 63.3708,1.5771 C62.5388,1.4531 64.0758,1.4111 66.2648,1.3901 C66.7138,1.4431 68.6528,1.4071 70.5918,1.3711 C70.5858,1.3681 70.5678,1.3671 70.5608,1.3651 C71.5658,1.3581 72.5008,1.3491 73.2338,1.3331 C73.4498,1.4171 72.6148,1.5021 68.3658,1.4831 C69.1168,1.5131 69.7768,1.5241 70.3848,1.5261 C68.2628,1.5731 66.0268,1.6051 63.7818,1.5801 C65.7498,1.7311 64.7788,1.5621 67.8508,1.7401 C65.1868,1.5191 78.9138,1.7491 74.6338,1.5171 C77.7868,1.7231 80.0908,1.6041 84.2128,1.7801 C84.0848,1.7291 82.7528,1.6831 86.3828,1.7081 C86.5528,1.6991 86.9358,1.6771 87.1788,1.6641 C87.2908,1.6661 87.3298,1.6661 87.4248,1.6671 C87.3518,1.6651 87.2978,1.6641 87.2238,1.6621 C87.3818,1.6541 87.3958,1.6521 87.1498,1.6591 C86.2858,1.6371 85.5838,1.6111 85.2998,1.5831 C86.7278,1.4901 90.6458,1.4731 93.1828,1.4401 C93.9998,1.4371 94.8098,1.4331 95.6018,1.4291 C95.7598,1.4511 94.2068,1.4811 95.1018,1.5221 L98.0178,1.4321 C98.3068,1.5441 103.7408,1.6191 98.6668,1.6841 L103.2338,1.6891 C105.9228,1.7521 109.6228,1.7771 111.9028,1.7301 C114.0568,1.7541 117.3438,1.6061 115.4668,1.6941 L122.6298,1.6241 L122.6968,1.6521 C129.7638,1.6671 137.2458,1.4661 145.3258,1.6681 C146.5458,1.6541 147.7918,1.6381 149.2498,1.6301 C149.2928,1.6501 149.4428,1.6751 149.7228,1.7101 C152.9778,1.7511 152.4008,1.6671 152.9738,1.6301 C153.3528,1.6321 153.7358,1.6341 154.1438,1.6371 L154.9198,1.7351 C157.8618,1.7021 163.6338,1.8221 165.2298,1.7411 L165.5938,1.7431 C169.0978,1.9851 180.3218,1.7891 185.6048,1.8341 L185.8078,1.7081 C189.5058,1.7141 193.0518,1.6781 197.6428,1.6271 L197.4078,1.5341 C199.0528,1.5871 201.2048,1.7091 201.4288,1.6281 C200.9668,1.5941 200.5958,1.5441 200.2668,1.4901 C204.0498,1.4921 208.9018,1.5921 213.7958,1.5841 C213.3708,1.6261 211.7828,1.6161 210.6598,1.5891 C218.1378,1.8421 226.4388,1.4061 233.2218,1.5891 C234.9118,1.5491 236.1358,1.5631 237.3208,1.5911 C237.1638,1.5931 237.0238,1.5951 236.9018,1.5971 C237.0758,1.5971 237.3328,1.5981 237.5958,1.5981 C238.3418,1.6181 239.1118,1.6371 239.9438,1.6581 C239.2328,1.6361 238.5558,1.6161 237.9678,1.5981 C239.2708,1.5861 241.2478,1.5701 243.1868,1.5531 L244.0128,1.6741 C244.1698,1.6721 244.2958,1.6711 244.4598,1.6701 C246.3628,1.7151 245.9898,1.6141 244.9748,1.5231 C245.9478,1.4961 246.8388,1.4701 247.5388,1.4511 C249.0838,1.6451 252.6228,1.3851 254.7308,1.5921 C255.7528,1.5131 261.1368,1.5111 263.9248,1.4121 C264.2688,1.4131 264.7378,1.4131 265.3688,1.4121 C265.5338,1.3951 266.2748,1.3791 266.8788,1.3641 C268.4308,1.3761 269.9518,1.3781 271.3548,1.3341 L272.2718,1.4881 L276.1648,1.3181 L276.1618,1.3221 L277.2098,1.2901 C279.9108,1.3781 280.9668,1.4321 278.1978,1.5471 C285.0688,1.3661 283.7728,1.4791 289.6168,1.2991 L289.3318,1.3981 C291.4198,1.3951 294.7588,1.2621 296.0188,1.3441 C300.6918,1.5321 319.1398,1.3701 331.1338,1.5441 C328.8068,1.2531 336.7088,1.6751 337.1838,1.4501 C337.8828,1.5181 339.5538,1.5571 337.6118,1.6171 C343.7338,1.5491 346.8088,1.7261 351.0348,1.5361 C351.7358,1.6051 349.7248,1.6371 350.3488,1.6781 C350.8388,1.6631 352.2918,1.6181 352.9298,1.6591 C353.5538,1.7001 352.0338,1.7171 351.0648,1.7471 C357.3178,1.7361 357.9508,1.5231 358.4048,1.3241 C361.5738,1.4181 363.1548,1.4051 365.4428,1.2741 C366.5458,1.3391 368.3858,1.4081 364.5008,1.4311 C366.6868,1.4401 377.8538,1.5271 378.0768,1.3671 C378.7608,1.4071 381.1308,1.3781 381.7078,1.3601 C386.5908,1.3641 387.0208,1.3651 391.8168,1.3691 L390.5238,1.3421 C390.8618,1.3081 391.2058,1.2851 391.5648,1.2691 C391.8618,1.2611 392.1668,1.2521 392.4918,1.2441 C392.4838,2.6331 392.4738,4.3331 392.4588,6.7451 L392.4398,6.6341 C392.2998,15.5371 392.5058,10.4771 392.3468,19.2601 L392.4668,18.7831 C392.7248,19.6021 392.3158,26.5641 392.4138,31.6621 L392.4818,29.8221 C392.5708,32.6061 392.1318,37.6031 392.0988,40.3991 C392.0778,41.0081 392.0638,39.4371 392.0468,38.5861 C391.8948,45.9061 392.2048,39.5351 392.2408,44.9891 C392.1558,45.9961 392.0248,43.6931 392.0088,47.3641 C391.9408,49.1931 392.2848,58.0121 392.1218,63.0211 C392.1868,61.9181 392.2518,60.8221 392.3008,63.3551 C392.3248,67.2391 392.0538,73.8541 392.2598,77.3611 C392.2428,77.8541 392.2258,78.0411 392.2088,78.0611 C392.2198,78.7271 392.2338,79.6111 392.2498,80.5841 C390.8048,80.6041 389.1828,80.6271 387.7708,80.6471 Z M206.7648,81.4141 C206.8908,81.4121 207.0158,81.4091 207.1408,81.4071 C207.2228,81.4081 207.3058,81.4091 207.3878,81.4091 L206.7648,81.4141 Z M199.8338,81.5381 L199.4208,81.5151 C200.0028,81.5191 200.6088,81.5221 201.2718,81.5221 C200.5668,81.5301 200.4818,81.5311 199.8338,81.5381 Z M193.0458,81.5181 L192.0248,81.4871 C194.3308,81.4521 193.6848,81.4841 193.0458,81.5181 Z M200.3548,80.5521 L201.3758,80.5841 C199.0708,80.6191 199.7158,80.5871 200.3548,80.5521 Z M193.9798,80.5561 C193.3978,80.5511 192.7918,80.5481 192.1288,80.5491 C192.8338,80.5421 192.9188,80.5401 193.5678,80.5331 L193.9798,80.5561 Z M186.0128,80.6621 L186.6358,80.6581 C186.5098,80.6591 186.3848,80.6621 186.2598,80.6641 C186.1778,80.6631 186.0948,80.6631 186.0128,80.6621 Z M1.2338,80.5021 C1.2498,80.3271 1.2668,80.3081 1.2828,80.4531 C1.2888,80.4531 1.3048,80.4511 1.3138,80.4511 C1.3138,80.4721 1.3148,80.4901 1.3158,80.5101 C1.2868,80.5071 1.2598,80.5041 1.2338,80.5021 Z M1.2478,51.5571 C1.2728,52.6901 1.3508,54.9481 1.2798,55.7771 C1.1418,54.4861 1.2088,53.4881 1.2478,51.5571 Z M9.9498,1.5091 L7.6658,1.4941 C8.3478,1.4861 9.0148,1.4711 9.6438,1.4461 C10.1698,1.4651 10.1318,1.4871 9.9498,1.5091 Z M25.1988,1.2571 C25.1658,1.2571 25.1378,1.2561 25.1068,1.2561 C25.1328,1.2551 25.1558,1.2531 25.1838,1.2511 L25.1988,1.2571 Z M39.0558,1.2921 C38.2138,1.3321 36.9118,1.3121 35.4418,1.2661 C36.5078,1.2561 37.7158,1.2611 39.0558,1.2921 Z M61.4128,1.4251 C59.7418,1.3171 57.1378,1.3811 54.1838,1.4281 C52.4098,1.3901 49.9018,1.3431 50.1768,1.2921 C50.6828,1.2751 51.1978,1.2591 51.7268,1.2441 C55.3728,1.2121 54.7918,1.2911 56.8738,1.3391 C55.3028,1.2371 60.3328,1.1811 61.5348,1.0611 C61.7018,1.0601 61.8608,1.0581 62.0308,1.0571 C59.7338,1.1871 61.5368,1.2701 61.4128,1.4251 Z M115.7548,0.8221 C115.7878,0.8231 115.8178,0.8241 115.8468,0.8251 C115.6098,0.8771 115.7338,0.9481 115.9208,1.0241 C114.9638,1.0151 113.8298,1.0101 112.5728,1.0071 L115.7548,0.8221 Z M119.5928,1.2671 C119.2208,1.2731 118.8728,1.2801 118.5448,1.2871 C118.6038,1.2651 118.7808,1.2491 119.1328,1.2451 C119.2988,1.2531 119.4428,1.2601 119.5928,1.2671 Z M173.0108,0.7331 C172.3468,0.7261 171.5448,0.7201 170.4778,0.7211 C171.0498,0.7051 171.6258,0.6911 172.2098,0.6801 L173.0108,0.7331 Z M178.3338,0.6791 C178.1358,0.6811 177.9328,0.6821 177.7298,0.6831 L178.4798,0.6691 C178.4358,0.6721 178.3798,0.6751 178.3338,0.6791 Z M266.4208,0.7141 C265.8458,0.7921 264.7008,0.8651 263.3458,0.8601 C263.5018,0.8441 263.5088,0.7991 263.5088,0.7491 C264.0518,0.7401 264.6048,0.7311 265.1748,0.7231 C265.6598,0.7181 266.0588,0.7161 266.4208,0.7141 Z M286.6418,0.4531 C286.5928,0.4551 286.5598,0.4571 286.5208,0.4591 C283.9938,0.4121 284.8898,0.4301 286.6418,0.4531 Z M314.8678,0.6731 L315.1158,0.7141 C313.0128,0.7391 310.1088,0.7141 309.3918,0.6731 C311.0818,0.6541 312.8898,0.6481 314.8678,0.6731 Z M320.3548,0.6111 C319.6818,0.6431 319.0328,0.6791 318.3408,0.7081 L317.5138,0.6821 C318.4108,0.6631 319.3628,0.6371 320.3548,0.6111 Z M315.3048,0.7461 C315.0088,0.7411 314.7028,0.7331 314.3758,0.7221 C314.6788,0.7211 314.9308,0.7221 315.1608,0.7221 L315.3048,0.7461 Z M277.6458,1.2491 C277.6138,1.2481 277.5828,1.2471 277.5538,1.2461 C277.7918,1.1941 277.6668,1.1241 277.4798,1.0471 C278.4368,1.0551 279.5718,1.0601 280.8288,1.0641 L277.6458,1.2491 Z M274.2678,0.8261 C274.1018,0.8181 273.9578,0.8111 273.8078,0.8031 C274.1798,0.7971 274.5288,0.7921 274.8558,0.7841 C274.7968,0.8061 274.6208,0.8221 274.2678,0.8261 Z M282.2078,0.8531 L284.6278,0.5881 C285.1708,0.5941 285.7558,0.6021 286.4018,0.6131 C286.9258,0.6331 287.2818,0.6531 287.5348,0.6731 L282.4988,0.9661 C280.5828,0.9391 278.9838,0.8941 277.1738,0.8971 L281.0038,0.9601 C280.1508,0.9871 278.7498,1.0091 277.3998,1.0151 C277.1398,0.9141 276.8488,0.8041 277.2068,0.7141 C278.4138,0.6701 279.4208,0.6251 280.7078,0.5991 L282.2078,0.8531 Z M265.5058,1.3031 C265.5218,1.3101 265.5658,1.3161 265.6088,1.3211 C265.5178,1.3241 265.4178,1.3271 265.3138,1.3301 C265.3858,1.3211 265.4608,1.3131 265.5058,1.3031 Z M223.1948,1.3411 C222.1628,1.2271 227.0738,0.9731 230.5518,0.9261 C230.4928,0.9381 230.5198,0.9521 230.5908,0.9651 C228.4998,1.1111 225.9428,1.2581 223.1948,1.3411 Z M222.9218,1.3491 C222.3508,1.3661 221.7748,1.3801 221.1908,1.3901 L220.3898,1.3371 C221.0538,1.3451 221.8558,1.3501 222.9218,1.3491 Z M216.8578,1.3661 C216.6128,1.3581 216.2938,1.3491 215.8948,1.3381 C216.0388,1.3291 216.1738,1.3201 216.3288,1.3111 C217.5458,1.3011 218.3298,1.3101 219.1848,1.3221 L216.8578,1.3661 Z M215.0668,1.3921 C215.2648,1.3891 215.4678,1.3881 215.6708,1.3871 L214.9208,1.4021 C214.9648,1.3991 215.0208,1.3951 215.0668,1.3921 Z M174.2168,0.7491 L176.5428,0.7061 C176.7888,0.7121 177.1068,0.7211 177.5058,0.7331 C177.3628,0.7421 177.2268,0.7511 177.0728,0.7601 C175.8548,0.7701 175.0718,0.7601 174.2168,0.7491 Z M162.8488,1.1451 C162.9088,1.1321 162.8808,1.1191 162.8098,1.1061 C164.9008,0.9591 167.4588,0.8121 170.2068,0.7291 C171.2388,0.8431 166.3278,1.0971 162.8488,1.1451 Z M126.9798,1.3561 C127.5548,1.2791 128.7008,1.2061 130.0548,1.2101 C129.8988,1.2271 129.8918,1.2711 129.8918,1.3221 C129.3488,1.3321 128.7958,1.3401 128.2258,1.3481 C127.7418,1.3521 127.3418,1.3551 126.9798,1.3561 Z M128.0868,0.7421 C128.0148,0.7501 127.9398,0.7581 127.8948,0.7671 C127.8788,0.7601 127.8348,0.7551 127.7918,0.7511 C127.8828,0.7481 127.9828,0.7451 128.0868,0.7421 Z M106.8798,1.6131 C109.4078,1.6601 108.5108,1.6411 106.7588,1.6191 C106.8078,1.6161 106.8408,1.6151 106.8798,1.6131 Z M110.9028,1.1041 C112.8188,1.1321 114.4168,1.1761 116.2268,1.1731 L112.3968,1.1101 C113.2498,1.0841 114.6508,1.0621 116.0008,1.0551 C116.2608,1.1571 116.5518,1.2661 116.1948,1.3571 C114.9878,1.4011 113.9798,1.4461 112.6928,1.4711 L111.1938,1.2171 L108.7728,1.4821 C108.2298,1.4771 107.6448,1.4691 106.9998,1.4581 C106.4748,1.4381 106.1198,1.4171 105.8668,1.3971 L110.9028,1.1041 Z M84.0088,1.3971 C82.3198,1.4171 80.5108,1.4221 78.5338,1.3981 L78.2858,1.3561 C80.3878,1.3321 83.2918,1.3561 84.0088,1.3971 Z M79.0248,1.3491 C78.7218,1.3491 78.4698,1.3491 78.2408,1.3481 L78.0958,1.3251 C78.3918,1.3301 78.6988,1.3371 79.0248,1.3491 Z M75.8868,1.3881 C74.9908,1.4081 74.0388,1.4341 73.0458,1.4591 C73.7188,1.4281 74.3688,1.3911 75.0598,1.3631 L75.8868,1.3881 Z M331.9888,0.6461 C333.6598,0.7531 336.2628,0.6891 339.2168,0.6421 C340.9918,0.6811 343.4998,0.7271 343.2238,0.7801 C342.7178,0.7951 342.2038,0.8111 341.6738,0.8271 C338.0288,0.8581 338.6088,0.7801 336.5278,0.7311 C338.0978,0.8341 333.0688,0.8901 331.8668,1.0091 C331.6998,1.0101 331.5408,1.0121 331.3708,1.0141 C333.6668,0.8831 331.8648,0.8001 331.9888,0.6461 Z M357.9588,0.8041 C356.8928,0.8141 355.6848,0.8091 354.3448,0.7791 C355.1868,0.7391 356.4898,0.7581 357.9588,0.8041 Z M368.2028,0.8141 L368.2938,0.8141 C368.2678,0.8161 368.2458,0.8171 368.2168,0.8191 L368.2028,0.8141 Z M385.7338,0.5781 C385.0518,0.5841 384.3848,0.5991 383.7568,0.6251 C383.2308,0.6051 383.2688,0.5841 383.4518,0.5611 L385.7338,0.5781 Z M393.2478,51.5571 C393.2728,52.6901 393.3508,54.9481 393.2798,55.7771 C393.1418,54.4861 393.2078,53.4881 393.2478,51.5571 Z M393.1598,64.7951 L393.0778,60.5571 C393.1658,58.8311 393.2508,62.3431 393.2388,65.2711 C393.5778,61.3131 393.1528,61.7541 393.3508,53.2121 L393.3938,57.2141 C393.5868,54.6341 393.5168,51.5111 393.6368,46.9871 C393.5748,48.0601 393.3338,56.0441 393.2498,51.4451 C393.2758,50.1491 393.2878,48.4401 393.2188,45.9591 C393.3398,45.9361 393.3098,43.5131 393.3038,40.4811 L393.4628,40.6881 C393.4168,37.4111 393.3348,37.6691 393.2638,35.7411 C393.2798,32.0871 393.4038,31.3301 393.5078,30.4701 C393.5338,24.6201 393.3088,34.5101 393.2788,27.5851 C393.2938,26.3641 393.3018,25.2341 393.3028,24.1331 C393.3308,23.7371 393.3508,22.1551 393.3388,19.5211 C393.3228,20.2531 393.3078,21.0801 393.2918,21.5261 C393.2748,19.1431 393.2318,16.6761 393.1788,13.4831 C393.2198,10.9731 393.2528,12.4831 393.2878,12.9631 L393.3118,14.3841 C393.3268,14.1391 393.3318,13.7631 393.2958,13.0591 C393.3048,13.1311 393.3138,13.1011 393.3228,12.8571 L393.1948,9.8381 C393.1988,9.0991 393.2378,9.3371 393.2568,9.4591 C393.2078,6.9161 393.0968,9.2501 393.0538,5.2511 C393.0148,5.0141 393.0058,4.4871 393.0128,3.7551 C393.0218,3.2741 393.0328,2.7071 393.0428,2.0871 C393.0518,2.0761 393.0608,2.0581 393.0698,2.0521 C393.1028,2.0321 393.1388,2.2011 393.1838,3.6591 C393.1628,2.7831 393.1318,1.5401 393.1108,0.6261 C392.7518,0.6331 392.4318,0.6421 392.1788,0.6501 C390.9448,0.6271 389.6068,0.6031 388.2588,0.5791 C387.6528,0.5721 387.0468,0.5711 386.4488,0.5731 C386.2978,0.5451 385.8998,0.5101 386.7498,0.4841 L383.5888,0.5461 C383.8378,0.5211 384.1498,0.4941 383.9728,0.4641 C377.1828,0.5961 378.1518,0.5601 372.5768,0.7371 L367.8268,0.6311 C368.8608,0.6671 369.1848,0.7051 369.0438,0.7431 L365.4818,0.7761 L367.6668,0.8471 C366.4588,0.9041 364.6538,0.9591 362.9518,1.0101 C364.1928,1.0651 365.2508,1.1121 365.9578,1.1431 L359.7238,1.2291 C358.9718,1.2031 359.5988,1.1481 360.6208,1.0821 C360.1968,1.0951 359.7928,1.1091 359.4778,1.1201 C357.2498,1.0601 358.4048,0.9681 360.0018,0.8781 C360.7598,0.9121 361.5138,0.9451 362.2478,0.9771 C363.7868,0.8801 365.2268,0.7731 364.9068,0.6791 C364.5008,0.6981 363.7208,0.7131 362.8628,0.7221 C363.2658,0.6961 363.5228,0.6721 363.3358,0.6571 C363.1248,0.6391 362.4748,0.6751 361.4558,0.7151 L360.0388,0.5381 L359.6948,0.6081 L358.6308,0.5941 C358.6648,0.5931 358.6918,0.5921 358.7258,0.5911 C358.6578,0.5921 358.5988,0.5921 358.5338,0.5921 L356.5308,0.5651 C357.2518,0.5391 358.2558,0.5011 355.7898,0.4701 C357.1168,0.4601 358.3078,0.4511 359.4338,0.4421 C358.2198,0.4251 357.0478,0.4091 355.9448,0.3931 C356.0048,0.3961 356.0478,0.3981 356.0988,0.4001 L356.1298,0.3991 L356.1248,0.4011 C356.4158,0.4151 356.5108,0.4221 356.1828,0.4151 C356.1598,0.4161 356.0788,0.4171 356.0418,0.4171 C355.9968,0.4321 355.8718,0.4451 355.7378,0.4581 C353.7838,0.4351 355.4298,0.4301 356.0418,0.4171 C356.0648,0.4121 356.1178,0.4071 356.1248,0.4011 L356.0988,0.4001 L349.3408,0.4591 L355.7378,0.4591 C355.4288,0.4881 354.9418,0.5131 354.4448,0.5371 L351.5408,0.4971 C349.1198,0.5711 346.8258,0.6611 344.3138,0.7441 C344.0398,0.6991 343.6598,0.6531 343.2078,0.6091 C343.4588,0.6091 343.7078,0.6071 343.9598,0.6091 C343.6228,0.6071 343.3438,0.6031 343.1098,0.5991 C342.8298,0.5731 342.5268,0.5461 342.2048,0.5221 C342.3038,0.5101 342.4698,0.5001 342.6438,0.4931 L341.9628,0.5041 C341.7528,0.4891 341.5408,0.4741 341.3198,0.4601 C341.2698,0.4821 341.2408,0.5021 340.8318,0.5241 L334.0838,0.6411 C334.2768,0.5151 332.2668,0.5461 330.0308,0.4951 C330.8628,0.6181 329.3258,0.6601 327.1348,0.6801 C326.6858,0.6281 324.7478,0.6651 322.8088,0.7011 C322.8138,0.7031 322.8328,0.7041 322.8398,0.7061 C321.8348,0.7121 320.8998,0.7211 320.1668,0.7381 C319.9518,0.6541 320.7868,0.5681 325.0358,0.5881 C324.2848,0.5581 323.6248,0.5461 323.0158,0.5451 C325.1378,0.4981 327.3748,0.4651 329.6198,0.4911 C327.6518,0.3391 328.6228,0.5081 325.5498,0.3321 C328.2138,0.5511 314.4878,0.3221 318.7668,0.5531 C315.6148,0.3481 313.3098,0.4661 309.1878,0.2911 C309.3158,0.3411 310.6478,0.3871 307.0178,0.3631 C306.8478,0.3731 306.4648,0.3941 306.2218,0.4081 C306.1108,0.4061 306.0718,0.4051 305.9758,0.4041 C306.0488,0.4061 306.1028,0.4081 306.1768,0.4101 C306.0188,0.4171 306.0048,0.4181 306.2508,0.4121 C307.1158,0.4341 307.8168,0.4601 308.1008,0.4891 C306.6718,0.5811 302.7548,0.5971 300.2178,0.6301 C299.4008,0.6331 298.5908,0.6371 297.7988,0.6421 C297.6408,0.6201 299.1948,0.5901 298.2988,0.5491 L295.3828,0.6391 C295.0938,0.5271 289.6608,0.4531 294.7338,0.3861 L290.1668,0.3811 C287.4778,0.3191 283.7788,0.2931 281.4988,0.3401 C279.3438,0.3171 276.0568,0.4651 277.9338,0.3771 L270.7708,0.4471 L270.7048,0.4181 C263.6368,0.4051 256.1558,0.6051 248.0758,0.4021 C246.8548,0.4171 245.6088,0.4321 244.1518,0.4411 C244.1078,0.4201 243.9588,0.3951 243.6778,0.3601 C240.4228,0.3191 240.9998,0.4031 240.4268,0.4401 C240.0478,0.4381 239.6658,0.4361 239.2568,0.4331 L238.4808,0.3351 C235.5398,0.3691 229.7668,0.2491 228.1708,0.3311 L227.8068,0.3291 C224.3028,0.0861 213.0798,0.2821 207.7958,0.2371 L207.5928,0.3641 C203.8948,0.3561 200.3488,0.3921 195.7578,0.4431 L195.9938,0.5371 C194.3478,0.4831 192.1968,0.3611 191.9718,0.4421 C192.4338,0.4761 192.8048,0.5261 193.1338,0.5811 C189.3508,0.5801 184.4998,0.4781 179.6048,0.4871 C180.0308,0.4441 181.6188,0.4561 182.7418,0.4811 C175.2628,0.2281 166.9618,0.6661 160.1788,0.4811 C158.4898,0.5221 157.2648,0.5071 156.0798,0.4801 C156.2378,0.4771 156.3768,0.4751 156.4998,0.4741 C156.3258,0.4731 156.0688,0.4731 155.8048,0.4721 C155.0588,0.4541 154.2888,0.4341 153.4578,0.4131 C154.1678,0.4341 154.8448,0.4551 155.4328,0.4731 C154.1298,0.4841 152.1538,0.5011 150.2138,0.5171 L149.3878,0.3971 C149.2308,0.3981 149.1048,0.3991 148.9408,0.4001 C147.0388,0.3561 147.4118,0.4581 148.4258,0.5471 C147.4538,0.5751 146.5608,0.6001 145.8628,0.6211 C144.3178,0.4261 140.7788,0.6861 138.6698,0.4781 C137.6468,0.5571 132.2638,0.5601 129.4758,0.6591 C129.1318,0.6581 128.6638,0.6581 128.0328,0.6591 C127.8678,0.6751 127.1258,0.6921 126.5218,0.7071 C124.9698,0.6941 123.4498,0.6931 122.0458,0.7361 L121.1288,0.5831 L117.2368,0.7521 L117.2398,0.7491 L116.1908,0.7821 C113.4908,0.6931 112.4338,0.6381 115.2038,0.5241 C108.3328,0.7051 109.6278,0.5911 103.7848,0.7711 L104.0698,0.6721 C101.9808,0.6761 98.6418,0.8091 97.3818,0.7271 C92.7088,0.5391 74.2608,0.7011 62.2668,0.5261 C64.5938,0.8181 56.6918,0.3951 56.2168,0.6221 C55.5178,0.5521 53.8468,0.5131 55.7898,0.4541 C49.6668,0.5211 46.5918,0.3441 42.3668,0.5351 C41.6658,0.4651 43.6758,0.4341 43.0518,0.3931 C42.5618,0.4081 41.1078,0.4531 40.4708,0.4121 C39.8468,0.3711 41.3668,0.3541 42.3358,0.3241 C36.0838,0.3351 35.4508,0.5471 34.9968,0.7471 C31.8278,0.6531 30.2468,0.6661 27.9588,0.7961 C26.8548,0.7321 25.0148,0.6641 28.8998,0.6401 C26.7138,0.6301 15.5468,0.5441 15.3248,0.7041 C14.6398,0.6641 12.2698,0.6921 11.6938,0.7101 C6.7688,0.7071 6.3348,0.7061 1.4998,0.7021 L2.8768,0.7281 C2.5398,0.7621 2.1958,0.7861 1.8358,0.8011 C1.4058,0.8091 0.9638,0.8181 0.4918,0.8271 C0.4838,2.3221 0.4738,4.1491 0.4588,6.7451 L0.4398,6.6341 C0.2998,15.5371 0.5058,10.4771 0.3468,19.2601 L0.4668,18.7831 C0.7248,19.6021 0.3158,26.5641 0.4138,31.6621 L0.4818,29.8221 C0.5708,32.6061 0.1318,37.6031 0.0988,40.3991 C0.0778,41.0081 0.0638,39.4371 0.0468,38.5861 C-0.1052,45.9061 0.2048,39.5351 0.2408,44.9891 C0.1558,45.9961 0.0248,43.6931 0.0088,47.3641 C-0.0592,49.1931 0.2848,58.0121 0.1218,63.0211 C0.1868,61.9181 0.2518,60.8221 0.3008,63.3551 C0.3248,67.2391 0.0538,73.8541 0.2598,77.3611 C0.2428,77.8541 0.2258,78.0411 0.2088,78.0611 C0.2198,78.9641 0.2338,80.1651 0.2498,81.4871 C1.9848,81.4661 3.9328,81.4441 5.6298,81.4231 C7.1828,81.3991 8.5028,81.3681 9.1618,81.3271 C10.7078,81.5601 16.3708,81.4661 21.0078,81.4091 C23.0118,81.4491 25.1378,81.4771 27.2998,81.4381 C27.4608,81.4571 27.5538,81.4791 27.5498,81.5071 L36.6808,81.4871 L36.4418,81.5261 C40.5658,81.5431 42.8028,81.5031 44.4868,81.4461 C50.4708,81.4691 55.2918,81.5351 63.9368,81.5841 L63.0428,81.4651 C65.6358,81.4811 66.1828,81.5181 67.3968,81.5471 C70.3728,81.3681 60.1138,81.5381 62.8248,81.3391 C63.0148,81.3531 63.2458,81.3651 63.5008,81.3751 L63.9158,81.4441 C64.3568,81.4271 65.2498,81.4291 66.4418,81.4391 C66.7328,81.4421 67.0358,81.4451 67.3448,81.4471 C70.8978,81.4831 76.4478,81.5641 81.7078,81.5281 C82.4958,81.5481 83.0998,81.5781 83.4358,81.6171 C85.6598,81.6181 85.0418,81.5751 84.7498,81.5381 C85.4378,81.5301 86.1388,81.5251 86.8558,81.5241 L87.3118,81.5551 L87.6668,81.5221 C88.8998,81.5211 90.1578,81.5271 91.4218,81.5371 C91.9918,81.5671 92.3078,81.6021 92.3528,81.6311 C91.7178,81.6371 90.5478,81.6481 89.8688,81.6541 C93.0228,81.7351 98.5768,81.6401 100.2758,81.6491 L96.7628,81.6071 C97.1648,81.6051 97.5758,81.6031 97.9818,81.6001 C101.8828,81.6411 105.3808,81.6651 107.6868,81.5791 C115.8058,81.5751 124.2808,81.5871 131.4608,81.4851 L130.9768,81.4511 C138.7558,81.4721 146.4308,81.4941 153.9828,81.5151 C154.3028,81.5351 154.2768,81.5561 153.3988,81.5781 C155.1538,81.5551 156.3708,81.5391 157.2508,81.5241 C162.6428,81.5391 167.9918,81.5541 173.2408,81.5691 L172.7158,81.5121 C174.0158,81.5271 175.2188,81.5311 176.3268,81.5271 C175.9288,81.5311 175.4438,81.5331 174.8338,81.5321 C175.8038,81.5841 177.3488,81.5621 178.6648,81.5221 C178.8658,81.5161 179.0578,81.5091 179.2458,81.5031 C180.8488,81.4831 182.2548,81.4591 183.5388,81.4521 C185.0368,81.5261 178.7108,81.6201 180.5138,81.6231 L183.5188,81.6091 L182.8408,81.5871 C184.2458,81.5441 184.9158,81.5011 186.0758,81.4721 C186.7468,81.4891 187.3988,81.5161 188.0418,81.5621 C188.9488,81.5061 189.0988,81.4691 188.8048,81.4431 C189.1488,81.4421 189.5118,81.4421 189.9228,81.4431 C192.7258,81.4801 191.3608,81.5561 192.4628,81.5631 C192.4598,81.5691 192.5518,81.5741 192.8098,81.5761 C193.0678,81.5741 193.4928,81.5721 194.1558,81.5681 L200.6638,81.5841 L199.8898,81.5411 C202.6178,81.5981 205.2508,81.4521 208.6008,81.5561 C210.2328,81.4241 212.2938,81.5231 213.2088,81.4311 C216.3018,81.4351 219.4678,81.4301 222.1118,81.4281 C220.5348,81.5571 213.7908,81.4421 210.0158,81.5801 C212.0128,81.6631 217.8428,81.4361 215.7638,81.6501 C218.7528,81.3771 223.0818,81.6851 228.1108,81.4761 L227.7798,81.5951 C228.5758,81.5771 230.2238,81.5201 231.6888,81.5231 L229.0378,81.6771 C233.1088,81.5461 236.8868,81.7921 240.7918,81.7201 C232.6148,81.7241 238.9578,81.5781 235.4998,81.4911 C245.4368,81.3341 241.4338,81.7881 252.1128,81.7471 C250.3498,81.7461 247.0688,81.6681 249.2438,81.6191 C251.3928,81.6431 254.2318,81.6881 255.5508,81.7511 C263.0328,81.7261 254.4018,81.6281 257.5868,81.5551 C259.9488,81.6891 261.1108,81.5261 263.8778,81.4641 C264.0008,81.4771 264.2138,81.4901 264.5498,81.5021 L264.5638,81.5711 C269.0878,81.6121 269.4468,81.5391 269.9348,81.4751 C271.0318,81.4721 272.1488,81.4721 273.2868,81.4761 L271.2548,81.5811 L275.2568,81.5381 L274.4308,81.6741 C278.7848,81.5731 280.1398,81.5991 284.4058,81.6371 C284.0538,81.6071 284.0288,81.5711 284.2998,81.5371 C286.8038,81.5511 289.3488,81.5601 291.9188,81.5561 C290.8828,81.6171 289.6628,81.6611 287.7878,81.5711 C287.5488,81.6111 286.5958,81.6471 286.3498,81.6861 C289.1238,81.7681 293.3198,81.7051 295.2578,81.7041 C294.5128,81.6941 293.6248,81.6811 293.1628,81.6751 L298.9768,81.5501 L300.1538,81.5971 C300.7158,81.5911 301.1118,81.5701 301.4678,81.5441 C301.5858,81.5741 300.9048,81.6001 300.2138,81.6261 C301.7848,81.6001 302.8778,81.5841 305.1848,81.5461 C304.5858,81.6451 304.7298,81.7461 301.4578,81.7921 L308.8518,81.6831 C309.3448,81.7261 312.6458,81.8001 311.6858,81.8361 C315.7848,81.8941 321.7398,81.6461 327.1738,81.7221 C327.4568,81.7041 328.0228,81.6851 329.1778,81.6711 C334.2848,81.6931 338.8088,81.8131 344.8628,81.6791 L348.2958,81.8551 C353.0378,81.8151 343.6478,81.6331 351.5418,81.5671 C357.1288,81.5111 353.6268,81.7171 355.5868,81.7661 C358.3668,81.6771 363.1988,81.4971 368.3328,81.6401 C366.6328,81.6731 365.2998,81.6471 363.7128,81.6611 L367.6248,81.7571 C362.9038,81.9181 359.4868,81.8631 363.1598,82.0001 C363.7128,81.6611 378.3668,81.9651 378.9108,81.6261 L381.4898,81.6971 C380.7498,81.7041 380.6318,81.7051 379.9018,81.7101 C382.4168,81.7931 383.3468,81.7301 384.4638,81.6541 L387.2078,81.7011 L385.1868,81.6151 L384.9448,81.6231 C385.9738,81.5561 387.3168,81.4931 390.0898,81.5131 C390.1798,81.5151 390.2658,81.5161 390.3538,81.5181 L390.8218,81.6211 L391.8108,81.5431 C392.4318,81.5541 392.9328,81.5631 393.2338,81.5691 C393.2498,81.0361 393.2668,80.9531 393.2828,81.6181 C393.1788,81.6201 392.9978,81.6241 392.7738,81.6291 L393.2888,81.6241 L393.2098,76.3391 C393.2158,75.1251 393.2568,75.1801 393.2668,76.0671 L393.2428,69.0361 L393.2518,69.0921 C393.2128,67.9911 393.1248,65.5221 393.0818,64.3181 C393.1298,62.3731 393.1178,65.2931 393.1598,64.7951 Z" id="Fill-196" fill="#FFFFFF" mask="url(#mask-28)"></path>
                </g>
                <path d="M364.4222,1.543 C364.7422,1.564 364.8312,1.586 364.9062,1.608 C365.3522,1.588 365.3602,1.564 364.4222,1.543" id="Fill-199" fill="#FF5E0E"></path>
                <g id="Group-203" transform="translate(326.000000, 81.929100)">
                    <mask id="mask-30" fill="white">
                        <use xlink:href="#path-29"></use>
                    </mask>
                    <g id="Clip-202"></g>
                    <path d="M1.3519,0.7233 L1.1739,0.7223 C1.0759,0.7293 1.0239,0.7373 0.9959,0.7443 L1.3519,0.7233 Z" id="Fill-201" fill="#FF5E0E" mask="url(#mask-30)"></path>
                </g>
                <path d="M74.0384,2.6289 C74.1024,2.6529 74.5754,2.6869 74.0504,2.6969 L77.0654,2.6689 C75.4394,2.6749 74.8594,2.6489 74.0384,2.6289" id="Fill-204" fill="#FF5E0E"></path>
                <path d="M74.0501,2.6973 L73.7041,2.7003 C73.8551,2.7003 73.9621,2.6983 74.0501,2.6973" id="Fill-206" fill="#FF5E0E"></path>
                <path d="M94.8558,2.5625 C93.7398,2.5365 94.1558,2.6925 93.5238,2.6505 C92.2768,2.7805 100.9678,2.4945 94.8558,2.5625" id="Fill-208" fill="#FF5E0E"></path>
                <g id="Group-212" transform="translate(393.000000, 42.929100)">
                    <mask id="mask-32" fill="white">
                        <use xlink:href="#path-31"></use>
                    </mask>
                    <g id="Clip-211"></g>
                    <path d="M0.4837,3.3102 L0.5747,0.8652 L0.5357,0.6262 C0.4937,1.1112 0.4897,1.8432 0.4837,3.3102" id="Fill-210" fill="#FF5E0E" mask="url(#mask-32)"></path>
                </g>
                <g id="Group-215" transform="translate(387.000000, 81.929100)">
                    <mask id="mask-34" fill="white">
                        <use xlink:href="#path-33"></use>
                    </mask>
                    <g id="Clip-214"></g>
                    <polygon id="Fill-213" fill="#FF5E0E" mask="url(#mask-34)" points="1.4359 0.7878 2.1659 0.7918 0.8019 0.6438"></polygon>
                </g>
                <g id="Group-218" transform="translate(352.000000, 81.929100)">
                    <mask id="mask-36" fill="white">
                        <use xlink:href="#path-35"></use>
                    </mask>
                    <g id="Clip-217"></g>
                    <path d="M0.8216,0.9753 C2.2746,0.9683 3.9836,0.9613 5.4436,0.9543 C2.2746,0.9813 0.4276,0.7913 0.8216,0.9753" id="Fill-216" fill="#FF5E0E" mask="url(#mask-36)"></path>
                </g>
            </g>
        </g>
    </g>
</svg>