<?xml version="1.0" encoding="UTF-8"?>
<svg width="267px" height="95px" viewBox="0 0 267 95" version="1.1" xmlns="http://www.w3.org/2000/svg" xmlns:xlink="http://www.w3.org/1999/xlink">
    <!-- Generator: Sketch 50.2 (55047) - http://www.bohemiancoding.com/sketch -->
    <title>Group 2</title>
    <desc>Created with Sketch.</desc>
    <defs>
        <polygon id="path-1" points="0.152454504 0.630192837 0.3185 0.630192837 0.3185 2.0363 0.152454504 2.0363"></polygon>
        <polygon id="path-3" points="0.204062763 0.755194858 0.3185 0.755194858 0.3185 4.518125 0.204062763 4.518125"></polygon>
        <polygon id="path-5" points="0.2277 0.772691476 0.3185 0.772691476 0.3185 1.87840273 0.2277 1.87840273"></polygon>
        <polygon id="path-7" points="0.2075 0.253562744 0.3185 0.253562744 0.3185 5.5812 0.2075 5.5812"></polygon>
        <polygon id="path-9" points="0.134939115 0.480375 0.3185 0.480375 0.3185 4.579125 0.134939115 4.579125"></polygon>
        <polygon id="path-11" points="0.250875 0.071 4.46080804 0.071 4.46080804 1.0709 0.250875 1.0709"></polygon>
        <polygon id="path-13" points="0.482533333 0.6295 1.8492 0.6295 1.8492 1 0.482533333 1"></polygon>
        <polygon id="path-15" points="0.12605 0.0924 0.3185 0.0924 0.3185 1.0924 0.12605 1.0924"></polygon>
        <polygon id="path-17" points="0.0436666667 0.7438 1.39063889 0.7438 1.39063889 1 0.0436666667 1"></polygon>
        <polygon id="path-19" points="0.1621869 0.641 0.6621869 0.641 0.6621869 1 0.1621869 1"></polygon>
        <polygon id="path-21" points="0.13785 0.6491 0.63785 0.6491 0.63785 1 0.13785 1"></polygon>
        <polygon id="path-23" points="0.05655 0.7448 0.55655 0.7448 0.55655 1 0.05655 1"></polygon>
        <polygon id="path-25" points="0.13345 0.067 0.3185 0.067 0.3185 1.067 0.13345 1.067"></polygon>
        <polygon id="path-27" points="0 0.237150561 265.754794 0.237150561 265.754794 95 0 95"></polygon>
        <polygon id="path-29" points="0.49795 0.7223 0.99795 0.7223 0.99795 1 0.49795 1"></polygon>
        <polygon id="path-31" points="0.24185 0.78275 0.3185 0.78275 0.3185 4.13775 0.24185 4.13775"></polygon>
        <polygon id="path-33" points="0.5346 0.6438 1.44393333 0.6438 1.44393333 1 0.5346 1"></polygon>
        <polygon id="path-35" points="0.512670031 0.894077306 3.62906667 0.894077306 3.62906667 1 0.512670031 1"></polygon>
    </defs>
    <g id="Mobille" stroke="none" stroke-width="1" fill="none" fill-rule="evenodd">
        <g id="Mobile--Homepage" transform="translate(-27.000000, -3044.000000)">
            <g id="Group-2" transform="translate(27.000000, 3044.000000)">
                <g id="Page-1">
                    <g id="Group-3" transform="translate(266.000000, 91.000000)">
                        <mask id="mask-2" fill="white">
                            <use xlink:href="#path-1"></use>
                        </mask>
                        <g id="Clip-2"></g>
                        <path d="M0.15445,0.9323 C0.14995,2.3263 0.20245,1.8263 0.21145,2.0363 C0.19995,-0.2967 0.14095,0.9913 0.15445,0.9323" id="Fill-1" fill="#FF5E0E" mask="url(#mask-2)"></path>
                    </g>
                    <g id="Group-6" transform="translate(266.000000, 27.000000)">
                        <mask id="mask-4" fill="white">
                            <use xlink:href="#path-3"></use>
                        </mask>
                        <g id="Clip-5"></g>
                        <path d="M0.2277,3.913125 C0.2282,3.333125 0.2287,2.533125 0.2297,1.175625 C0.1952,2.060625 0.1997,-1.926875 0.2187,4.518125 C0.2232,4.196875 0.2247,4.100625 0.2277,3.913125" id="Fill-4" fill="#FF5E0E" mask="url(#mask-4)"></path>
                    </g>
                    <g id="Group-9" transform="translate(266.000000, 29.000000)">
                        <mask id="mask-6" fill="white">
                            <use xlink:href="#path-5"></use>
                        </mask>
                        <g id="Clip-8"></g>
                        <path d="M0.2277,1.1305 C0.2302,3.3965 0.2567,-0.3515 0.2277,1.1305" id="Fill-7" fill="#FF5E0E" mask="url(#mask-6)"></path>
                    </g>
                    <g id="Group-12" transform="translate(266.000000, 16.000000)">
                        <mask id="mask-8" fill="white">
                            <use xlink:href="#path-7"></use>
                        </mask>
                        <g id="Clip-11"></g>
                        <path d="M0.279,2.8296 C0.262,-0.8448 0.2415,-0.0888 0.2075,2.0004 L0.239,5.5812 C0.2595,4.8336 0.264,1.6464 0.279,2.8296" id="Fill-10" fill="#FF5E0E" mask="url(#mask-8)"></path>
                    </g>
                    <g id="Group-15" transform="translate(266.000000, 16.000000)">
                        <mask id="mask-10" fill="white">
                            <use xlink:href="#path-9"></use>
                        </mask>
                        <g id="Clip-14"></g>
                        <path d="M0.1657,2.362875 C0.1392,2.026625 0.1647,2.837875 0.1832,4.579125 L0.1557,0.480375 C0.1412,1.020375 0.1127,1.077875 0.1657,2.362875" id="Fill-13" fill="#FF5E0E" mask="url(#mask-10)"></path>
                    </g>
                    <path d="M263.725658,0.064 C263.355568,0.047 263.050788,0.028 263.010434,0 C262.911673,0.038 263.543534,0.101 263.661941,0.149 L265,0.106 C264.653273,0.094 264.153094,0.078 263.725658,0.064" id="Fill-16" fill="#FF5E0E"></path>
                    <path d="M262.980119,0 L261,0.065 C262.768242,0.073 263.09236,0.042 262.980119,0" id="Fill-18" fill="#FF5E0E"></path>
                    <polygon id="Fill-20" fill="#FF5E0E" points="256 0 254 0.133 254.877214 0.088"></polygon>
                    <g id="Group-24" transform="translate(244.000000, 0.000000)">
                        <mask id="mask-12" fill="white">
                            <use xlink:href="#path-11"></use>
                        </mask>
                        <g id="Clip-23"></g>
                        <path d="M4.24275,0.2389 C5.10775,0.1659 3.05775,0.1159 3.970875,0.0709 C2.55275,0.0839 1.3415,0.1459 0.250875,0.2029 C1.409625,0.1719 2.644625,0.1789 4.24275,0.2389" id="Fill-22" fill="#FF5E0E" mask="url(#mask-12)"></path>
                    </g>
                    <path d="M243,0.082 C243.666667,0.041 244.327192,0.017 245,0 C244.285568,0.029 243.629819,0.056 243,0.082" id="Fill-25" fill="#FF5E0E"></path>
                    <path d="M258,0.108 C257.803544,0.085 257.42527,0.025 256,0 L256.99923,0.106 C257.305085,0.107 257.650231,0.107 258,0.108" id="Fill-27" fill="#FF5E0E"></path>
                    <path d="M257,0.01 L256.967708,0.006 C255.979993,0.003 255.294138,0.001 255,0 C255.253422,0.001 255.854335,0.004 257,0.01" id="Fill-29" fill="#FF5E0E"></path>
                    <path d="M258.327,0 L258,0 C258.125,0.011 258.201,0.014 258.327,0" id="Fill-31" fill="#FF5E0E"></path>
                    <path d="M246.123782,0.000187418136 C245.185655,0.0471874181 244.159482,0.0511874181 243,0.0581874181 C244.243188,0.0681874181 245.527299,0.0791874181 246.747546,0.0901874181 C246.919298,0.0571874181 247.455636,-0.00381258186 246.123782,0.000187418136" id="Fill-33" fill="#FF5E0E"></path>
                    <path d="M251.336,0 C251.232,0.002 251.098,0.005 251,0.007 C251.207,0.016 251.373,0.019 251.336,0" id="Fill-35" fill="#FF5E0E"></path>
                    <path d="M230,0 C230.102,0.006 230.191,0.012 230.295,0.019 C230.318,0.013 230.338,0.008 230.364,0.001 L230,0 Z" id="Fill-37" fill="#FF5E0E"></path>
                    <path d="M247.224313,0.039 C248.043903,0.06 248.532828,0.033 249,0 C248.387075,0.006 247.738256,0.012 247.041577,0.018 C246.973595,0.034 246.961087,0.044 247.224313,0.039" id="Fill-39" fill="#FF5E0E"></path>
                    <path d="M238,0.00797617812 C238.603296,0.0259761781 239.284783,0.0449761781 240,0.0669761781 C239.412035,0.0319761781 238.212342,-0.0200238219 238,0.00797617812" id="Fill-41" fill="#FF5E0E"></path>
                    <path d="M251.153928,0.0171425099 C251.228928,0.0161425099 251.297928,0.0141425099 251.379928,0.0131425099 C250.884928,-0.00985749012 250.946928,0.00114250988 251.153928,0.0171425099" id="Fill-43" fill="#FF5E0E"></path>
                    <path d="M251.594411,0 C250.978842,0.025 250.49022,0.046 250,0.065 C250.731337,0.053 251.410778,0.04 252,0.03 C251.853094,0.02 251.703792,0.009 251.594411,0" id="Fill-45" fill="#FF5E0E"></path>
                    <path d="M234.103999,0.146 L235,0.133 C233.978873,0.117 233.247611,0.077 231.902037,0 C230.411846,0.047 230.10249,0.084 230,0.118 L234.410211,0.131 L234.103999,0.146 Z" id="Fill-47" fill="#FF5E0E"></path>
                    <polygon id="Fill-49" fill="#FF5E0E" points="230 0 228 0.161 229.541064 0.114"></polygon>
                    <polygon id="Fill-51" fill="#FF5E0E" points="225 0 224 0.06 224.859658 0.1"></polygon>
                    <path d="M1.21939587,93.014 C1.13116057,93.02 1.05961844,93.025 1,93.029 L2,93 C1.68918919,93.005 1.43402226,93.01 1.21939587,93.014" id="Fill-53" fill="#FF5E0E"></path>
                    <path d="M1.049,80.294 L1,80 C1.027,80.555 1.047,80.782 1.049,80.294" id="Fill-55" fill="#FF5E0E"></path>
                    <path d="M104,0.164579642 C102.503941,0.0715796421 100.832753,-0.0704203579 101.013472,0.0405796421 L101.473034,0.148579642 C102.518225,0.129579642 103.319352,0.141579642 104,0.164579642" id="Fill-57" fill="#FF5E0E"></path>
                    <path d="M22,1 C21.3985414,1.021 20.7155727,1.045 20,1.07 C20.1956242,1.081 20.4015444,1.093 20.6040326,1.104 C21.1059631,1.066 21.5778636,1.031 22,1" id="Fill-59" fill="#FF5E0E"></path>
                    <path d="M17,1 L19,1.07 C18.0941732,1.038 17.4522835,1.016 17,1" id="Fill-61" fill="#FF5E0E"></path>
                    <path d="M45.0447712,93.11 L46,93 C44.5057846,93 45.1635561,93.055 45.0447712,93.11" id="Fill-63" fill="#FF5E0E"></path>
                    <path d="M174,0.065 C172.795257,0.039 171.84037,0.017 171,0 C172.448814,0.061 173.617698,0.155 174,0.065" id="Fill-65" fill="#FF5E0E"></path>
                    <path d="M0,89.0304208 C0.021,89.7236345 0.042,90.0195518 0.066,89.9990019 C0.048,89.2852384 0.026,88.8824621 0,89.0304208" id="Fill-67" fill="#FF5E0E"></path>
                    <path d="M167,0.0463374642 C167.244585,0.0553374642 167.483172,0.0633374642 167.731756,0.0713374642 C168.745418,0.0643374642 169.763079,0.0563374642 171,0.0463374642 C169.767744,-0.000662535771 168.356215,-0.0286625358 167,0.0463374642" id="Fill-69" fill="#FF5E0E"></path>
                    <path d="M205,93.0013597 C205.173,93.0053597 205.379,93.0103597 205.537,93.0143597 C205.589,92.9993597 205.351,92.9983597 205,93.0013597" id="Fill-71" fill="#FF5E0E"></path>
                    <path d="M205,0.00724438586 C206.552,0.000244385862 205.246,-0.00475561414 205,0.00724438586" id="Fill-73" fill="#FF5E0E"></path>
                    <path d="M207,0.02 C206.511166,0.01 206.191894,0.004 206,0 C206.354839,0.007 206.684036,0.013 207,0.02" id="Fill-75" fill="#FF5E0E"></path>
                    <path d="M206.774,0.013 C206.534,0.009 206.268,0.004 206,0 C206.227,0.004 206.479,0.008 206.774,0.013" id="Fill-77" fill="#FF5E0E"></path>
                    <path d="M207,0.00988457946 C207.376141,0.0138845795 207.671429,0.0178845795 207.952656,0.0208845795 C208.09116,0.00188457946 207.968826,-0.00911542054 207,0.00988457946" id="Fill-79" fill="#FF5E0E"></path>
                    <path d="M205.72043,0 C205.358821,0.001 204.847471,0.003 204,0.006 C204.706491,0.01 205.365193,0.014 206,0.018 C205.757069,0.01 205.655117,0.004 205.72043,0" id="Fill-81" fill="#FF5E0E"></path>
                    <path d="M198.32,93.004 L198,93 C198.081,93.002 198.192,93.003 198.32,93.004" id="Fill-83" fill="#FF5E0E"></path>
                    <path d="M1,88 L1.002,88.623 C1.004,88.379 1.002,88.179 1,88" id="Fill-85" fill="#FF5E0E"></path>
                    <path d="M95,93.002 C95.167,93.001 95.319,93.001 95.479,93 C95.304,93 95.139,93.001 95,93.002" id="Fill-87" fill="#FF5E0E"></path>
                    <path d="M19.7766872,1.066 C19.4566872,1.045 19.3676872,1.023 19.2926872,1 C18.8466872,1.02 18.8386872,1.044 19.7766872,1.066" id="Fill-89" fill="#FF5E0E"></path>
                    <path d="M45,93.021 L45.178,93.022 C45.276,93.015 45.328,93.007 45.356,93 L45,93.021 Z" id="Fill-91" fill="#FF5E0E"></path>
                    <path d="M216,0.067 C215.957714,0.043 215.645193,0.009 215.992071,0 L214,0.028 C215.074331,0.021 215.457549,0.047 216,0.067" id="Fill-93" fill="#FF5E0E"></path>
                    <path d="M216,0.004 L216.346,0 C216.195,0.001 216.088,0.002 216,0.004" id="Fill-95" fill="#FF5E0E"></path>
                    <path d="M202.20358,0.121955766 C202.81389,0.147955766 202.586391,-0.00704423405 202.932015,0.0339557659 C203.613965,-0.0950442341 198.861092,0.189955766 202.20358,0.121955766" id="Fill-97" fill="#FF5E0E"></path>
                    <path d="M1,53 L1.091,50.2671386 L1.052,50 C1.01,50.5421013 1.006,51.3602832 1,53" id="Fill-99" fill="#FF5E0E"></path>
                    <polygon id="Fill-101" fill="#FF5E0E" points="3 93 4 93.146 3.53519062 93.003"></polygon>
                    <path d="M24,93.021 C26.0337591,92.995 27.2191024,93.184 26.9662463,93 C26.0337591,93.007 24.9369796,93.015 24,93.021" id="Fill-103" fill="#FF5E0E"></path>
                    <path d="M1.0297319,31 C1.0387319,30.7429258 1.0417319,30.6671985 1.0477319,30.5177367 C1.0487319,30.0554017 1.0497319,29.4176983 1.0507319,28.3345988 C0.981731898,29.0400582 0.991731898,25.8625014 1.0297319,31" id="Fill-105" fill="#FF5E0E"></path>
                    <path d="M1,30.3236003 C1.005,32.37296 1.058,28.9832866 1,30.3236003" id="Fill-107" fill="#FF5E0E"></path>
                    <path d="M1.143,18.417617 C1.109,14.969184 1.068,15.6786918 1,17.6394108 L1.063,21 C1.104,20.2983757 1.113,17.307181 1.143,18.417617" id="Fill-109" fill="#FF5E0E"></path>
                    <path d="M1.06152177,17.3778591 C1.00852177,17.1317475 1.05952177,17.7255261 1.09652177,19 L1.04152177,16 C1.01252177,16.3952425 0.95552177,16.4373285 1.06152177,17.3778591" id="Fill-111" fill="#FF5E0E"></path>
                    <path d="M1.14934656,2.032 L1.04722925,2.038 L1,2.044 C1.02872049,2.047 1.06063215,2.05 1.09573498,2.053 C1.20231992,2.056 1.31592542,2.059 1.43080739,2.063 C1.66312427,2.07 1.90501464,2.078 2.12775802,2.085 C2.57260654,2.101 2.93959061,2.121 2.9874581,2.149 C3.10616947,2.111 2.34667199,2.049 2.204346,2 L1.50101304,2.021 L1.14934656,2.032 Z" id="Fill-113" fill="#FF5E0E"></path>
                    <path d="M2.01988071,2.06626278 L4,2.00126278 C2.23175768,1.99326278 1.90763994,2.02426278 2.01988071,2.06626278" id="Fill-115" fill="#FF5E0E"></path>
                    <polygon id="Fill-117" fill="#FF5E0E" points="10 2.133 12 2 11.122786 2.045"></polygon>
                    <path d="M17.2071843,2 C16.3853185,2.073 18.333093,2.124 17.465502,2.168 C18.8129106,2.155 19.9637602,2.093 21,2.037 C19.8990324,2.068 18.725617,2.06 17.2071843,2" id="Fill-119" fill="#FF5E0E"></path>
                    <path d="M23,2 C22.3701808,2.025 21.7144319,2.053 21,2.082 C21.6728079,2.064 22.3333333,2.041 23,2" id="Fill-121" fill="#FF5E0E"></path>
                    <path d="M8,2 C8.19645609,2.023 8.57473035,2.083 10,2.108 L9.00077042,2.002 C8.69491525,2.002 8.34976888,2.001 8,2" id="Fill-123" fill="#FF5E0E"></path>
                    <path d="M9,2 L9.03229203,2.003 C10.020007,2.006 10.7058617,2.008 11,2.009 C10.7465777,2.008 10.1456651,2.005 9,2" id="Fill-125" fill="#FF5E0E"></path>
                    <path d="M8,2.00906166 L8.327,2.00906166 C8.202,1.99906166 8.126,1.99506166 8,2.00906166" id="Fill-127" fill="#FF5E0E"></path>
                    <path d="M18.8762183,2.09 C19.8143449,2.044 20.8405177,2.04 22,2.032 C20.7568118,2.022 19.4727006,2.011 18.252454,2 C18.0807018,2.034 17.5443638,2.094 18.8762183,2.09" id="Fill-129" fill="#FF5E0E"></path>
                    <path d="M14.0051877,2.01390436 C14.1091877,2.01190436 14.2431877,2.00890436 14.3411877,2.00790436 C14.1341877,1.99790436 13.9681877,1.99490436 14.0051877,2.01390436" id="Fill-131" fill="#FF5E0E"></path>
                    <path d="M35.364,2.02 C35.262,2.013 35.173,2.007 35.069,2 C35.046,2.006 35.026,2.012 35,2.019 L35.364,2.02 Z" id="Fill-133" fill="#FF5E0E"></path>
                    <path d="M17.7756873,1.0075625 C16.9560975,0.9865625 16.4666278,1.0125625 16,1.0455625 C16.6129248,1.0395625 17.2617441,1.0335625 17.9584226,1.0275625 C18.0264045,1.0125625 18.0389132,1.0015625 17.7756873,1.0075625" id="Fill-135" fill="#FF5E0E"></path>
                    <path d="M27,2.06 C26.3967037,2.041 25.7152166,2.022 25,2 C25.5879647,2.035 26.7876581,2.087 27,2.06" id="Fill-137" fill="#FF5E0E"></path>
                    <path d="M15.226,2 C15.151,2.002 15.082,2.003 15,2.005 C15.495,2.027 15.433,2.017 15.226,2" id="Fill-139" fill="#FF5E0E"></path>
                    <path d="M14.4055888,2.065 C15.0211577,2.04 15.5097804,2.02 16,2 C15.2686627,2.012 14.5892216,2.025 14,2.036 C14.1469062,2.046 14.2962076,2.057 14.4055888,2.065" id="Fill-141" fill="#FF5E0E"></path>
                    <path d="M35,2.028 L30.58916,2.014 L30.896001,2 L30,2.011 C31.0211268,2.029 31.7523893,2.068 33.0979628,2.146 C34.5881539,2.097 34.8975101,2.061 35,2.028" id="Fill-143" fill="#FF5E0E"></path>
                    <polygon id="Fill-145" fill="#FF5E0E" points="36 2.16 38 2 36.4589357 2.047"></polygon>
                    <polygon id="Fill-147" fill="#FF5E0E" points="41 2.099 42 2.039 41.1403418 2"></polygon>
                    <g id="Group-151" transform="translate(264.000000, 94.000000)">
                        <mask id="mask-14" fill="white">
                            <use xlink:href="#path-13"></use>
                        </mask>
                        <g id="Clip-150"></g>
                        <path d="M1.8492,0.6295 L0.482533333,0.6565 C1.12853333,0.6445 1.54386667,0.6355 1.8492,0.6295" id="Fill-149" fill="#FF5E0E" mask="url(#mask-14)"></path>
                    </g>
                    <g id="Group-154" transform="translate(266.000000, 80.000000)">
                        <mask id="mask-16" fill="white">
                            <use xlink:href="#path-15"></use>
                        </mask>
                        <g id="Clip-153"></g>
                        <path d="M0.15055,0.3864 L0.12605,0.0924 C0.13955,0.6474 0.14955,0.8744 0.15055,0.3864" id="Fill-152" fill="#FF5E0E" mask="url(#mask-16)"></path>
                    </g>
                    <path d="M164.986528,2.125 L164.527588,2.017 C163.481775,2.036 162.680648,2.023 162,2 C163.496059,2.093 165.167247,2.236 164.986528,2.125" id="Fill-155" fill="#FF5E0E"></path>
                    <path d="M246,1.033 C245.803518,1.022 245.598456,1.012 245.395967,1 C244.894037,1.038 244.422136,1.073 244,1.104 C244.601459,1.083 245.283569,1.058 246,1.033" id="Fill-157" fill="#FF5E0E"></path>
                    <path d="M248.91,1.02 L248,1 C248.341,1.007 248.653,1.014 248.91,1.02" id="Fill-159" fill="#FF5E0E"></path>
                    <path d="M248.827,1.019 C248.576,1.013 248.301,1.007 248,1 L248.827,1.019 Z" id="Fill-161" fill="#FF5E0E"></path>
                    <path d="M248,0.031 L247,0 C247.376479,0.011 247.700765,0.021 248,0.031" id="Fill-163" fill="#FF5E0E"></path>
                    <g id="Group-167" transform="translate(220.000000, 94.000000)">
                        <mask id="mask-18" fill="white">
                            <use xlink:href="#path-17"></use>
                        </mask>
                        <g id="Clip-166"></g>
                        <path d="M1.33033333,0.7438 L0.0436666667,0.8538 C2.05633333,0.8538 1.17033333,0.7988 1.33033333,0.7438" id="Fill-165" fill="#FF5E0E" mask="url(#mask-18)"></path>
                    </g>
                    <path d="M92,2.03781038 C93.2047426,2.06381038 94.1596298,2.08481038 95,2.10281038 C93.5511857,2.04081038 92.3823019,1.94681038 92,2.03781038" id="Fill-168" fill="#FF5E0E"></path>
                    <path d="M265,89.0304208 C265.021,89.7236345 265.042,90.0195518 265.066,89.9990019 C265.048,89.2852384 265.026,88.8824621 265,89.0304208" id="Fill-170" fill="#FF5E0E"></path>
                    <path d="M99,2.025 C98.7554149,2.017 98.5168277,2.008 98.2682439,2 C97.2545818,2.007 96.236921,2.016 95,2.026 C96.2322559,2.072 97.6437854,2.101 99,2.025" id="Fill-172" fill="#FF5E0E"></path>
                    <g id="Group-176" transform="translate(60.000000, 94.000000)">
                        <mask id="mask-20" fill="white">
                            <use xlink:href="#path-19"></use>
                        </mask>
                        <g id="Clip-175"></g>
                        <path d="M0.43425,0.654 C0.34775,0.65 0.24475,0.645 0.16575,0.641 C0.13975,0.656 0.25875,0.657 0.43425,0.654" id="Fill-174" fill="#FF5E0E" mask="url(#mask-20)"></path>
                    </g>
                    <path d="M60.7477699,2 C59.1957699,2.007 60.5017699,2.012 60.7477699,2" id="Fill-177" fill="#FF5E0E"></path>
                    <path d="M60,2 C60.146,2.002 60.272,2.004 60.366,2.006 C60.238,2.004 60.123,2.002 60,2" id="Fill-179" fill="#FF5E0E"></path>
                    <path d="M59,2 C59.296846,2.008 59.6382189,2.017 60,2.026 C59.7804576,2.021 59.4638219,2.012 59,2" id="Fill-181" fill="#FF5E0E"></path>
                    <path d="M59,2.011 C58.6238591,2.007 58.3285709,2.004 58.0473441,2 C57.9088399,2.019 58.0311736,2.031 59,2.011" id="Fill-183" fill="#FF5E0E"></path>
                    <path d="M60.2795699,2.017 C60.6411788,2.016 61.1525289,2.014 62,2.011 C61.2935086,2.007 60.6348068,2.003 60,2 C60.2429311,2.007 60.3448825,2.013 60.2795699,2.017" id="Fill-185" fill="#FF5E0E"></path>
                    <g id="Group-189" transform="translate(67.000000, 94.000000)">
                        <mask id="mask-22" fill="white">
                            <use xlink:href="#path-21"></use>
                        </mask>
                        <g id="Clip-188"></g>
                        <path d="M0.13785,0.6491 L0.29785,0.6531 C0.25735,0.6511 0.20185,0.6501 0.13785,0.6491" id="Fill-187" fill="#FF5E0E" mask="url(#mask-22)"></path>
                    </g>
                    <g id="Group-192" transform="translate(170.000000, 94.000000)">
                        <mask id="mask-24" fill="white">
                            <use xlink:href="#path-23"></use>
                        </mask>
                        <g id="Clip-191"></g>
                        <path d="M0.29605,0.7448 C0.21255,0.7458 0.13655,0.7458 0.05655,0.7468 C0.14405,0.7468 0.22655,0.7458 0.29605,0.7448" id="Fill-190" fill="#FF5E0E" mask="url(#mask-24)"></path>
                    </g>
                    <g id="Group-195" transform="translate(266.000000, 88.000000)">
                        <mask id="mask-26" fill="white">
                            <use xlink:href="#path-25"></use>
                        </mask>
                        <g id="Clip-194"></g>
                        <path d="M0.13345,0.067 L0.13445,0.69 C0.13545,0.446 0.13445,0.246 0.13345,0.067" id="Fill-193" fill="#FF5E0E" mask="url(#mask-26)"></path>
                    </g>
                    <g id="Group-198">
                        <mask id="mask-28" fill="white">
                            <use xlink:href="#path-27"></use>
                        </mask>
                        <g id="Clip-197"></g>
                        <path d="M261.794499,93.4326159 C260.746027,93.4615793 259.85486,93.4974939 259.410626,93.5449939 C258.367555,93.2738963 254.544312,93.3827988 251.413073,93.4499939 C250.060119,93.4036524 248.624799,93.3712134 247.164499,93.4152378 C247.055804,93.3955427 246.993017,93.3688963 246.995718,93.3352988 L240.831134,93.359628 L240.992489,93.3132866 C238.208266,93.2935915 236.698007,93.3399329 235.561769,93.407128 C231.521134,93.3793232 228.266347,93.3040183 222.429875,93.24725 L223.033439,93.3851159 C221.282835,93.3654207 220.91354,93.3225549 220.093936,93.2889573 C218.085434,93.4974939 225.01156,93.3005427 223.181291,93.5299329 C223.052342,93.5137134 222.897063,93.5009695 222.72423,93.4893841 L222.444728,93.4082866 C222.146322,93.4279817 221.543434,93.4256646 220.738682,93.4140793 C220.54222,93.4106037 220.338332,93.4082866 220.129043,93.4059695 C217.730317,93.3631037 213.984038,93.2692622 210.43287,93.312128 C209.90087,93.2877988 209.492418,93.2542012 209.265576,93.2090183 C207.764769,93.2078598 208.181322,93.2576768 208.379134,93.3005427 C207.913972,93.309811 207.440708,93.3144451 206.956642,93.3167622 L206.648784,93.279689 L206.409114,93.3179207 C205.576682,93.3190793 204.728048,93.312128 203.874012,93.3028598 C203.489865,93.2657866 203.27585,93.2252378 203.245469,93.1916402 C203.674175,93.184689 204.464073,93.1719451 204.923159,93.1661524 C202.793134,93.0711524 199.044154,93.1812134 197.896439,93.1707866 L200.268159,93.2194451 C199.998109,93.2229207 199.721307,93.2240793 199.44653,93.2275549 C196.812185,93.1800549 194.450591,93.1534085 192.893073,93.2530427 C187.411718,93.2576768 181.690692,93.2426159 176.842606,93.3619451 L177.169368,93.4013354 C171.917555,93.3758476 166.735956,93.3515183 161.637398,93.3260305 C161.421357,93.3040183 161.439586,93.2785305 162.031672,93.2542012 C160.847499,93.279689 160.02587,93.2993841 159.431083,93.3156037 C155.790799,93.2993841 152.18022,93.2808476 148.636479,93.2634695 L148.990246,93.3295061 C148.112581,93.312128 147.300403,93.3086524 146.553038,93.312128 C146.821063,93.3086524 147.149175,93.3063354 147.560327,93.3074939 C146.905454,93.24725 145.862383,93.2715793 144.974591,93.3179207 C144.840241,93.324872 144.710616,93.3329817 144.585718,93.3399329 C143.501464,93.3631037 142.550885,93.3920671 141.684022,93.4001768 C140.672682,93.3132866 144.94286,93.2055427 143.725606,93.2020671 L141.69685,93.217128 L142.154586,93.2426159 C141.206708,93.2924329 140.754373,93.3434085 139.971225,93.3758476 C139.518215,93.357311 139.077357,93.324872 138.643251,93.2727378 C138.031586,93.3364573 137.929642,93.3793232 138.128129,93.4094451 C137.895885,93.4106037 137.650814,93.4106037 137.373337,93.4094451 C135.480956,93.3677378 136.40318,93.279689 135.658515,93.2704207 C135.66054,93.2634695 135.598428,93.2588354 135.424246,93.2565183 C135.250738,93.2588354 134.963809,93.2611524 134.5162,93.264628 L130.122474,93.24725 L130.644347,93.2970671 C128.803276,93.229872 127.024992,93.4001768 124.763317,93.2785305 C123.66151,93.4326159 122.270073,93.3167622 121.653007,93.4233476 C119.564164,93.4187134 117.426713,93.4245061 115.642352,93.4268232 C116.707027,93.277372 121.260083,93.4117622 123.808012,93.2530427 C122.459784,93.1557256 118.523794,93.4175549 119.927383,93.169628 C117.909428,93.4859085 114.987479,93.1302378 111.592266,93.3712134 L111.815733,93.2333476 C111.278332,93.2553598 110.165048,93.3202378 109.175987,93.3167622 L110.966423,93.1383476 C108.217307,93.2912744 105.666677,93.0062744 103.030307,93.0885305 C108.551494,93.0838963 104.269164,93.2542012 106.603753,93.3549939 C99.8943421,93.5357256 102.596875,93.0109085 95.3878701,93.0584085 C96.5774437,93.0595671 98.7932102,93.1487744 97.3248091,93.2078598 C95.8732863,93.1788963 93.956601,93.1256037 93.0661086,93.0537744 C88.0154843,93.0815793 93.8425046,93.1951159 91.6915503,93.279689 C90.0975756,93.1244451 89.3130782,93.3132866 87.4443269,93.3851159 C87.3612863,93.3700549 87.2174843,93.3561524 86.9906416,93.3410915 L86.9811898,93.262311 C83.9269157,93.214811 83.6852203,93.2993841 83.3550832,93.372372 C82.6151442,93.3758476 81.8603523,93.3758476 81.092733,93.3712134 L82.4639157,93.2507256 L79.7620579,93.3017012 L80.3197127,93.1418232 C77.3808853,93.2599939 76.4654132,93.2287134 73.585997,93.184689 C73.8229665,93.2194451 73.8411949,93.262311 73.6568853,93.3017012 C71.9663675,93.2843232 70.2481695,93.2750549 68.5130934,93.2785305 C69.2125249,93.2090183 70.0368548,93.1580427 71.3027178,93.262311 C71.463398,93.2159695 72.1067939,93.1731037 72.2728751,93.1279207 C70.4007482,93.0329207 67.5679157,93.1070671 66.2588447,93.1082256 C66.7618142,93.119811 67.362002,93.1337134 67.6739107,93.1406646 L63.7480477,93.2854817 L62.9540985,93.2310305 C62.574002,93.2379817 62.3073269,93.2634695 62.0663066,93.2924329 C61.9866416,93.2588354 62.4470782,93.2275549 62.9129157,93.1985915 C61.8529665,93.2275549 61.1143777,93.2484085 59.5568599,93.2901159 C59.9612609,93.1765793 59.8640426,93.0595671 62.0730579,93.0062744 L57.0811695,93.1313963 C56.748332,93.0815793 54.5197381,92.9958476 55.1678599,92.9541402 C52.4011898,92.8869451 48.3808091,93.1742622 44.7114944,93.0862134 C44.5211086,93.1093841 44.1383117,93.1290793 43.3585401,93.1464573 C39.9113421,93.119811 36.8563929,92.9807866 32.7698497,93.1360305 L30.4507888,92.932128 C27.2506873,92.9784695 33.5894538,93.1893232 28.2606772,93.2657866 C24.488068,93.3306646 26.8523624,93.0920061 25.5291137,93.0352378 C23.652936,93.1383476 20.3907228,93.3480427 16.9246213,93.1812134 C18.0716619,93.1429817 18.9716061,93.1731037 20.0430325,93.1592012 L17.401936,93.0456646 C20.5898853,92.8602988 22.8967939,92.9240183 20.4170528,92.7652988 C20.0430325,93.1592012 10.150398,92.804689 9.78312893,93.1985915 L8.04197665,93.1163354 C8.54089543,93.1082256 8.62056041,93.1070671 9.11407817,93.1001159 C7.41545888,93.0062744 6.78759086,93.0769451 6.03347411,93.1661524 L4.18160102,93.1117012 L5.54535736,93.2113354 L5.7094132,93.2032256 C5.01403249,93.2785305 4.10733706,93.3526768 2.23521015,93.3283476 C2.1737736,93.3260305 2.11908832,93.324872 2.05900203,93.3237134 L1.74169239,93.2043841 L1.07264162,93.2935915 C1.02673299,93.2901159 0.986225381,93.2866402 0.95584467,93.2831646 C0.955169543,93.2530427 0.954494416,93.2229207 0.954494416,93.1951159 L0.957194924,93.1951159 L0.954494416,93.1951159 C0.929514721,91.4770061 0.867403046,92.6656646 0.883606091,92.6042622 C0.882930964,92.8579817 0.884281218,93.042189 0.886306599,93.19975 L0.870103553,93.2009085 L0.856601015,92.5220061 L0.843773604,91.1618841 L0.816768528,88.4416402 C0.820819289,87.0351768 0.848499492,87.0988963 0.855250761,88.1265183 L0.839047716,79.9808476 L0.845123858,80.0457256 C0.818793909,78.7701768 0.759382741,75.90975 0.730352284,74.514872 C0.762758376,72.2615183 0.754656853,75.6444451 0.783012183,75.0674939 L0.727651777,70.1576159 C0.787062944,68.1579817 0.844448731,72.2267622 0.836347208,75.6189573 C1.06521523,71.0334695 0.778286294,71.5443841 0.911961421,61.6481646 L0.940991878,66.284628 C1.07129137,63.2956037 1.02403249,59.6774939 1.10504772,54.4362744 C1.06318985,55.6793841 0.900484264,64.9291402 0.843773604,59.6010305 C0.861326904,58.0995671 0.869428426,56.119628 0.82284467,53.2452988 C0.904535025,53.2186524 0.884281218,50.4115183 0.880230457,46.8988354 L0.987575635,47.1386524 C0.956519797,43.342128 0.901159391,43.6410305 0.853225381,41.407372 C0.864027411,37.1740793 0.947743147,36.2970671 1.01795635,35.3007256 C1.03550964,28.5232866 0.883606091,39.9812134 0.863352284,31.9583476 C0.873479188,30.5437744 0.878880203,29.234628 0.87955533,27.9590793 C0.898458883,27.5002988 0.911961421,25.6674939 0.903859898,22.6159085 C0.893057868,23.4639573 0.882930964,24.4220671 0.872128934,24.9387744 C0.860651777,22.1779817 0.83162132,19.319872 0.795839594,15.6206646 C0.823519797,12.7127378 0.845798985,14.462128 0.869428426,15.0182256 L0.885631472,16.6645061 C0.895758376,16.3806646 0.89913401,15.9450549 0.874829442,15.1294451 C0.880905584,15.2128598 0.886981726,15.1781037 0.893057868,14.8954207 L0.806641624,11.3977988 C0.809342132,10.5416402 0.835672081,10.817372 0.848499492,10.9587134 C0.816093401,8.01255488 0.740479188,10.7165793 0.711448731,6.08359146 C0.685118782,5.80901829 0.67904264,5.19846951 0.683768528,4.35042073 C0.687819289,3.92755488 0.693220305,3.44560366 0.697946193,2.9149939 C0.701321827,2.75975 0.704022335,2.57901829 0.706722843,2.4145061 C0.712123858,2.40060366 0.716849746,2.38322561 0.722250761,2.37743293 C0.744529949,2.3542622 0.768834518,2.55005488 0.799215228,4.23920122 C0.791788832,3.80011585 0.78368731,3.2695061 0.77491066,2.73310366 C0.770859898,2.52109146 0.766809137,2.3102378 0.762083249,2.10633537 C0.758032487,1.95456707 0.753981726,1.80859146 0.749930964,1.67420122 C0.859301523,1.66377439 0.949093401,1.65218902 1.02268223,1.6417622 C1.31231168,1.65566463 1.61004264,1.67072561 1.92060102,1.68578659 C2.42559594,1.69968902 2.94814416,1.71475 3.47136751,1.72981098 C3.88116954,1.7367622 4.28962132,1.73907927 4.69402234,1.73560366 C4.79461624,1.76688415 5.06466701,1.80859146 4.49013401,1.83871341 L6.62421015,1.76572561 C6.45610355,1.79468902 6.24546396,1.82712805 6.36496142,1.86072561 C10.9490731,1.70895732 10.2955503,1.75066463 14.0593827,1.54560366 L17.2662355,1.66725 C16.5681543,1.62670122 16.3487381,1.58267683 16.443931,1.53865244 L18.848733,1.4992622 L17.3735807,1.4170061 C18.1898091,1.35212805 19.4084132,1.28725 20.5574792,1.22816463 C19.7196467,1.16444512 19.0046873,1.11115244 18.5280477,1.07407927 L22.7361137,0.974445122 C23.2438091,1.00572561 22.8205046,1.06828659 22.1312,1.14706707 C22.4174538,1.12968902 22.6895299,1.11346951 22.9021949,1.10188415 C24.4070528,1.1702378 23.6272812,1.27682317 22.5484284,1.38109146 C22.0366822,1.34285976 21.5276365,1.30462805 21.0327685,1.26639634 C19.9937482,1.37877439 19.0208904,1.50389634 19.2376061,1.61164024 C19.5110325,1.59194512 20.0376315,1.57225 20.6168904,1.56182317 C20.3448142,1.59310366 20.1713066,1.61975 20.2975553,1.63944512 C20.4400071,1.65798171 20.8788396,1.61743293 21.567469,1.56993293 L22.5241239,1.77615244 L22.7563675,1.69389634 L23.4740274,1.71127439 C23.4517482,1.71127439 23.4328447,1.71243293 23.4098904,1.71359146 C23.4564741,1.71359146 23.4956315,1.71243293 23.5401898,1.71243293 L24.892469,1.74371341 C24.4057025,1.7749939 23.7272,1.81785976 25.3927381,1.85377439 C24.4968447,1.86651829 23.6920934,1.87694512 22.9319005,1.88621341 C23.7515046,1.90706707 24.5427533,1.92560366 25.2880934,1.94298171 C25.2469107,1.94066463 25.2178802,1.93834756 25.1834487,1.93603049 L25.1625198,1.93603049 L25.1665706,1.93371341 C24.9701086,1.91865244 24.9052964,1.90938415 25.1267381,1.91865244 C25.1429411,1.91865244 25.1976264,1.91633537 25.221931,1.91633537 C25.2529868,1.89779878 25.3373777,1.88389634 25.4278447,1.86883537 C26.7470426,1.89432317 25.6351086,1.90127439 25.221931,1.91633537 C25.206403,1.92212805 25.1712964,1.92792073 25.1665706,1.93371341 L25.1834487,1.93603049 L29.7459563,1.86767683 C28.7791746,1.86767683 27.5713726,1.86767683 25.4278447,1.86883537 C25.6357838,1.83407927 25.9645706,1.80395732 26.3007838,1.77731098 L28.2613523,1.82365244 C29.8958345,1.73792073 31.4445756,1.63481098 33.1398193,1.5374939 C33.3254792,1.58962805 33.5820274,1.6417622 33.8865096,1.69389634 C33.7170528,1.6927378 33.5489462,1.69505488 33.3788142,1.6927378 C33.6070071,1.69505488 33.7946924,1.69968902 33.9533472,1.70432317 C34.1423827,1.7367622 34.3469462,1.76572561 34.5643371,1.79353049 C34.4968244,1.80743293 34.3847533,1.82017683 34.2672812,1.82944512 L34.7270426,1.81554268 C34.8688193,1.83292073 35.0126213,1.84914024 35.1618244,1.86535976 C35.1949056,1.83987195 35.2158345,1.81785976 35.4912863,1.79121341 L40.0463675,1.65566463 C39.9167431,1.80279878 41.2730731,1.76572561 42.783332,1.82712805 C42.2216264,1.68346951 43.2592964,1.63481098 44.7371492,1.61048171 C45.0402812,1.67188415 46.3493523,1.63017683 47.6584234,1.58846951 C47.6543726,1.5849939 47.6422203,1.58383537 47.6374944,1.58151829 C48.315997,1.57340854 48.9472406,1.56298171 49.4421086,1.54444512 C49.587936,1.6417622 49.0242051,1.7402378 46.1555909,1.71822561 C46.6626112,1.75298171 47.1081949,1.76572561 47.5186721,1.76804268 C46.0860528,1.8224939 44.576469,1.85956707 43.0608091,1.83060366 C44.3894589,2.00554268 43.7339107,1.80975 45.8079005,2.01596951 C44.0093624,1.75993293 53.2768294,2.02639634 50.3872863,1.75761585 C52.5159614,1.99627439 54.0714538,1.85840854 56.8543269,2.06231098 C56.7679107,2.00322561 55.8686416,1.94993293 58.3193523,1.97889634 C58.4341239,1.96846951 58.6926975,1.94298171 58.8567533,1.92792073 C58.9323675,1.9302378 58.9586975,1.9302378 59.0228345,1.93139634 C58.9735503,1.92907927 58.9370934,1.92792073 58.887134,1.92560366 C58.9938041,1.91633537 59.0032558,1.91401829 58.8371746,1.92212805 C58.253865,1.89664024 57.7799259,1.86651829 57.5881898,1.83407927 C58.5522711,1.72633537 61.1974183,1.70664024 62.9102152,1.66840854 C63.4617939,1.66493293 64.0086467,1.66029878 64.5433472,1.65566463 C64.6500173,1.68115244 63.6015452,1.71590854 64.2057838,1.76340854 L66.1744538,1.65914024 C66.3695655,1.78889634 70.0382051,1.87578659 66.6126112,1.95109146 L69.6959157,1.95688415 C71.511332,2.02987195 74.0093015,2.05883537 75.5485909,2.00438415 C77.0028142,2.03218902 79.2219563,1.86072561 77.9547431,1.96267683 L82.7906772,1.88157927 L82.8359107,1.91401829 C87.6070325,1.93139634 92.658332,1.69853049 98.1133574,1.93255488 C98.9370122,1.91633537 99.7782203,1.89779878 100.762555,1.88853049 C100.791586,1.91170122 100.892855,1.94066463 101.08189,1.98121341 C103.279428,2.02871341 102.88988,1.93139634 103.276728,1.88853049 C103.532601,1.89084756 103.791175,1.89316463 104.066626,1.89664024 L104.590525,2.01017683 C106.576748,1.97194512 110.473581,2.11096951 111.551083,2.01712805 L111.796829,2.01944512 C114.162474,2.29981098 121.740098,2.0727378 125.306794,2.12487195 L125.443845,1.97889634 C127.940464,1.98584756 130.334464,1.94414024 133.433972,1.88505488 L133.275317,1.77731098 C134.385901,1.83871341 135.838774,1.98005488 135.990002,1.88621341 C135.678093,1.84682317 135.427621,1.78889634 135.205505,1.72633537 C137.75951,1.72865244 141.035225,1.8445061 144.339296,1.8352378 C144.052368,1.88389634 142.980266,1.87231098 142.222098,1.84103049 C147.270697,2.13414024 152.874926,1.62901829 157.454312,1.84103049 C158.595276,1.79468902 159.421631,1.81090854 160.221657,1.84334756 C160.115662,1.84566463 160.021144,1.84798171 159.938779,1.85029878 C160.056251,1.85029878 160.229758,1.85145732 160.407317,1.85145732 C160.910961,1.87462805 161.430809,1.89664024 161.992515,1.92096951 C161.512499,1.89548171 161.055439,1.87231098 160.658464,1.85145732 C161.538154,1.83755488 162.87288,1.81901829 164.181951,1.79932317 L164.739606,1.9395061 C164.845601,1.93718902 164.930667,1.93603049 165.041388,1.93487195 C166.326154,1.9870061 166.074332,1.8699939 165.389078,1.76456707 C166.045977,1.73328659 166.647515,1.70316463 167.120104,1.68115244 C168.163175,1.90590854 170.552449,1.60468902 171.975616,1.8445061 C172.665596,1.75298171 176.300479,1.75066463 178.182733,1.63596951 C178.414977,1.63712805 178.731611,1.63712805 179.157616,1.63596951 C179.269012,1.61627439 179.769281,1.5977378 180.177058,1.58035976 C181.224855,1.5942622 182.251723,1.59657927 183.198926,1.54560366 L183.818017,1.72401829 L186.446286,1.52706707 L186.444261,1.53170122 L187.151794,1.49462805 C188.975312,1.59657927 189.688246,1.65914024 187.818819,1.79237195 C192.457616,1.58267683 191.582652,1.71359146 195.528093,1.50505488 L195.335682,1.61975 C196.745347,1.61627439 198.999596,1.46218902 199.850256,1.55718902 C203.005124,1.7749939 215.459865,1.58731098 223.557337,1.78889634 C221.986317,1.4517622 227.32117,1.94066463 227.641855,1.6799939 C228.113769,1.75877439 229.241906,1.80395732 227.930809,1.87346951 C232.063936,1.79468902 234.139951,1.99975 236.993038,1.77962805 C237.466302,1.85956707 236.108621,1.89664024 236.529901,1.94414024 C236.860713,1.9267622 237.841672,1.87462805 238.272403,1.92212805 C238.693682,1.96962805 237.667489,1.98932317 237.013291,2.02407927 C241.23486,2.01133537 241.662215,1.76456707 241.968723,1.53401829 C244.1082,1.64292073 245.175576,1.62785976 246.720266,1.47609146 C247.464931,1.55139634 248.707164,1.63133537 246.084296,1.65798171 C247.560124,1.66840854 255.099266,1.76920122 255.249819,1.58383537 C255.711606,1.63017683 257.311657,1.59657927 257.701205,1.57572561 C260.99785,1.58035976 261.288154,1.58151829 264.526063,1.58615244 L263.653124,1.55487195 C263.881317,1.51548171 264.11356,1.48883537 264.355931,1.47029878 C264.556444,1.46103049 264.762357,1.45060366 264.981774,1.44133537 C264.976373,3.05054268 264.969621,5.02005488 264.959494,7.81444512 L264.946667,7.68584756 C264.852149,18.0002988 264.991225,12.1381037 264.88388,22.3135305 L264.964895,21.7609085 C265.139078,22.70975 264.862951,30.7754817 264.929114,36.6817012 L264.975022,34.5499939 C265.035109,37.7753598 264.738728,43.5645671 264.716449,46.8038354 C264.702271,47.5093841 264.692819,45.6893232 264.681342,44.7034085 C264.578723,53.1838963 264.788012,45.8028598 264.812317,52.1215183 C264.754931,53.2881646 264.666489,50.6200549 264.655687,54.8730427 C264.609779,56.9920061 264.842022,67.2091402 264.731977,73.01225 C264.77586,71.7343841 264.819743,70.464628 264.852824,73.3992012 C264.869027,77.8989573 264.686068,85.5626768 264.825144,89.6256646 C264.813667,90.1968232 264.80219,90.4134695 264.790713,90.4366402 C264.798139,91.2082256 264.807591,92.232372 264.818393,93.359628 C263.842835,93.3827988 262.747779,93.4094451 261.794499,93.4326159 Z M139.592479,94.3212134 C139.677545,94.3188963 139.761936,94.3154207 139.846327,94.3131037 C139.901687,94.3142622 139.957723,94.3154207 140.013083,94.3154207 L139.592479,94.3212134 Z M134.913175,94.464872 L134.634347,94.4382256 C135.027271,94.4428598 135.436398,94.4463354 135.884007,94.4463354 C135.408043,94.4556037 135.350657,94.4567622 134.913175,94.464872 Z M130.330413,94.4417012 L129.641109,94.4057866 C131.197951,94.3652378 130.761819,94.402311 130.330413,94.4417012 Z M135.264916,93.3225549 L135.95422,93.359628 C134.398053,93.4001768 134.83351,93.3631037 135.264916,93.3225549 Z M130.960982,93.327189 C130.568058,93.3213963 130.158931,93.3179207 129.711322,93.3190793 C130.187286,93.3109695 130.244672,93.3086524 130.682829,93.3005427 L130.960982,93.327189 Z M125.582246,93.4499939 L126.00285,93.4453598 C125.917784,93.4465183 125.833393,93.4499939 125.749002,93.452311 C125.693642,93.4511524 125.637606,93.4511524 125.582246,93.4499939 Z M0.832971574,93.264628 C0.843773604,93.0618841 0.855250761,93.039872 0.866052792,93.2078598 C0.870103553,93.2078598 0.880905584,93.2055427 0.886981726,93.2055427 C0.886981726,93.229872 0.887656853,93.2507256 0.88833198,93.2738963 C0.868753299,93.2704207 0.850524873,93.2669451 0.832971574,93.264628 Z M0.84242335,59.7307866 C0.859301523,61.0434085 0.911961421,63.6593841 0.864027411,64.619811 C0.770859898,63.1241402 0.816093401,61.9679207 0.84242335,59.7307866 Z M6.71737766,1.74834756 L5.17538782,1.73096951 C5.63582437,1.72170122 6.08613401,1.70432317 6.51078883,1.67535976 C6.86590558,1.69737195 6.84025076,1.72285976 6.71737766,1.74834756 Z M17.0123878,1.45639634 C16.9901086,1.45639634 16.9712051,1.4552378 16.9502761,1.4552378 C16.9678294,1.45407927 16.9833574,1.4517622 17.0022609,1.44944512 L17.0123878,1.45639634 Z M26.3676213,1.49694512 C25.7991645,1.54328659 24.9201492,1.52011585 23.9277127,1.46682317 C24.647398,1.4552378 25.4629513,1.46103049 26.3676213,1.49694512 Z M41.4614335,1.65103049 C40.3332964,1.52590854 38.575266,1.60005488 36.5809411,1.6545061 C35.383266,1.61048171 33.6900477,1.55603049 33.8757076,1.49694512 C34.2173218,1.47725 34.5650122,1.45871341 34.9221543,1.44133537 C37.383667,1.4042622 36.9914183,1.49578659 38.3970325,1.55139634 C37.3364081,1.43322561 40.7322964,1.36834756 41.543799,1.22932317 C41.6565452,1.22816463 41.7638904,1.22584756 41.8786619,1.22468902 C40.3278954,1.37529878 41.5451492,1.47145732 41.4614335,1.65103049 Z M78.1491797,0.952432927 C78.1714589,0.953591463 78.1917127,0.95475 78.2112914,0.955908537 C78.0512863,1.01615244 78.135002,1.09840854 78.2612508,1.18645732 C77.6151543,1.17603049 76.8495604,1.1702378 76.0009259,1.1667622 L78.1491797,0.952432927 Z M80.7403168,1.46798171 C80.4891695,1.47493293 80.2542254,1.48304268 80.0327838,1.49115244 C80.0726162,1.46566463 80.1921137,1.44712805 80.4297584,1.4424939 C80.5418294,1.4517622 80.6390477,1.45987195 80.7403168,1.46798171 Z M116.804246,0.849323171 C116.355961,0.841213415 115.81451,0.834262195 115.094149,0.835420732 C115.480322,0.816884146 115.869195,0.800664634 116.263469,0.787920732 L116.804246,0.849323171 Z M120.397946,0.786762195 C120.264271,0.789079268 120.12722,0.790237805 119.99017,0.791396341 L120.496515,0.775176829 C120.466809,0.778652439 120.429002,0.782128049 120.397946,0.786762195 Z M179.86785,0.827310976 C179.479652,0.917676829 178.706631,1.00225 177.791835,0.996457317 C177.897154,0.977920732 177.90188,0.925786585 177.90188,0.867859756 C178.268474,0.857432927 178.641819,0.847006098 179.026642,0.837737805 C179.354078,0.831945122 179.623454,0.829628049 179.86785,0.827310976 Z M193.519591,0.524932927 C193.48651,0.52725 193.46423,0.529567073 193.437901,0.531884146 C191.731855,0.477432927 192.336769,0.498286585 193.519591,0.524932927 Z M212.575723,0.779810976 L212.743154,0.827310976 C211.323362,0.85627439 209.362794,0.827310976 208.878728,0.779810976 C210.019692,0.75779878 211.240322,0.750847561 212.575723,0.779810976 Z M216.280144,0.707981707 C215.825784,0.745054878 215.387626,0.786762195 214.920439,0.820359756 L214.362109,0.790237805 C214.967697,0.76822561 215.610418,0.738103659 216.280144,0.707981707 Z M212.870753,0.864384146 C212.670916,0.858591463 212.464327,0.849323171 212.24356,0.836579268 C212.448124,0.835420732 212.618256,0.836579268 212.773535,0.836579268 L212.870753,0.864384146 Z M187.446149,1.44712805 C187.424545,1.44596951 187.403616,1.44481098 187.384038,1.44365244 C187.544718,1.38340854 187.460327,1.30231098 187.334078,1.21310366 C187.980175,1.22237195 188.746444,1.22816463 189.595078,1.23279878 L187.446149,1.44712805 Z M185.165571,0.957067073 C185.053499,0.94779878 184.956281,0.939689024 184.855012,0.930420732 C185.106159,0.923469512 185.341779,0.917676829 185.562545,0.908408537 C185.522713,0.933896341 185.40389,0.952432927 185.165571,0.957067073 Z M190.526078,0.988347561 L192.159885,0.681335366 C192.526479,0.688286585 192.921428,0.697554878 193.35756,0.71029878 C193.711327,0.733469512 193.951672,0.756640244 194.122479,0.779810976 L190.72254,1.1192622 C189.428997,1.08798171 188.349469,1.03584756 187.127489,1.03932317 L189.713225,1.11231098 C189.137342,1.14359146 188.191489,1.16907927 187.280068,1.17603049 C187.104535,1.05901829 186.908073,0.931579268 187.149769,0.827310976 C187.964647,0.776335366 188.644499,0.72420122 189.513388,0.694079268 L190.526078,0.988347561 Z M179.250109,1.50968902 C179.260911,1.51779878 179.290616,1.52475 179.319647,1.53054268 C179.25821,1.53401829 179.190697,1.5374939 179.120484,1.54096951 C179.169093,1.53054268 179.219728,1.52127439 179.250109,1.50968902 Z M150.684814,1.55371341 C149.988083,1.42164024 153.303631,1.12737195 155.651723,1.07292073 C155.61189,1.08682317 155.630119,1.10304268 155.678053,1.11810366 C154.266362,1.28725 152.540063,1.45755488 150.684814,1.55371341 Z M150.500505,1.56298171 C150.115007,1.58267683 149.726134,1.59889634 149.33186,1.61048171 L148.791083,1.54907927 C149.239368,1.55834756 149.780819,1.56414024 150.500505,1.56298171 Z M146.406535,1.58267683 C146.241129,1.57340854 146.025763,1.56298171 145.756388,1.5502378 C145.853606,1.53981098 145.944748,1.52938415 146.049393,1.51895732 C146.871022,1.50737195 147.400322,1.51779878 147.977555,1.53170122 L146.406535,1.58267683 Z M145.197383,1.61279878 C145.331058,1.60932317 145.468109,1.60816463 145.605159,1.6070061 L145.098814,1.62438415 C145.12852,1.62090854 145.166327,1.61627439 145.197383,1.61279878 Z M117.618449,0.867859756 L119.188794,0.818042683 C119.354875,0.824993902 119.569565,0.835420732 119.838941,0.849323171 C119.742398,0.85975 119.650581,0.870176829 119.546611,0.880603659 C118.724307,0.892189024 118.195682,0.880603659 117.618449,0.867859756 Z M109.943606,1.32664024 C109.984114,1.31157927 109.96521,1.29651829 109.917276,1.28145732 C111.328966,1.11115244 113.055941,0.940847561 114.91119,0.844689024 C115.607921,0.976762195 112.292373,1.27103049 109.943606,1.32664024 Z M85.7274792,1.57109146 C86.1156772,1.48188415 86.8893726,1.39731098 87.8034944,1.40194512 C87.6981746,1.42164024 87.6934487,1.47261585 87.6934487,1.53170122 C87.3268548,1.54328659 86.9535096,1.55255488 86.5686873,1.56182317 C86.2419259,1.56645732 85.9718751,1.56993293 85.7274792,1.57109146 Z M86.4748447,0.85975 C86.4262355,0.869018293 86.375601,0.878286585 86.3452203,0.888713415 C86.3344183,0.880603659 86.3047127,0.874810976 86.2756822,0.870176829 C86.3371188,0.86670122 86.4046315,0.86322561 86.4748447,0.85975 Z M72.1574284,1.86883537 C73.8641492,1.92328659 73.2585604,1.90127439 72.0757381,1.87578659 C72.1088193,1.87231098 72.1310985,1.87115244 72.1574284,1.86883537 Z M74.873464,1.27914024 C76.1670071,1.31157927 77.2458599,1.36255488 78.4678396,1.35907927 L75.8821036,1.28609146 C76.4579868,1.25596951 77.4038396,1.23048171 78.3152609,1.22237195 C78.4907939,1.34054268 78.6872558,1.46682317 78.4462355,1.57225 C77.6313574,1.62322561 76.9508294,1.67535976 76.0819411,1.70432317 L75.0699259,1.41005488 L73.4354437,1.71706707 C73.0688497,1.71127439 72.6739005,1.7020061 72.2384437,1.6892622 C71.884002,1.66609146 71.644332,1.6417622 71.4735249,1.61859146 L74.873464,1.27914024 Z M56.716601,1.61859146 C55.5763117,1.6417622 54.3550071,1.64755488 53.0202812,1.61975 L52.8528497,1.57109146 C54.2719665,1.54328659 56.232535,1.57109146 56.716601,1.61859146 Z M53.3517685,1.56298171 C53.1472051,1.56298171 52.9770731,1.56298171 52.822469,1.56182317 L52.7245756,1.53517683 C52.9244132,1.54096951 53.1316772,1.54907927 53.3517685,1.56298171 Z M51.2332203,1.60816463 C50.6283066,1.63133537 49.9855858,1.66145732 49.3151848,1.69042073 C49.7695452,1.6545061 50.2083777,1.61164024 50.6748904,1.57920122 L51.2332203,1.60816463 Z M224.134571,0.748530488 C225.262708,0.872493902 227.020063,0.798347561 229.014388,0.743896341 C230.212738,0.789079268 231.905956,0.842371951 231.719621,0.90377439 C231.378007,0.921152439 231.030992,0.939689024 230.673175,0.95822561 C228.212337,0.994140244 228.603911,0.90377439 227.198972,0.847006098 C228.258921,0.966335366 224.863708,1.03121341 224.052205,1.16907927 C223.939459,1.1702378 223.832114,1.17255488 223.717342,1.17487195 C225.267434,1.02310366 224.050855,0.926945122 224.134571,0.748530488 Z M241.667616,0.931579268 C240.947931,0.943164634 240.132378,0.937371951 239.227708,0.902615854 C239.796164,0.85627439 240.675855,0.878286585 241.667616,0.931579268 Z M248.583616,0.943164634 L248.645053,0.943164634 C248.627499,0.945481707 248.612647,0.946640244 248.593068,0.948957317 L248.583616,0.943164634 Z M260.419266,0.66975 C259.958829,0.67670122 259.50852,0.694079268 259.08454,0.72420122 C258.729423,0.701030488 258.755078,0.67670122 258.878626,0.650054878 L260.419266,0.66975 Z M265.49217,59.7307866 C265.509048,61.0434085 265.561708,63.6593841 265.513774,64.619811 C265.420606,63.1241402 265.465164,61.9679207 265.49217,59.7307866 Z M265.432758,75.0674939 L265.377398,70.1576159 C265.436809,68.1579817 265.494195,72.2267622 265.486093,75.6189573 C265.714961,71.0334695 265.428032,71.5443841 265.561708,61.6481646 L265.590738,66.284628 C265.721038,63.2956037 265.673779,59.6774939 265.754794,54.4362744 C265.712936,55.6793841 265.55023,64.9291402 265.49352,59.6010305 C265.511073,58.0995671 265.519175,56.119628 265.472591,53.2452988 C265.554281,53.2186524 265.534027,50.4115183 265.529977,46.8988354 L265.637322,47.1386524 C265.606266,43.342128 265.550906,43.6410305 265.502972,41.407372 C265.513774,37.1740793 265.597489,36.2970671 265.667703,35.3007256 C265.685256,28.5232866 265.533352,39.9812134 265.513098,31.9583476 C265.523225,30.5437744 265.528626,29.234628 265.529302,27.9590793 C265.548205,27.5002988 265.561708,25.6674939 265.553606,22.6159085 C265.542804,23.4639573 265.532677,24.4220671 265.521875,24.9387744 C265.510398,22.1779817 265.481368,19.319872 265.445586,15.6206646 C265.473266,12.7127378 265.495545,14.462128 265.519175,15.0182256 L265.535378,16.6645061 C265.545505,16.3806646 265.54888,15.9450549 265.524576,15.1294451 C265.530652,15.2128598 265.536728,15.1781037 265.542804,14.8954207 L265.456388,11.3977988 C265.459088,10.5416402 265.485418,10.817372 265.498246,10.9587134 C265.465164,8.01255488 265.390225,10.7165793 265.361195,6.08359146 C265.334865,5.80901829 265.328789,5.19846951 265.333515,4.35042073 C265.339591,3.79316463 265.347017,3.13627439 265.353769,2.41798171 C265.359845,2.4052378 265.365921,2.38438415 265.371997,2.37743293 C265.394276,2.3542622 265.418581,2.55005488 265.448961,4.23920122 C265.434784,3.22432317 265.413855,1.7842622 265.399677,0.725359756 C265.157307,0.733469512 264.941266,0.743896341 264.770459,0.753164634 C263.937352,0.726518293 263.034032,0.698713415 262.123961,0.670908537 C261.714835,0.66279878 261.305708,0.661640244 260.901982,0.663957317 C260.800038,0.631518293 260.531337,0.590969512 261.105195,0.560847561 L258.971119,0.632676829 C259.139225,0.603713415 259.349865,0.572432927 259.230368,0.537676829 C254.646256,0.690603659 255.300454,0.648896341 251.536621,0.853957317 L248.329769,0.731152439 C249.02785,0.772859756 249.246591,0.816884146 249.151398,0.860908537 L246.746596,0.899140244 L248.221748,0.981396341 C247.406195,1.04743293 246.187591,1.11115244 245.038525,1.1702378 C245.876357,1.23395732 246.590642,1.28840854 247.067956,1.32432317 L242.859215,1.42395732 C242.35152,1.39383537 242.774824,1.33011585 243.464804,1.25365244 C243.17855,1.26871341 242.905799,1.28493293 242.693134,1.29767683 C241.188951,1.22816463 241.968723,1.12157927 243.046901,1.01731098 C243.558647,1.05670122 244.067692,1.09493293 244.563236,1.1320061 C245.602256,1.01962805 246.574439,0.895664634 246.358398,0.786762195 C246.084296,0.80877439 245.557697,0.826152439 244.978439,0.836579268 C245.250515,0.806457317 245.424022,0.778652439 245.297774,0.76127439 C245.155322,0.740420732 244.716489,0.782128049 244.028535,0.828469512 L243.07188,0.623408537 L242.839637,0.704506098 L242.121302,0.688286585 C242.144256,0.687128049 242.162484,0.685969512 242.185439,0.684810976 C242.13953,0.685969512 242.099697,0.685969512 242.055814,0.685969512 L240.703535,0.654689024 C241.190302,0.624567073 241.868129,0.580542683 240.203266,0.544628049 C241.099159,0.533042683 241.903236,0.522615854 242.663428,0.512189024 C241.843824,0.492493902 241.052576,0.473957317 240.307911,0.455420732 C240.348418,0.458896341 240.377449,0.461213415 240.41188,0.463530488 L240.432809,0.462371951 L240.429434,0.464689024 C240.625895,0.480908537 240.690032,0.489018293 240.468591,0.480908537 C240.453063,0.482067073 240.398378,0.48322561 240.373398,0.48322561 C240.343017,0.500603659 240.258626,0.515664634 240.168159,0.53072561 C238.848961,0.504079268 239.96022,0.498286585 240.373398,0.48322561 C240.388926,0.477432927 240.424708,0.471640244 240.429434,0.464689024 L240.41188,0.463530488 L235.849373,0.531884146 L240.168159,0.531884146 C239.959545,0.565481707 239.630758,0.594445122 239.29522,0.62225 L237.334652,0.575908537 C235.70017,0.661640244 234.151428,0.765908537 232.45551,0.862067073 C232.270525,0.809932927 232.013977,0.756640244 231.708819,0.705664634 C231.878276,0.705664634 232.046383,0.703347561 232.216515,0.705664634 C231.988997,0.703347561 231.800637,0.698713415 231.642657,0.694079268 C231.453621,0.663957317 231.249058,0.632676829 231.031667,0.604871951 C231.098505,0.590969512 231.210576,0.579384146 231.328048,0.57127439 L230.868286,0.584018293 C230.72651,0.566640244 230.583383,0.549262195 230.43418,0.533042683 C230.400423,0.558530488 230.380845,0.58170122 230.104718,0.607189024 L225.548961,0.742737805 C225.679261,0.596762195 224.322256,0.632676829 222.812672,0.573591463 C223.374378,0.716091463 222.336708,0.76475 220.857505,0.787920732 C220.554373,0.727676829 219.245977,0.770542683 217.936906,0.81225 C217.940281,0.814567073 217.953109,0.81572561 217.957835,0.818042683 C217.279332,0.824993902 216.648088,0.835420732 216.15322,0.855115854 C216.008068,0.75779878 216.571799,0.658164634 219.440413,0.681335366 C218.933393,0.646579268 218.487809,0.632676829 218.076657,0.631518293 C219.509276,0.577067073 221.019535,0.538835366 222.535195,0.568957317 C221.206545,0.392859756 221.862093,0.588652439 219.787428,0.38475 C221.585966,0.638469512 212.319175,0.373164634 215.208043,0.640786585 C213.080043,0.403286585 211.523875,0.539993902 208.741002,0.33725 C208.827418,0.395176829 209.726687,0.448469512 207.275977,0.420664634 C207.161205,0.43225 206.902631,0.456579268 206.738576,0.47279878 C206.663637,0.470481707 206.637307,0.469323171 206.572494,0.468164634 C206.621779,0.470481707 206.658236,0.47279878 206.708195,0.475115854 C206.601525,0.48322561 206.592073,0.484384146 206.758154,0.477432927 C207.342139,0.502920732 207.815403,0.533042683 208.007139,0.566640244 C207.042383,0.67322561 204.397911,0.691762195 202.685114,0.729993902 C202.133535,0.733469512 201.586682,0.738103659 201.051982,0.743896341 C200.945312,0.718408537 201.994459,0.683652439 201.389545,0.636152439 L199.420875,0.740420732 C199.225763,0.610664634 195.557799,0.524932927 198.982718,0.447310976 L195.899413,0.441518293 C194.083997,0.369689024 191.586703,0.339567073 190.047413,0.394018293 C188.592515,0.367371951 186.373373,0.538835366 187.640586,0.436884146 L182.804652,0.517981707 L182.760093,0.484384146 C177.988296,0.469323171 172.937672,0.701030488 167.482647,0.465847561 C166.658317,0.48322561 165.817109,0.500603659 164.833449,0.511030488 C164.803743,0.48670122 164.703149,0.457737805 164.513439,0.417189024 C162.315901,0.369689024 162.705449,0.467006098 162.318601,0.509871951 C162.062728,0.507554878 161.804829,0.505237805 161.528703,0.501762195 L161.004804,0.38822561 C159.019256,0.427615854 155.121748,0.288591463 154.044246,0.383591463 L153.798499,0.38127439 C151.432855,0.09975 143.855906,0.326823171 140.288535,0.274689024 L140.151484,0.421823171 C137.654865,0.412554878 135.260865,0.454262195 132.161357,0.513347561 L132.320687,0.62225 C131.209428,0.559689024 129.75723,0.418347561 129.605327,0.512189024 C129.917236,0.551579268 130.167708,0.609506098 130.389824,0.67322561 C127.835819,0.672067073 124.560779,0.553896341 121.256032,0.564323171 C121.543637,0.514506098 122.615738,0.528408537 123.373906,0.557371951 C118.324631,0.264262195 112.720403,0.77170122 108.141017,0.557371951 C107.000728,0.604871951 106.173697,0.587493902 105.373672,0.556213415 C105.480342,0.552737805 105.574185,0.550420732 105.657225,0.549262195 C105.539753,0.548103659 105.366246,0.548103659 105.188012,0.546945122 C104.684368,0.526091463 104.16452,0.502920732 103.603489,0.478591463 C104.082829,0.502920732 104.53989,0.52725 104.936865,0.548103659 C104.057175,0.560847561 102.723124,0.580542683 101.413378,0.599079268 L100.855723,0.460054878 C100.749728,0.461213415 100.664662,0.462371951 100.553941,0.463530488 C99.2698497,0.412554878 99.5216721,0.53072561 100.206251,0.633835366 C99.5500274,0.66627439 98.9471391,0.695237805 98.4759005,0.719567073 C97.4328294,0.493652439 95.0435553,0.794871951 93.6197127,0.553896341 C92.9290579,0.645420732 89.2948497,0.648896341 87.4125959,0.763591463 C87.1803523,0.762432927 86.8643929,0.762432927 86.4383878,0.763591463 C86.3269919,0.782128049 85.8260477,0.801823171 85.4182711,0.81920122 C84.3704741,0.804140244 83.3442812,0.802981707 82.396403,0.85279878 L81.7773117,0.675542683 L79.1497178,0.871335366 L79.1517431,0.867859756 L78.443535,0.906091463 C76.6206924,0.802981707 75.9070832,0.739262195 77.7771848,0.607189024 C73.1383878,0.816884146 74.0126772,0.684810976 70.0679107,0.893347561 L70.2603218,0.778652439 C68.8499817,0.783286585 66.595733,0.937371951 65.7450731,0.842371951 C62.5902051,0.624567073 50.135464,0.81225 42.0379919,0.609506098 C43.6090122,0.94779878 38.2741594,0.457737805 37.9534741,0.72072561 C37.4815604,0.639628049 36.3534234,0.594445122 37.6651949,0.526091463 C33.5313929,0.603713415 31.4553777,0.398652439 28.6029665,0.619932927 C28.1297025,0.538835366 29.4867076,0.502920732 29.0654284,0.455420732 C28.7346162,0.47279878 27.7529817,0.524932927 27.3229259,0.477432927 C26.9016467,0.429932927 27.9278396,0.410237805 28.5820376,0.375481707 C24.3611442,0.38822561 23.9337888,0.633835366 23.6272812,0.865542683 C21.4878041,0.756640244 20.4204284,0.77170122 18.8757381,0.922310976 C18.130398,0.848164634 16.8881645,0.769384146 19.5110325,0.741579268 C18.0352051,0.729993902 10.4960629,0.630359756 10.3461848,0.81572561 C9.88372284,0.769384146 8.28367208,0.801823171 7.89479898,0.822676829 C4.56979898,0.81920122 4.27679391,0.818042683 1.01255533,0.813408537 L1.94220508,0.843530488 C1.71468731,0.882920732 1.48244365,0.91072561 1.23939797,0.928103659 C0.949093401,0.937371951 0.65068731,0.94779878 0.332027411,0.95822561 C0.326626396,2.6902378 0.319875127,4.80688415 0.309748223,7.81444512 L0.296920812,7.68584756 C0.202403046,18.0002988 0.341479188,12.1381037 0.23413401,22.3135305 L0.315149239,21.7609085 C0.48933198,22.70975 0.213205076,30.7754817 0.279367513,36.6817012 L0.325276142,34.5499939 C0.385362437,37.7753598 0.0889817259,43.5645671 0.0667025381,46.8038354 C0.0525248731,47.5093841 0.0430730964,45.6893232 0.0315959391,44.7034085 C-0.0710233503,53.1838963 0.13826599,45.8028598 0.162570558,52.1215183 C0.105184772,53.2881646 0.0167431472,50.6200549 0.00594111675,54.8730427 C-0.0399675127,56.9920061 0.192276142,67.2091402 0.0822304569,73.01225 C0.126113706,71.7343841 0.169996954,70.464628 0.203078173,73.3992012 C0.219281218,77.8989573 0.0363218274,85.5626768 0.17539797,89.6256646 C0.163920812,90.1968232 0.152443655,90.4134695 0.140966497,90.4366402 C0.148392893,91.4827988 0.15784467,92.8742012 0.168646701,94.4057866 C1.33999188,94.3814573 2.65513909,94.3559695 3.80082944,94.3316402 C4.84930152,94.3038354 5.74046904,94.2679207 6.18537766,94.2204207 C7.22912386,94.4903598 11.0523675,94.3814573 14.182931,94.3154207 C15.5358853,94.3617622 16.9712051,94.3942012 18.4308294,94.3490183 C18.5395249,94.3710305 18.6023117,94.3965183 18.5996112,94.4289573 L24.7641949,94.4057866 L24.6028396,94.4509695 C27.3870629,94.4706646 28.8973218,94.4243232 30.0342355,94.3582866 C34.0741949,94.3849329 37.3289817,94.4613963 43.1654538,94.5181646 L42.5618904,94.3802988 C44.3124944,94.3988354 44.6817888,94.4417012 45.5013929,94.4752988 C47.5105706,94.2679207 40.5844437,94.464872 42.4147127,94.2343232 C42.5429868,94.2505427 42.6989411,94.2644451 42.8710985,94.2760305 L43.1512761,94.3559695 C43.4490071,94.3362744 44.0518954,94.3385915 44.8566467,94.3501768 C45.0531086,94.3536524 45.2576721,94.357128 45.4662863,94.3594451 C47.8650122,94.4011524 51.6119665,94.4949939 55.163134,94.4532866 C55.695134,94.4764573 56.1029107,94.5112134 56.3297533,94.5563963 C57.8312355,94.5575549 57.4140071,94.5077378 57.2168701,94.464872 C57.6813574,94.4556037 58.1546213,94.449811 58.6386873,94.4486524 L58.9465452,94.4845671 L59.1862152,94.4463354 C60.0186467,94.4451768 60.8679563,94.452128 61.7213168,94.4637134 C62.1061391,94.4984695 62.3194792,94.5390183 62.3498599,94.5726159 C61.9211543,94.5795671 61.1312558,94.592311 60.6728447,94.5992622 C62.8021949,94.6931037 66.5518497,94.5830427 67.6988904,94.5934695 L65.3271695,94.544811 C65.5985706,94.5424939 65.8760477,94.5401768 66.1501492,94.5367012 C68.7838193,94.5842012 71.1454132,94.6120061 72.7022558,94.512372 C78.1836112,94.5077378 83.9053117,94.5216402 88.7527228,94.4034695 L88.4259614,94.3640793 C93.6777736,94.3884085 98.8593726,94.4138963 103.957931,94.4382256 C104.173972,94.4613963 104.156418,94.4857256 103.563657,94.5112134 C104.748505,94.4845671 105.570134,94.4660305 106.164246,94.4486524 C109.80453,94.4660305 113.415784,94.4834085 116.959525,94.5007866 L116.605083,94.43475 C117.482748,94.452128 118.294926,94.4567622 119.042966,94.452128 C118.774266,94.4567622 118.446829,94.4590793 118.035002,94.4579207 C118.689875,94.5181646 119.732946,94.4926768 120.621413,94.4463354 C120.757114,94.4393841 120.886738,94.4312744 121.013662,94.4243232 C122.09589,94.4011524 123.045119,94.3733476 123.911982,94.3652378 C124.923322,94.4509695 120.652469,94.559872 121.869723,94.5633476 L123.898479,94.547128 L123.440743,94.5216402 C124.389296,94.4718232 124.841631,94.4220061 125.624779,94.3884085 C126.077789,94.4081037 126.517972,94.4393841 126.952078,94.4926768 C127.564418,94.4277988 127.665687,94.3849329 127.4672,94.354811 C127.699444,94.3536524 127.944515,94.3536524 128.221992,94.354811 C130.114373,94.3976768 129.192824,94.4857256 129.936814,94.4938354 C129.934789,94.5007866 129.996901,94.5065793 130.171083,94.5088963 C130.345266,94.5065793 130.632195,94.5042622 131.079804,94.499628 L135.47353,94.5181646 L134.950982,94.4683476 C136.792728,94.5343841 138.570337,94.3652378 140.832012,94.4857256 C141.933819,94.3327988 143.325256,94.4474939 143.942997,94.3409085 C146.031164,94.3455427 148.168616,94.33975 149.953652,94.3374329 C148.888977,94.4868841 144.335921,94.3536524 141.787317,94.5135305 C143.135545,94.609689 147.071535,94.3467012 145.667946,94.594628 C147.685901,94.2783476 150.608525,94.6351768 154.003738,94.3930427 L153.780271,94.5309085 C154.317672,94.5100549 155.430281,94.4440183 156.419342,94.4474939 L154.629581,94.6259085 C157.378022,94.4741402 159.928652,94.7591402 162.565022,94.6757256 C157.04451,94.6803598 161.32684,94.5112134 158.992251,94.4104207 C165.700987,94.2285305 162.998454,94.7545061 170.208134,94.7070061 C169.017885,94.7058476 166.802794,94.6154817 168.271195,94.5587134 C169.722043,94.5865183 171.638728,94.6386524 172.52922,94.7116402 C177.58052,94.6826768 171.753499,94.5691402 173.903779,94.4845671 C175.498428,94.639811 176.282926,94.4509695 178.151002,94.3791402 C178.234043,94.3942012 178.377845,94.4092622 178.604687,94.4231646 L178.614139,94.5031037 C181.668413,94.5506037 181.910784,94.4660305 182.240246,94.3918841 C182.98086,94.3884085 183.734977,94.3884085 184.503271,94.3930427 L183.131413,94.514689 L185.833271,94.464872 L185.275616,94.6224329 C188.215119,94.5054207 189.129916,94.5355427 192.010007,94.5795671 C191.772362,94.544811 191.755484,94.5031037 191.938444,94.4637134 C193.628961,94.4799329 195.347159,94.4903598 197.082236,94.4857256 C196.382804,94.5563963 195.559149,94.607372 194.293286,94.5031037 C194.131931,94.5494451 193.488535,94.5911524 193.322454,94.6363354 C195.195256,94.7313354 198.028088,94.6583476 199.336484,94.657189 C198.833515,94.6456037 198.234002,94.6305427 197.922093,94.6235915 L201.847281,94.4787744 L202.641906,94.5332256 C203.021327,94.5262744 203.288677,94.5019451 203.529022,94.4718232 C203.608687,94.5065793 203.148926,94.5367012 202.682413,94.5668232 C203.743038,94.5367012 204.480951,94.5181646 206.038469,94.4741402 C205.634068,94.5888354 205.731286,94.7058476 203.522271,94.7591402 L208.514159,94.6328598 C208.846997,94.6826768 211.075591,94.7684085 210.427469,94.8101159 C213.194814,94.877311 217.215195,94.5899939 220.883835,94.6780427 C221.074895,94.657189 221.457017,94.6351768 222.236789,94.6189573 C225.684662,94.6444451 228.738936,94.7834695 232.826154,94.6282256 L235.143865,94.832128 C238.345317,94.7857866 232.005875,94.5749329 237.335327,94.4984695 C241.107261,94.4335915 238.742966,94.67225 240.066215,94.7290183 C241.943068,94.6259085 245.205281,94.417372 248.671383,94.5830427 C247.523667,94.6212744 246.623723,94.5911524 245.552296,94.607372 L248.193393,94.7185915 C245.006119,94.9051159 242.69921,94.8413963 245.178951,95.0001159 C245.552296,94.607372 255.445606,94.9595671 255.812875,94.5668232 L257.554027,94.6490793 C257.054434,94.657189 256.974769,94.6583476 256.481926,94.6641402 C258.17987,94.7602988 258.807738,94.687311 259.561855,94.5992622 L261.414403,94.6537134 L260.049972,94.5540793 L259.886591,94.5633476 C260.581296,94.4857256 261.487992,94.4127378 263.360119,94.4359085 C263.42088,94.4382256 263.478941,94.4393841 263.538352,94.4417012 L263.854312,94.5610305 L264.522012,94.4706646 C264.941266,94.4834085 265.279505,94.4938354 265.482718,94.5007866 C265.49352,93.8832866 265.504997,93.787128 265.515799,94.5575549 C265.445586,94.559872 265.323388,94.5645061 265.172159,94.5702988 L265.51985,94.5645061 L265.466515,88.4416402 C265.470565,87.0351768 265.498246,87.0988963 265.504997,88.1265183 L265.488794,79.9808476 L265.49487,80.0457256 C265.46854,78.7701768 265.409129,75.90975 265.380098,74.514872 C265.412505,72.2615183 265.404403,75.6444451 265.432758,75.0674939 Z" id="Fill-196" fill="#FFFFFF" mask="url(#mask-28)"></path>
                    </g>
                    <path d="M247,1 C247.32,1.021 247.409,1.043 247.484,1.065 C247.93,1.045 247.938,1.021 247,1" id="Fill-199" fill="#FF5E0E"></path>
                    <g id="Group-203" transform="translate(220.000000, 94.000000)">
                        <mask id="mask-30" fill="white">
                            <use xlink:href="#path-29"></use>
                        </mask>
                        <g id="Clip-202"></g>
                        <path d="M0.67595,0.7233 L0.58695,0.7223 C0.53795,0.7293 0.51195,0.7373 0.49795,0.7443 L0.67595,0.7233 Z" id="Fill-201" fill="#FF5E0E" mask="url(#mask-30)"></path>
                    </g>
                    <path d="M50,2 C50.0422861,2.024 50.3548067,2.058 50.0079286,2.068 L52,2.04 C50.925669,2.046 50.5424513,2.02 50,2" id="Fill-204" fill="#FF5E0E"></path>
                    <path d="M50.346,2 L50,2.003 C50.151,2.003 50.258,2.001 50.346,2" id="Fill-206" fill="#FF5E0E"></path>
                    <path d="M63.79642,2.01061555 C63.1861097,1.98461555 63.4136089,2.14061555 63.0679852,2.09861555 C62.3860346,2.22861555 67.1389078,1.94261555 63.79642,2.01061555" id="Fill-208" fill="#FF5E0E"></path>
                    <g id="Group-212" transform="translate(266.000000, 49.000000)">
                        <mask id="mask-32" fill="white">
                            <use xlink:href="#path-31"></use>
                        </mask>
                        <g id="Clip-211"></g>
                        <path d="M0.24185,4.13775 L0.28735,1.0815 L0.26785,0.78275 C0.24685,1.389 0.24485,2.304 0.24185,4.13775" id="Fill-210" fill="#FF5E0E" mask="url(#mask-32)"></path>
                    </g>
                    <g id="Group-215" transform="translate(262.000000, 94.000000)">
                        <mask id="mask-34" fill="white">
                            <use xlink:href="#path-33"></use>
                        </mask>
                        <g id="Clip-214"></g>
                        <polygon id="Fill-213" fill="#FF5E0E" mask="url(#mask-34)" points="0.957266667 0.7878 1.44393333 0.7918 0.5346 0.6438"></polygon>
                    </g>
                    <g id="Group-218" transform="translate(237.000000, 94.000000)">
                        <mask id="mask-36" fill="white">
                            <use xlink:href="#path-35"></use>
                        </mask>
                        <g id="Clip-217"></g>
                        <path d="M0.547733333,0.9753 C1.5164,0.9683 2.65573333,0.9613 3.62906667,0.9543 C1.5164,0.9813 0.285066667,0.7913 0.547733333,0.9753" id="Fill-216" fill="#FF5E0E" mask="url(#mask-36)"></path>
                    </g>
                </g>
            </g>
        </g>
    </g>
</svg>