<?xml version="1.0" encoding="UTF-8" standalone="no"?>
<svg width="1440px" height="242px" viewBox="0 0 1440 242" version="1.1" xmlns="http://www.w3.org/2000/svg" xmlns:xlink="http://www.w3.org/1999/xlink">
    <!-- Generator: Sketch 49.1 (51147) - http://www.bohemiancoding.com/sketch -->
    <title>Group</title>
    <desc>Created with Sketch.</desc>
    <defs>
        <polygon id="path-1" points="0 0 1214 0 1214 203 0 203"></polygon>
        <polygon id="path-3" points="0 0 983 0 983 228 0 228"></polygon>
    </defs>
    <g id="3.0_Support" stroke="none" stroke-width="1" fill="none" fill-rule="evenodd">
        <g id="B-3-1-常見問題">
            <g id="Group" transform="translate(-77.000000, -83.000000)">
                <polygon id="Page-1" fill="#FBE1D8" transform="translate(246.873981, 175.083976) scale(-1, 1) rotate(-2.000000) translate(-246.873981, -175.083976) " points="38.3739809 8.08397634 38.3739809 233.308497 455.373981 342.083976 455.373981 8.08397634"></polygon>
                <g id="Page-1" transform="translate(607.000000, 142.500000) scale(-1, 1) translate(-607.000000, -142.500000) translate(0.000000, 41.000000)">
                    <mask id="mask-2" fill="white">
                        <use xlink:href="#path-1"></use>
                    </mask>
                    <g id="Clip-2"></g>
                    <path d="M898.317587,156.139617 C929.299057,151.058674 960.725947,150.358913 992.055869,150.081842 C1020.07313,149.833108 1048.59889,150.731227 1076.41985,146.915207 C1102.57739,143.326668 1127.26308,134.864989 1151.36932,124.357552 C1172.57916,115.111889 1193.63291,105.00038 1214,93.6837703 L1214,0 L0,0 C1.79192555,1.84110385 3.29846745,3.35082474 4.30440542,4.21509667 C11.6597356,10.5208183 19.0812873,16.732084 26.5603889,22.8481066 C26.6975622,23.2574157 26.7243662,23.6478336 26.5911346,23.9272658 C27.0657229,24.0492714 26.9167242,23.4833229 26.9726973,23.181851 C27.0633578,23.2597771 27.1555951,23.3337676 27.2494091,23.4085452 L28.1820302,24.816726 C28.3168385,24.6970818 28.3901553,24.5475265 28.4500701,24.3979713 C29.8809302,25.5589923 31.2881396,26.747563 32.7253065,27.8983513 C34.8152294,29.5749444 36.9146124,31.2342205 39.0218791,32.8879867 C38.9911333,33.2996572 39.4097486,34.0293294 39.6423126,34.5976394 C42.8966323,35.957805 47.3831472,40.1705403 49.5873812,41.0332379 C52.3789379,43.1451155 55.1854733,45.2286563 58.0101408,47.2862217 C58.1078965,48.1929988 58.0077757,49.0053199 57.6538054,49.6232193 C56.778734,48.2457367 55.0435698,45.5128113 53.9446062,46.5164057 C54.807064,47.8915269 56.6478674,49.6798928 56.2733999,50.5843085 C58.3357304,49.9915975 54.3198621,48.5291045 56.6194867,48.4621982 C57.4165112,49.0950531 57.489828,49.8373194 57.7286989,50.3702084 C57.5339758,49.3563812 59.0578614,49.8695919 59.5056457,49.7003583 C62.1773729,51.6162398 64.0875513,52.0523114 67.0336251,53.945366 C67.0840797,53.9233263 67.1534547,53.8934152 67.2196763,53.8611428 C67.8133059,54.2743875 68.4029937,54.6931423 68.9966232,55.1040256 C69.4995922,56.6365734 69.6296704,58.3706271 68.9406502,58.7539609 C70.578847,59.9574871 71.0526469,59.299444 72.253308,60.6824365 C69.2536262,60.4927374 72.8161918,60.7572141 72.2840537,62.3818564 C73.6534223,63.5420903 73.1701621,62.0205624 74.0184295,62.1323353 C74.1800418,62.4511241 74.5079965,63.3256287 74.3400774,63.7443834 C75.644801,63.2933563 74.4882877,60.5006088 75.3814912,59.4387665 C76.118601,59.9322988 76.8501922,60.4360639 77.5904553,60.9240863 L77.2845745,61.4695694 L77.6960946,61.7655313 L77.9002779,61.1311022 C78.624774,61.6088919 79.360307,62.0795974 80.0895332,62.5526642 C79.100939,64.446506 77.632238,66.4717989 76.4843966,67.0503416 C76.1540768,67.982307 78.3590992,67.0456188 79.0520611,67.3738532 C81.6268209,67.2077682 81.3784898,70.2964777 83.2263884,70.7522276 L82.4175386,69.2125957 C82.8558626,69.0205353 84.9363253,70.9442881 85.0624617,71.6692375 C85.3620357,71.2182103 85.1003026,68.4160172 86.1086056,68.2782689 C89.0460076,69.7706729 90.4390267,74.1132851 89.5686854,75.4758121 L85.9359564,71.2780324 C85.1822913,72.4020582 88.4303042,74.4226283 87.5457725,75.777284 L91.8107603,77.7781759 C91.3148865,77.4365602 89.918714,76.1409394 90.8560653,75.8323833 C92.5620604,76.943815 91.8572731,76.1614049 93.2889215,76.2731778 C92.5533885,74.6839564 91.6846239,71.9612638 91.0153125,69.4196116 C92.152117,70.1099272 93.2794613,70.8191339 94.4209959,71.5000039 C94.4249377,71.5023653 94.4273027,71.5023653 94.4296678,71.5047267 C94.8285742,73.7645852 94.9231765,75.9819386 94.9964933,76.8887157 C96.7182555,77.4940209 97.3804717,74.5147229 97.2456634,73.7921349 C100.369117,75.4183514 98.5992649,79.3107236 102.015197,80.6606565 L100.548861,80.6031958 C101.192945,81.2887886 104.276981,82.1483377 103.767705,82.5041218 C104.705056,82.1231495 105.960902,80.6535723 105.402748,79.8585681 C106.049197,81.1612731 106.727181,82.4765721 107.43591,83.8021039 C107.090611,83.3266757 108.140697,81.2266051 108.091819,80.7456669 C109.272771,81.1793771 109.314554,84.1657593 108.404795,84.2381756 C111.344562,83.5305431 110.457665,84.2759579 112.963838,82.9480647 C113.641822,83.3337599 112.289797,85.3716469 111.660691,85.4440632 C113.209804,86.5830445 114.273292,86.6554607 115.176744,86.5554948 C113.581907,85.4960139 114.055707,83.7422818 114.645395,82.1003226 C114.673775,82.1483377 114.702944,82.1979271 114.731325,82.2451551 C115.507064,82.404943 116.297782,82.4789335 117.075886,82.5663053 C117.976973,84.2137744 118.993948,85.8376296 120.205646,87.3646674 C120.003827,86.9112789 119.709772,84.5868754 119.778359,84.317676 C119.853252,84.8584363 120.352279,85.3346517 121.134325,85.7431737 C121.437841,85.8848576 121.818615,85.9793135 122.200178,86.076918 C122.83086,86.8065902 123.735101,87.6991989 124.897921,88.694922 C126.89876,90.2471481 129.361573,92.3283275 132.075871,94.0120047 C137.360199,97.7115294 143.179818,100.72861 144.803825,102.64213 C148.589494,104.141618 152.291598,105.841038 156.106437,107.143743 C159.941772,108.367735 163.691966,109.842034 167.558047,110.836183 C166.674304,111.154972 170.185627,113.269998 166.461449,112.213666 C172.091075,114.164968 177.018279,115.925785 169.386237,114.216919 L174.614592,115.624313 L177.220097,116.339817 L179.857925,116.902617 L190.381645,119.239614 L200.966855,121.102758 L206.255125,122.05755 L211.57414,122.73291 L222.208229,124.127709 C225.757393,124.546464 229.321535,124.72593 232.875429,125.051803 C236.433264,125.31077 239.987158,125.735035 243.54657,125.87908 L254.225595,126.232503 C268.308726,126.670936 282.363477,127.112517 296.331509,127.55095 C303.279261,128.076755 310.204939,128.574223 317.10539,128.996126 C320.561528,129.190548 324.006629,129.384183 327.444635,129.578605 C330.871604,129.915498 334.290689,130.251603 337.701891,130.587709 C341.366154,131.205608 339.197396,131.481892 337.746827,131.66372 C347.917365,131.462214 347.241746,133.704755 352.676649,134.628849 C357.640906,134.516289 362.554708,134.898049 367.523695,135.009822 C373.344102,136.748598 368.625023,136.554964 368.994761,137.065813 C396.395534,142.556065 423.294914,147.847959 444.657694,156.527674 C451.782825,158.060221 443.4728,154.200909 452.655531,157.101494 C439.996165,154.984106 477.179605,166.845412 471.071449,166.240894 C480.782377,167.440484 503.50743,177.351275 500.448622,172.804008 C511.431163,176.479131 509.146517,177.311131 505.896927,176.528721 C512.290467,178.62643 518.094319,180.442345 523.551296,182.363737 C529.005908,184.294574 534.253972,185.881434 539.424777,187.961826 C541.249813,188.23811 545.800973,189.691157 551.964314,191.011179 C555.032582,191.731405 558.470588,192.538217 562.115142,193.395404 C563.938602,193.814159 565.806209,194.289587 567.717965,194.686302 C569.640757,195.015324 571.595083,195.349068 573.557293,195.682025 C589.216341,198.787265 605.700795,199.683809 611.689122,199.132816 C603.503656,199.838087 612.245698,200.329258 620.039353,201.066014 L612.912645,202.260095 L630.600125,202.700889 C634.200531,202.957495 635.212776,202.929945 635.194644,202.800068 C636.694879,202.815024 636.5175,202.600924 636.916406,202.369507 C637.317678,202.138089 638.296812,201.941306 642.073809,201.657151 C654.021293,201.350957 654.615711,202.130218 661.210281,202.755989 L659.385245,203 L667.509219,202.987406 C673.474683,202.837851 646.358506,201.941306 665.811895,200.851914 C666.098067,201.384803 677.622206,202.571013 682.81745,201.248629 C672.870017,201.893291 674.091175,200.819642 677.727057,200.186787 L691.646211,199.284733 L687.139988,201.367486 C727.152826,199.013172 768.538975,190.273635 809.638951,177.786559 C808.739441,176.411438 838.703148,169.09425 834.479943,167.958418 L832.952116,168.633778 C822.814689,171.372213 835.455924,165.937848 843.758854,163.907832 C835.306925,166.97214 859.689884,161.976995 838.853724,168.065468 C844.308335,166.842263 849.780291,165.855986 855.230173,164.742193 C857.689045,165.180626 861.616618,164.879154 866.495732,163.934594 C868.936472,163.474122 871.617659,162.850712 874.482533,162.161184 C877.362385,161.58028 880.421982,160.915153 883.60535,160.198074 C886.793448,159.525076 890.078513,158.62066 893.466064,158.049989 C894.467272,157.877607 895.480305,157.70365 896.490185,157.530481 C896.749553,156.849611 897.327416,156.302554 898.317587,156.139617" id="Fill-1" fill="#FF5E0E" mask="url(#mask-2)"></path>
                </g>
                <g id="Page-1-Copy-4" transform="translate(1415.500000, 184.000000) scale(-1, 1) translate(-1415.500000, -184.000000) translate(924.000000, 70.000000)">
                    <mask id="mask-4" fill="white">
                        <use xlink:href="#path-3"></use>
                    </mask>
                    <g id="Clip-2"></g>
                    <path d="M956,66.813 C956.088,66.6 956.176,66.384 956.26,66.171 C956.432,66.12 956.602,66.06 956.772,66 C956.49,66.336 956.232,66.603 956,66.813 Z M949.644224,72.4029658 C948.724161,73.3081883 947.765593,74.1308833 946.825265,75 C950.252195,70.9432624 947.042108,72.374597 943.138933,74.311412 C942.764017,74.4738878 942.380995,74.6389426 942,74.8039974 C943.678,73.4912959 945.199955,72.2250161 946.600315,71 C947.641973,71.1598968 948.734294,71.3507415 949.72934,71.2372663 C950.179239,71.1779497 950.596712,71.1005803 951,71.0180529 L949.644224,72.4029658 Z M490.52708,202.603669 L488,202.336669 C493.691985,201.670669 492.101459,202.117669 490.52708,202.603669 Z M-33,-26 L-33,228 C-31.7990485,226.154909 -30.5701214,224.267564 -29.291238,222.301345 L-28.5139166,221.1126 L-27.7445883,220.12949 C-27.2290384,219.475962 -26.7234798,218.8168 -26.1579735,218.205525 L-25.3306958,217.270304 L-24.863104,216.712551 L-23.923924,215.594229 C-21.4700663,212.492786 -18.5865838,209.774446 -15.8489739,207.202586 C-13.1593221,204.529317 -10.271843,202.658874 -7.80999237,201.146181 C-10.3377855,202.281405 -12.8915559,203.439164 -7.80999237,198.833479 C-3.89740829,195.337666 2.11134571,192.475662 7.75042246,189.115062 C13.5333736,186.137564 19.2104172,183.31218 22.8112734,180.005102 C23.9682633,179.621999 24.4478446,179.647351 24.5357679,179.782564 C27.838884,177.945924 33.2701422,175.176879 38.3596987,172.475441 C43.4892204,169.93175 48.3769531,167.900742 50.3292486,166.455655 C52.1416663,167.00214 55.6785783,166.095088 60.0127943,164.624649 C64.3989649,163.43027 69.5764447,161.63025 74.5580954,159.878118 C77.0519181,159.004869 79.4957845,158.151338 81.7538131,157.362597 C84.0398173,156.754139 86.1479767,156.238641 87.9464066,155.866806 C91.5392698,155.131586 93.8912164,155.010458 93.9651519,156.080893 L104.815679,153.65833 C108.426526,152.776631 112.095323,152.458317 115.732148,151.832958 L115.194617,152.351274 C122.196504,151.503377 126.914385,150.649846 130.495259,149.790682 C132.283698,149.359691 133.788384,148.928701 135.151194,148.49771 C136.514004,148.120241 137.740933,147.782209 138.965864,147.444177 C142.233011,147.492065 139.877068,148.072353 139.621291,148.317426 C149.912307,147.976577 155.559376,147.72587 160.782816,147.128681 C166.002259,146.435715 170.818055,145.793455 179.442525,144.646963 L181.252944,146.018809 C183.588905,145.585001 191.038401,146.032894 200.412217,146.354024 C205.092131,146.644168 210.231644,147.176568 215.473068,147.421642 C218.090783,147.534319 220.734475,147.649813 223.348193,147.76249 C225.957914,147.968127 228.543657,148.11179 231.05946,148.179396 C230.85364,148.317426 230.424015,148.542781 228.825411,148.565316 C234.470482,148.824474 240.687055,149.261099 246.861664,150.711819 C249.952965,151.376615 253.058254,152.044228 256.113587,152.70339 C259.168919,153.348468 262.132332,154.371014 265.007821,155.131586 C267.879314,155.942863 270.638905,156.694984 273.236637,157.351329 C275.820381,158.13162 278.238271,158.835853 280.440348,159.356985 C284.840506,160.424603 288.383413,160.765452 290.601477,160.269671 C295.517185,161.52884 300.452876,162.644346 305.372581,164.02746 C286.578989,157.142876 308.571788,162.790826 300.948443,159.325999 C308.437904,161.621799 319.83995,167.765529 310.695933,164.66972 L309.317137,163.906331 C305.508462,165.190853 332.534866,173.464184 331.723575,175.019131 C368.795209,189.137597 406.124618,199.019397 442.215109,201.681398 L438.150658,199.326443 L450.705696,200.346172 C453.984833,201.061673 455.085872,202.275771 446.113705,201.546185 C450.799614,203.041977 461.194539,201.701117 461.452314,201.098293 C478.998994,202.329293 454.540348,203.343389 459.92165,203.512404 L467.249253,203.526489 L465.60269,203.25043 C471.551497,202.54338 472.087029,201.66168 482.86362,202.008162 C486.270646,202.329293 487.153875,202.55183 487.515559,202.813805 C487.875245,203.07578 487.715385,203.318036 489.068203,203.301135 C489.052217,203.447615 489.96542,203.478601 493.212585,203.188457 L509.166656,202.68986 L502.738269,201.340549 C509.768131,200.506737 517.653247,199.951802 510.269693,199.15461 C515.670978,199.777152 530.539996,198.763056 544.663665,195.253158 C546.43412,194.875689 548.196581,194.49822 549.931067,194.126385 C551.655561,193.678493 553.34009,193.140458 554.984654,192.667214 C558.271785,191.698189 561.373077,190.785503 564.140661,189.971409 C569.699807,188.478435 573.804224,186.836163 575.450786,186.523484 C580.114714,184.171345 584.848582,182.376959 589.768286,180.193836 C594.689989,178.021981 599.925419,175.968437 605.692384,173.59658 C602.760943,174.481097 600.700742,173.540241 610.606094,169.385265 C607.802541,174.610676 629.030009,162.94294 637.532585,161.897858 C630.043124,163.266888 665.392262,149.182224 653.714458,151.630139 C661.997226,148.351229 654.50177,152.714658 660.92816,150.982244 C680.197336,141.168051 704.460154,135.184886 729.174576,128.976367 C729.508285,128.398895 725.252001,128.618616 730.501418,126.652397 C734.983505,126.525635 739.415635,126.094645 743.893726,126.221406 C748.795446,125.176324 748.185978,122.641085 757.359969,122.869257 C756.051112,122.663621 754.09482,122.350941 757.399934,121.652342 C760.477247,121.272056 763.560555,120.89177 766.651856,120.511484 C769.753149,120.291763 772.860436,120.072042 775.977714,119.852322 C782.20228,119.37626 788.448826,118.812874 794.715355,118.218501 C807.314356,117.722721 819.991288,117.224124 832.694198,116.728343 L842.325789,116.328339 C845.536985,116.164957 848.742187,115.686078 851.951385,115.393117 C855.156587,115.024099 858.37178,114.82128 861.572985,114.348035 L871.164611,112.770553 L875.962422,112.007164 L880.732257,110.928279 L890.279922,108.821213 L899.771635,106.178931 L902.151557,105.542304 L904.501506,104.733844 L909.217388,103.142277 C902.333398,105.074693 906.777518,103.083122 911.855085,100.877463 C908.496018,102.071843 911.663253,99.6802671 910.865949,99.3196997 C914.352905,98.1957435 917.735951,96.5281194 921.194931,95.1450055 C924.635927,93.6717497 927.975012,91.7506016 931.39003,90.0548082 C932.854751,87.8914039 938.104168,84.4800985 942.870008,80.2969535 C945.31787,78.392707 947.53993,76.0405683 949.344355,74.2856192 C950.393439,73.1588462 951.208727,72.1503843 951.77823,71.325023 C952.12193,71.2151626 952.46563,71.1081192 952.739391,70.947554 C953.444775,70.4855771 953.894383,69.9475429 953.962323,69.3362686 C954.024269,69.6404973 953.758501,72.2686954 953.57666,72.7813772 C954.669706,71.0545975 955.586905,69.2179574 956.400195,67.3559649 C957.101583,67.2573723 957.81496,67.1728643 958.514349,66.9925806 C958.540326,66.9390589 958.566304,66.8827202 958.592281,66.8291985 C959.123817,68.6855571 959.551444,70.6686777 958.1127,71.8658741 C958.927988,71.9785514 959.887151,71.8968603 961.283931,70.6095221 C960.716427,70.5278311 959.497491,68.2235802 960.108957,67.7869556 C962.368984,69.2883807 961.569682,68.4461178 964.221367,69.2461267 C963.400084,69.1644357 963.43805,65.7869334 964.503121,65.2967871 C964.459159,65.8404551 965.406332,68.2151294 965.094604,68.7531635 C965.734046,67.2545553 966.345512,65.7672149 966.929003,64.2939591 C966.425442,65.1925606 967.558453,66.8545509 968.403715,67.2855416 C967.944116,66.8827202 970.725688,65.9108785 971.30718,65.136222 L969.984335,65.2010114 C973.065645,63.6742339 971.469039,59.2741851 974.286579,57.4347281 C974.164685,58.2516386 974.762164,61.62069 976.314808,60.9361754 C976.380751,59.9108119 976.466676,57.4037419 976.826362,54.848784 C976.82836,54.845967 976.830358,54.845967 976.834355,54.8431501 C977.863456,54.0741275 978.880568,53.2713017 979.905673,52.4910113 C979.3022,55.3642826 978.518884,58.44319 977.855463,60.240393 C979.146336,60.1136311 978.510891,60.9981479 980.049548,59.741796 C980.89481,60.0910956 979.635909,61.5559006 979.1883,61.9418204 L983.034941,59.6798234 C982.237637,58.1474121 985.16708,55.8628797 984.487673,54.5924431 L981.210534,59.3389746 C980.42522,57.7981124 981.682122,52.8881988 984.331809,51.2008562 C985.241015,51.3557875 985.005221,54.5248367 985.274985,55.0347015 C985.388886,54.2149741 987.265248,52.0403021 987.660902,52.2572059 L986.931539,53.9980703 C988.598084,53.4825716 988.37428,49.9895751 990.696252,50.1783096 C991.321706,49.8064745 993.30997,50.8656412 993.01223,49.8121084 C991.977134,49.15858 990.652291,46.8684138 989.761069,44.7275449 C990.418495,44.1923277 991.081916,43.6599275 991.735345,43.1190764 L991.919185,43.8373942 L992.29086,43.5021792 L992.015101,42.885271 C992.682518,42.3331522 993.341943,41.7641318 994.007362,41.2063791 C994.812659,42.4063924 993.769569,45.5641739 994.946542,46.0740387 C994.794674,45.6007941 995.090416,44.6120507 995.236289,44.2514833 C996.001621,44.1247214 995.566001,45.8458672 996.800923,44.5331766 C996.321341,42.6965365 999.534536,42.3979416 996.828898,42.6120285 C997.911953,41.0486309 998.339579,41.7923011 999.81629,40.4317227 C999.194833,39.997915 999.31273,38.0373299 999.766334,36.3049163 C1000.30187,35.8401224 1000.8334,35.3668778 1001.36893,34.8992669 C1001.42888,34.9358871 1001.49083,34.9696902 1001.53679,34.9950426 C1004.19447,32.8541738 1005.91696,32.3612106 1008.32686,30.1949894 C1008.73051,30.3865408 1010.10531,29.8062527 1009.92946,30.9527443 C1010.14527,30.3499207 1010.21121,29.5104748 1010.93059,28.7949739 C1013.00478,28.8710311 1009.38194,30.5245705 1011.24231,31.1950005 C1010.90461,30.1724539 1012.56516,28.1498963 1013.34248,26.5949495 C1012.35135,25.4597256 1010.78671,28.5499007 1009.9974,30.1076645 C1009.67768,29.4090652 1009.58776,28.4907452 1009.67568,27.4653817 C1012.22346,25.1385953 1014.75525,22.7836396 1017.27305,20.3948807 C1019.26131,19.420222 1023.30778,14.6567889 1026.24322,13.1187437 C1026.45303,12.476483 1026.8307,11.6511218 1026.80273,11.1863279 C1028.70307,9.31588462 1030.59742,7.43980747 1032.48177,5.5440118 C1033.77864,4.24258892 1035.04753,2.89891204 1036.3384,1.58622143 C1036.39236,1.75523739 1036.4583,1.92425335 1036.58019,2.05946611 L1037.42146,0.467899167 C1037.50539,0.383391188 1037.58931,0.298883208 1037.67124,0.211558296 C1037.7212,0.552407147 1037.58731,1.19185086 1038.01494,1.05382116 C1037.89505,0.738324701 1037.91902,0.296066276 1038.04292,-0.165910679 C1044.78903,-7.08148033 1051.48318,-14.1040934 1058.11739,-21.23375 C1059.0246,-22.2112256 1060.38341,-23.9182868 1062,-26 L-33,-26 Z" id="Fill-1" fill="#FFC536" mask="url(#mask-4)"></path>
                </g>
            </g>
        </g>
    </g>
</svg>