<svg xmlns="http://www.w3.org/2000/svg" xmlns:xlink="http://www.w3.org/1999/xlink" width="121" height="120" viewBox="0 0 121 120">
    <defs>
        <path id="a" d="M60.2 0L0 60l60.2 60 60.199-60"/>
        <path id="c" d="M60.2 0L0 60l60.2 60 60.199-60"/>
        <path id="e" d="M60.2 0L0 60l60.2 60 60.199-60"/>
        <path id="g" d="M60.2 0L0 60l60.2 60 60.199-60z"/>
        <path id="i" d="M60.2 0L0 60l60.2 60 60.199-60"/>
        <path id="k" d="M60.2 0L0 60l60.2 60 60.199-60"/>
        <path id="m" d="M60.2 0L0 60l60.2 60 60.199-60z"/>
        <path id="o" d="M.33.074l.01 49.188 40.54-.007L68.026 22.2 45.817.065z"/>
        <path id="q" d="M.33.074l.01 49.188 40.54-.007L68.026 22.2 45.817.065"/>
        <path id="s" d="M.33.074l.01 49.188 40.54-.007L68.026 22.2 45.817.065"/>
        <path id="u" d="M.33.074l.01 49.188 40.54-.007L68.026 22.2 45.817.065"/>
        <path id="w" d="M.33.074l.01 49.188 40.54-.007L68.026 22.2 45.817.065"/>
        <path id="y" d="M.33.074l.01 49.188 40.54-.007L68.026 22.2 45.817.065z"/>
        <path id="A" d="M.33.074l.01 49.188 40.54-.007L68.026 22.2 45.817.065z"/>
        <path id="C" d="M.33.074l.01 49.188 40.54-.007L68.026 22.2 45.817.065z"/>
        <path id="E" d="M.33.074l.01 49.188 40.54-.007L68.026 22.2 45.817.065"/>
        <path id="G" d="M.33.074l.01 49.188 40.54-.007L68.026 22.2 45.817.065"/>
        <path id="I" d="M.33.074l.01 49.188 40.54-.007L68.026 22.2 45.817.065"/>
    </defs>
    <g fill="none" fill-rule="evenodd">
        <path fill="#FBE1D8" d="M60.2 0L0 60l60.2 60 60.198-60z"/>
        <g>
            <mask id="b" fill="#fff">
                <use xlink:href="#a"/>
            </mask>
            <path fill="#FFC536" d="M93.128 51.18a4.57 4.57 0 0 1 2.54 5.956 4.597 4.597 0 0 1-5.977 2.53 4.571 4.571 0 0 1-2.538-5.956 4.596 4.596 0 0 1 5.975-2.53" mask="url(#b)"/>
        </g>
        <g>
            <mask id="d" fill="#fff">
                <use xlink:href="#c"/>
            </mask>
            <path fill="#FF5050" d="M87.807 49.04a4.57 4.57 0 0 1 2.539 5.955 4.597 4.597 0 0 1-5.976 2.53 4.571 4.571 0 0 1-2.539-5.956 4.596 4.596 0 0 1 5.976-2.53" mask="url(#d)"/>
        </g>
        <g>
            <mask id="f" fill="#fff">
                <use xlink:href="#e"/>
            </mask>
            <path fill="#FF8C5A" d="M87.153 53.71c-.54 1.335-.386 2.764.264 3.93 1.281-.39 2.388-1.31 2.929-2.645.54-1.335.386-2.764-.266-3.93-1.28.389-2.387 1.31-2.927 2.645" mask="url(#f)"/>
        </g>
        <g>
            <mask id="h" fill="#fff">
                <use xlink:href="#g"/>
            </mask>
            <path fill="#C8C9CA" d="M137.065 91.807v1.587c0 2.618-2.148 4.76-4.775 4.76l-85.916.017c-2.627 0-4.777-2.14-4.777-4.759v-1.587l95.468-.018z" mask="url(#h)"/>
        </g>
        <g>
            <mask id="j" fill="#fff">
                <use xlink:href="#i"/>
            </mask>
            <path fill="#B4B5B7" d="M82.166 90.23l14.329-.002c1.353 0 2.388 1.03 2.388 2.38 0 1.348-1.035 2.38-2.388 2.38l-14.328.003c-1.353 0-2.388-1.03-2.389-2.38a2.392 2.392 0 0 1 2.388-2.38" mask="url(#j)"/>
        </g>
        <g>
            <mask id="l" fill="#fff">
                <use xlink:href="#k"/>
            </mask>
            <path fill="#3E4041" d="M51.11 33.114l76.417-.015a3.188 3.188 0 0 1 3.185 3.173l.011 55.536-82.785.016-.01-55.536a3.188 3.188 0 0 1 3.183-3.174" mask="url(#l)"/>
        </g>
        <g>
            <mask id="n" fill="#fff">
                <use xlink:href="#m"/>
            </mask>
            <path fill="#656769" d="M52.704 37.873l73.232-.013.01 49.189-73.233.014z" mask="url(#n)"/>
        </g>
        <g>
            <g transform="translate(52.373 37.8)">
                <mask id="p" fill="#fff">
                    <use xlink:href="#o"/>
                </mask>
                <path fill="#FFF" d="M69.638 51.738a2.275 2.275 0 0 1-2.278 2.272l-60.687.012a2.274 2.274 0 0 1-2.278-2.27l-.01-45.814a2.275 2.275 0 0 1 2.28-2.272l60.685-.012a2.275 2.275 0 0 1 2.28 2.271l.008 45.813z" mask="url(#p)"/>
            </g>
            <g transform="translate(52.373 37.8)">
                <mask id="r" fill="#fff">
                    <use xlink:href="#q"/>
                </mask>
                <path fill="#DCDDDD" d="M67.35 3.655l-56.04.011.002 5.651 58.318-.01V5.924c-.001-1.255-1.021-2.27-2.28-2.27" mask="url(#r)"/>
            </g>
            <g transform="translate(52.373 37.8)">
                <mask id="t" fill="#fff">
                    <use xlink:href="#s"/>
                </mask>
                <path fill="#C8C9CA" d="M31.12 30.57l-18.8.004a1.423 1.423 0 0 1-1.424-1.42c0-.783.638-1.42 1.424-1.42l18.8-.003c.786 0 1.423.635 1.423 1.42 0 .783-.637 1.419-1.423 1.419" mask="url(#t)"/>
            </g>
            <g transform="translate(52.373 37.8)">
                <mask id="v" fill="#fff">
                    <use xlink:href="#u"/>
                </mask>
                <path fill="#C8C9CA" d="M31.12 36.925l-18.798.004a1.422 1.422 0 0 1-1.424-1.419c-.001-.784.637-1.42 1.423-1.42l18.8-.003c.786 0 1.424.635 1.424 1.419 0 .783-.637 1.42-1.424 1.42" mask="url(#v)"/>
            </g>
            <g transform="translate(52.373 37.8)">
                <mask id="x" fill="#fff">
                    <use xlink:href="#w"/>
                </mask>
                <path fill="#C8C9CA" d="M31.122 43.281l-18.799.004a1.422 1.422 0 0 1-1.424-1.42c0-.784.637-1.42 1.423-1.42l18.8-.003a1.42 1.42 0 0 1 1.424 1.42c0 .783-.637 1.42-1.424 1.42" mask="url(#x)"/>
            </g>
            <g transform="translate(52.373 37.8)">
                <mask id="z" fill="#fff">
                    <use xlink:href="#y"/>
                </mask>
                <path fill="#FF5E0E" d="M63.398 20.868a2.274 2.274 0 0 1-2.278 2.271l-48.61.01a2.275 2.275 0 0 1-2.28-2.27v-4.63a2.274 2.274 0 0 1 2.277-2.272l48.611-.01a2.274 2.274 0 0 1 2.28 2.271v4.63z" mask="url(#z)"/>
            </g>
            <g transform="translate(52.373 37.8)">
                <mask id="B" fill="#fff">
                    <use xlink:href="#A"/>
                </mask>
                <path fill="#C8C9CA" d="M63.402 41.083c0 1.273-1.02 2.305-2.278 2.305l-21.83.005c-1.26 0-2.28-1.032-2.28-2.304l-.002-11.168c0-1.273 1.02-2.304 2.278-2.304l21.831-.004c1.258-.001 2.279 1.03 2.28 2.303l.001 11.167z" mask="url(#B)"/>
            </g>
            <g transform="translate(52.373 37.8)">
                <mask id="D" fill="#fff">
                    <use xlink:href="#C"/>
                </mask>
                <path fill="#DCDDDD" d="M12.316 9.317V3.665l-5.652.001a2.275 2.275 0 0 0-2.278 2.272v3.38h7.93z" mask="url(#D)"/>
            </g>
            <g transform="translate(52.373 37.8)">
                <mask id="F" fill="#fff">
                    <use xlink:href="#E"/>
                </mask>
                <path fill="#FF5E0E" d="M8.734 5.034c.787 0 1.425.635 1.425 1.419s-.637 1.42-1.424 1.42a1.422 1.422 0 0 1-1.425-1.42c0-.783.637-1.419 1.424-1.419" mask="url(#F)"/>
            </g>
            <g transform="translate(52.373 37.8)">
                <mask id="H" fill="#fff">
                    <use xlink:href="#G"/>
                </mask>
                <path fill="#FFC536" d="M13.008 5.033a1.42 1.42 0 0 1 0 2.84 1.422 1.422 0 0 1-1.425-1.42c0-.784.638-1.42 1.425-1.42" mask="url(#H)"/>
            </g>
            <g transform="translate(52.373 37.8)">
                <mask id="J" fill="#fff">
                    <use xlink:href="#I"/>
                </mask>
                <path fill="#4FBA6F" d="M17.281 5.032c.787 0 1.425.636 1.425 1.42 0 .784-.638 1.42-1.424 1.42a1.421 1.421 0 0 1-1.425-1.42c0-.784.637-1.42 1.424-1.42" mask="url(#J)"/>
            </g>
        </g>
        <g transform="translate(36 16)">
            <path fill="#FFF" d="M3 3h23v41H3z"/>
            <path fill="#3E4041" d="M3.356 45.65h21.798V3.723H3.356V45.65zM25.154.37H3.356A3.355 3.355 0 0 0 0 3.723V45.65A3.353 3.353 0 0 0 3.356 49h21.798a3.35 3.35 0 0 0 3.355-3.35V3.723c0-1.852-1.5-3.353-3.355-3.353z"/>
            <rect width="19" height="6" x="5" y="9" fill="#FF5E0E" rx="2"/>
            <rect width="13" height="3" x="5" y="18" fill="#C8C9CA" rx="1.5"/>
            <rect width="10" height="3" x="5" y="24" fill="#C8C9CA" rx="1.5"/>
            <rect width="15" height="3" x="5" y="30" fill="#C8C9CA" rx="1.5"/>
            <path fill="#3E4041" d="M3 46.6h23.454v-4.23H3z"/>
            <path fill="#E6E9ED" d="M16.353 46.05a1.678 1.678 0 1 1-3.355-.004 1.678 1.678 0 0 1 3.355.005"/>
        </g>
    </g>
</svg>
