<?xml version="1.0" encoding="utf-8"?>
<!-- Generator: Adobe Illustrator 16.0.0, SVG Export Plug-In . SVG Version: 6.00 Build 0)  -->
<!DOCTYPE svg PUBLIC "-//W3C//DTD SVG 1.1//EN" "http://www.w3.org/Graphics/SVG/1.1/DTD/svg11.dtd">
<svg version="1.1" id="圖層_1" xmlns="http://www.w3.org/2000/svg" xmlns:xlink="http://www.w3.org/1999/xlink" x="0px" y="0px"
	 width="120px" height="120px" viewBox="0 0 120 120" enable-background="new 0 0 120 120" xml:space="preserve">
<title>img-free</title>
<desc>Created with Sketch.</desc>
<g id="_x31_.0_x5F_Homepage-">
	<g id="B-1-1-首頁" transform="translate(-346.000000, -1868.000000)">
		<g id="img-free" transform="translate(346.000000, 1868.000000)">
			<polygon id="Fill-1" fill="#FBE1D8" points="0,60 60,120 120,60 60,0 			"/>
			<g id="Group-26">
				<g id="Group-4">
					<g id="Clip-3">
					</g>
					<defs>
						<filter id="Adobe_OpacityMaskFilter" filterUnits="userSpaceOnUse" x="37.598" y="46.734" width="75.221" height="59.751">
							<feColorMatrix  type="matrix" values="1 0 0 0 0  0 1 0 0 0  0 0 1 0 0  0 0 0 1 0"/>
						</filter>
					</defs>
					<mask maskUnits="userSpaceOnUse" x="37.598" y="46.734" width="75.221" height="59.751" id="mask-2">
						<g filter="url(#Adobe_OpacityMaskFilter)">
							<polyline id="path-1" fill="#FFFFFF" points="60,0 0,60 60,120 120,60 							"/>
						</g>
					</mask>
					<path id="Fill-2" mask="url(#mask-2)" fill="#F7C7B7" d="M112.818,73.021c0-14.518-15.596-26.288-34.834-26.288
						c-7.521,0-14.479,1.806-20.175,4.865c-4.585-3.981-10.179-4.992-13.318-2.107c-0.954,0.917,1.142,5.008,4.217,9.294
						c-2.315,2.708-3.995,5.75-4.865,9.021l-1.021,0.258c-3.688,0.94-5.935,4.767-5.02,8.547l1.656,6.847
						c0.916,3.78,4.646,6.084,8.333,5.144l1.875-0.479c2.273,2.334,5.063,4.361,8.25,6.003l-1.296,5.047
						c-0.799,3.111,1.002,6.296,4.022,7.118c3.021,0.82,6.118-1.033,6.916-4.141l1.109-4.318c2.966,0.594,6.087,0.914,9.314,0.914
						c3.465,0,6.807-0.367,9.965-1.048l1.199,4.521c0.824,3.053,4.018,4.872,7.133,4.065c3.115-0.806,4.975-3.935,4.15-6.987
						l-1.496-5.634C107.366,89.025,112.818,81.604,112.818,73.021"/>
				</g>
				<g id="Group-7">
					<g id="Clip-6">
					</g>
					<defs>
						<filter id="Adobe_OpacityMaskFilter_1_" filterUnits="userSpaceOnUse" x="51.965" y="52.256" width="39.842" height="17.721">
							<feColorMatrix  type="matrix" values="1 0 0 0 0  0 1 0 0 0  0 0 1 0 0  0 0 0 1 0"/>
						</filter>
					</defs>
					<mask maskUnits="userSpaceOnUse" x="51.965" y="52.256" width="39.842" height="17.721" id="mask-4">
						<g filter="url(#Adobe_OpacityMaskFilter_1_)">
							<polyline id="path-3" fill="#FFFFFF" points="60,0 0,60 60,120 120,60 							"/>
						</g>
					</mask>
					<path id="Fill-5" mask="url(#mask-4)" fill="#3E4041" d="M54.732,64.441c-1.527,0-2.767,1.238-2.767,2.767
						s1.24,2.769,2.767,2.769s2.767-1.24,2.767-2.769C57.498,65.68,56.26,64.441,54.732,64.441 M90.367,54.526
						c0,0-6.471-2.27-12.943-2.27c-6.477,0-12.953,2.374-12.953,2.374c-0.795,0-1.438,0.709-1.438,1.584
						c0,0.873,0.645,1.583,1.438,1.583c0.301,0,0.576-0.101,0.807-0.273c1.921-0.622,7.021-2.101,12.136-2.101
						c5.151,0,10.295,1.432,12.187,2.021c0.223,0.155,0.485,0.249,0.77,0.249c0.793,0,1.438-0.709,1.438-1.583
						C91.805,55.234,91.162,54.526,90.367,54.526"/>
				</g>
				<g id="Group-10">
					<g id="Clip-9">
					</g>
					<defs>
						<filter id="Adobe_OpacityMaskFilter_2_" filterUnits="userSpaceOnUse" x="16.791" y="49.569" width="20.863" height="20.863">
							<feColorMatrix  type="matrix" values="1 0 0 0 0  0 1 0 0 0  0 0 1 0 0  0 0 0 1 0"/>
						</filter>
					</defs>
					<mask maskUnits="userSpaceOnUse" x="16.791" y="49.569" width="20.863" height="20.863" id="mask-6">
						<g filter="url(#Adobe_OpacityMaskFilter_2_)">
							<polyline id="path-5" fill="#FFFFFF" points="60,0 0,60 60,120 120,60 							"/>
						</g>
					</mask>
					<path id="Fill-8" mask="url(#mask-6)" fill="#FFC536" d="M27.223,49.569c5.762,0,10.431,4.67,10.431,10.432
						c0,5.761-4.669,10.431-10.431,10.431c-5.761,0-10.432-4.67-10.432-10.431C16.791,54.239,21.462,49.569,27.223,49.569"/>
				</g>
				<g id="Group-13">
					<g id="Clip-12">
					</g>
					<defs>
						<filter id="Adobe_OpacityMaskFilter_3_" filterUnits="userSpaceOnUse" x="23.202" y="53.588" width="8.025" height="12.822">
							<feColorMatrix  type="matrix" values="1 0 0 0 0  0 1 0 0 0  0 0 1 0 0  0 0 0 1 0"/>
						</filter>
					</defs>
					<mask maskUnits="userSpaceOnUse" x="23.202" y="53.588" width="8.025" height="12.822" id="mask-8">
						<g filter="url(#Adobe_OpacityMaskFilter_3_)">
							<polyline id="path-7" fill="#FFFFFF" points="60,0 0,60 60,120 120,60 							"/>
						</g>
					</mask>
					<path id="Fill-11" mask="url(#mask-8)" fill="#3E4041" d="M28.557,59.234c-0.6-0.232-2.805-0.55-2.805-1.43
						c0-0.65,0.825-0.838,1.319-0.838c0.451,0,0.991,0.13,1.275,0.39c0.18,0.16,0.254,0.275,0.315,0.434
						c0.074,0.187,0.12,0.39,0.406,0.39h1.469c0.345,0,0.435-0.058,0.435-0.406c0-1.487-1.274-2.324-2.729-2.613v-1.155
						c0-0.26-0.09-0.418-0.435-0.418h-1.17c-0.345,0-0.435,0.159-0.435,0.418v1.112c-1.56,0.274-2.864,1.169-2.864,2.787
						c0,1.835,1.395,2.413,2.909,2.875c1.274,0.39,2.609,0.404,2.609,1.214c0,0.809-0.659,0.981-1.47,0.981
						c-0.555,0-1.17-0.131-1.47-0.479c-0.196-0.215-0.27-0.403-0.285-0.59c-0.029-0.361-0.195-0.406-0.54-0.406h-1.454
						c-0.345,0-0.435,0.072-0.435,0.406c0,1.645,1.439,2.642,3,2.96v1.126c0,0.26,0.09,0.418,0.435,0.418h1.17
						c0.345,0,0.435-0.158,0.435-0.418v-1.098c1.77-0.246,2.985-1.229,2.985-2.961C31.227,59.971,29.637,59.551,28.557,59.234"/>
				</g>
				<g id="Group-16">
					<g id="Clip-15">
					</g>
					<defs>
						<filter id="Adobe_OpacityMaskFilter_4_" filterUnits="userSpaceOnUse" x="43.318" y="27.04" width="7.558" height="11.837">
							<feColorMatrix  type="matrix" values="1 0 0 0 0  0 1 0 0 0  0 0 1 0 0  0 0 0 1 0"/>
						</filter>
					</defs>
					<mask maskUnits="userSpaceOnUse" x="43.318" y="27.04" width="7.558" height="11.837" id="mask-10">
						<g filter="url(#Adobe_OpacityMaskFilter_4_)">
							<polygon id="path-9" fill="#FFFFFF" points="60,0 0,60 60,120 120,60 							"/>
						</g>
					</mask>
					<polygon id="Fill-14" mask="url(#mask-10)" fill="#FF5E0E" points="43.318,27.04 50.876,27.04 50.876,29.395 46.166,29.395 
						46.166,31.988 50.208,31.988 50.208,34.359 46.166,34.359 46.166,38.877 43.318,38.877 					"/>
				</g>
				<g id="Group-19">
					<g id="Clip-18">
					</g>
					<defs>
						<filter id="Adobe_OpacityMaskFilter_5_" filterUnits="userSpaceOnUse" x="52.339" y="29.602" width="6.238" height="9.276">
							<feColorMatrix  type="matrix" values="1 0 0 0 0  0 1 0 0 0  0 0 1 0 0  0 0 0 1 0"/>
						</filter>
					</defs>
					<mask maskUnits="userSpaceOnUse" x="52.339" y="29.602" width="6.238" height="9.276" id="mask-12">
						<g filter="url(#Adobe_OpacityMaskFilter_5_)">
							<polygon id="path-11" fill="#FFFFFF" points="60,0 0,60 60,120 120,60 							"/>
						</g>
					</mask>
					<path id="Fill-17" mask="url(#mask-12)" fill="#FF5E0E" d="M52.339,29.824h2.308l0.19,1.576h0.064
						c0.668-1.209,1.671-1.798,2.578-1.798c0.541,0,0.843,0.08,1.098,0.191L58.1,32.228c-0.318-0.08-0.589-0.144-0.987-0.144
						c-0.668,0-1.479,0.43-1.957,1.623v5.171H52.34L52.339,29.824L52.339,29.824z"/>
				</g>
				<g id="Group-22">
					<g id="Clip-21">
					</g>
					<defs>
						<filter id="Adobe_OpacityMaskFilter_6_" filterUnits="userSpaceOnUse" x="59.021" y="29.602" width="8.178" height="9.498">
							<feColorMatrix  type="matrix" values="1 0 0 0 0  0 1 0 0 0  0 0 1 0 0  0 0 0 1 0"/>
						</filter>
					</defs>
					<mask maskUnits="userSpaceOnUse" x="59.021" y="29.602" width="8.178" height="9.498" id="mask-14">
						<g filter="url(#Adobe_OpacityMaskFilter_6_)">
							<polygon id="path-13" fill="#FFFFFF" points="60,0 0,60 60,120 120,60 							"/>
						</g>
					</mask>
					<path id="Fill-20" mask="url(#mask-14)" fill="#FF5E0E" d="M64.797,33.341c0-0.907-0.396-1.576-1.432-1.576
						c-0.779,0-1.465,0.493-1.654,1.576H64.797z M59.021,34.359c0-2.944,2.1-4.757,4.295-4.757c2.61,0,3.883,1.894,3.883,4.375
						c0,0.493-0.062,1.002-0.127,1.209h-5.314c0.256,1.242,1.114,1.75,2.26,1.75c0.652,0,1.258-0.191,1.91-0.573l0.938,1.703
						c-0.938,0.668-2.181,1.034-3.246,1.034C61.025,39.101,59.021,37.351,59.021,34.359z"/>
				</g>
				<g id="Group-25">
					<g id="Clip-24">
					</g>
					<defs>
						<filter id="Adobe_OpacityMaskFilter_7_" filterUnits="userSpaceOnUse" x="68.504" y="29.602" width="8.178" height="9.498">
							<feColorMatrix  type="matrix" values="1 0 0 0 0  0 1 0 0 0  0 0 1 0 0  0 0 0 1 0"/>
						</filter>
					</defs>
					<mask maskUnits="userSpaceOnUse" x="68.504" y="29.602" width="8.178" height="9.498" id="mask-16">
						<g filter="url(#Adobe_OpacityMaskFilter_7_)">
							<polygon id="path-15" fill="#FFFFFF" points="60,0 0,60 60,120 120,60 							"/>
						</g>
					</mask>
					<path id="Fill-23" mask="url(#mask-16)" fill="#FF5E0E" d="M74.279,33.341c0-0.907-0.397-1.576-1.432-1.576
						c-0.781,0-1.465,0.493-1.654,1.576H74.279z M68.504,34.359c0-2.944,2.1-4.757,4.297-4.757c2.609,0,3.881,1.894,3.881,4.375
						c0,0.493-0.062,1.002-0.127,1.209H71.24c0.255,1.242,1.113,1.75,2.26,1.75c0.652,0,1.257-0.191,1.91-0.573l0.938,1.703
						c-0.938,0.668-2.181,1.034-3.246,1.034C70.509,39.101,68.504,37.351,68.504,34.359z"/>
				</g>
			</g>
		</g>
	</g>
</g>
</svg>
