<?xml version="1.0" encoding="UTF-8" standalone="no"?>
<svg width="121px" height="120px" viewBox="0 0 121 120" version="1.1" xmlns="http://www.w3.org/2000/svg" xmlns:xlink="http://www.w3.org/1999/xlink">
    <!-- Generator: Sketch 49.1 (51147) - http://www.bohemiancoding.com/sketch -->
    <title>img-marketing</title>
    <desc>Created with Sketch.</desc>
    <defs>
        <polyline id="path-1" points="60.199607 0 0 60 60.199607 120 120.398612 60"></polyline>
        <polyline id="path-3" points="60.199607 0 0 60 60.199607 120 120.398612 60"></polyline>
        <polyline id="path-5" points="60.199607 0 0 60 60.199607 120 120.398612 60"></polyline>
        <polygon id="path-7" points="60.199607 0 0 60 60.199607 120 120.398612 60"></polygon>
        <polyline id="path-9" points="60.199607 0 0 60 60.199607 120 120.398612 60"></polyline>
        <polyline id="path-11" points="60.199607 0 0 60 60.199607 120 120.398612 60"></polyline>
        <polygon id="path-13" points="60.199607 0 0 60 60.199607 120 120.398612 60"></polygon>
        <polygon id="path-15" points="0.330492537 0.0738 0.340726368 49.2624 40.8805423 49.2552 68.0254776 22.2 45.8168607 0.0648"></polygon>
        <polyline id="path-17" points="0.330492537 0.0738 0.340726368 49.2624 40.8805423 49.2552 68.0254776 22.2 45.8168607 0.0648"></polyline>
        <polyline id="path-19" points="0.330492537 0.0738 0.340726368 49.2624 40.8805423 49.2552 68.0254776 22.2 45.8168607 0.0648"></polyline>
        <polyline id="path-21" points="0.330492537 0.0738 0.340726368 49.2624 40.8805423 49.2552 68.0254776 22.2 45.8168607 0.0648"></polyline>
        <polyline id="path-23" points="0.330492537 0.0738 0.340726368 49.2624 40.8805423 49.2552 68.0254776 22.2 45.8168607 0.0648"></polyline>
        <polygon id="path-25" points="0.330492537 0.0738 0.340726368 49.2624 40.8805423 49.2552 68.0254776 22.2 45.8168607 0.0648"></polygon>
        <polygon id="path-27" points="0.330492537 0.0738 0.340726368 49.2624 40.8805423 49.2552 68.0254776 22.2 45.8168607 0.0648"></polygon>
        <polygon id="path-29" points="0.330492537 0.0738 0.340726368 49.2624 40.8805423 49.2552 68.0254776 22.2 45.8168607 0.0648"></polygon>
        <polyline id="path-31" points="0.330492537 0.0738 0.340726368 49.2624 40.8805423 49.2552 68.0254776 22.2 45.8168607 0.0648"></polyline>
        <polyline id="path-33" points="0.330492537 0.0738 0.340726368 49.2624 40.8805423 49.2552 68.0254776 22.2 45.8168607 0.0648"></polyline>
        <polyline id="path-35" points="0.330492537 0.0738 0.340726368 49.2624 40.8805423 49.2552 68.0254776 22.2 45.8168607 0.0648"></polyline>
    </defs>
    <g id="1.0_Homepage-" stroke="none" stroke-width="1" fill="none" fill-rule="evenodd">
        <g id="B-1-1-首頁" transform="translate(-660.000000, -2178.000000)">
            <g id="img-marketing" transform="translate(660.000000, 2178.000000)">
                <polygon id="Fill-1" fill="#FBE1D8" points="60.1994866 0.00012 -0.00012039801 60.00012 60.1994866 120.00012 120.398492 60.00012"></polygon>
                <g id="Group-23">
                    <g id="Group-4">
                        <mask id="mask-2" fill="white">
                            <use xlink:href="#path-1"></use>
                        </mask>
                        <g id="Clip-3"></g>
                        <path d="M93.1282219,51.18006 C95.479595,52.12566 96.6161522,54.79266 95.6674159,57.13566 C94.7180776,59.47926 92.0428338,60.61206 89.6914607,59.66646 C87.3406896,58.71966 86.2035303,56.05386 87.1528687,53.71026 C88.101605,51.36726 90.7774507,50.23386 93.1282219,51.18006" id="Fill-2" fill="#FFC536" mask="url(#mask-2)"></path>
                    </g>
                    <g id="Group-7">
                        <mask id="mask-4" fill="white">
                            <use xlink:href="#path-3"></use>
                        </mask>
                        <g id="Clip-6"></g>
                        <path d="M87.80669,49.03908 C90.1580632,49.98468 91.2946204,52.65168 90.3458841,54.99468 C89.3965458,57.33828 86.7207,58.47108 84.3699289,57.52548 C82.0191577,56.57928 80.8819985,53.91288 81.8313368,51.56928 C82.7800731,49.22628 85.4559189,48.09288 87.80669,49.03908" id="Fill-5" fill="#FF5050" mask="url(#mask-4)"></path>
                    </g>
                    <g id="Group-10">
                        <mask id="mask-6" fill="white">
                            <use xlink:href="#path-5"></use>
                        </mask>
                        <g id="Clip-9"></g>
                        <path d="M87.1529891,53.71014 C86.613004,55.04454 86.7665114,56.47374 87.4172627,57.64014 C88.6982975,57.25074 89.8053572,56.32914 90.3459443,54.99474 C90.8859294,53.66034 90.7318199,52.23114 90.0804667,51.06474 C88.7994318,51.45354 87.6929741,52.37574 87.1529891,53.71014" id="Fill-8" fill="#FF8C5A" mask="url(#mask-6)"></path>
                    </g>
                    <g id="Group-13">
                        <mask id="mask-8" fill="white">
                            <use xlink:href="#path-7"></use>
                        </mask>
                        <g id="Clip-12"></g>
                        <path d="M137.065248,91.80666 L137.065248,93.39426 C137.06585,96.01206 134.916746,98.15466 132.289661,98.15466 L46.3736413,98.17146 C43.7465567,98.17146 41.5974522,96.03006 41.5968502,93.41226 L41.5962483,91.82526 L137.065248,91.80666 Z" id="Fill-11" fill="#C8C9CA" mask="url(#mask-8)"></path>
                    </g>
                    <g id="Group-16">
                        <mask id="mask-10" fill="white">
                            <use xlink:href="#path-9"></use>
                        </mask>
                        <g id="Clip-15"></g>
                        <path d="M82.1659831,90.23046 L96.4945502,90.22806 C97.8478239,90.22746 98.8826448,91.25886 98.8832468,92.60766 C98.8832468,93.95646 97.8484259,94.98786 96.4951522,94.98846 L82.1671871,94.99086 C80.8139134,94.99146 79.7790925,93.96006 79.7784905,92.61126 C79.7784905,91.34226 80.8133114,90.23106 82.1659831,90.23046" id="Fill-14" fill="#B4B5B7" mask="url(#mask-10)"></path>
                    </g>
                    <g id="Group-19">
                        <mask id="mask-12" fill="white">
                            <use xlink:href="#path-11"></use>
                        </mask>
                        <g id="Clip-18"></g>
                        <path d="M51.1108816,33.11388 L127.527499,33.09888 C129.278688,33.09888 130.712026,34.52628 130.712026,36.27228 L130.723464,91.80828 L47.937792,91.82448 L47.9275582,36.28788 C47.9269562,34.54248 49.3596925,33.11388 51.1108816,33.11388" id="Fill-17" fill="#3E4041" mask="url(#mask-12)"></path>
                    </g>
                    <g id="Group-22">
                        <mask id="mask-14" fill="white">
                            <use xlink:href="#path-13"></use>
                        </mask>
                        <g id="Clip-21"></g>
                        <polygon id="Fill-20" fill="#656769" mask="url(#mask-14)" points="52.7037473 37.87344 125.936439 37.85964 125.946071 87.04884 52.7133791 87.06264"></polygon>
                    </g>
                </g>
                <g id="Group-57" transform="translate(52.373134, 37.800000)">
                    <g id="Group-26">
                        <mask id="mask-16" fill="white">
                            <use xlink:href="#path-15"></use>
                        </mask>
                        <g id="Clip-25"></g>
                        <path d="M69.6382692,51.73848 C69.6382692,52.99308 68.618498,54.01008 67.3603388,54.01008 L6.6731199,54.02208 C5.4149607,54.02268 4.39458756,53.00568 4.39458756,51.75108 L4.38555771,5.93808 C4.38555771,4.68348 5.40532886,3.66648 6.66409005,3.66648 L67.350105,3.65448 C68.6088662,3.65388 69.6286373,4.67088 69.6292393,5.92548 L69.6382692,51.73848 Z" id="Fill-24" fill="#FFFFFF" mask="url(#mask-16)"></path>
                    </g>
                    <g id="Group-29">
                        <mask id="mask-18" fill="white">
                            <use xlink:href="#path-17"></use>
                        </mask>
                        <g id="Clip-28"></g>
                        <path d="M67.3502254,3.65466 L11.3103697,3.66606 L11.3115736,9.31746 L69.6299617,9.30606 L69.6293597,5.92506 C69.6287577,4.67046 68.6089866,3.65466 67.3502254,3.65466" id="Fill-27" fill="#DCDDDD" mask="url(#mask-18)"></path>
                    </g>
                    <g id="Group-32">
                        <mask id="mask-20" fill="white">
                            <use xlink:href="#path-19"></use>
                        </mask>
                        <g id="Clip-31"></g>
                        <path d="M31.119695,30.5697 L12.3201478,30.5739 C11.5345507,30.5739 10.8964413,29.9379 10.8958393,29.1549 C10.8958393,28.3707 11.5339488,27.7347 12.3201478,27.7341 L31.119093,27.7311 C31.905894,27.7311 32.5434015,28.3665 32.5434015,29.1501 C32.5434015,29.9337 31.906496,30.5697 31.119695,30.5697" id="Fill-30" fill="#C8C9CA" mask="url(#mask-20)"></path>
                    </g>
                    <g id="Group-35">
                        <mask id="mask-22" fill="white">
                            <use xlink:href="#path-21"></use>
                        </mask>
                        <g id="Clip-34"></g>
                        <path d="M31.120899,36.92538 L12.3219537,36.92898 C11.5357547,36.92958 10.8976453,36.29358 10.8976453,35.50998 C10.8970433,34.72578 11.5351527,34.08978 12.3213517,34.08978 L31.120297,34.08678 C31.907098,34.08678 32.5446055,34.72158 32.5446055,35.50578 C32.5446055,36.28938 31.9077,36.92538 31.120899,36.92538" id="Fill-33" fill="#C8C9CA" mask="url(#mask-22)"></path>
                    </g>
                    <g id="Group-38">
                        <mask id="mask-24" fill="white">
                            <use xlink:href="#path-23"></use>
                        </mask>
                        <g id="Clip-37"></g>
                        <path d="M31.1220428,43.28106 L12.3230975,43.28466 C11.5368985,43.28466 10.8987891,42.64926 10.8987891,41.86566 C10.8981871,41.08146 11.5362965,40.44546 12.3224955,40.44546 L31.1214408,40.44246 C31.9082418,40.44186 32.5457493,41.07726 32.5457493,41.86146 C32.5457493,42.64506 31.9088438,43.28106 31.1220428,43.28106" id="Fill-36" fill="#C8C9CA" mask="url(#mask-24)"></path>
                    </g>
                    <g id="Group-41">
                        <mask id="mask-26" fill="white">
                            <use xlink:href="#path-25"></use>
                        </mask>
                        <g id="Clip-40"></g>
                        <path d="M63.3979199,20.86836 C63.3985219,22.12236 62.3787507,23.13936 61.1199896,23.13936 L12.509293,23.14896 C11.2511338,23.14956 10.2307607,22.13256 10.2301587,20.87856 L10.2295567,16.24896 C10.2289547,14.99436 11.2487259,13.97736 12.5074871,13.97736 L61.1181836,13.96776 C62.3769448,13.96716 63.3973179,14.98356 63.3973179,16.23816 L63.3985219,20.86836 L63.3979199,20.86836 Z" id="Fill-39" fill="#FF5E0E" mask="url(#mask-26)"></path>
                    </g>
                    <g id="Group-44">
                        <mask id="mask-28" fill="white">
                            <use xlink:href="#path-27"></use>
                        </mask>
                        <g id="Clip-43"></g>
                        <path d="M63.4020134,41.0832 C63.4020134,42.3558 62.3828443,43.3878 61.1240831,43.3884 L39.2935159,43.3926 C38.0347547,43.3926 37.0143816,42.3612 37.0143816,41.0886 L37.0119736,29.9208 C37.0119736,28.6482 38.0311428,27.6168 39.289904,27.6168 L61.1210731,27.6126 C62.3792323,27.612 63.3996055,28.6434 63.4002075,29.916 L63.4020134,41.0832 Z" id="Fill-42" fill="#C8C9CA" mask="url(#mask-28)"></path>
                    </g>
                    <g id="Group-47">
                        <mask id="mask-30" fill="white">
                            <use xlink:href="#path-29"></use>
                        </mask>
                        <g id="Clip-46"></g>
                        <path d="M12.3163552,9.31716 L12.3157532,3.66516 L6.66366866,3.66636 C5.40550945,3.66696 4.38513632,4.68336 4.38573831,5.93796 L4.3863403,9.31836 L12.3163552,9.31716 Z" id="Fill-45" fill="#DCDDDD" mask="url(#mask-30)"></path>
                    </g>
                    <g id="Group-50">
                        <mask id="mask-32" fill="white">
                            <use xlink:href="#path-31"></use>
                        </mask>
                        <g id="Clip-49"></g>
                        <path d="M8.73439403,5.034 C9.52119502,5.0334 10.1587025,5.6694 10.1587025,6.453 C10.1587025,7.2372 9.52179701,7.8732 8.73499602,7.8732 C7.94759303,7.8732 7.31008557,7.2378 7.31008557,6.4536 C7.31008557,5.67 7.94699104,5.034 8.73439403,5.034" id="Fill-48" fill="#FF5E0E" mask="url(#mask-32)"></path>
                    </g>
                    <g id="Group-53">
                        <mask id="mask-34" fill="white">
                            <use xlink:href="#path-33"></use>
                        </mask>
                        <g id="Clip-52"></g>
                        <path d="M13.0076806,5.0328 C13.7944816,5.0328 14.4319891,5.6688 14.4319891,6.4524 C14.432591,7.2366 13.7950836,7.872 13.0082826,7.872 C12.2214816,7.8726 11.5839741,7.2372 11.5833721,6.453 C11.5833721,5.6694 12.2208796,5.0328 13.0076806,5.0328" id="Fill-51" fill="#FFC536" mask="url(#mask-34)"></path>
                    </g>
                    <g id="Group-56">
                        <mask id="mask-36" fill="white">
                            <use xlink:href="#path-35"></use>
                        </mask>
                        <g id="Clip-55"></g>
                        <path d="M17.2810274,5.0322 C18.0678284,5.0322 18.7059378,5.6676 18.7059378,6.4512 C18.7059378,7.236 18.0684303,7.8714 17.2816294,7.8714 C16.4948284,7.8714 15.8573209,7.2366 15.8573209,6.4518 C15.8567189,5.6682 16.4942264,5.0322 17.2810274,5.0322" id="Fill-54" fill="#4FBA6F" mask="url(#mask-36)"></path>
                    </g>
                </g>
            </g>
        </g>
    </g>
</svg>