<?xml version="1.0" encoding="UTF-8" standalone="no"?>
<svg width="120px" height="120px" viewBox="0 0 120 120" version="1.1" xmlns="http://www.w3.org/2000/svg" xmlns:xlink="http://www.w3.org/1999/xlink">
    <!-- Generator: Sketch 49.1 (51147) - http://www.bohemiancoding.com/sketch -->
    <title>img-easy</title>
    <desc>Created with Sketch.</desc>
    <defs>
        <polyline id="path-1" points="60.0006 0 0 60 60.0006 120 120 60.0006 120 59.9994"></polyline>
        <polyline id="path-3" points="60.0006 0 0 60 60.0006 120 120 60.0006 120 59.9994"></polyline>
        <polyline id="path-5" points="60.0006 0 0 60 60.0006 120 120 60.0006 120 59.9994"></polyline>
        <polygon id="path-7" points="60.0006 0 0 60 60.0006 120 120 60.0006 120 59.9994"></polygon>
        <polygon id="path-9" points="60.0006 0 0 60 60.0006 120 120 60.0006 120 59.9994"></polygon>
        <polyline id="path-11" points="60.0006 0 0 60 60.0006 120 120 60.0006 120 59.9994"></polyline>
        <polygon id="path-13" points="60.0006 0 0 60 60.0006 120 120 60.0006 120 59.9994"></polygon>
    </defs>
    <g id="1.0_Homepage-" stroke="none" stroke-width="1" fill="none" fill-rule="evenodd">
        <g id="B-1-1-首頁" transform="translate(-660.000000, -1868.000000)">
            <g id="img-easy" transform="translate(660.000000, 1868.000000)">
                <polygon id="Fill-1" fill="#FBE1D8" points="0 60.00006 60.0006 120.00006 120 60.00066 120 59.99946 60.0006 6e-05"></polygon>
                <g id="Group-23">
                    <g id="Group-4">
                        <mask id="mask-2" fill="white">
                            <use xlink:href="#path-1"></use>
                        </mask>
                        <g id="Clip-3"></g>
                        <path d="M92.82036,51.18006 C95.16396,52.12566 96.29676,54.79266 95.35116,57.13566 C94.40496,59.47926 91.73856,60.61206 89.39496,59.66646 C87.05196,58.71966 85.91856,56.05386 86.86476,53.71026 C87.81036,51.36726 90.47736,50.23386 92.82036,51.18006" id="Fill-2" fill="#FFC536" mask="url(#mask-2)"></path>
                    </g>
                    <g id="Group-7">
                        <mask id="mask-4" fill="white">
                            <use xlink:href="#path-3"></use>
                        </mask>
                        <g id="Clip-6"></g>
                        <path d="M87.51642,49.03908 C89.86002,49.98468 90.99282,52.65168 90.04722,54.99468 C89.10102,57.33828 86.43402,58.47108 84.09102,57.52548 C81.74802,56.57928 80.61462,53.91288 81.56082,51.56928 C82.50642,49.22628 85.17342,48.09288 87.51642,49.03908" id="Fill-5" fill="#FF5050" mask="url(#mask-4)"></path>
                    </g>
                    <g id="Group-10">
                        <mask id="mask-6" fill="white">
                            <use xlink:href="#path-5"></use>
                        </mask>
                        <g id="Clip-9"></g>
                        <path d="M86.86488,53.71014 C86.32668,55.04454 86.47968,56.47374 87.12828,57.64014 C88.40508,57.25074 89.50848,56.32914 90.04728,54.99474 C90.58548,53.66034 90.43188,52.23114 89.78268,51.06474 C88.50588,51.45354 87.40308,52.37574 86.86488,53.71014" id="Fill-8" fill="#FF8C5A" mask="url(#mask-6)"></path>
                    </g>
                    <g id="Group-13">
                        <mask id="mask-8" fill="white">
                            <use xlink:href="#path-7"></use>
                        </mask>
                        <g id="Clip-12"></g>
                        <path d="M100.2465,74.733 L19.7541,74.733 L19.7541,28.9356 C19.7541,27.4092 21.0027,26.16 22.5297,26.16 L97.4709,26.16 C98.9973,26.16 100.2465,27.4092 100.2465,28.9356 L100.2465,74.733 Z" id="Fill-11" fill="#3E4041" mask="url(#mask-8)"></path>
                    </g>
                    <g id="Group-16">
                        <mask id="mask-10" fill="white">
                            <use xlink:href="#path-9"></use>
                        </mask>
                        <g id="Clip-15"></g>
                        <path d="M100.2465,74.733 L19.7541,74.733 L19.7541,83.0598 C19.7541,84.5868 21.0027,85.8354 22.5297,85.8354 L97.4709,85.8354 C98.9973,85.8354 100.2465,84.5868 100.2465,83.0598 L100.2465,74.733 Z" id="Fill-14" fill="#C8C9CA" mask="url(#mask-10)"></path>
                    </g>
                    <g id="Group-19">
                        <mask id="mask-12" fill="white">
                            <use xlink:href="#path-11"></use>
                        </mask>
                        <g id="Clip-18"></g>
                        <path d="M81.58032,102.62772 C81.11232,101.69112 80.14092,101.10132 79.09932,101.10132 L72.49032,101.10132 L69.71472,85.83552 L50.28552,85.83552 L47.50992,101.10132 L40.90032,101.10132 C39.84252,101.10132 38.88792,101.69112 38.41932,102.62772 C37.50012,104.46672 38.83632,106.65252 40.90032,106.65252 L79.09932,106.65252 C81.16452,106.65252 82.49952,104.48412 81.58032,102.62772" id="Fill-17" fill="#C8C9CA" mask="url(#mask-12)"></path>
                    </g>
                    <mask id="mask-14" fill="white">
                        <use xlink:href="#path-13"></use>
                    </mask>
                    <g id="Clip-21"></g>
                    <polygon id="Fill-20" fill="#FFFFFF" mask="url(#mask-14)" points="55.8366 81.672 64.1634 81.672 64.1634 78.8964 55.8366 78.8964"></polygon>
                    <polygon id="Fill-22" fill="#B4B5B7" mask="url(#mask-14)" points="69.71448 85.83534 50.28528 85.83534 49.78188 88.61094 70.21788 88.61094"></polygon>
                </g>
                <g id="Group-38" transform="translate(19.200000, 25.800000)">
                    <path d="M81.0465,28.11582 L0.5541,28.11582 L0.5541,3.13542 C0.5541,1.60902 1.8027,0.35982 3.3297,0.35982 L78.2709,0.35982 C79.7973,0.35982 81.0465,1.60902 81.0465,3.13542 L81.0465,28.11582 Z" id="Fill-24" fill="#3E4041"></path>
                    <path d="M40.45512,41.62872 C39.91752,41.62872 39.48192,41.19312 39.48192,40.65552 L39.48192,8.47392 C39.48192,7.93632 39.91752,7.50072 40.45512,7.50072 C40.99272,7.50072 41.42832,7.93632 41.42832,8.47392 L41.42832,40.65552 C41.42832,41.19312 40.99272,41.62872 40.45512,41.62872" id="Fill-26" fill="#FFFFFF"></path>
                    <path d="M55.50786,41.62872 C54.97026,41.62872 54.53466,41.19312 54.53466,40.65552 L54.53466,8.47392 C54.53466,7.93632 54.97026,7.50072 55.50786,7.50072 C56.04546,7.50072 56.48106,7.93632 56.48106,8.47392 L56.48106,40.65552 C56.48106,41.19312 56.04546,41.62872 55.50786,41.62872" id="Fill-28" fill="#FFFFFF"></path>
                    <path d="M25.40238,41.62872 C24.86478,41.62872 24.42918,41.19312 24.42918,40.65552 L24.42918,8.47392 C24.42918,7.93632 24.86478,7.50072 25.40238,7.50072 C25.93998,7.50072 26.37558,7.93632 26.37558,8.47392 L26.37558,40.65552 C26.37558,41.19312 25.93998,41.62872 25.40238,41.62872" id="Fill-30" fill="#FFFFFF"></path>
                    <path d="M25.40238,27.03186 C22.75578,27.03186 20.60238,29.18526 20.60238,31.83186 C20.60238,34.47846 22.75578,36.63186 25.40238,36.63186 C28.04898,36.63186 30.20238,34.47846 30.20238,31.83186 C30.20238,29.18526 28.04898,27.03186 25.40238,27.03186" id="Fill-32" fill="#FFC536"></path>
                    <path d="M40.45512,12.49764 C37.80852,12.49764 35.65512,14.65104 35.65512,17.29764 C35.65512,19.94424 37.80852,22.09764 40.45512,22.09764 C43.10172,22.09764 45.25512,19.94424 45.25512,17.29764 C45.25512,14.65104 43.10172,12.49764 40.45512,12.49764" id="Fill-34" fill="#3683FF"></path>
                    <path d="M55.50786,24.43614 C52.86126,24.43614 50.70786,26.58954 50.70786,29.23614 C50.70786,31.88274 52.86126,34.03614 55.50786,34.03614 C58.15446,34.03614 60.30786,31.88274 60.30786,29.23614 C60.30786,26.58954 58.15446,24.43614 55.50786,24.43614" id="Fill-36" fill="#FF5E0E"></path>
                </g>
            </g>
        </g>
    </g>
</svg>