<svg xmlns="http://www.w3.org/2000/svg" xmlns:xlink="http://www.w3.org/1999/xlink" width="120" height="120" viewBox="0 0 120 120">
    <defs>
        <path id="a" d="M120.399.681h-81.37L0 41.086l60.2 60 60.199-60z"/>
        <path id="c" d="M.11 48.367h69.66V.564H.11z"/>
    </defs>
    <g fill="none" fill-rule="evenodd">
        <path fill="#FBE1D8" d="M0 60l60 60 60-60L60 0z"/>
        <g transform="translate(0 19)">
            <mask id="b" fill="#fff">
                <use xlink:href="#a"/>
            </mask>
            <g mask="url(#b)">
                <path fill="#C8C9CA" d="M79.857 70.37v1.685c.001 2.776-2.3 5.048-5.113 5.048l-91.99.018c-2.813 0-5.114-2.27-5.115-5.047V70.39l102.218-.02z"/>
                <path fill="#B4B5B7" d="M21.077 68.699l15.341-.003c1.45 0 2.557 1.094 2.558 2.524 0 1.43-1.108 2.525-2.557 2.525l-15.341.003c-1.45 0-2.557-1.093-2.558-2.524a2.549 2.549 0 0 1 2.557-2.525"/>
                <path fill="#3E4041" d="M-12.174 8.12l81.82-.015c1.874 0 3.41 1.514 3.41 3.366l.011 58.901-88.639.018-.01-58.903c-.001-1.851 1.533-3.366 3.408-3.366"/>
                <path fill="#656769" d="M-10.469 13.169l78.41-.015.011 52.17-78.41.015z"/>
                <g>
                    <g transform="translate(-8 16)">
                        <mask id="d" fill="#fff">
                            <use xlink:href="#c"/>
                        </mask>
                        <path fill="#FFF" d="M69.616 51.855c0 1.308-1.081 2.368-2.416 2.368l-64.365.013c-1.334 0-2.416-1.06-2.416-2.368L.409 4.106c0-1.308 1.082-2.369 2.417-2.369l64.364-.012c1.335 0 2.416 1.06 2.417 2.368l.01 47.762z" mask="url(#d)"/>
                    </g>
                    <path fill="#DCDDDD" d="M59.19 17.725l-59.437.012.002 5.892 61.853-.012-.001-3.525c0-1.308-1.082-2.367-2.417-2.367"/>
                    <path fill="#C8C9CA" d="M20.763 45.785L.824 45.79c-.833 0-1.51-.663-1.51-1.48s.677-1.48 1.51-1.48l19.939-.004c.834 0 1.51.662 1.51 1.48 0 .816-.675 1.48-1.51 1.48M20.765 52.412l-19.939.003c-.834 0-1.51-.662-1.51-1.48-.001-.817.676-1.48 1.51-1.48l19.938-.003c.834 0 1.51.662 1.51 1.48 0 .817-.675 1.48-1.51 1.48M20.766 59.038L.828 59.04c-.834 0-1.511-.662-1.511-1.479 0-.817.676-1.48 1.51-1.48l19.938-.004c.835 0 1.51.662 1.51 1.48 0 .817-.675 1.48-1.51 1.48"/>
                    <path fill="#FF5E0E" d="M54.998 35.671c0 1.308-1.081 2.368-2.416 2.368l-51.557.01c-1.334 0-2.417-1.06-2.417-2.367v-4.827c-.002-1.308 1.08-2.368 2.415-2.368l51.557-.01c1.335 0 2.417 1.06 2.417 2.367l.001 4.827z"/>
                    <path fill="#C8C9CA" d="M55.002 56.746a2.41 2.41 0 0 1-2.416 2.404l-23.153.004a2.41 2.41 0 0 1-2.418-2.402l-.002-11.643a2.408 2.408 0 0 1 2.416-2.402l23.154-.005A2.41 2.41 0 0 1 55 45.104l.002 11.642z"/>
                    <path fill="#DCDDDD" d="M.82 23.629v-5.893l-5.995.001c-1.334 0-2.417 1.06-2.416 2.369v3.524l8.411-.001z"/>
                    <path fill="#FFC536" d="M1.554 19.162c.834 0 1.51.663 1.51 1.48s-.675 1.48-1.51 1.48c-.834 0-1.51-.662-1.511-1.48 0-.816.676-1.48 1.51-1.48"/>
                    <path fill="#4FBA6F" d="M6.086 19.161c.834 0 1.511.663 1.511 1.48 0 .818-.676 1.48-1.51 1.48-.835 0-1.511-.662-1.511-1.48 0-.817.675-1.48 1.51-1.48"/>
                </g>
            </g>
        </g>
        <g transform="translate(79 28.227)">
            <rect width="21.257" height="19" y="7.773" fill="#3E4041" rx="3.46"/>
            <rect width="9.805" height="12.951" x="5.726" y="1.297" stroke="#3E4041" stroke-width="2.595" rx="4.903"/>
            <ellipse cx="10.629" cy="15.545" fill="#FFF" rx="2.657" ry="2.591"/>
            <rect width="1.771" height="6.909" x="9.743" y="14.682" fill="#FFF" rx=".886"/>
        </g>
        <path stroke="#FF5E0E" stroke-linecap="round" stroke-linejoin="round" stroke-width="1.73" d="M89.629 17v6.91M102.029 21.318L98.486 26.5M110 32.545l-6.2 1.728"/>
    </g>
</svg>
