<?xml version="1.0" encoding="UTF-8" standalone="no"?>
<svg width="120px" height="120px" viewBox="0 0 120 120" version="1.1" xmlns="http://www.w3.org/2000/svg" xmlns:xlink="http://www.w3.org/1999/xlink">
    <!-- Generator: Sketch 49.1 (51147) - http://www.bohemiancoding.com/sketch -->
    <title>img-multiple</title>
    <desc>Created with Sketch.</desc>
    <defs>
        <polyline id="path-1" points="60 0 0 60 60 120 120 60"></polyline>
        <polyline id="path-3" points="60 0 0 60 60 120 120 60"></polyline>
        <polygon id="path-5" points="60 0 0 60 60 120 120 60"></polygon>
        <polyline id="path-7" points="60 0 0 60 60 120 120 60"></polyline>
        <polyline id="path-9" points="60 0 0 60 60 120 120 60"></polyline>
        <polyline id="path-11" points="60 0 0 60 60 120 120 60"></polyline>
        <polyline id="path-13" points="60 0 0 60 60 120 120 60"></polyline>
        <polyline id="path-15" points="60 0 0 60 60 120 120 60"></polyline>
        <polyline id="path-17" points="60 0 0 60 60 120 120 60"></polyline>
        <polyline id="path-19" points="60 0 0 60 60 120 120 60"></polyline>
        <polyline id="path-21" points="60 0 0 60 60 120 120 60"></polyline>
    </defs>
    <g id="1.0_Homepage-" stroke="none" stroke-width="1" fill="none" fill-rule="evenodd">
        <g id="B-1-1-首頁" transform="translate(-974.000000, -2178.000000)">
            <g id="img-multiple" transform="translate(974.000000, 2178.000000)">
                <polygon id="Fill-1" fill="#FBE1D8" points="0 60.00006 60 120.00006 120 60.00006 60 6e-05"></polygon>
                <g id="Group-35">
                    <g id="Group-4">
                        <mask id="mask-2" fill="white">
                            <use xlink:href="#path-1"></use>
                        </mask>
                        <g id="Clip-3"></g>
                        <path d="M108.27738,72.90546 L85.52838,62.77926 L57.09198,50.12106 C53.94978,48.72246 50.27178,50.13486 48.87318,53.27706 L36.21498,81.71346 C34.81638,84.85566 36.22878,88.53366 39.37098,89.93226 L90.55638,112.71666 C93.69858,114.11526 97.37658,112.70286 98.77578,109.56066 L101.30718,103.87326 L111.43338,81.12426 C112.83198,77.98206 111.41958,74.30406 108.27738,72.90546" id="Fill-2" fill="#C8C9CA" mask="url(#mask-2)"></path>
                    </g>
                    <g id="Group-7">
                        <mask id="mask-4" fill="white">
                            <use xlink:href="#path-3"></use>
                        </mask>
                        <g id="Clip-6"></g>
                        <path d="M98.8104,48.24864 L76.0608,38.12244 L47.6244,25.46424 C44.4822,24.06564 40.8042,25.47864 39.4056,28.62024 L26.748,57.05724 C25.3494,60.19944 26.7612,63.87744 29.9034,65.27604 L81.0894,88.05984 C84.2316,89.45904 87.9096,88.04604 89.3082,84.90444 L91.8396,79.21644 L101.9658,56.46744 C103.3644,53.32524 101.9526,49.64724 98.8104,48.24864" id="Fill-5" fill="#3E4041" mask="url(#mask-4)"></path>
                    </g>
                    <g id="Group-10">
                        <mask id="mask-6" fill="white">
                            <use xlink:href="#path-5"></use>
                        </mask>
                        <g id="Clip-9"></g>
                        <polygon id="Fill-8" fill="#3E4041" mask="url(#mask-6)" points="38.7468 76.02618 101.307 103.87338 98.7756 109.56078 36.2154 81.71358"></polygon>
                    </g>
                    <g id="Group-13">
                        <mask id="mask-8" fill="white">
                            <use xlink:href="#path-7"></use>
                        </mask>
                        <g id="Clip-12"></g>
                        <path d="M47.45118,52.64436 L38.92038,48.84696 C38.13558,48.49776 37.78158,47.57736 38.13138,46.79196 L39.39678,43.94856 C39.74658,43.16376 40.66698,42.80976 41.45178,43.15956 L49.98258,46.95696 C50.76738,47.30676 51.12078,48.22716 50.77158,49.01136 L49.50558,51.85536 C49.15638,52.64016 48.23598,52.99356 47.45118,52.64436" id="Fill-11" fill="#C8C9CA" mask="url(#mask-8)"></path>
                    </g>
                    <g id="Group-16">
                        <mask id="mask-10" fill="white">
                            <use xlink:href="#path-9"></use>
                        </mask>
                        <g id="Clip-15"></g>
                        <path d="M42.38814,64.01856 L33.85734,60.22176 C33.07074,59.87136 32.71794,58.95336 33.06834,58.16676 C33.41814,57.38076 34.33674,57.02796 35.12274,57.37776 L43.65354,61.17516 C44.44014,61.52496 44.79294,62.44356 44.44254,63.23016 C44.09274,64.01616 43.17414,64.36896 42.38814,64.01856" id="Fill-14" fill="#C8C9CA" mask="url(#mask-10)"></path>
                    </g>
                    <g id="Group-19">
                        <mask id="mask-12" fill="white">
                            <use xlink:href="#path-11"></use>
                        </mask>
                        <g id="Clip-18"></g>
                        <path d="M59.45004,71.61348 L50.91924,67.81608 C50.13264,67.46628 49.77984,66.54768 50.13024,65.76108 C50.48004,64.97568 51.39864,64.62288 52.18464,64.97268 L60.71544,68.77008 C61.50204,69.11988 61.85484,70.03848 61.50444,70.82448 C61.15464,71.61048 60.23604,71.96328 59.45004,71.61348" id="Fill-17" fill="#C8C9CA" mask="url(#mask-12)"></path>
                    </g>
                    <g id="Group-22">
                        <mask id="mask-14" fill="white">
                            <use xlink:href="#path-13"></use>
                        </mask>
                        <g id="Clip-21"></g>
                        <path d="M76.51164,79.2078 L67.98084,75.411 C67.19484,75.0606 66.84204,74.1426 67.19184,73.356 C67.54164,72.57 68.46024,72.2172 69.24684,72.5676 L77.77764,76.3644 C78.56364,76.7148 78.91644,77.6328 78.56664,78.4194 C78.21624,79.2054 77.29824,79.5582 76.51164,79.2078" id="Fill-20" fill="#C8C9CA" mask="url(#mask-14)"></path>
                    </g>
                    <g id="Group-25">
                        <mask id="mask-16" fill="white">
                            <use xlink:href="#path-15"></use>
                        </mask>
                        <g id="Clip-24"></g>
                        <path d="M101.96598,56.46756 L91.83978,79.21656 C76.12878,72.22356 69.06738,53.83356 76.06098,38.12256 L98.81058,48.24876 C101.95278,49.64736 103.36458,53.32536 101.96598,56.46756" id="Fill-23" fill="#3683FF" mask="url(#mask-16)"></path>
                    </g>
                    <g id="Group-28">
                        <mask id="mask-18" fill="white">
                            <use xlink:href="#path-17"></use>
                        </mask>
                        <g id="Clip-27"></g>
                        <path d="M92.82066,51.18006 C95.16426,52.12566 96.29706,54.79266 95.35086,57.13566 C94.40526,59.47926 91.73826,60.61206 89.39526,59.66646 C87.05166,58.71966 85.91886,56.05386 86.86446,53.71026 C87.81066,51.36726 90.47706,50.23386 92.82066,51.18006" id="Fill-26" fill="#FFC536" mask="url(#mask-18)"></path>
                    </g>
                    <g id="Group-31">
                        <mask id="mask-20" fill="white">
                            <use xlink:href="#path-19"></use>
                        </mask>
                        <g id="Clip-30"></g>
                        <path d="M87.51672,49.03908 C89.86032,49.98468 90.99252,52.65168 90.04692,54.99468 C89.10132,57.33828 86.43432,58.47108 84.09132,57.52548 C81.74772,56.57928 80.61492,53.91288 81.56052,51.56928 C82.50672,49.22628 85.17312,48.09288 87.51672,49.03908" id="Fill-29" fill="#FF5050" mask="url(#mask-20)"></path>
                    </g>
                    <g id="Group-34">
                        <mask id="mask-22" fill="white">
                            <use xlink:href="#path-21"></use>
                        </mask>
                        <g id="Clip-33"></g>
                        <path d="M86.86458,53.71014 C86.32638,55.04454 86.47998,56.47374 87.12858,57.64014 C88.40538,57.25074 89.50818,56.32914 90.04698,54.99474 C90.58578,53.66034 90.43158,52.23114 89.78298,51.06474 C88.50618,51.45354 87.40338,52.37574 86.86458,53.71014" id="Fill-32" fill="#FF8C5A" mask="url(#mask-22)"></path>
                    </g>
                </g>
                <g id="Group-40" transform="translate(66.600000, 4.800000)">
                    <path d="M28.29426,5.1594 C25.30866,2.1738 21.34266,0.5268 17.12226,0.519 L17.09046,0.519 C12.85806,0.519 8.88006,2.1672 5.88726,5.16 C3.32826,7.7178 1.71126,11.1042 1.33386,14.6964 C0.97866,18.075 1.72566,21.5064 3.43986,24.4128 L0.56946,32.8842 L9.04086,30.0132 C11.47926,31.4514 14.28606,32.2086 17.12226,32.2062 C17.66706,32.2056 18.21186,32.1762 18.75666,32.1198 C22.34886,31.7418 25.73526,30.1248 28.29426,27.567 C31.28706,24.5742 32.93466,20.595 32.93466,16.3632 C32.93466,12.1308 31.28706,8.1522 28.29426,5.1594" id="Fill-36" fill="#FF5E0E"></path>
                    <path d="M19.14456,25.14804 C20.25996,23.32644 21.76296,20.36664 22.04316,17.28744 L26.14836,17.28744 C25.72656,21.15384 22.86756,24.29844 19.14456,25.14804 M17.11896,24.63264 C16.12296,23.10144 14.49516,20.21364 14.17536,17.28744 L20.04876,17.28744 C19.72956,20.20464 18.11316,23.09184 17.12196,24.62724 C17.12076,24.62904 17.12016,24.63084 17.11896,24.63264 M8.09616,17.28744 L12.18036,17.28744 C12.46236,20.36604 13.97136,23.32464 15.09336,25.14684 C11.37336,24.29424 8.51796,21.15084 8.09616,17.28744 M15.09336,7.44384 C13.97136,9.26664 12.46236,12.22464 12.18036,15.30384 L8.09616,15.30384 C8.51796,11.43864 11.37336,8.29584 15.09336,7.44384 M17.12196,7.95984 C18.11316,9.49284 19.73076,12.37764 20.04936,15.30324 L17.12196,15.30324 L14.17536,15.30324 C14.49636,12.38244 16.12476,9.49104 17.12076,7.95804 C17.12136,7.95864 17.12136,7.95924 17.12196,7.95984 M19.14456,7.44204 C22.86756,8.29164 25.72596,11.43624 26.14836,15.30324 L22.04316,15.30324 C21.76296,12.22344 20.25996,9.26424 19.14456,7.44204 M17.12196,5.23104 C11.02116,5.23104 6.05736,10.19424 6.05736,16.29564 C6.05736,22.39644 11.02116,27.36024 17.12196,27.36024 C23.22276,27.36024 28.18656,22.39644 28.18656,16.29564 C28.18656,10.19424 23.22276,5.23104 17.12196,5.23104" id="Fill-38" fill="#FFFFFF"></path>
                </g>
            </g>
        </g>
    </g>
</svg>