<?xml version="1.0" encoding="UTF-8" standalone="no"?>
<svg width="120px" height="120px" viewBox="0 0 120 120" version="1.1" xmlns="http://www.w3.org/2000/svg" xmlns:xlink="http://www.w3.org/1999/xlink">
    <!-- Generator: Sketch 49.1 (51147) - http://www.bohemiancoding.com/sketch -->
    <title>img-special</title>
    <desc>Created with Sketch.</desc>
    <defs>
        <polyline id="path-1" points="60 0 0 60 60 120 120 60"></polyline>
        <polyline id="path-3" points="60 0 0 60 60 120 120 60"></polyline>
        <polyline id="path-5" points="60 0 0 60 60 120 120 60"></polyline>
        <polygon id="path-7" points="60 0 0 60 60 120 120 60"></polygon>
        <polygon id="path-9" points="60 0 0 60 60 120 120 60"></polygon>
        <polygon id="path-11" points="0 120 120 120 120 0 0 0"></polygon>
    </defs>
    <g id="1.0_Homepage-" stroke="none" stroke-width="1" fill="none" fill-rule="evenodd">
        <g id="B-1-1-首頁" transform="translate(-974.000000, -1868.000000)">
            <g id="img-special" transform="translate(974.000000, 1868.000000)">
                <polygon id="Fill-1" fill="#FBE1D8" points="0 60.00006 60 120.00006 120 60.00006 60 6e-05"></polygon>
                <g id="Group-26">
                    <g id="Group-4">
                        <mask id="mask-2" fill="white">
                            <use xlink:href="#path-1"></use>
                        </mask>
                        <g id="Clip-3"></g>
                        <path d="M92.82072,51.18006 C95.16372,52.12566 96.29712,54.79266 95.35092,57.13566 C94.40532,59.47926 91.73832,60.61206 89.39532,59.66646 C87.05172,58.71966 85.91892,56.05386 86.86452,53.71026 C87.81072,51.36726 90.47712,50.23386 92.82072,51.18006" id="Fill-2" fill="#FFC536" mask="url(#mask-2)"></path>
                    </g>
                    <g id="Group-7">
                        <mask id="mask-4" fill="white">
                            <use xlink:href="#path-3"></use>
                        </mask>
                        <g id="Clip-6"></g>
                        <path d="M87.51678,49.03908 C89.85978,49.98468 90.99318,52.65168 90.04698,54.99468 C89.10138,57.33828 86.43438,58.47108 84.09078,57.52548 C81.74778,56.57928 80.61498,53.91288 81.56058,51.56928 C82.50618,49.22628 85.17318,48.09288 87.51678,49.03908" id="Fill-5" fill="#FF5050" mask="url(#mask-4)"></path>
                    </g>
                    <g id="Group-10">
                        <mask id="mask-6" fill="white">
                            <use xlink:href="#path-5"></use>
                        </mask>
                        <g id="Clip-9"></g>
                        <path d="M86.86464,53.71014 C86.32644,55.04454 86.47944,56.47374 87.12864,57.64014 C88.40544,57.25074 89.50824,56.32914 90.04704,54.99474 C90.58524,53.66034 90.43164,52.23114 89.78304,51.06474 C88.50624,51.45354 87.40284,52.37574 86.86464,53.71014" id="Fill-8" fill="#FF8C5A" mask="url(#mask-6)"></path>
                    </g>
                    <g id="Group-13">
                        <mask id="mask-8" fill="white">
                            <use xlink:href="#path-7"></use>
                        </mask>
                        <g id="Clip-12"></g>
                        <path d="M100.24626,85.70178 C100.24626,86.63058 99.49446,87.38238 98.56806,87.38238 L21.42906,87.38238 C20.50566,87.38238 19.75386,86.63058 19.75386,85.70178 L19.75386,32.04078 C19.75386,31.11438 20.50566,30.36318 21.42906,30.36318 L98.56806,30.36318 C99.49446,30.36318 100.24626,31.11438 100.24626,32.04078 L100.24626,85.70178 Z" id="Fill-11" fill="#3E4041" mask="url(#mask-8)"></path>
                    </g>
                    <mask id="mask-10" fill="white">
                        <use xlink:href="#path-9"></use>
                    </mask>
                    <g id="Clip-15"></g>
                    <polygon id="Fill-14" fill="#DCDDDD" mask="url(#mask-10)" points="26.46 77.478 58.404 77.478 58.404 63.9012 26.46 63.9012"></polygon>
                    <path d="M53.33142,69.42792 L31.53222,69.42792 C31.06902,69.42792 30.69342,69.05232 30.69342,68.58912 C30.69342,68.12592 31.06902,67.75152 31.53222,67.75152 L53.33142,67.75152 C53.79462,67.75152 54.17022,68.12592 54.17022,68.58912 C54.17022,69.05232 53.79462,69.42792 53.33142,69.42792" id="Fill-16" fill="#FFFFFF" mask="url(#mask-10)"></path>
                    <path d="M53.33142,73.62792 L31.53222,73.62792 C31.06902,73.62792 30.69342,73.25232 30.69342,72.78912 C30.69342,72.32592 31.06902,71.95152 31.53222,71.95152 L53.33142,71.95152 C53.79462,71.95152 54.17022,72.32592 54.17022,72.78912 C54.17022,73.25232 53.79462,73.62792 53.33142,73.62792" id="Fill-17" fill="#FFFFFF" mask="url(#mask-10)"></path>
                    <polygon id="Fill-18" fill="#DCDDDD" mask="url(#mask-10)" points="61.5936 77.478 93.5376 77.478 93.5376 63.9012 61.5936 63.9012"></polygon>
                    <path d="M88.46544,69.42792 L66.66564,69.42792 C66.20304,69.42792 65.82744,69.05232 65.82744,68.58912 C65.82744,68.12592 66.20304,67.75152 66.66564,67.75152 L88.46544,67.75152 C88.92804,67.75152 89.30424,68.12592 89.30424,68.58912 C89.30424,69.05232 88.92804,69.42792 88.46544,69.42792" id="Fill-19" fill="#FFFFFF" mask="url(#mask-10)"></path>
                    <path d="M88.46544,73.62792 L66.66564,73.62792 C66.20304,73.62792 65.82744,73.25232 65.82744,72.78912 C65.82744,72.32592 66.20304,71.95152 66.66564,71.95152 L88.46544,71.95152 C88.92804,71.95152 89.30424,72.32592 89.30424,72.78912 C89.30424,73.25232 88.92804,73.62792 88.46544,73.62792" id="Fill-20" fill="#FFFFFF" mask="url(#mask-10)"></path>
                    <polygon id="Fill-21" fill="#FFFFFF" mask="url(#mask-10)" points="56.8488 83.3802 63.1512 83.3802 63.1512 81.279 56.8488 81.279"></polygon>
                    <path d="M100.24626,77.3205 L19.75386,77.3205 L19.75386,85.6473 C19.75386,87.1743 21.00246,88.4229 22.52946,88.4229 L97.47066,88.4229 C98.99706,88.4229 100.24626,87.1743 100.24626,85.6473 L100.24626,77.3205 Z" id="Fill-22" fill="#C8C9CA" mask="url(#mask-10)"></path>
                    <path d="M81.58008,105.21522 C81.11208,104.27862 80.14068,103.68882 79.09908,103.68882 L72.49008,103.68882 L69.71448,88.42302 L50.28528,88.42302 L47.50968,103.68882 L40.90008,103.68882 C39.84228,103.68882 38.88768,104.27862 38.41908,105.21522 C37.49988,107.05422 38.83608,109.24002 40.90008,109.24002 L79.09908,109.24002 C81.16368,109.24002 82.49928,107.07162 81.58008,105.21522" id="Fill-23" fill="#C8C9CA" mask="url(#mask-10)"></path>
                    <polygon id="Fill-24" fill="#FFFFFF" mask="url(#mask-10)" points="55.8366 84.672 64.164 84.672 64.164 81.8964 55.8366 81.8964"></polygon>
                    <polygon id="Fill-25" fill="#B4B5B7" mask="url(#mask-10)" points="69.71484 88.83534 50.28504 88.83534 49.78224 91.61094 70.21764 91.61094"></polygon>
                </g>
                <g id="Group-51">
                    <path d="M100.24626,41.41776 C100.24626,42.34596 99.49446,43.09776 98.56806,43.09776 L21.42906,43.09776 C20.50566,43.09776 19.75386,42.34656 19.75386,41.41776 L19.75386,32.04096 C19.75386,31.11456 20.50566,30.36276 21.42906,30.36276 L98.56806,30.36276 C99.49446,30.36276 100.24626,31.11456 100.24626,32.04096 L100.24626,41.41776 Z" id="Fill-27" fill="#3E4041"></path>
                    <mask id="mask-12" fill="white">
                        <use xlink:href="#path-11"></use>
                    </mask>
                    <g id="Clip-30"></g>
                    <polygon id="Fill-29" fill="#FF5E0E" mask="url(#mask-12)" points="26.46 60.5466 93.5382 60.5466 93.5382 37.071 26.46 37.071"></polygon>
                    <polygon id="Fill-31" fill="#FF5E0E" mask="url(#mask-12)" points="82.2522 48.9714 105.486 48.9714 105.486 22.1358 82.2522 22.1358"></polygon>
                    <polygon id="Fill-32" fill="#DCDDDD" mask="url(#mask-12)" points="82.2522 62.8182 105.486 62.8182 105.486 48.9696 82.2522 48.9696"></polygon>
                    <path d="M100.79352,53.60292 L86.94492,53.60292 C86.48172,53.60292 86.10612,53.22732 86.10612,52.76412 C86.10612,52.30092 86.48172,51.92652 86.94492,51.92652 L100.79352,51.92652 C101.25612,51.92652 101.63172,52.30092 101.63172,52.76412 C101.63172,53.22732 101.25612,53.60292 100.79352,53.60292" id="Fill-33" fill="#FFFFFF" mask="url(#mask-12)"></path>
                    <path d="M100.79352,57.20292 L86.94492,57.20292 C86.48172,57.20292 86.10612,56.82732 86.10612,56.36412 C86.10612,55.90092 86.48172,55.52652 86.94492,55.52652 L100.79352,55.52652 C101.25612,55.52652 101.63172,55.90092 101.63172,56.36412 C101.63172,56.82732 101.25612,57.20292 100.79352,57.20292" id="Fill-34" fill="#FFFFFF" mask="url(#mask-12)"></path>
                    <path d="M82.9866,64.0626 L104.7852,64.0626 L104.7852,22.1358 L82.9866,22.1358 L82.9866,64.0626 Z M104.7852,18.783 L82.9866,18.783 C81.1344,18.783 79.6308,20.2836 79.6308,22.1358 L79.6308,64.0626 C79.6308,65.9148 81.1344,67.413 82.9866,67.413 L104.7852,67.413 C106.6392,67.413 108.1398,65.9148 108.1398,64.0626 L108.1398,22.1358 C108.1398,20.2836 106.6392,18.783 104.7852,18.783 Z" id="Fill-35" fill="#3E4041" mask="url(#mask-12)"></path>
                    <polygon id="Fill-36" fill="#3E4041" mask="url(#mask-12)" points="82.1784 64.9368 105.6324 64.9368 105.6324 60.7068 82.1784 60.7068"></polygon>
                    <path d="M95.5506,64.06248 C95.5506,64.98588 94.7994,65.73768 93.873,65.73768 C92.9472,65.73768 92.1978,64.98588 92.1978,64.06248 C92.1978,63.13368 92.9472,62.38188 93.873,62.38188 C94.7994,62.38188 95.5506,63.13368 95.5506,64.06248" id="Fill-37" fill="#E6E9ED" mask="url(#mask-12)"></path>
                    <path d="M70.21818,44.08908 C68.75898,43.22808 67.29798,44.01348 66.60498,44.51148 C65.90958,44.01348 64.44738,43.22808 62.99118,44.08908 C62.10558,44.61168 61.57218,45.32328 61.40478,46.20228 C61.10058,47.80188 62.14938,49.36128 62.61498,49.95828 C63.75558,51.42048 66.09018,53.65428 66.18918,53.74848 C66.30558,53.85948 66.45438,53.91348 66.60378,53.91348 C66.75378,53.91348 66.90198,53.85828 67.01778,53.74848 C67.11678,53.65368 69.45318,51.41988 70.59258,49.95828 C71.05698,49.36248 72.10578,47.80248 71.80338,46.20228 C71.63718,45.32268 71.10378,44.61168 70.21818,44.08908" id="Fill-38" fill="#FFFFFF" mask="url(#mask-12)"></path>
                    <path d="M52.2375,43.4094 C55.2201,43.4094 57.6375,45.8268 57.6375,48.8094 C57.6375,51.792 55.2201,54.2094 52.2375,54.2094 C49.2549,54.2094 46.8375,51.792 46.8375,48.8094 C46.8375,45.8268 49.2549,43.4094 52.2375,43.4094" id="Fill-39" fill="#FFC536" mask="url(#mask-12)"></path>
                    <path d="M49.80468,49.56054 C49.80468,50.90454 50.89368,51.99474 52.23828,51.99474 C53.58228,51.99474 54.67128,50.90454 54.67128,49.56054 L49.80468,49.56054 Z" id="Fill-40" fill="#3E4041" mask="url(#mask-12)"></path>
                    <path d="M50.3127,46.3332 C50.8317,46.3332 51.2523,46.7538 51.2523,47.2722 C51.2523,47.7918 50.8317,48.2124 50.3127,48.2124 C49.7937,48.2124 49.3731,47.7918 49.3731,47.2722 C49.3731,46.7538 49.7937,46.3332 50.3127,46.3332" id="Fill-41" fill="#3E4041" mask="url(#mask-12)"></path>
                    <path d="M54.1629,46.3332 C54.6819,46.3332 55.1025,46.7538 55.1025,47.2722 C55.1025,47.7918 54.6819,48.2124 54.1629,48.2124 C53.6439,48.2124 53.2233,47.7918 53.2233,47.2722 C53.2233,46.7538 53.6439,46.3332 54.1629,46.3332" id="Fill-42" fill="#3E4041" mask="url(#mask-12)"></path>
                    <path d="M98.85468,33.40392 C98.19108,33.01272 97.52568,33.36972 97.20948,33.59652 C96.89328,33.36972 96.22728,33.01272 95.56488,33.40452 C95.16108,33.64212 94.91808,33.96612 94.84248,34.36632 C94.70328,35.09472 95.18088,35.80512 95.39268,36.07692 C95.91228,36.74232 96.97548,37.75992 97.02048,37.80252 C97.07328,37.85292 97.14168,37.87752 97.20948,37.87752 C97.27728,37.87752 97.34508,37.85232 97.39788,37.80252 C97.44288,37.75932 98.50668,36.74172 99.02568,36.07692 C99.23748,35.80572 99.71508,35.09472 99.57648,34.36632 C99.50148,33.96612 99.25848,33.64212 98.85468,33.40392" id="Fill-43" fill="#FFFFFF" mask="url(#mask-12)"></path>
                    <path d="M90.66798,33.0945 C92.02638,33.0945 93.12678,34.1955 93.12678,35.5539 C93.12678,36.9111 92.02638,38.0121 90.66798,38.0121 C89.31018,38.0121 88.20918,36.9111 88.20918,35.5539 C88.20918,34.1955 89.31018,33.0945 90.66798,33.0945" id="Fill-44" fill="#FFC536" mask="url(#mask-12)"></path>
                    <path d="M89.55996,35.8959 C89.55996,36.5079 90.05616,37.0041 90.66816,37.0041 C91.28016,37.0041 91.77636,36.5079 91.77636,35.8959 L89.55996,35.8959 Z" id="Fill-45" fill="#3E4041" mask="url(#mask-12)"></path>
                    <path d="M89.79138,34.42578 C90.02838,34.42578 90.21978,34.61718 90.21978,34.85418 C90.21978,35.08998 90.02838,35.28198 89.79138,35.28198 C89.55498,35.28198 89.36358,35.08998 89.36358,34.85418 C89.36358,34.61718 89.55498,34.42578 89.79138,34.42578" id="Fill-46" fill="#3E4041" mask="url(#mask-12)"></path>
                    <path d="M91.54452,34.42578 C91.78152,34.42578 91.97292,34.61718 91.97292,34.85418 C91.97292,35.08998 91.78152,35.28198 91.54452,35.28198 C91.30812,35.28198 91.11672,35.08998 91.11672,34.85418 C91.11672,34.61718 91.30812,34.42578 91.54452,34.42578" id="Fill-47" fill="#3E4041" mask="url(#mask-12)"></path>
                    <path d="M50.1129,20.89236 L50.8935,20.89236 C51.7233,20.89236 52.1625,20.53056 52.1625,19.84776 C52.1625,19.16436 51.7233,18.93996 50.8935,18.93996 L50.1129,18.93996 L50.1129,20.89236 Z M52.2891,24.82536 L50.9517,22.26816 L50.1129,22.26816 L50.1129,24.82536 L48.3657,24.82536 L48.3657,17.56416 L51.0303,17.56416 C52.5819,17.56416 53.8707,18.09096 53.8707,19.84776 C53.8707,20.91156 53.3727,21.59496 52.6215,21.94596 L54.2409,24.82536 L52.2891,24.82536 Z" id="Fill-48" fill="#FF5E0E" mask="url(#mask-12)"></path>
                    <path d="M55.30602,17.56428 L57.09222,17.56428 L57.55062,20.87268 L57.84342,23.17608 L57.88242,23.17608 C58.01922,22.40448 58.16562,21.62448 58.31202,20.87268 L59.05362,17.56428 L60.51822,17.56428 L61.27902,20.87268 C61.42542,21.61428 61.55202,22.39548 61.69842,23.17608 L61.74702,23.17608 C61.83522,22.39548 61.93302,21.62448 62.02062,20.87268 L62.48922,17.56428 L64.14822,17.56428 L62.88942,24.82548 L60.69342,24.82548 L60.03942,21.66288 C59.92242,21.10668 59.82462,20.52168 59.75622,19.97508 L59.70762,19.97508 C59.61942,20.52168 59.53182,21.10668 59.42442,21.66288 L58.79022,24.82548 L56.63322,24.82548 L55.30602,17.56428 Z" id="Fill-49" fill="#FF5E0E" mask="url(#mask-12)"></path>
                    <path d="M67.8486,23.4201 C69.0192,23.4201 69.849,22.8825 69.849,21.1557 C69.849,19.4283 69.0192,18.9501 67.8486,18.9501 L67.614,18.9501 L67.614,23.4201 L67.8486,23.4201 Z M65.8668,17.5641 L67.956,17.5641 C70.1712,17.5641 71.6352,18.6279 71.6352,21.1557 C71.6352,23.6829 70.1712,24.8253 68.0532,24.8253 L65.8668,24.8253 L65.8668,17.5641 Z" id="Fill-50" fill="#FF5E0E" mask="url(#mask-12)"></path>
                </g>
            </g>
        </g>
    </g>
</svg>