<?xml version="1.0" encoding="UTF-8"?>
<svg width="70px" height="70px" viewBox="0 0 70 70" version="1.1" xmlns="http://www.w3.org/2000/svg" xmlns:xlink="http://www.w3.org/1999/xlink">
    <!-- Generator: Sketch 50 (54983) - http://www.bohemiancoding.com/sketch -->
    <title>Page 1 Copy</title>
    <desc>Created with Sketch.</desc>
    <defs></defs>
    <g id="Symbols" stroke="none" stroke-width="1" fill="none" fill-rule="evenodd">
        <g id="Page-1-Copy">
            <polygon id="Fill-1" fill="#C8171E" points="34.8477907 0 0 34.8472163 35.1530737 70 70 35.1524956"></polygon>
            <g id="Group-168" transform="translate(0.786517, 1.573034)" fill="#FEFEFE">
                <path d="M34.7861232,66.7278531 C34.5821388,66.9117215 34.7635063,66.9534117 34.7541426,67.0025775 C35.0542129,66.6539608 34.7486685,66.7068642 34.7861232,66.7278531" id="Fill-2"></path>
                <polygon id="Fill-4" points="37.7376016 63.2762171 37.7269414 63.3781426 38.0873714 62.7950542"></polygon>
                <path d="M40.7371805,60.2868972 C40.2632337,60.3797658 39.6822527,61.4016081 39.0798073,61.8669575 L38.9488597,61.9115229 L38.860841,62.3045613 C39.4857593,61.6326295 40.2270754,60.6899987 40.7371805,60.2868972" id="Fill-6"></path>
                <path d="M42.7472334,59.1028367 C42.5742212,59.1272758 43.0290084,58.6942723 42.3510773,59.4518847 C42.3953027,59.4234203 42.4105727,59.4179575 42.4373673,59.4030065 C42.5008963,59.3371647 42.5899234,59.2488964 42.7472334,59.1028367" id="Fill-8"></path>
                <path d="M43.8526963,57.9055935 L43.5026383,58.3867565 C43.63373,58.3439161 44.0136077,57.9843737 43.9081581,58.1532911 C44.2981198,57.6916795 44.1670281,57.7355261 43.8526963,57.9055935" id="Fill-10"></path>
                <path d="M44.1080369,57.3736548 L43.920475,57.6168958 C43.976513,57.5974883 44.039754,57.5467412 44.1080369,57.3736548" id="Fill-12"></path>
                <path d="M43.5229359,58.1317559 L43.9205326,57.6169533 C43.8300649,57.6461365 43.7614939,57.5907891 43.7321063,57.8473997 C43.7132349,57.7535248 43.6769326,57.8978593 43.5229359,58.1317559" id="Fill-14"></path>
                <path d="M43.2351105,58.3608798 C42.9602501,58.5523674 42.6333853,58.8272355 42.9843076,58.3450662 C42.2153326,59.1646389 42.4662795,59.181315 43.2351105,58.3608798" id="Fill-16"></path>
                <path d="M40.6934304,59.937878 L40.3260857,60.1931948 L40.1199404,60.5264292 C40.2230851,60.3602433 40.7726616,59.9781306 40.6934304,59.937878" id="Fill-18"></path>
                <path d="M46.5413862,55.419288 C46.5265484,55.3530149 46.2936086,55.4509151 46.2106319,55.4303575 L45.9500332,55.7829994 C46.1357224,55.6536159 46.4607144,55.3803292 46.5413862,55.419288" id="Fill-20"></path>
                <path d="M46.2106463,55.4303718 L46.6008961,54.9026308 C46.1825552,55.3040073 46.1400585,55.4118269 46.2106463,55.4303718" id="Fill-22"></path>
                <polygon id="Fill-24" points="43.9710101 57.0889392 43.361794 57.9878671 44.1143466 56.9421607"></polygon>
                <polygon id="Fill-26" points="48.3015727 53.6729699 48.134755 54.0263306 48.4574421 53.4221096"></polygon>
                <path d="M49.4493882,52.4951055 C49.3338547,52.7645107 49.844536,52.3624155 49.6888106,52.6132757 C49.9911858,52.2839228 50.1943058,51.9476694 50.3776901,51.645487 C50.1531056,51.9364562 49.8690256,52.2026987 49.4493882,52.4951055" id="Fill-28"></path>
                <path d="M50.6987638,51.1509976 C50.5881282,51.2980635 50.4877206,51.4649683 50.3776613,51.6453864 C50.4970843,51.4907012 50.6064234,51.3302656 50.6987638,51.1509976" id="Fill-30"></path>
                <path d="M47.4038973,54.1413095 C47.4636809,54.1305275 47.5963572,54.1262147 47.8808693,53.8956245 L47.5862732,53.9626164 C47.5305232,54.0171013 47.4674264,54.0784866 47.4038973,54.1413095" id="Fill-32"></path>
                <path d="M47.5763621,53.9651179 L47.586158,53.9625302 C47.7852444,53.7700363 47.9239711,53.6364837 47.9831784,53.5794112 C47.9318942,53.6280019 47.8093019,53.743872 47.5763621,53.9651179" id="Fill-34"></path>
                <path d="M47.357756,54.1884967 L47.4059864,54.1413813 L47.357756,54.1884967 Z" id="Fill-36"></path>
                <path d="M45.2784981,55.989553 C45.4853637,55.6566061 45.9799106,55.0269396 45.3375614,55.473169 C45.2217398,55.7448744 45.5892286,55.4888388 45.2784981,55.989553" id="Fill-38"></path>
                <path d="M46.9907137,54.2680909 L46.476431,54.7294151 C46.5161907,54.7495414 46.6482908,54.7056947 46.5460105,54.8704431 L46.9907137,54.2680909 Z" id="Fill-40"></path>
                <polygon id="Fill-42" points="47.1933007 53.9936254 46.9907569 54.2680622 47.181344 54.0969884"></polygon>
                <path d="M49.7557826,51.8790674 C49.9171262,51.619294 50.1434394,51.3848224 50.396259,51.1168547 C50.0948922,51.3730341 49.7938136,51.6487647 49.5198176,51.9232016 C49.5169365,51.9975252 49.4608984,52.1815373 49.7557826,51.8790674" id="Fill-44"></path>
                <path d="M48.6870498,52.885358 L48.7292514,52.8296625 C48.6893106,52.8493817 48.6618795,52.8701546 48.6870498,52.885358" id="Fill-46"></path>
                <polygon id="Fill-48" points="52.9643499 48.5581375 52.8993895 48.579362 52.9100906 48.6100698"></polygon>
                <path d="M49.4516355,51.9485607 C49.2198482,52.1360231 49.1223218,52.2888394 49.0377604,52.443237 C49.1835459,52.2751822 49.3421524,52.1020958 49.5199184,51.9231153 C49.5212149,51.8893318 49.5138681,51.8756747 49.4516355,51.9485607" id="Fill-50"></path>
                <path d="M51.3609496,50.3834946 C51.2279852,50.4690314 51.0837843,50.5729695 50.9349737,50.6842394 C51.0774458,50.6135097 51.352018,50.4522116 51.3609496,50.3834946" id="Fill-52"></path>
                <path d="M48.8306439,52.7907321 L48.8027606,52.8286653 C48.9002766,52.7823025 48.8791758,52.7789909 48.8306439,52.7907321" id="Fill-54"></path>
                <path d="M48.8294111,52.7904737 C48.9208872,52.666553 48.9777896,52.5537018 49.0377172,52.4432945 C48.9194466,52.5795785 48.8129886,52.7105434 48.7269868,52.8295762 L48.8294111,52.7904737 Z" id="Fill-56"></path>
                <path d="M53.0073312,47.053019 C53.0761903,47.1951972 52.6222674,47.8434086 52.032499,48.2053949 C51.6426814,48.7521122 52.2965551,48.7932274 52.8994327,48.578307 C52.8686045,48.5180718 52.8259637,48.4756627 53.2461773,47.9319644 C53.019576,48.0429467 52.0409984,48.8653946 52.3520169,48.3641054 C52.9368874,47.6721911 52.9126859,47.8789172 53.2793104,47.6244629 C52.8837305,47.7568654 53.9009153,46.6223157 53.5684323,46.5682621 L53.0761903,47.1951972 C53.0351341,47.1756459 53.1907155,46.9249294 53.0073312,47.053019" id="Fill-58"></path>
                <path d="M51.9698199,49.4851417 L51.784707,49.6960368 C52.0293154,49.4883044 52.2332998,49.368984 52.614474,49.1537761 C52.8932238,48.773101 52.9218911,48.665569 52.9095022,48.6076339 L51.9176714,49.5685222 L51.9698199,49.4851417 Z" id="Fill-60"></path>
                <path d="M50.8940328,50.5859366 C50.9340805,50.3163876 51.3620732,49.7922406 50.9456051,49.9592891 C50.3711067,50.5482717 50.63329,50.4624473 50.3350925,50.8593671 C51.2465397,49.893016 50.1292354,51.1927453 50.8735767,50.5796112 C50.7083436,50.7837497 50.5481525,50.9555422 50.3963166,51.1168403 C50.5791247,50.9615801 50.7599159,50.8165268 50.9349449,50.6842681 L50.9062776,50.6983565 L50.9019559,50.7029568 L50.9012356,50.7003692 C50.8460619,50.7266772 50.8241652,50.7314212 50.8787627,50.6937562 L50.8954733,50.6720486 L50.894609,50.5862242 C51.1909338,50.3383828 50.9677898,50.5735733 50.8954733,50.6720486 L50.9012356,50.7003692 L50.9062776,50.6983565 L51.7847358,49.6960656 C51.569515,49.8790714 51.3231779,50.1310817 50.8940328,50.5859366" id="Fill-62"></path>
                <path d="M45.5927724,54.7294217 C45.6342204,54.7094014 45.6410029,54.7191858 45.6523069,54.725508 C45.7011402,54.6475342 45.7153079,54.6130632 45.5927724,54.7294217" id="Fill-64"></path>
                <path d="M46.049562,54.4083283 C45.9969813,54.4928589 45.986033,54.5956469 45.7520848,54.805967 C45.5240429,54.9639586 45.6974873,54.749757 45.6496604,54.722299 C45.5460836,54.8867598 45.263012,55.2730415 45.7389756,54.90933 L45.7896836,54.8270996 C46.2083126,54.4882586 46.8388491,54.144961 46.7884292,54.2269038 C46.5742168,54.2339481 46.4032214,54.2579559 46.049562,54.4083283" id="Fill-66"></path>
                <path d="M48.469831,52.4409081 L49.1974618,51.6019279 L48.6985932,51.9013789 L48.7786887,51.940769 C48.3094958,52.3624155 48.4787625,52.3395577 48.469831,52.4409081" id="Fill-68"></path>
                <polygon id="Fill-70" points="53.1089056 48.5257054 53.1257603 48.7504014 53.4075353 48.1276354"></polygon>
                <polygon id="Fill-72" points="54.1128084 47.4944037 54.1806592 47.6374444 54.3860841 47.30536"></polygon>
                <path d="M23.4258207,12.4088138 L23.2252936,12.6687309 C23.325125,12.5507044 23.3850526,12.4706304 23.4258207,12.4088138" id="Fill-74"></path>
                <path d="M25.1030809,10.7560213 L25.0916262,10.6589305 C25.0408335,10.7695689 25.0296802,10.8249633 25.1030809,10.7560213" id="Fill-76"></path>
                <path d="M55.9291338,21.1853004 C55.6925926,20.7522969 55.470313,20.2255622 55.3922343,20.3844164 L55.3795573,20.6024995 C55.6345377,20.8159823 55.8017877,21.0081887 55.9291338,21.1853004" id="Fill-78"></path>
                <path d="M38.1009704,4.77215293 C38.1220026,4.81513701 38.1430349,4.86042124 38.1647875,4.90513044 C38.2855071,4.94682068 38.399456,4.9857795 38.5017363,5.02100056 C38.3807286,4.94595812 38.2444509,4.8612838 38.1009704,4.77215293" id="Fill-80"></path>
                <path d="M37.3856132,5.01348194 L37.0184125,4.49752923 C37.0913053,4.62288748 37.2087115,4.7895047 37.3856132,5.01348194" id="Fill-82"></path>
                <path d="M14.4391559,21.6217685 L14.2880404,22.0076189 C14.7081099,21.5872662 14.4636456,21.7127682 14.4391559,21.6217685" id="Fill-84"></path>
                <path d="M64.5057122,37.0380016 C64.8406442,36.7940418 65.0897183,36.5828591 65.2977363,36.3864837 C64.8827087,36.6686835 64.5015345,36.8498204 64.5057122,37.0380016" id="Fill-86"></path>
                <path d="M22.8548804,10.5291301 C22.7347371,10.6907157 22.6981467,10.7745275 22.7279664,10.7959476 C22.8532958,10.6313431 22.9133675,10.527405 22.8548804,10.5291301" id="Fill-88"></path>
                <path d="M66.1340867,35.5515575 C66.071422,35.5909476 66.015528,35.6350817 65.9535836,35.6772032 C65.7615559,35.9079372 65.5636219,36.1359397 65.2976931,36.3865124 C65.6051102,36.1790675 65.9301023,35.9146939 66.1340867,35.5515575" id="Fill-90"></path>
                <path d="M22.2201231,53.1776754 L22.2838777,53.2702504 C22.3078422,53.2615197 22.2739302,53.2258445 22.2201231,53.1776754" id="Fill-92"></path>
                <path d="M30.6777682,63.9472863 C30.575776,63.859593 30.421059,63.7053391 30.2735449,63.5614359 C30.3367858,63.6402161 30.456641,63.7585301 30.6777682,63.9472863" id="Fill-94"></path>
                <path d="M56.7544927,44.0526968 C56.7890076,43.9908296 56.8081491,43.9373921 56.7858425,43.9038242 C56.7963929,43.9510901 56.7832803,44.0013666 56.7544927,44.0526968" id="Fill-96"></path>
                <path d="M66.1209827,32.7151507 L66.1022934,32.6957326 C66.1374112,32.7780716 66.1316838,32.7633198 66.1209827,32.7151507" id="Fill-98"></path>
                <path d="M57.8851511,43.7253468 C57.9803726,43.6590737 58.0858222,43.5774184 58.1960256,43.4841185 C58.1425805,43.5197708 58.0470709,43.5923693 57.8851511,43.7253468" id="Fill-100"></path>
                <path d="M57.9833402,43.7364451 C57.904253,43.8064559 57.8424527,43.8612283 57.7835334,43.9138443 C57.7758984,43.9602786 57.8117686,43.9482028 57.9833402,43.7364451" id="Fill-102"></path>
                <path d="M58.5578818,43.1470888 C58.4360098,43.271872 58.3152902,43.3819917 58.1960112,43.4842047 C58.2465751,43.4494149 58.2703445,43.4380579 58.2627095,43.4537277 C58.3252301,43.3891797 58.4125285,43.2978924 58.5578818,43.1470888" id="Fill-104"></path>
                <path d="M4.20951172,35.8219546 L4.24480563,35.8790811 C4.51073443,36.0490181 4.40758978,35.9610202 4.20951172,35.8219546" id="Fill-106"></path>
                <polygon id="Fill-108" points="49.1043002 16.7722447 49.1362529 16.7919639 49.1070132 16.7543318"></polygon>
                <path d="M48.2417891,16.0829607 C48.716024,16.2688417 48.8867313,16.4741302 49.1068501,16.7543174 L49.1834883,16.1653349 L48.2417891,16.0829607 Z" id="Fill-110"></path>
                <path d="M37.4766881,4.99003478 C37.4528743,4.92390542 37.4649319,4.88767804 37.4789489,4.85303201 C37.3915312,4.8126356 37.3639494,4.83621215 37.4766881,4.99003478" id="Fill-112"></path>
                <polygon id="Fill-114" points="14.4683025 21.5503919 14.4408715 21.5749281 14.4392135 21.6252045"></polygon>
                <path d="M62.7027552,30.3165566 C62.5709433,30.1480705 62.5102954,30.0408259 62.4786029,29.9606081 C62.4392754,29.9838972 62.4810519,30.0786346 62.7027552,30.3165566" id="Fill-116"></path>
                <path d="M56.0841533,45.7437441 L56.5192048,45.2430299 C56.2987979,45.4754889 56.1903232,45.5279611 56.055486,45.6214048 C56.0956779,45.6410998 56.2286423,45.5953843 56.0841533,45.7437441" id="Fill-118"></path>
                <path d="M51.2236491,49.0058476 C51.1709243,49.0898031 51.0803126,49.1524823 51.0285962,49.2355752 L51.1069631,49.2766904 C51.3943563,48.9818398 51.5505139,48.7304045 51.2236491,49.0058476" id="Fill-120"></path>
                <path d="M55.2233277,45.749782 C55.0782625,45.6791961 54.820545,46.0086928 54.5128397,46.3563032 L54.5713267,46.2982244 C54.6260683,46.5459219 54.9254183,46.1471332 55.2233277,45.749782" id="Fill-122"></path>
                <path d="M54.4407249,46.4355865 C54.344639,46.5415372 54.2442314,46.6473442 54.1406546,46.7410754 C54.1622631,46.8399819 54.276068,46.6306681 54.4407249,46.4355865" id="Fill-124"></path>
                <path d="M58.8841128,42.6561358 C58.7010166,42.7836505 58.9250249,42.8919013 58.7929248,42.9356042 C58.7569106,43.2462684 59.6638921,41.7343501 58.8841128,42.6561358" id="Fill-126"></path>
                <polygon id="Fill-128" points="54.601521 45.6593717 54.852756 45.675329 54.9285299 45.3846473"></polygon>
                <path d="M57.2899229,43.1722179 L56.7286777,43.6582687 C56.7590737,43.6729321 56.7054846,43.7525749 56.6334562,43.8438621 C56.9608972,43.5258662 57.3416393,43.1991009 57.2899229,43.1722179" id="Fill-130"></path>
                <path d="M56.6335138,43.8438334 C56.4630947,44.0094443 56.3056406,44.171605 56.2336122,44.2869001 C56.3236477,44.1947502 56.514811,43.9950683 56.6335138,43.8438334" id="Fill-132"></path>
                <polygon id="Fill-134" points="55.2779108 44.9040594 55.461007 44.7772636 55.8403084 44.4174337"></polygon>
                <path d="M62.9499279,37.5748569 L63.4836582,36.9657481 C63.4964792,36.86181 63.3125187,36.9896121 63.117754,37.2203461 C63.0127366,37.3886884 62.8179719,37.6182723 62.9499279,37.5748569" id="Fill-136"></path>
                <path d="M60.8540747,38.9363597 C61.0365946,38.8094201 61.0769305,38.8292589 61.2081662,38.7856998 L61.0597878,38.6034128 L60.8540747,38.9363597 Z" id="Fill-138"></path>
                <path d="M62.4838466,37.2327956 C62.4946508,37.1302951 63.1822338,36.2729137 62.4677122,37.006662 C62.4551793,37.1100251 61.9205846,37.7199965 62.4838466,37.2327956" id="Fill-140"></path>
                <polygon id="Fill-142" points="62.2717086 28.9807436 62.4196549 29.123928 62.6700255 28.8320963"></polygon>
                <path d="M54.0248762,22.0473684 C54.6376937,22.7888797 54.3536137,22.0408992 54.8853273,22.733101 C55.1083272,22.8278385 54.450564,22.1674075 54.6693862,22.2749396 C54.191982,21.9340859 54.0156566,21.6815006 54.0248762,22.0473684" id="Fill-144"></path>
                <path d="M54.6693286,22.2748677 C54.7456787,22.3297839 54.8279351,22.3859938 54.919123,22.44206 C54.7839978,22.3407096 54.7151386,22.298013 54.6693286,22.2748677" id="Fill-146"></path>
                <polygon id="Fill-148" points="32.1289529 65.6860139 32.5083984 66.177815 32.3180994 65.8059093"></polygon>
                <path d="M33.1673861,66.320295 L33.0967983,66.5954506 L33.5152832,66.7008263 C33.4091134,66.6099704 33.2031122,66.43444 33.1673861,66.320295" id="Fill-150"></path>
                <path d="M29.0875831,7.35526612 L29.0789397,7.28065496 C28.9665754,7.30308143 28.8609818,7.40155667 28.6496505,7.59850713 L29.0875831,7.35526612 Z" id="Fill-152"></path>
                <polygon id="Fill-154" points="23.0459141 13.1306961 23.1509315 13.0278852 22.804619 13.0631089"></polygon>
                <path d="M18.2835269,18.2767014 C18.4925533,18.0813323 18.6956734,17.8087643 18.9058522,17.6123889 C18.4925533,18.0813323 18.0335884,18.1368234 18.2835269,18.2767014" id="Fill-156"></path>
                <path d="M5.65190895,38.9887312 L5.54329015,38.8132009 C5.90170339,39.0971259 5.77824674,39.0406284 5.65190895,38.9887312 M59.7398964,41.6592071 C59.6844346,41.7504943 59.7070515,41.7635764 59.7564629,41.7502068 C59.77447,41.6668263 59.9369661,41.5009279 60.1325952,41.3232412 C60.0473136,41.3414986 59.9297632,41.4125158 59.7398964,41.6592071 M60.5270226,40.9854065 L60.5373947,40.9622612 C60.9396012,40.6610851 60.7951123,40.7660295 60.5270226,40.9854065 M39.0534881,6.21559859 C38.893153,6.14084367 38.7331059,5.93900538 38.5772365,5.6857012 C38.7356989,5.82371029 38.8997796,5.9963654 39.0534881,6.21559859 M27.527938,8.21586778 C27.3971345,8.40031117 27.1657793,8.79751857 26.9744719,8.83690866 C27.0068847,8.51057468 27.2164873,8.44214517 27.527938,8.21586778 M19.4653687,16.4275522 L20.1144885,15.9873607 C19.6277207,16.8144089 19.0926938,17.2307363 19.750457,16.8658748 C19.4653687,16.4275522 21.8317893,14.7146581 21.5459806,14.2780606 L21.9813202,13.9955733 C21.8750063,14.0946236 21.8797602,14.1324323 21.7744547,14.2303325 C22.6465744,13.7060417 22.0318841,13.4511562 22.9836672,12.6041254 C23.3253699,12.3187629 23.5966288,12.1527207 23.4257774,12.4087563 L24.0354257,11.6219608 C24.2457486,11.4258729 24.2588577,11.538149 24.0495433,11.7335181 L25.0870401,10.6405149 L25.0897772,10.6590599 C25.1849987,10.4503211 25.4421401,10.018899 25.5730877,9.81346671 C25.8959189,9.59509608 25.4757053,9.98770318 25.5900864,9.96340783 L26.0928445,9.28658827 C26.4272003,9.14009738 26.0288833,9.71944802 25.6075172,10.1130614 C26.520405,9.92329894 26.0062664,9.53313575 27.4075066,8.55629019 L26.895961,9.15849859 C27.4609516,9.00481972 27.8213817,8.49634249 28.5798406,7.99490948 C28.3634673,8.07742741 26.9953602,8.93222119 27.5458011,8.20278567 C27.7538191,8.0498256 28.004766,7.82541707 28.2777535,7.40750831 C28.4097095,7.5327228 28.7155421,7.16441105 29.1304256,6.73572033 L29.2723215,6.93453967 C29.6798581,6.42980019 29.5568336,6.37919686 29.7487172,6.0343179 C30.2743804,5.54309181 30.5120741,5.56983107 30.7432852,5.56134926 C31.5854411,4.77484123 29.9686919,5.91154732 30.9011714,4.91658807 C31.6443603,4.30517906 32.0506004,3.76076197 32.7593597,2.84961448 C33.2926579,2.43472467 32.7808242,3.03650179 32.9999345,2.91545632 L33.2843026,2.35996975 C33.3906165,2.2604882 33.3992599,2.33553064 33.4032935,2.37333938 C33.5657895,2.15841898 33.4914562,2.1473495 33.4758981,2.07978255 C33.4548658,2.01739094 33.4476629,1.94249226 33.6110233,1.733466 C33.6038205,1.57633691 33.8034832,1.46219189 33.983266,1.39419366 C34.1006723,1.58280608 34.2072743,1.77113098 34.3089784,1.90712743 C34.3604066,1.97613198 34.4128433,2.03363576 34.4742115,2.08093263 L34.6063116,2.17667643 C34.6660951,2.21894171 34.7278955,2.25689421 34.7909923,2.29039017 C34.9124322,2.50818575 34.6044388,2.31281664 34.5906094,2.43026812 C35.6766534,3.23488985 35.5033531,3.13842725 36.4682453,3.7255409 L37.0183981,4.49752923 C36.6599849,3.88453887 37.4325613,4.35333848 38.1009848,4.7721098 C37.9906373,4.53835691 37.8972885,4.33738118 37.8243958,4.21288549 L38.784246,4.98803652 C38.8613164,5.1207265 38.7149547,5.09183085 38.5017507,5.02095744 C38.5759399,5.06466031 38.6459515,5.10635056 38.7017015,5.13898396 C38.9489029,5.51175225 38.6896007,5.44936064 38.3718115,5.32227727 C38.3022321,5.1821118 38.2320764,5.0416588 38.1648019,4.90508731 C37.8460043,4.79468004 37.530664,4.70871188 37.4754903,4.85304638 C37.5518404,4.88970505 37.6773138,4.98113606 37.8066768,5.09111206 C37.7222595,5.06307896 37.6611794,5.05258452 37.670255,5.09542484 C37.6819236,5.14286546 37.8101341,5.19548143 37.9958233,5.2938129 L38.0031702,5.68052586 L38.1267709,5.65278028 L39.1433796,6.9053565 C40.1477434,7.52567859 41.1362609,7.95020029 42.5048003,9.15921738 C42.0458354,8.97908677 42.2086195,9.31778407 42.0260996,9.46542504 C41.8487657,8.93969668 40.9523004,8.54234552 40.3190269,7.83964926 C40.6499253,8.20609213 40.494344,8.20824853 40.3779461,8.14686323 L41.7296308,9.17833739 C41.5674229,9.28630075 41.8817547,9.53212944 42.1373114,9.89857231 C42.169148,9.39728306 43.2046281,10.6083128 43.7713474,11.010983 C43.7121401,11.1304472 43.503834,11.1055768 42.9335132,10.4933052 C43.3858515,11.3456551 44.0908653,11.0226276 44.5613547,11.8328559 C44.4147049,11.6906778 44.3505997,11.5993905 44.2478872,11.587746 C44.6652197,11.8452192 45.4275681,12.7319276 45.1551567,12.6160575 L45.0093713,12.4740231 C45.9368088,13.4630882 47.9283936,15.3913339 48.2986195,15.3076659 C48.2785956,15.3466247 47.8994382,15.4550194 47.7954292,15.4427998 L50.2709008,16.3903185 C49.9250205,16.4341651 50.040554,17.4748399 49.1348691,16.7902573 C49.3352521,17.0460054 49.5857668,17.3605511 50.1360637,17.7725657 C50.0079972,17.5894161 50.0291735,17.1039404 50.2600965,17.2988783 C50.6275854,18.0984684 50.5497947,17.8195751 51.0855418,18.7231033 C50.8940904,18.4482352 51.458937,18.4026634 51.8186467,18.7808946 C51.7147818,18.7688188 51.547676,19.1124039 51.3807142,19.0094721 L52.5995785,19.6273503 C52.3163629,19.452395 52.3052705,19.8404018 52.4259901,20.1302209 C52.3892556,19.9765421 53.214845,20.928661 53.4892731,21.1434376 L53.169323,20.68542 C54.1620182,21.7662036 54.6162292,21.2874846 55.6296686,22.3304595 C55.4431151,22.2679242 54.9409332,22.4036331 55.4266926,22.96372 C55.8201117,23.0496881 57.2272582,23.2867475 58.2561117,24.0778558 L58.3429779,24.3396418 L59.1420608,24.9372499 C58.4756542,24.7335427 56.7687255,24.000082 55.9128842,23.5235193 C56.2312497,23.9802431 55.9176381,23.734702 56.5069744,24.3068646 C56.6299988,24.5940961 56.0650082,24.1152333 55.8888268,23.9493349 L57.1899475,25.3532898 C57.3095146,25.1143616 58.4052104,26.207221 58.5027369,26.0066766 L56.8465162,24.7246297 C56.9657952,24.486564 58.2051156,25.0654833 59.1331293,26.0542609 C59.3057093,26.3690942 58.6316677,26.1906887 58.591908,26.2701877 C58.7781734,26.332723 59.6200412,27.0611522 59.6644107,27.1928359 L59.1615085,26.8823155 C59.6281084,27.4823675 60.2704575,27.5150009 60.7420994,28.3262355 C60.951846,28.5584071 61.1718207,29.2165379 61.3165978,29.1488272 C61.1592878,28.5842838 61.7218295,27.8824501 62.1158247,27.969712 C62.17993,28.0607118 63.0837422,29.3253638 63.2357221,29.678437 C63.4397065,30.2022965 62.3052594,29.5131137 62.4787037,29.9606369 C62.5407922,29.9251283 62.8028315,30.065725 62.9064083,30.130273 C63.0971395,30.4041348 62.6586307,30.1854767 63.1861666,30.6679334 C63.4519513,30.5708958 64.1984535,31.7091832 63.578145,30.753039 C64.1246964,31.1949556 64.0663534,31.3147073 64.6552575,31.8862949 C64.6216923,31.7353475 64.8513188,31.7658245 65.1587359,31.8891701 C65.3120123,31.9509867 65.4847364,32.0359485 65.6535709,32.1329861 C65.8203887,32.2284424 65.9841812,32.3374121 66.1424996,32.4696708 C66.0589467,32.4784401 66.105333,32.6447698 66.1201708,32.7142057 C66.3781765,32.9808795 66.5938295,33.2140573 66.780527,33.421646 C66.4676357,33.6986705 66.1887418,33.9460805 65.8991877,34.2031224 C65.6310981,34.4403255 65.3048095,34.7427955 64.9632509,35.0823553 C64.8321592,35.1254832 64.3229185,35.5275784 64.4393164,35.2555855 C64.3354515,35.4234965 64.2716343,35.6092338 63.9852495,35.9048032 C63.2636691,36.3110675 64.6104558,35.2317214 63.991588,35.4723747 C64.060303,35.6145529 63.3832362,36.3701526 63.0340426,36.8503092 C63.3250373,36.885674 64.024577,35.9243545 64.3746349,35.4436229 C64.6012362,35.6663063 64.1130278,36.6234568 63.2295276,37.7132973 C62.5001682,38.5522775 62.7436242,37.9076601 62.6394711,38.0755711 C61.1254344,39.508278 61.7755626,39.7211857 60.3888722,40.781268 C59.7600644,41.1229843 60.0821753,40.518907 59.8705559,40.5227885 C60.4562907,39.8305867 60.9439229,39.6336362 61.3711953,39.1957449 L60.7701904,39.660663 C60.9256277,39.4099465 61.3165978,38.9479036 61.5907378,38.7574223 C61.0548466,39.0350218 59.0747863,41.2185843 57.8181791,42.2356825 C57.6640383,42.4849614 57.3646884,42.8828876 57.5874001,42.7757868 L57.9276622,42.3962618 C58.3740942,42.1814852 57.4097781,43.2322231 57.9191629,42.8311342 C57.5178207,43.3940963 57.1039456,44.061859 56.3593162,44.6749931 L56.0676012,44.639197 C56.1302659,44.672693 56.6093987,44.2933117 56.7507184,44.0526584 C56.5398193,44.4076005 55.4871965,44.8722311 55.3908225,45.3955155 L55.9798706,45.0329542 C55.5776641,45.5986477 55.1516883,46.3702047 54.4981027,46.9197972 C54.9338744,46.807521 54.6185341,46.7625243 55.2352412,46.5241711 C54.6296265,46.6597363 56.7864445,44.9955767 55.9432802,45.3446247 C56.6016197,45.125104 56.7965285,44.6784433 57.5574363,44.2921617 C57.4861282,44.2562218 57.2513157,44.3920745 57.7836055,43.9139305 C57.7906642,43.8751155 57.8245176,43.8017981 57.8468464,43.7557951 L57.8851655,43.7253181 L57.851024,43.7471695 C57.8648535,43.71698 57.8648535,43.7135298 57.8384911,43.7552201 C57.6945784,43.8519702 57.5683846,43.9212622 57.498229,43.9304628 C57.6257192,43.5564007 58.4337337,42.7575294 58.6423279,42.4224261 C58.9677521,42.1484205 58.5782226,42.6096009 58.7997819,42.5035064 L59.1105124,42.0025047 C59.2701273,42.0815724 60.1062328,41.4053278 59.4695019,42.1806226 L60.1111307,41.5509562 C60.5530969,41.2440297 61.0951825,40.7565414 61.36284,40.3889484 C61.6884083,40.1153742 61.9881904,39.5005149 61.8203643,39.8545945 L62.7444885,38.7845928 L62.7830957,38.8058692 C63.7825616,37.8382243 64.6123286,36.5849292 65.9536412,35.6770882 C66.1043246,35.4965263 66.2557282,35.3117954 66.4438664,35.1070819 C66.5666027,34.975542 66.7557493,34.781898 66.9356762,34.6042113 C67.1220857,34.4194804 67.3301036,34.2208048 67.5683735,33.998984 L67.9264987,33.8486116 C68.0392951,33.7239721 68.1807589,33.5810752 68.3441192,33.421646 C67.9717325,33.0414022 67.5510867,32.5754778 67.161125,32.1660508 C66.9673687,31.9620561 66.782976,31.77445 66.6271066,31.6281029 C66.5255466,31.5368156 66.4539503,31.4889437 66.3915738,31.4711176 C66.2113587,30.7347816 64.3871679,29.3492279 63.6876282,28.5528004 L63.5242678,28.6596137 C63.0170439,28.1377669 62.4841779,27.6829119 61.7902564,27.098961 L61.710593,27.2575277 C61.0604648,26.8052604 60.3776357,25.7581164 59.4932712,24.8997287 C59.5981446,24.9132421 59.8076031,25.1461324 59.936678,25.3297132 C59.1648218,24.0206396 57.5415901,23.331888 56.7932152,22.192738 C56.5138891,22.0011066 56.3583078,21.8159444 56.2234706,21.6211503 L56.2881521,21.6731913 C56.2646709,21.6487521 56.2289448,21.6125248 56.1930747,21.5754348 C56.1093777,21.4509391 56.0266891,21.3202618 55.9291626,21.1852716 C55.9991742,21.3127863 56.0690418,21.4309566 56.140782,21.5239689 C55.9563894,21.3451322 55.666259,21.0849275 55.3664769,20.8454243 L55.379442,20.6026145 L55.3136081,20.5439607 C55.0960823,20.2322901 55.0397561,20.3920069 55.0841256,20.6294975 C54.92768,20.5149213 54.7774288,20.415871 54.6502266,20.3504604 C54.6414392,19.9289577 53.8718879,19.7131747 53.7994273,19.1995222 C53.5097292,19.1253423 52.3607324,17.9258133 51.9900743,18.008475 C52.0108185,17.9698037 51.9449845,17.87636 52.0926427,18.0201195 C51.8174943,17.6937855 51.542634,17.3678828 51.2082782,17.1624505 L51.2442924,16.8719127 L50.3672748,16.4351714 C50.0674926,15.9373324 49.9594501,15.714649 50.4815118,15.984773 C49.3315066,15.222129 49.6324412,15.2822205 48.6264927,14.6608921 L48.7719901,14.5949065 C48.4768178,14.3086814 47.8701947,13.9856539 47.7817438,13.7234366 C47.3314224,12.8733869 44.5885815,10.4812294 43.1036443,8.62759488 C43.1171856,9.26114284 42.4666252,7.71328469 42.1592081,7.88752116 C42.1354387,7.71730995 41.9442754,7.44316066 42.2787752,7.64974301 C41.3537867,6.87071047 41.1139321,6.25470116 40.321908,5.86985707 C40.2981386,5.69863955 40.6121824,5.94446824 40.5691094,5.8140784 C40.4846922,5.76189372 40.2343215,5.60763981 40.1892317,5.47509358 C40.1463028,5.34499127 40.3756412,5.53820399 40.5430352,5.64099201 C39.6592469,4.7841856 39.345059,4.92219468 39.0693344,5.07112949 C38.7279198,4.53016262 38.4933954,4.32444283 38.0354389,4.14531854 C37.9511657,3.92263513 37.7674933,3.59400099 38.3334924,4.10937867 C38.0394725,3.79526424 36.5749914,2.15137476 36.3738881,2.29039017 C36.3215955,2.15209356 35.9608774,1.85307387 35.8613341,1.79240738 C35.4913964,1.40971969 35.2898609,1.2011247 35.0904864,0.994686111 C34.8444374,0.742963289 34.5940667,0.493396858 34.1412963,0.0570868834 L34.3831676,0.354668975 C34.2379584,0.355387772 34.1192556,0.290696013 33.983266,0.165769039 C33.7461486,0.422235923 33.4218768,0.62450549 32.9888421,1.0887048 L32.9921554,1.04327681 C32.7933571,1.20946275 32.6335981,1.34258402 32.5033708,1.45126617 C32.3930233,1.5444223 32.3097585,1.61888971 32.244933,1.68113755 C32.1144175,1.80520197 32.0563626,1.87981313 31.9978756,1.95313046 C31.8811896,2.09976512 31.7642155,2.24194323 31.067557,2.76795911 L31.2621777,2.82905688 C31.422945,3.21720743 30.0157985,3.74911745 29.41076,4.56279602 L29.7400738,4.37964646 C29.4463421,4.86066563 28.2819312,5.08852438 27.8579721,5.44289146 C27.7493533,5.50384548 27.9537699,5.27081139 28.0547537,5.13495869 C26.8726238,5.99061502 28.0899035,5.43397838 27.3690434,6.23112461 C27.1384085,6.28086538 27.319776,5.82169765 26.7916639,6.31536766 C26.4635026,6.49664834 25.6011787,8.08849689 24.7302115,8.6119251 C24.9537876,8.52796958 25.1757791,8.44502036 24.8752767,8.84941574 C24.3588331,9.41410291 23.1493325,10.046357 22.8802344,10.7530786 C22.7923598,10.8026756 22.7484225,10.8104386 22.7279664,10.7960626 C22.3709938,11.2651498 21.4781299,12.2312134 21.3479026,12.5985188 C20.5241859,12.5391462 18.99171,15.3786831 18.5935371,14.9629307 L17.3429803,16.2541782 L17.334769,16.1795671 C16.4949181,16.9640625 16.3047631,17.3484753 16.1169131,17.731163 C15.900972,17.8910235 16.0003712,17.716212 15.9946089,17.6794096 C14.7241722,18.7831947 14.6233325,18.9183286 13.8303,20.1148387 L13.5946231,20.086518 C13.4012989,20.4324033 11.6694484,21.5939798 10.6583139,22.9106727 C10.6548566,22.884221 10.653416,22.834624 10.7273171,22.7236417 C9.57140558,24.1866817 7.2219837,25.490005 7.22284804,26.449887 L6.47634585,27.4314766 C7.63312173,26.351843 6.51826637,27.8062575 7.05876738,27.426445 C6.64676501,27.8939508 5.77550966,28.4172353 6.29166507,27.8528356 L6.40028388,27.7926004 C6.34827938,27.3437833 4.92053273,29.0917547 4.78007737,28.8912102 C4.08629996,29.5914626 3.38301481,30.2705823 2.68030588,30.9367636 C2.32491782,31.2715794 1.97125845,31.6045264 1.61961587,31.9354606 C1.09856253,32.4337309 0.580102212,32.9291261 0.0652433116,33.421646 C0.619141597,33.9962526 1.16814195,34.5659713 1.71310872,35.1312335 C2.0914018,35.5202466 2.46652563,35.9059533 2.83891238,36.2887847 L2.79627158,35.8569313 L3.50459872,36.5862231 C3.64822332,36.8204072 3.60572658,36.991481 3.10037542,36.4712155 C3.25999033,36.8508843 4.05388719,37.2381722 4.11107773,37.2102829 C5.03707465,38.2925042 3.49105739,37.0455346 3.794585,37.3579239 L4.22790777,37.7610254 L4.1561675,37.6440052 C4.57522865,37.9033473 4.68975378,37.8488625 5.29724118,38.4745036 C5.6487397,38.9030506 5.37719269,38.7943685 5.52341031,38.9552353 C5.50871652,38.9678861 5.55409441,39.0263962 5.75361303,39.1960324 L6.64359577,40.1176743 L6.43514562,39.6022966 C6.91283787,39.9273368 7.27960641,40.4608282 7.0357183,39.8695455 C7.38073426,40.750791 10.321077,43.341049 10.6148088,43.8003605 C11.2897147,44.2501839 11.843469,44.8068205 12.5180868,45.5070729 C12.3790721,45.304372 12.4496599,45.029504 13.0222855,45.6426381 C12.4480752,45.7828035 13.9541888,46.8827072 14.1770446,47.6174618 C13.9186068,47.01971 15.9065902,49.2594824 15.4760045,48.3470411 C15.9423163,48.870038 15.3722836,48.5099206 15.6639986,48.9690883 C16.9813978,50.0078942 18.172171,51.6514962 19.6759797,53.0593326 C19.7457032,53.035181 19.5732672,52.720204 19.9557379,52.9625825 L20.4907648,53.9640109 C20.8014952,54.2282408 21.0262238,53.9582605 21.3892469,54.6454308 C21.3546732,54.5322921 21.303245,54.3620809 21.5112629,54.5397676 C24.1374179,57.6169389 27.5316835,60.1744198 30.0016809,63.4964135 C29.6997379,63.0135255 29.9704206,63.2658233 30.2736601,63.5615365 C30.1006479,63.3454661 30.3939475,63.4502667 30.4191574,63.3486288 L31.4565103,64.7359076 C31.8541069,64.7807606 32.7697318,66.0229861 33.0650482,65.9811521 L32.6503087,65.6276476 C33.3606527,65.9391743 32.3774652,64.472684 32.7073552,64.2925534 C31.9089926,63.9472432 31.5334366,62.4522885 30.2706349,61.8380043 C30.1153417,61.579381 30.529649,61.9324543 30.4777886,61.7626744 C30.1304677,61.6340096 29.8203134,61.3700673 29.3367149,60.7895665 L29.4240133,60.8226312 C27.9006129,59.3557096 27.3668826,58.6080167 25.7576244,56.858464 L25.7556076,57.1086054 C25.411456,56.7312369 25.3748655,56.6156542 25.2374354,56.4153973 C24.6313886,56.1925701 26.241367,57.4391085 25.6523189,57.2729225 C25.4300393,56.5380241 23.1087085,54.7263674 23.0767279,54.1113644 C22.5223974,53.5553028 23.0934385,54.4201597 22.5395402,53.8640981 L22.4711132,53.6381082 L22.2289538,53.5994369 C21.8814888,53.2187619 21.7963513,52.9369933 21.8496523,52.8566318 C21.93018,52.9530944 22.1197587,53.0888033 22.2201663,53.1776466 C21.8407208,52.613247 20.8560927,51.8796424 20.7241367,51.6877236 L21.2096081,52.2692306 C19.6186451,50.8289045 17.8705162,48.8775135 16.2445474,47.5753403 L16.2959757,47.7461266 C15.0668833,46.7390915 15.4653443,46.7862446 14.185544,45.611011 L14.2444632,45.6410567 C13.9393509,45.4551757 13.5809377,45.1574499 13.2514799,44.8151586 C13.6315016,45.0549494 12.8034633,44.0972238 13.2874941,44.4261455 C11.9558333,43.3335735 12.5942929,43.9199684 11.5714898,43.341049 L11.4854879,43.0581304 C11.122753,42.8746933 11.0528854,42.8991324 10.4137055,42.3120188 C11.0018893,42.72964 10.1726985,41.7710519 10.8486129,42.2217378 C9.77726271,40.7213203 8.71844544,40.5317016 8.44387323,39.626592 C7.57881232,39.3093149 9.40617247,40.8903814 9.01635484,40.618101 C9.20434893,40.9842564 8.32387394,40.3348949 7.94730954,39.904479 C7.54193379,39.4878641 7.59797187,38.8573351 6.55788199,37.8297424 C6.65958607,37.9339681 6.68724497,37.9200234 6.78894905,38.0238177 C6.47130387,37.5676689 5.93555674,37.3607991 5.57397424,36.7738292 C5.14238015,36.6733413 4.96691901,36.1489068 4.67909358,36.2830344 L5.67683077,37.181531 C5.08360499,36.6996493 4.33234893,36.4426074 3.56567879,35.43816 C3.67717873,35.4647555 3.99698477,35.6720566 4.2094685,35.8219978 C4.01239884,35.5009829 3.66911156,35.3648427 3.46426283,35.0329021 C3.75208826,34.898487 4.6636795,36.1379811 5.40125017,36.5528709 C5.21210363,36.1862842 4.15775212,35.6172843 4.67606839,35.6780945 C3.96874964,35.5527363 3.69331309,34.6239064 2.77048542,34.1461937 L2.94320949,34.0662634 C2.87996856,34.0247169 2.78172185,33.9606002 2.67137436,33.8882892 C2.60928589,33.8605436 2.53783373,33.8177033 2.48943066,33.7656624 C2.48943066,33.7656624 2.58998228,33.7842074 2.67425549,33.7865075 C2.7168963,33.7880889 2.75607974,33.7863637 2.78417081,33.7836323 L2.85576703,33.8039024 C2.57730529,33.7074398 2.54950233,33.5231402 2.53869807,33.421646 C2.64688471,33.3631359 2.71444733,33.3257584 2.73000546,33.2567539 C2.62887761,33.3602607 2.55555271,33.403676 2.49015094,33.421646 C2.46335638,33.4460851 2.38109996,33.4357344 2.29812326,33.4278276 C2.21687525,33.4220773 2.13533911,33.418627 2.1637183,33.5097705 C2.11819636,33.4775684 2.07555555,33.4473789 2.03867702,33.421646 C2.14888045,33.2574727 2.28285325,33.1400212 2.39593781,33.0799297 C2.51132729,33.0179694 2.61403976,33.0048873 2.70796478,33.0037372 L2.74397897,33.0027309 L2.8041947,32.9774292 C2.8445306,32.9587405 2.88630706,32.9391892 2.93110872,32.9183441 C3.01927146,32.8743537 3.11535733,32.8190063 3.22426425,32.7429576 C3.44222214,32.5910038 3.71189642,32.3566759 4.07362297,31.9668002 C3.8785701,32.1973904 3.19804591,32.688904 3.47276218,32.298022 C3.79818642,32.0251665 4.24216939,31.6789938 4.492396,31.561686 C5.50828435,30.4954221 4.20212161,31.591588 4.56816986,31.0711787 C5.07712244,30.8709218 5.01719482,30.4980098 5.42487548,29.992839 L5.55654337,30.117766 C6.82683598,29.0149871 5.60364993,29.5361152 6.77252658,28.568614 L6.49896277,29.1974179 L7.01036431,28.594922 L7.04162462,28.8559891 C7.53962888,28.1425109 7.75657838,27.9819316 8.3920128,27.4297515 C8.16310659,27.4773359 8.23614337,27.1195186 8.75820511,26.5904837 C9.19340062,26.3084277 8.67955011,26.9129362 9.40660464,26.1502923 C9.31901812,26.3985649 9.23546519,26.6834961 8.79249062,26.8890722 C8.80113403,26.9641146 8.70720901,27.1354759 8.71426779,27.2109496 C9.18864674,26.9129362 9.70537838,26.2615621 9.97418831,25.9911505 C9.86542545,26.0902008 9.73447785,26.207221 9.65222143,26.252649 L10.5550252,24.99576 C10.7735593,24.8741395 10.6773294,25.0476572 10.5816757,25.2190185 C10.7866685,24.9865594 10.8790089,24.7763831 11.1900275,24.4442987 C11.2112038,24.6314735 11.3389822,24.7193106 10.932598,25.2231875 L11.8466382,24.0795809 C11.9607312,24.0562919 12.4999357,23.6767669 12.4047142,23.8485595 C13.0372674,23.3399385 13.6028343,22.2483729 14.4408126,21.5737097 C14.4599721,21.5141933 14.5194676,21.4162931 14.6655411,21.240619 C15.4005188,20.5543113 16.1591217,20.0530221 16.8590936,19.0685573 L17.524924,18.7781632 C18.1430716,18.0763295 16.6412797,19.188884 17.6702773,18.0208383 C18.3891205,17.184302 18.1207428,17.8903047 18.446023,17.6699214 C18.7387463,17.1891898 19.2197519,16.3256267 20.0875499,15.7638147 C19.8860145,16.0355201 19.6726664,16.1930805 19.4653687,16.4275522" id="Fill-158"></path>
                <path d="M26.3623891,27.2907217 C26.2677438,27.1136101 26.0209746,26.8059648 26.0227033,26.729916 C26.0314907,26.2694545 26.2088246,26.1814737 26.027025,25.5881784 C25.9928835,25.4774836 25.7652738,25.5308184 25.7237855,25.3440748 C25.6432577,24.9833823 24.9905365,25.3669326 24.6342841,25.2651509 C24.5484263,25.240568 24.40048,25.0140031 24.337095,24.9508927 C24.2770233,24.8910887 24.0566164,24.7410039 24.0355842,24.6587734 C23.9524634,24.3344521 24.1774801,23.516892 23.7474706,23.4283362 C23.6382756,23.4059097 23.6675191,23.0377417 23.3436795,22.950336 C23.1896828,22.9089332 22.7184731,22.9769315 22.5140565,22.9877134 C22.3169869,22.9980641 22.5631799,22.6839497 21.9977571,22.5587352 C21.8673857,22.5296958 21.9859444,22.0997112 21.3751437,22.0863416 C21.1144009,22.0805912 21.0374746,21.5611883 20.7137791,21.5074222 C20.4239368,21.4594066 18.9536934,21.351587 18.9485074,21.6448563 C18.9440416,21.8925538 18.7620979,21.7129983 18.7620979,21.83505 C18.7620979,22.0564396 18.1906247,21.979097 18.0135789,22.2118436 C17.2126233,23.2634441 17.0133928,23.0167528 16.7647508,23.2934898 C16.6018226,23.4747705 15.7393547,23.3522874 15.7830039,23.5754021 C15.9165445,24.257397 15.4747224,24.2430211 15.5474711,24.617802 C15.6416842,25.1039965 15.8211789,24.8768566 16.1520774,25.7700341 C16.364273,26.3423405 16.8230938,26.8200532 17.1194186,26.7894325 C17.275288,26.7731876 17.3068364,27.0868708 17.4951186,27.0791078 C17.7313717,27.0690446 18.0794129,27.0408678 18.315666,27.0487745 C18.5055328,27.0551 18.8133821,27.3641828 19.003393,27.3690706 C19.3095137,27.3768336 19.2766687,27.0290795 19.4823818,26.9927084 C19.749463,26.9458428 19.9458124,26.7106523 20.2834815,26.686932 C20.7518101,26.6545861 21.5372076,26.6261217 21.8856809,26.8752569 C22.9698522,27.6501204 24.5001672,27.7478768 26.2132904,27.6982798 C26.3517289,27.6942545 26.4253419,27.408317 26.3623891,27.2907217" id="Fill-160"></path>
                <path d="M24.2732778,32.432164 C24.6381736,31.8033601 23.8570978,32.3615781 24.0181533,31.7309053 C24.2897003,30.6660789 23.9592341,30.4728662 23.0817843,30.5594094 C22.4305036,30.6236699 22.4027007,30.7984814 21.9680814,30.8372965 C21.4379525,30.8843058 21.4281566,30.9784683 21.0668622,30.9431034 C20.7663598,30.9136327 20.8594205,30.8288147 20.5414872,30.770017 C19.939762,30.6587472 20.2049705,30.2135241 19.5529696,30.2142429 C19.1520596,30.2145305 18.942313,30.5124001 18.5632996,30.6610474 C18.4716795,30.6968435 18.3555697,30.6925307 18.2568908,30.6961247 C18.1504329,30.7000062 17.9246959,30.5812609 17.8212632,30.5550966 C17.2304863,30.4063056 17.3677724,30.4399453 16.8786997,30.8020754 C16.5133717,31.0723432 16.1281639,30.6810299 15.8691499,30.9281524 C15.5094401,31.2703 15.3472322,31.1547174 15.3117942,31.7543381 C15.2749157,32.380123 15.2612303,32.50505 14.8996478,32.6946687 C14.6190252,32.8423097 14.5844516,33.1578617 14.5894936,33.2416735 C14.5975607,33.3697632 14.5451241,35.2049965 14.5974167,35.3223042 C14.8120613,35.8080675 14.6756395,36.1749416 14.8523972,36.257172 C15.3250474,36.477124 15.4276158,36.902077 15.8280937,36.8077708 C16.2409604,36.7110207 16.0231465,36.4966753 16.4586302,36.2952683 C16.9003082,36.0909861 16.945542,35.3763578 17.3735347,35.2461117 C17.7905791,35.1191721 17.9860641,34.5994817 18.4666375,34.5273144 C18.6370567,34.5015815 19.3603657,33.77689 20.0241793,33.9528516 C21.256729,34.2793293 21.3183853,33.7142109 21.8385743,33.7058728 C22.5572736,33.6940845 22.6509105,33.3042089 23.0904277,33.3167159 C23.3883371,33.3253415 23.65974,33.1785631 23.8413956,32.7771867 C23.9528956,32.5304954 24.1866997,32.5810988 24.2732778,32.432164" id="Fill-162"></path>
                <path d="M29.1657915,32.2526084 C28.9200307,32.0329439 29.4432448,31.0302217 28.4519902,31.7940157 C27.7674324,32.3213254 27.2459469,32.8710616 26.8101752,33.5175479 C26.5598045,33.8887349 26.119567,34.7129079 25.2905203,35.4459374 C24.8269456,35.8556519 24.896381,36.4153074 23.8176839,37.3153855 C22.3805735,38.5143394 22.1399987,39.7212001 21.0375323,41.0537066 C20.6196236,41.5588773 20.1553286,42.2773871 19.7634942,42.5923641 C18.504438,43.6051496 18.0448969,44.8160355 17.5265806,45.0158612 C16.6734764,45.3452141 17.5738312,47.5080753 17.8917645,48.4136161 C18.1133239,49.0440014 19.0048912,49.3322391 19.7077442,49.3875865 C20.6575105,49.4624852 21.3427886,49.4851992 21.6824744,48.9954107 C21.9616564,48.5934592 21.6448756,48.1723877 22.2427112,47.8263587 C22.7312077,47.5443026 23.1419136,46.9639457 23.5112751,46.2149589 C24.0657496,45.0900411 24.5294684,43.5855983 25.0194055,42.1354965 C25.3609641,41.12458 25.9972628,40.8774575 26.9043883,39.2906405 C27.4176626,38.3924314 27.2139663,37.7631962 27.6111308,37.1977902 C28.0445977,36.5810621 27.7406379,36.104787 28.0941532,35.6811279 C28.9777974,34.6229144 28.3713184,34.8270529 28.6833454,33.4591816 C28.859959,32.9415037 29.4371945,32.4949869 29.1657915,32.2526084" id="Fill-164"></path>
                <path d="M48.8790675,37.22325 C48.4600063,37.22325 47.9071165,37.2471141 47.4918008,37.1858726 C47.3948506,37.1714966 47.4052227,36.9430628 47.3072641,36.916036 C47.0658249,36.8493316 46.771805,36.9258117 46.5037154,36.9324246 C46.5377128,36.7906778 46.5672444,36.634555 46.5888529,36.4499679 C46.604123,36.3210156 46.764026,36.2842132 46.797159,36.1799876 C46.8776868,35.9276897 46.8040738,35.9673673 46.8949736,35.7507218 C47.0011434,35.4969864 47.3268558,35.4880733 47.411273,35.2100425 C47.4399403,35.1161675 47.4506005,34.6532621 47.4004688,34.462637 C47.3653189,34.3292282 47.3555231,34.367037 47.2265923,34.2113455 C47.0338443,33.9777363 47.1352603,33.8831426 46.8261144,33.8233387 C46.292096,33.7202631 46.2474384,33.600799 45.9078966,33.542864 L45.817573,33.544014 L45.802303,33.5519208 L45.7459768,33.6158938 C45.609555,33.8250638 45.5849213,34.0494723 45.4322211,34.2584986 C45.3017057,34.4367603 45.2108059,34.4307224 45.0706386,34.6112843 C44.9814675,34.7261481 45.0225237,34.8650198 44.9324882,34.9967034 C44.8312163,35.1456382 44.7977951,35.0866969 44.6939302,35.2339065 C44.6219018,35.3354007 44.7032939,36.045285 44.6939302,36.190482 C44.6620936,36.676389 44.1793594,36.432573 44.1083394,36.6384365 C44.0360229,36.8477503 43.932158,36.8756396 43.848605,36.9367374 C43.7637556,36.9986977 43.7796018,37.2903857 43.6570095,37.409131 C43.6073099,37.4572904 43.5485348,37.4946679 43.4863023,37.5261512 C43.3818611,37.1405883 43.1876726,36.8565196 43.1703858,36.7124726 C43.1248638,36.3366854 42.9370138,35.9863436 42.9816714,35.7791862 C43.1183813,35.1403191 43.3583798,35.1467883 43.4841414,34.2896944 C43.5253416,34.0105135 43.5215962,33.5670156 43.5139612,33.1012349 C44.1437774,33.0713329 44.7685516,33.0548006 45.4011049,33.0678827 C45.6092669,33.0721955 45.5611519,33.3092548 45.7773811,33.3298124 C45.9308016,33.3443321 46.0070076,33.5737722 46.2843169,33.588292 C46.7324775,33.6118685 47.3476,33.6361639 47.6744648,33.6124435 C47.8807541,33.5974926 48.5743874,33.6256694 48.6170282,33.4236874 C48.6379165,33.3233433 48.9353937,33.232631 48.9937367,33.5300694 C49.0657651,33.8940683 48.9248775,34.6866143 48.9232929,34.8815521 C48.9116243,36.0925818 48.816979,36.6687698 49.146869,37.0919976 C49.179714,37.1334004 49.2047798,37.1686214 49.2325828,37.2061426 C49.1190661,37.2150557 49.002092,37.22325 48.8790675,37.22325 M39.7814502,37.5261512 C39.5983541,37.41215 39.643876,37.2288566 39.2511772,37.1978046 C39.0937232,37.18501 39.0021031,37.0114923 38.8390308,37.0094797 C38.4444593,37.0048794 38.4368243,36.8796649 38.268422,36.842575 C38.2776416,36.7323114 38.286285,36.6822832 38.2702947,36.5428365 C38.2564652,36.4189158 38.3169691,36.2863696 38.4023947,36.174956 C38.5357913,36.0023009 38.6011931,35.9373216 38.6501724,35.7517281 C38.6825852,35.62752 38.7878907,35.5843921 38.8668338,35.5247319 C38.9234481,35.4818916 39.0542516,35.2991733 39.0845036,35.2370693 C39.1543711,35.0912972 39.3348742,34.3857257 39.286183,34.2113455 C39.1683446,33.7881176 38.9577336,33.7921429 38.8737485,33.61575 C38.8349972,33.5339509 38.7615283,33.4742907 38.666883,33.4327442 C38.8816716,33.3334064 38.9081781,33.1966912 39.0624629,33.2122172 C39.2085364,33.2265931 39.3998438,33.3482136 39.5456293,33.3416007 C39.7365045,33.3328314 39.9223377,33.3221932 40.108171,33.3118425 C40.1074507,33.4346131 40.1074507,33.551202 40.1065864,33.6764165 C40.1045696,33.9944124 40.3586857,34.1174705 40.3704984,34.5757757 C40.3889376,35.3049237 40.415156,35.8243267 40.4168846,36.4765634 C40.417749,36.8008847 40.7013968,36.543699 40.6956345,37.6493531 C39.9922053,37.5974559 40.0609204,37.7011065 39.7814502,37.5261512 M36.3055044,36.7862212 C36.2619992,36.888578 36.2441362,36.840131 36.1706673,36.9235115 C36.0923004,37.0114923 35.9397442,37.2012548 35.8465395,37.2729908 C35.6769847,37.4048182 35.5094467,37.6434589 35.3396037,37.7752864 C35.2451025,37.8488912 35.149881,37.9226398 35.0703616,38.012777 C34.9944437,38.0990327 34.893748,38.172925 34.8221518,38.2642123 C34.8172539,38.0498669 34.8139406,37.8503288 34.7978062,37.5267262 C34.7838327,37.2517144 34.7806635,36.6528125 34.9271692,36.3156965 C35.0316104,36.0766245 35.2824132,36.0856814 35.3396037,35.9160452 C35.5879576,35.179853 35.8047631,35.2514452 36.2349166,34.7403803 C36.525191,34.3960764 36.7418523,34.0231643 37.212918,33.9410777 L37.2996402,33.9146259 C37.2526777,33.9557411 37.1975039,33.9968564 37.1194251,34.0378278 C36.8664615,34.170374 37.0005783,35.4459518 36.8766895,35.6490839 C36.7685029,35.825333 36.7372425,36.228722 36.6405804,36.3816821 C36.5725856,36.4895017 36.3945315,36.5782013 36.3055044,36.7862212 M38.8033047,25.511454 C38.7827046,25.2387423 38.8862814,25.3124909 38.915525,25.1473112 C38.9577336,24.9126958 38.8256335,25.0055644 38.8224643,24.8891192 C38.8195832,24.7594482 38.8139649,24.619714 38.8079146,24.4771046 L38.8322602,24.4765296 C40.0129495,24.4768171 39.2271198,24.1789475 40.275709,24.2703785 C40.6855505,24.3060308 41.2050192,24.1890106 41.2960631,24.008305 C41.3986315,23.8037353 41.9813412,23.9355627 42.4204262,23.952095 C42.6932697,23.9621582 42.9175661,23.9260746 43.0208548,24.1358196 C43.1239995,24.3439833 43.374082,24.3379454 43.4213327,24.3357891 C43.6927356,24.3240008 43.5488229,24.4957933 43.6106233,24.5090192 C43.5887266,24.6136761 43.5636607,24.7200581 43.5469502,24.8215523 C43.513673,25.0285659 43.3020536,24.8492979 43.226712,25.1855512 C43.191274,25.3444055 41.9981958,25.0992956 41.8891448,25.2805763 C41.8377166,25.3662569 41.8877043,25.4643009 41.6877535,25.4910401 C41.0886214,25.5706829 39.7321828,25.4753703 38.8033047,25.511454 M53.6826405,39.2782916 C53.6760139,38.2873576 53.8413911,38.2389106 53.7203834,37.0947291 C53.7114519,37.0126424 53.6708279,36.5392425 53.4592085,36.527598 C53.3036272,36.5191162 53.5181277,36.057217 53.176281,35.95141 C53.0286228,35.905407 53.1157771,35.6303951 52.975898,35.563547 C52.7053594,35.4341635 52.673955,35.0701645 52.646008,34.8815521 C52.5633194,34.321609 52.5589977,33.209917 52.5513627,32.5539426 C52.5401263,31.4839409 52.8142663,30.9307545 52.0923978,30.2846995 C51.9268766,30.136771 51.7626519,29.7556646 51.326448,29.7438764 C50.9164624,29.7328069 50.8916846,29.5604393 50.6194173,29.5086859 C50.2108723,29.4310558 50.037572,29.4740398 49.6656175,29.6262811 C49.2059323,29.8144622 48.9052858,30.2158387 48.558109,30.2259018 C47.7451966,30.2494784 47.5916321,30.5903321 47.0028721,30.5315345 C46.7460189,30.5059453 46.6313497,30.259254 46.3695985,30.2980691 C45.3286443,30.4521792 44.7630774,30.1591974 43.7650521,30.1591974 L43.7281736,30.1619289 C43.7307666,30.1219637 43.7336477,30.0817111 43.7356645,30.0416022 C43.7519429,29.707649 43.8349196,29.3843339 43.6204191,29.2030532 C43.4538895,29.062169 43.371489,28.9690128 43.3838779,28.6099017 C43.6186904,28.5883378 44.0064913,28.4139575 44.2855292,28.3643605 C44.5505937,28.3176387 45.2613698,27.926613 45.4788955,27.7686213 C45.764272,27.5629015 46.0387001,28.003093 46.248879,27.7217557 C46.4509906,27.4506254 46.5617703,27.2033591 46.6084447,26.4980752 C46.6313497,26.1588028 46.7494762,25.6117981 46.8615524,25.2292541 C46.9312759,24.9907572 46.913701,24.7723865 46.9027526,24.5337458 C46.8847455,24.2652032 47.271682,24.2549962 47.3329062,24.2181938 C47.6321121,24.0380632 48.1762145,24.2124434 48.9194034,24.0535892 C49.5787512,23.9125612 49.4849703,24.1164121 50.7569916,24.0065799 C50.9328849,23.9914851 51.1705785,23.442324 51.5046462,23.2744129 C51.9195297,23.0659617 52.5003666,22.1724966 51.7544406,22.1019107 C50.3676061,21.9708021 49.2495815,21.9127233 48.6765237,22.0848034 C48.3441847,22.1842849 48.2844011,22.1404383 47.9294453,22.1724966 C47.5731929,22.2048425 47.6250533,22.2065676 47.3784281,22.0806343 C47.4225095,21.495102 47.3926897,20.91417 47.3641665,20.4639154 C47.3174921,19.7114784 47.7117755,19.3257717 47.3624378,18.6337136 C47.3061116,18.5225876 46.908803,18.0654325 46.5004021,18.0811023 C45.8652558,18.1055414 45.4711165,17.7123592 45.3828097,17.7048837 C45.1226431,17.6830323 44.5288411,17.6403357 44.4196461,17.9195166 C44.3363813,18.1325682 44.1577509,17.9754391 44.1166947,18.2691396 C44.0436579,18.787105 43.8520624,18.6273882 43.8354959,18.7734478 C43.7554003,19.4606181 43.9298531,20.7514343 43.904355,21.0438411 C43.876408,21.3678749 43.8700695,21.6000464 43.8741031,21.7865025 C42.8534609,21.7728453 41.9474878,21.7883713 41.5751011,21.8119479 C40.8319122,21.859101 41.2378642,22.0215492 39.4338412,22.0684148 C39.4309601,21.7872213 39.146448,21.6880272 39.2905047,21.4446425 C39.5316558,21.0359343 39.5682462,20.9284022 39.7114386,20.1733775 C39.7586892,19.9252487 40.5312657,19.3039203 39.3690157,18.9432278 C39.1418382,18.8729294 39.2589563,18.4573208 38.8505554,18.5356697 C38.2233322,18.6561401 38.0019169,18.927558 37.5227841,19.1745368 C36.888214,19.5011583 36.4571962,20.4424952 35.703203,20.5833795 C35.4476463,20.6313952 35.8126862,21.1627302 35.3947775,21.263218 C34.9389819,21.3730502 34.703449,21.8304929 34.566307,22.3046116 C33.7116182,22.3520522 33.2369511,22.3409827 32.9811063,22.1618584 C32.5593081,21.866864 32.437292,22.3557899 31.815687,22.3470206 C31.6121348,22.3441454 31.054347,22.3638405 30.9010706,22.6870118 C30.737278,23.032897 30.1619153,22.8602419 30.0677021,23.6067848 C30.0453733,23.7828902 29.8261189,23.9772529 29.8143063,24.2417704 C29.8019174,24.5198012 29.7408373,25.3646755 29.9026131,25.629193 C30.0321201,25.8406631 30.371806,25.9168556 30.5152865,26.2286699 C30.6022968,26.4174261 30.7035687,26.3868053 30.9697856,26.4893058 C31.2361466,26.5919501 31.1567713,26.7684867 31.8581837,26.7577048 C32.2794057,26.7509481 32.5026937,26.7595736 32.7066781,26.5754178 C33.0358479,26.2779794 32.7389468,26.1294759 32.9125353,25.8054421 C33.0063162,25.6307743 33.3249698,25.7700772 33.4546209,25.4174353 C33.5122436,25.261025 34.0147136,25.3474244 34.2045804,25.1997834 C34.505515,24.9658868 34.8761731,24.8666928 35.243806,24.8041574 C35.2560508,24.8645364 35.2658467,24.9272155 35.2688719,24.9942074 C35.3001322,25.6368122 35.4921599,25.3917023 35.5987619,25.8876725 C35.647309,26.112656 35.7719181,26.1291884 35.8187366,26.4519284 C35.8752068,26.840654 35.8507172,27.5358747 35.8564794,27.7561142 C35.8651228,28.0881986 35.5538162,28.2723545 35.6772728,28.5682115 C35.7279808,28.6896882 35.8963832,29.3943971 36.0230091,29.445863 C36.4628144,29.6261374 36.5952026,29.9322013 36.7860778,29.9103498 C37.2195446,29.8611841 37.8610294,29.7812538 38.3165369,29.5401692 C38.915525,29.2227483 39.5882701,29.1208228 40.3154687,28.9803698 L40.3428395,29.0542622 C40.3739557,29.445863 40.1065864,29.3363183 40.1065864,29.6087425 C40.1065864,29.8853357 40.1074507,30.1568973 40.108171,30.4283152 C38.9234481,30.5154334 37.90828,30.5903321 37.90828,30.5903321 C36.9966888,30.5907634 36.6147943,30.5121269 35.7173206,30.6916825 C34.6561984,30.9038715 34.9108908,30.5459104 34.0083751,30.5903321 C33.9085438,30.5953637 33.66552,30.6032704 33.3367824,30.9311858 C33.125019,31.1429435 33.1633381,31.4065983 32.9125353,31.5661713 C32.3976764,31.8940867 32.6551058,32.45748 32.4885762,32.5654434 C32.2528993,32.7182597 32.3793811,33.4767346 32.358781,34.2584986 C32.3401977,34.9800273 32.2543399,35.7850803 32.064473,36.2806192 C31.8712929,36.7852149 31.9189757,36.8829714 31.734583,37.0645396 C31.4051252,37.3890047 31.1374677,37.687018 31.0042152,37.9140142 C30.8250086,38.2197906 30.9257043,38.5429619 30.8039763,38.9493699 C30.7123562,39.2554338 30.4135824,39.4660414 30.2502221,39.7721053 C30.0727441,40.105196 29.7013658,40.4496437 29.5078975,40.6660017 C29.0266039,41.2052434 28.671648,41.3711418 28.6834606,42.2768265 C28.6872061,42.576565 28.4110493,42.790479 28.3888645,43.1817923 C28.3384447,44.0743948 28.3816617,45.2305084 29.1898202,45.61564 C29.8670311,45.93838 31.0275524,45.5601489 31.6521826,45.1451153 C32.2577972,44.7430201 32.3927784,44.3225237 32.5003888,43.5817311 C32.7125845,42.1237226 32.9282374,41.9629996 33.4781021,41.4536598 C33.7384127,41.2118564 34.1113757,40.7673521 34.3538233,40.4280798 C34.4153355,40.742338 34.4883723,41.0634966 34.5471474,41.066228 C34.7978062,41.0791664 35.3213085,41.0433703 35.4964816,40.8628084 C35.6304544,40.7246555 35.890909,40.7742526 35.9404645,40.6900095 C36.027907,40.5399246 35.8837062,40.0363352 36.0729968,39.946198 C36.1870897,39.892432 36.4049036,39.6849871 36.6222852,39.4594285 C36.7869421,39.2884985 36.8759692,39.098161 36.9943839,38.9644647 C37.0495576,38.9989669 37.1741667,39.0441074 37.2166635,39.0866602 C37.3965904,39.2673658 37.4755335,39.5387837 37.6685696,39.5387837 C38.3273412,39.5387837 38.3987933,39.8271652 38.5293088,39.8268777 C39.1418382,39.824865 39.1251276,40.0660934 39.3491358,40.1523491 C39.3943697,40.1698878 40.2738363,40.2907895 40.7258864,40.2657753 C40.7696797,41.502538 40.8728243,42.6845283 41.1280929,43.4128138 C41.3306367,43.9907268 41.7404782,44.0245103 42.1752416,43.6188211 C42.4627789,43.3504222 42.7356224,43.6607988 43.127889,42.9243191 C43.2095692,42.7719341 43.0757405,42.284302 43.3729296,41.9049207 C43.7762885,41.3896868 43.7702382,40.7403253 43.691295,40.044242 L43.7650521,39.9644555 C44.0659867,39.720927 44.7411808,39.3439896 44.99789,39.0548894 L45.1415146,38.8552075 C45.3019938,38.8625392 45.3995202,39.04497 45.4711165,39.114262 C45.5818961,39.2194939 45.6432643,39.3290387 45.7511628,39.3314826 C46.0487841,39.3375205 46.1458784,39.6123886 46.4018673,39.6136824 C46.7909646,39.6161263 46.8389355,39.550572 47.1561485,39.513482 C47.6266379,39.4589972 47.5305521,39.5679669 47.8865163,39.5607789 C48.4460328,39.5491344 48.3418798,39.9551111 48.6644229,39.878056 C48.8092,39.84341 48.8201483,39.6421468 48.9836527,39.6276271 C49.4333979,39.5889558 49.441177,39.3276011 49.6539489,39.2194939 C49.7961329,39.1474705 49.9128189,39.0906855 49.9643912,38.8462944 C49.9763479,38.7935346 49.9786528,38.4452055 49.976636,38.3912957 C49.9746192,38.3404048 49.9777885,38.2771507 49.9832626,38.210015 C50.0138027,38.2407795 50.0416056,38.2696752 50.0779079,38.3030274 C50.258123,38.4703634 50.0770436,39.1509207 50.0894325,39.3960306 C50.1601644,40.7600204 49.8461206,40.7480883 49.7830237,41.3477091 C49.7592544,41.5758553 49.7860489,41.9529364 49.9244875,42.1353672 C50.0064558,42.2433305 50.0384364,42.3413745 50.1601644,42.3997408 C50.5636674,42.5943911 50.4072217,42.8643714 50.9024889,42.8643714 C51.0155735,42.8643714 52.0810173,42.7870288 52.1863228,42.7467762 C52.4339564,42.6529012 52.5636075,42.0062712 52.7873277,41.7122831 C53.4600728,40.8291687 53.8660248,40.9115428 53.5528454,39.9134209 C53.3762318,39.3494525 53.683937,39.4167319 53.6826405,39.2782916" id="Fill-166"></path>
            </g>
        </g>
    </g>
</svg>