<?xml version="1.0" encoding="UTF-8" standalone="no"?>
<svg width="24px" height="25px" viewBox="0 0 24 25" version="1.1" xmlns="http://www.w3.org/2000/svg" xmlns:xlink="http://www.w3.org/1999/xlink">
    <!-- Generator: Sketch 49.1 (51147) - http://www.bohemiancoding.com/sketch -->
    <title>Icons/Big/Social/IG</title>
    <desc>Created with Sketch.</desc>
    <defs>
        <path d="M17.9458247,0 C21.2843924,0 24,2.82864113 24,6.30631578 L24,18.6935674 C24,22.171242 21.2843924,25 17.9458247,25 L6.05417531,25 C2.71560765,25 0,22.171242 0,18.6935674 L0,6.30631578 C0,2.82864113 2.71560765,0 6.05417531,0 L17.9458247,0 Z M21.3883686,18.6935674 L21.3883686,6.30631578 C21.3883686,4.32918793 19.8438674,2.72033257 17.9458247,2.72033257 L6.05417531,2.72033257 C4.15602041,2.72033257 2.61163143,4.32918793 2.61163143,6.30631578 L2.61163143,18.6935674 C2.61163143,20.6706952 4.15602041,22.2795506 6.05417531,22.2795506 L17.9458247,22.2795506 C19.8438674,22.2795506 21.3883686,20.6706952 21.3883686,18.6935674 Z M18.3797992,4.34560363 C19.1862599,4.34560363 19.8423083,5.02898744 19.8423083,5.86905062 C19.8423083,6.70911381 19.1862599,7.39261445 18.3797992,7.39261445 C17.5733386,7.39261445 16.9172901,6.70911381 16.9172901,5.86905062 C16.9172901,5.02898744 17.5733386,4.34560363 18.3797992,4.34560363 Z M11.9995962,6.06101499 C15.4082665,6.06101499 18.1813022,8.94971071 18.1813022,12.4995911 C18.1813022,16.0502893 15.4082665,18.9388682 11.9995962,18.9388682 C8.59171106,18.9388682 5.81867534,16.0502893 5.81867534,12.4995911 C5.81867534,8.94971071 8.59171106,6.06101499 11.9995962,6.06101499 Z M11.9995962,16.2184188 C13.9677416,16.2184188 15.5688856,14.5497425 15.5688856,12.4995911 C15.5688856,10.4501407 13.9677416,8.78228226 11.9995962,8.78228226 C10.032236,8.78228226 8.43030677,10.4501407 8.43030677,12.4995911 C8.43030677,14.5497425 10.032236,16.2184188 11.9995962,16.2184188 Z" id="path-1"></path>
    </defs>
    <g id="Symbols" stroke="none" stroke-width="1" fill="none" fill-rule="evenodd">
        <g id="Footer-/-Landing" transform="translate(-1292.000000, -35.000000)">
            <g id="Icons/Big/Social/IG" transform="translate(1292.000000, 35.000000)">
                <mask id="mask-2" fill="white">
                    <use xlink:href="#path-1"></use>
                </mask>
                <use id="ig" fill="#FFFFFF" fill-rule="evenodd" xlink:href="#path-1"></use>
                <g id="🎨Colour-/-Icon-/-White" mask="url(#mask-2)"></g>
            </g>
        </g>
    </g>
</svg>