<?xml version="1.0" encoding="UTF-8" standalone="no"?>
<svg width="70px" height="70px" viewBox="0 0 70 70" version="1.1" xmlns="http://www.w3.org/2000/svg" xmlns:xlink="http://www.w3.org/1999/xlink">
    <!-- Generator: Sketch 49.1 (51147) - http://www.bohemiancoding.com/sketch -->
    <title>Page 1</title>
    <desc>Created with Sketch.</desc>
    <defs>
        <polygon id="path-1" points="1.42532579e-05 0.0167078189 69.2533018 0.0167078189 69.2533018 69.4017094 1.42532579e-05 69.4017094"></polygon>
    </defs>
    <g id="Symbols" stroke="none" stroke-width="1" fill="none" fill-rule="evenodd">
        <g id="Footer-/-Landing" transform="translate(-44.000000, -21.000000)">
            <g id="Page-1" transform="translate(44.000000, 21.000000)">
                <path d="M39.344032,6.48454836 L37.9166667,5.83333333 C38.0250633,5.93802524 38.1638796,6.1068364 38.3279741,6.303179 C38.5413398,6.37804518 38.7439944,6.44928881 38.9239414,6.51220055 C39.2409909,6.57173124 39.4586411,6.59600237 39.344032,6.48454836" id="Fill-1" fill="#FFFFFF"></path>
                <path d="M27.7083333,10.2083333 C27.9603722,10.1620853 28.2651722,9.69572242 28.4375,9.47916667 C28.0271777,9.7446711 27.7510357,9.82501447 27.7083333,10.2083333" id="Fill-3" fill="#FFFFFF"></path>
                <path d="M56.1458333,23.3333333 C56.0784109,23.186112 56.0126163,22.9990703 55.9465504,22.7974658 C55.8266279,22.5171309 55.6691279,22.2129037 55.4290116,21.875 L55.4166667,22.2593228 C55.6989729,22.6384121 55.9723256,23.0502679 56.1458333,23.3333333" id="Fill-5" fill="#FFFFFF"></path>
                <path d="M5.83333333,40.1041667 L6.00103771,40.397812 C6.1960997,40.484631 6.3867133,40.5791459 5.83333333,40.1041667" id="Fill-7" fill="#FFFFFF"></path>
                <path d="M38.5329354,6.8931397 C38.468944,6.84680543 38.3885827,6.78807472 38.3034262,6.72649892 C38.1860259,6.6767099 38.0552321,6.62143393 37.9166667,6.5625 C37.9938863,6.75555944 38.0745783,6.95430906 38.1542782,7.15224579 C38.5190458,7.33189268 38.8166803,7.42009036 38.5329354,6.8931397" id="Fill-9" fill="#FFFFFF"></path>
                <polygon id="Fill-11" fill="#FFFFFF" points="51.0434896 51.7825 51.0544271 51.7708333 51.0416667 51.7755729"></polygon>
                <path d="M43.3426104,25.9471331 C43.4225596,25.646184 43.6471207,25.8065701 43.6825858,25.6213409 C43.7001655,25.5304641 43.7269171,25.435082 43.75,25.3413733 C43.6844202,25.3296597 43.837134,25.1757097 43.5492861,25.1862648 C43.498993,25.1881956 43.2336165,25.1937306 43.124164,25.007343 C43.0145586,24.8195394 42.7765452,24.8518484 42.4870158,24.8427092 C42.0210782,24.8279063 41.4028855,24.7098694 41.2940445,24.893039 C41.1974328,25.0549697 40.6460428,25.1597484 40.21129,25.1276969 C39.0984209,25.0459592 39.9323084,25.3126686 38.6794134,25.3124112 L38.6535789,25.312926 C38.6599993,25.440617 38.6659611,25.5657336 38.6691713,25.681711 C38.6723815,25.7861035 38.8125602,25.7028212 38.7677703,25.9128934 C38.7367384,26.0609222 38.6268273,25.9947598 38.6486872,26.2390718 C39.6343713,26.2066341 41.0737636,26.291976 41.709536,26.2206647 C41.9217149,26.1967226 41.8686702,26.1089351 41.9232436,26.0323462 C42.0391165,25.8699007 43.3050052,26.0894983 43.3426104,25.9471331" id="Fill-13" fill="#FFFFFF"></path>
                <path d="M48.5658476,36.0532036 C48.5674591,35.8622479 48.6986597,35.0851777 48.631515,34.7283511 C48.5771279,34.4369146 48.2999548,34.5256984 48.2803486,34.6240653 C48.2405989,34.8220674 47.5941303,34.7945867 47.4016938,34.8091022 C47.0969914,34.8323551 46.5235762,34.8085384 46.1059365,34.7854265 C45.8472954,34.7711929 45.7763906,34.5462737 45.6332382,34.5321811 C45.43167,34.5118876 45.4765227,34.2796403 45.2826089,34.2752716 C44.6928104,34.2624472 44.1103978,34.2786538 43.5232851,34.3079666 C43.5304024,34.7645693 43.5338939,35.1993284 43.4954872,35.4730081 C43.3782526,36.3132135 43.1545267,36.3068718 43.0272204,36.9332913 C42.9854565,37.1362258 43.1605697,37.4798053 43.2030051,37.8480469 C43.2192541,37.9893965 43.4001418,38.2677268 43.4976358,38.6458333 C43.5555145,38.6148294 43.6104388,38.5781885 43.6566343,38.5311189 C43.7709145,38.4145725 43.756277,38.1286321 43.8352391,38.0678927 C43.9132611,38.0079988 44.0099494,37.980659 44.0773626,37.7754696 C44.1435672,37.5738034 44.5935706,37.8128152 44.6233828,37.3363418 C44.6319774,37.1940058 44.5562382,36.4981094 44.6233828,36.3986151 C44.7200711,36.2543061 44.7513605,36.3120861 44.8457659,36.166086 C44.9295624,36.0369971 44.8914243,35.9008618 44.9745493,35.7882613 C45.1050785,35.6113982 45.189815,35.6171762 45.3116154,35.442427 C45.4538278,35.2375195 45.4767912,35.0175328 45.6039632,34.8126253 L45.6564703,34.749772 L45.670705,34.742021 L45.7549043,34.7408936 C46.0715585,34.7976871 46.1130538,34.9147972 46.6108642,35.0158417 C46.899049,35.0744673 46.8046436,35.1671971 46.9843227,35.3962031 C47.1043773,35.5488267 47.1136433,35.511763 47.1464099,35.642543 C47.1930083,35.8294119 47.1830708,36.2831961 47.1563473,36.3752213 C47.0776538,36.6477737 46.7740257,36.656652 46.6750545,36.9052469 C46.590318,37.1176235 46.6590741,37.0787277 46.5838721,37.3260542 C46.5531198,37.4282261 46.4039244,37.4643033 46.3896898,37.5908556 C46.3696807,37.7716646 46.3420171,37.924852 46.3103248,38.0636649 C46.5602372,38.0571822 46.8343216,37.9822092 47.0593904,38.0477401 C47.1507071,38.0740934 47.1411726,38.2980261 47.231415,38.3121188 C47.618571,38.3722945 48.1339732,38.3489006 48.5246208,38.3489006 C48.6394381,38.3489006 48.7483467,38.3407269 48.8541667,38.3319894 C48.8282488,38.2953485 48.8048825,38.2606805 48.7743988,38.2200936 C48.4668764,37.8052052 48.5549701,37.2403707 48.5658476,36.0532036" id="Fill-15" fill="#FFFFFF"></path>
                <path d="M40.5401278,36.3453363 C40.5296126,35.893558 40.300485,35.7721107 40.3023024,35.4586434 C40.3032112,35.3353539 40.3032112,35.2204253 40.3038602,35.0994032 C40.1363959,35.1094647 39.9689315,35.1200932 39.7967938,35.1285959 C39.6655484,35.1352564 39.493151,35.0152262 39.3615163,35.0011967 C39.2224819,34.9858918 39.1984657,35.12066 39.0050379,35.2185831 C39.090198,35.2595379 39.1565347,35.3183484 39.1913257,35.3989826 C39.2670092,35.5728634 39.4568022,35.5688955 39.5631226,35.986096 C39.6070008,36.1579928 39.4443397,36.853516 39.3812485,36.9972121 C39.3539869,37.0584317 39.2361127,37.2385479 39.1850945,37.2806364 C39.1140844,37.3395886 39.0190582,37.3821022 38.9899791,37.5043998 C38.9458412,37.6874919 38.8869041,37.7515458 38.7666933,37.9217421 C38.6895818,38.0314273 38.6350585,38.1622276 38.6476508,38.2843834 C38.6619307,38.4217025 38.6542715,38.4710183 38.6458333,38.5797115 C38.7975898,38.6164149 38.8045999,38.7397045 39.1600398,38.744381 C39.306993,38.746365 39.3896866,38.9172698 39.5314471,38.9298822 C39.8853292,38.9606337 39.8444367,39.141175 40.0093047,39.2536944 C40.2612802,39.4261581 40.1992275,39.3239836 40.8332553,39.375 C40.838448,38.2852337 40.5827079,38.5387567 40.581929,38.2190541 C40.580501,37.5759644 40.5568742,37.0641002 40.5401278,36.3453363" id="Fill-17" fill="#FFFFFF"></path>
                <path d="M36.2587869,35.8305791 C35.8837587,36.34463 35.6946741,36.2727641 35.4779493,37.0132577 C35.4281968,37.1837404 35.2093361,37.1746307 35.1183745,37.4150995 C34.9904754,37.7543297 34.9933651,38.3565863 35.0054263,38.6333496 C35.0196233,38.9586983 35.0223873,39.1594023 35.026659,39.375 C35.0891009,39.2831794 35.1770472,39.2088553 35.2431326,39.1222402 C35.3126102,39.0314318 35.3956566,38.9572523 35.4779493,38.8832174 C35.6262016,38.7506197 35.7723181,38.5105847 35.9201936,38.377987 C36.0013555,38.3058319 36.1345313,38.1149607 36.2028782,38.0264658 C36.2668277,37.9425982 36.2824068,37.9913282 36.3203493,37.8883734 C36.3979934,37.679138 36.5534071,37.5899202 36.6125824,37.4814706 C36.6968852,37.3276168 36.7241486,36.9218709 36.8185024,36.744592 C36.9265507,36.540273 36.8097078,35.2572424 37.0303274,35.1239217 C37.0984229,35.0827109 37.1464165,35.0413554 37.1875,35 L37.1117405,35.0266063 C36.7010312,35.1091726 36.5120723,35.4842635 36.2587869,35.8305791" id="Fill-19" fill="#FFFFFF"></path>
                <path d="M51.0416667,51.975516 L51.0437736,52.1354167 C51.2200542,51.9519461 51.7639959,51.5137594 51.0416667,51.975516" id="Fill-21" fill="#FFFFFF"></path>
                <path d="M51.1215574,51.8258854 C50.9833803,51.9214063 51.038797,51.909375 51.1784324,51.8426563 L51.1638491,51.7708333 L51.1215574,51.8258854 Z" id="Fill-23" fill="#FFFFFF"></path>
                <path d="M51.7708333,19.1223282 C51.8390104,19.1070157 51.9203125,19.1132137 52.0074479,19.1299845 C51.6683854,18.8029532 51.821875,19.0264428 51.7708333,19.1223282" id="Fill-25" fill="#FFFFFF"></path>
                <path d="M60.5208333,41.9270833 C60.8970151,41.5457864 61.0997611,41.363014 60.5353874,41.8868284 L60.5208333,41.9270833 Z" id="Fill-27" fill="#FFFFFF"></path>
                <path d="M38.6458333,7.29166667 C38.8844056,7.64022653 39.129372,7.91796663 39.375,8.02083333 C39.1395147,7.71915695 38.8885949,7.48137661 38.6458333,7.29166667" id="Fill-29" fill="#FFFFFF"></path>
                <g id="Group-33">
                    <mask id="mask-2" fill="white">
                        <use xlink:href="#path-1"></use>
                    </mask>
                    <g id="Clip-32"></g>
                    <path d="M63.1626139,38.4004228 C63.355318,38.1713686 63.5373321,38.0442749 63.5246467,38.1475207 L62.9965635,38.7525722 C62.8660036,38.7956984 63.0587077,38.5676438 63.1626139,38.4004228 Z M62.3255201,30.2157335 L62.7196227,30.0679336 L62.471901,30.3578214 L62.3255201,30.2157335 Z M62.5193644,38.1882192 C63.226326,37.4592156 62.5461605,38.310886 62.5354706,38.4128465 C61.9780257,38.8968021 62.5069641,38.2908937 62.5193644,38.1882192 Z M60.922857,40.1050487 L61.1263935,39.7741768 L61.2732021,39.9553924 C61.1433549,39.9985185 61.1034458,39.9789547 60.922857,40.1050487 Z M56.8963116,45.0392818 C56.917549,45.0712694 56.8994473,45.1218213 56.8666648,45.1805128 C56.8940311,45.1319602 56.9062889,45.0842644 56.8963116,45.0392818 Z M56.8411515,44.7953762 L57.3964584,44.312563 C57.4476276,44.3394098 57.070914,44.6638557 56.7469375,44.9797334 C56.6294906,45.129961 56.4403499,45.3284556 56.351267,45.4198488 C56.4225333,45.3054645 56.578464,45.1443839 56.7469375,44.9797334 C56.8182038,44.8890542 56.8712259,44.8100848 56.8411515,44.7953762 Z M55.4057059,46.0328972 L55.9621531,45.5495129 L55.5870074,45.9069459 L55.4057059,46.0328972 Z M67.9204939,35.0511477 L67.5661579,35.2005184 C67.3304091,35.4208617 67.124592,35.6182139 66.9401549,35.8018571 C66.7621317,35.9782174 66.5748439,36.1705716 66.4535486,36.3012353 C66.2674011,36.5045851 66.1174568,36.6880855 65.9685103,36.8675875 C66.0296567,36.8256037 66.0851019,36.7819064 66.1469611,36.7427787 C65.9451349,37.1034962 65.623724,37.3661088 65.3195594,37.5721719 C65.1135999,37.7670965 64.8673036,37.9768724 64.5359153,38.2192072 C64.5316393,38.0324224 64.9089231,37.8523492 65.3195594,37.5721719 C65.5826746,37.3232683 65.7785143,37.0967845 65.9685103,36.8675875 C64.6413894,37.7692385 63.8204018,39.0140424 62.8315107,39.9752418 L62.793312,39.9542499 L61.8789655,41.0171243 C62.045016,40.6652605 61.7484057,41.2761669 61.4261395,41.5479188 C61.1614565,41.9130632 60.6251064,42.3971615 60.1878165,42.7021863 L59.5529764,43.3276585 C60.1829704,42.5573852 59.3557113,43.2291253 59.1977852,43.150727 L58.8901999,43.6483915 C58.6711273,43.7536365 59.0563929,43.2956709 58.7345543,43.5678513 C58.5280246,43.9007225 57.7287019,44.6942724 57.6025605,45.0658429 C57.6719739,45.0565608 57.7968325,44.9878731 57.9392225,44.8917674 C57.965306,44.8503549 57.965306,44.8536393 57.9514803,44.8836277 L57.9854031,44.8620646 C58.1456097,44.7299729 58.2401088,44.657858 58.2929884,44.6224431 C58.4110053,44.520911 58.5304476,44.4116675 58.6510302,44.2877155 C58.5072148,44.4373719 58.4206976,44.5280511 58.3589809,44.5921691 C58.3665352,44.5767465 58.3430173,44.5878851 58.2929884,44.6224431 C58.1838084,44.7151215 58.0796171,44.796233 57.9854031,44.8620646 L57.9474894,44.8923386 C57.9253968,44.9380352 57.8919017,45.0108642 57.8849176,45.0494207 C57.9432134,44.9970124 58.0043599,44.9426049 58.0824677,44.8730604 C57.9127114,45.0834075 57.8772208,45.0954029 57.8849176,45.0494207 C57.3582597,45.5243797 57.5905878,45.3892892 57.6611414,45.4249896 C56.9409243,45.792276 56.7321141,46.2135416 56.1451649,46.4404537 C56.7390982,46.2475284 54.786972,47.7717956 55.3635163,47.6422743 C54.7533343,47.8790398 55.0651956,47.923594 54.6341771,48.035265 C55.2808474,47.4891907 55.7023162,46.722773 56.1002672,46.1609905 L55.5174515,46.5211368 C55.6128057,46.001338 56.6542913,45.5398023 56.862959,45.1870817 C56.7231345,45.4262748 56.2490712,45.803129 56.1870695,45.7697133 L56.475698,45.805271 C57.2124489,45.1963638 57.621945,44.5329063 58.0190407,43.9736942 C57.5150455,44.3721114 58.4691586,43.3285154 58.0274502,43.5418613 L57.6907882,43.9188583 C57.4702903,44.0252457 57.7666155,43.6299701 57.9191254,43.3823517 C59.1624371,42.3720284 61.1215474,40.2030108 61.6516261,39.9271176 C61.3805291,40.1164729 60.9936957,40.5752953 60.839903,40.8244845 L61.4345489,40.3626633 C61.0117973,40.7976378 60.529182,40.9932764 59.9497871,41.6808674 C60.1591674,41.6768689 59.840322,42.2769224 60.4626193,41.9376251 C61.8346379,40.8846041 61.1913884,40.6731146 62.6894058,39.2499511 C62.7924568,39.0831585 62.5515768,39.7234821 63.2730767,38.8900904 C64.1473715,37.8075094 64.6304144,36.8565917 64.4062107,36.6356773 C64.0598565,37.1129211 63.3675758,38.06798 63.0798025,38.0328508 C63.4253015,37.5558925 64.0952046,36.8053259 64.027074,36.6640948 C64.6395365,36.4250445 63.3069994,37.4972009 64.0208026,37.0936429 C64.3042999,36.7998994 64.3674418,36.6153994 64.4702078,36.4487496 C64.3550415,36.7189307 64.8588941,36.3196567 64.9885988,36.2766733 C65.3265435,35.9395181 65.6493798,35.6389202 65.914633,35.4032971 C66.2009809,35.1481102 66.4770665,34.9022053 66.7866473,34.6270261 C66.601925,34.4208202 66.3885538,34.1891956 66.1332779,33.9242981 C66.1433977,33.9701375 66.148814,33.9839893 66.1156039,33.9058767 L66.1332779,33.9242981 C66.1185971,33.8553248 66.0727016,33.6902459 66.1553705,33.6813921 C65.9985846,33.5500144 65.8366676,33.4417706 65.6716149,33.3469502 C65.5045667,33.2505589 65.3335276,33.166163 65.1820155,33.1047582 C64.877851,32.9822342 64.6505115,32.9519602 64.6838641,33.1019021 C64.101191,32.5341219 64.1589166,32.415168 63.618148,31.976195 C64.2318933,32.9259702 63.4932895,31.795265 63.2303169,31.8916563 C62.7082201,31.4124132 63.1420892,31.6296149 62.9535186,31.3577201 C62.8508952,31.2934593 62.5917709,31.153799 62.5301969,31.1889283 C62.561554,31.2687545 62.6215602,31.3752847 62.7519776,31.5426485 C62.5326199,31.3063114 62.4912855,31.2120622 62.5301969,31.1889283 C62.3587302,30.7445289 63.4811742,31.429121 63.2793481,30.908751 C63.1289762,30.5580296 62.2347268,29.3018016 62.1712998,29.2112652 C61.7814732,29.1247272 61.2248835,29.821886 61.3805291,30.3826689 C61.2372838,30.4499286 61.0196366,29.7961816 60.8121092,29.5655566 C60.345315,28.7597257 59.7099047,28.7274524 59.2482417,28.1312546 L59.7458229,28.4397067 C59.7019229,28.3089001 58.8689625,27.5854659 58.6846679,27.5232042 C58.7238643,27.444092 59.3909168,27.6214519 59.2201628,27.3087158 C58.3018254,26.3265246 57.0757601,25.7513186 56.9577432,25.9879413 L58.5964402,27.2614484 C58.4999457,27.460657 57.4158429,26.3750772 57.2975408,26.6124139 L56.0101866,25.2178108 C56.1845039,25.3826042 56.7435167,25.8582772 56.6217939,25.5729591 C56.0386931,25.0044648 56.3489865,25.2483704 56.0339895,24.7948317 C56.8807756,25.2682199 58.5696441,25.996795 59.2289998,26.1992881 L58.4382291,25.6053751 L58.3524244,25.3454757 C57.3344568,24.559637 55.9421985,24.3242995 55.5529421,24.2387612 C55.0723222,23.6824051 55.5691908,23.5476002 55.7537705,23.609719 C54.7510538,22.5736914 54.3016486,23.0492216 53.319314,21.9754944 L53.6360214,22.4304611 C53.3644968,22.2172579 52.5475001,21.2714811 52.5839884,21.4241363 C52.4729556,21.1566684 52.474951,20.8053758 52.7007226,20.8964834 L51.5496295,20.3108529 C51.7149673,20.4130991 51.8803051,20.0718026 51.9829286,20.0836552 C51.6271672,19.7080862 51.0681545,19.7533544 51.2577228,20.0263916 C50.7276441,19.1288819 50.8046117,19.4059175 50.4410111,18.6116535 C50.2125314,18.4180141 50.1915791,18.9002561 50.3182906,19.0821856 C49.7736736,18.6729155 49.525952,18.360465 49.3276892,18.1065633 L49.2974722,18.0877134 L49.2998953,18.07072 C49.0821055,17.7923991 48.9132044,17.5884781 48.4439872,17.4038353 L49.3757226,17.4856607 L49.2998953,18.07072 L49.3276892,18.1065633 C50.2237915,18.7863002 50.1094803,17.7527002 50.4517011,17.7090028 L48.0024212,16.7679385 C48.1051872,16.7802195 48.4804755,16.6724041 48.5002875,16.6337048 C48.1339788,16.7166726 46.1634659,14.8014139 45.2458412,13.8189371 L45.3900841,13.9600253 C45.6596132,14.0751236 44.9053308,13.1943217 44.4924139,12.9385635 C44.5940397,12.9501305 44.6574667,13.0408097 44.8025648,13.1820407 C44.3370534,12.3772094 43.639499,12.6980852 43.1919467,11.8514129 C43.7562332,12.4597489 43.9623353,12.4843108 44.0209162,12.3657852 C43.460193,11.9657972 42.4356688,10.7626914 42.4040266,11.2606416 C42.1513163,10.8964968 41.8403102,10.6524484 42.0008019,10.5452042 L40.6632762,9.52060075 C40.7785851,9.58143435 40.9325203,9.57943512 40.6051229,9.21543315 C41.2316961,9.9134487 42.1185338,10.3080103 42.294134,10.8303795 C42.4745802,10.683722 42.3136609,10.347138 42.7677697,10.5262115 C41.4137102,9.32539059 40.4356517,8.90355387 39.4419145,8.28736379 L38.4360621,7.04313109 L38.3137692,7.07069185 L38.3065,6.68655482 C38.1227755,6.58873554 37.9959215,6.53661285 37.9843764,6.48948823 C37.9753968,6.44679048 38.0358307,6.45750062 38.1193547,6.48520418 C37.991218,6.37596075 37.8672146,6.28513876 37.7916723,6.24872428 C37.7784168,6.28313953 37.7670142,6.3189828 37.7895344,6.38481446 C37.68292,6.23187366 37.7090035,6.20845415 37.7916723,6.24872428 C37.8462623,6.1053512 38.1582661,6.19060392 38.4736907,6.30041856 C38.4521683,6.25600718 38.4313586,6.21116739 38.4105488,6.16832683 C37.7491976,5.75234498 36.9847954,5.28652527 37.3394165,5.89557525 L37.702732,6.40809117 C37.527702,6.18560585 37.411538,6.02009848 37.3394165,5.89557525 L36.7950846,5.1287292 C35.8404013,4.54552636 36.011868,4.64134642 34.9373149,3.84208434 C34.950998,3.72541522 35.2557327,3.91948296 35.1355777,3.70299532 C35.0731485,3.66986529 35.012002,3.63202279 34.952851,3.59018184 L34.8221486,3.494933 C34.7614297,3.44809398 34.7095479,3.39097323 34.6586637,3.32242834 C34.5580357,3.18733777 34.4525616,3.00041012 34.3363976,2.81291126 C34.1585169,2.88045654 33.9609668,2.99384123 33.9680934,3.14978087 C33.8064614,3.3575576 33.8135881,3.43181457 33.8342553,3.49393338 C33.8497913,3.56105026 33.9233382,3.57204601 33.7625614,3.7855348 C33.7585705,3.74783511 33.7500185,3.67329253 33.6448295,3.77225423 L33.3634702,4.32404066 C33.1466781,4.44427984 33.6529539,3.8465112 33.1254408,4.2586374 C32.4241805,5.16371566 32.0222386,5.70450635 31.286913,6.31184271 C30.3642997,7.30017446 31.9639428,6.17118286 31.1306973,6.9521663 C30.9019325,6.96073441 30.6667538,6.93403046 30.1466524,7.42212726 C29.956799,7.76470894 30.0785218,7.8148324 29.6752972,8.31635257 L29.5349026,8.11871478 C29.1244088,8.54469276 28.8216696,8.91055116 28.6912523,8.78617073 C28.421153,9.20115297 28.1728613,9.42420949 27.9670442,9.57600788 C27.4224272,10.3007274 28.7760591,9.45162745 28.9901431,9.36965917 C28.2395665,9.8677521 27.88295,10.3726995 27.3240798,10.5254975 L27.8302129,9.92715768 C26.4437985,10.8976392 26.9524973,11.2852035 26.0492684,11.4735591 C26.4661762,11.0827104 26.8602787,10.5072189 26.5293181,10.6525912 L26.0320219,11.3250452 C25.9188511,11.3490359 26.3346186,10.9591868 26.0152031,11.1761028 C25.885641,11.3801667 25.6312203,11.8087151 25.5370063,12.0159206 L25.5478388,12.1080279 C25.4784254,12.1734311 25.4891153,12.12088 25.5370063,12.0159206 L25.5341556,11.9974992 L24.5911601,12.9952559 C24.5686399,13.0219598 24.5424139,13.0509486 24.5077785,13.0833646 L24.5911601,12.9952559 C24.7027631,12.8618789 24.6669874,12.8103275 24.4938103,12.9725504 L23.8906125,13.754105 C23.8504183,13.8156526 23.7909822,13.8950505 23.6922071,14.0122908 L23.8906125,13.754105 C24.0596561,13.4997749 23.7911247,13.6647111 23.45318,13.9481728 C22.5113247,14.7895614 23.1196537,15.0427491 22.2567615,15.5635475 C22.3609528,15.4661567 22.3562492,15.4287426 22.4614383,15.3302093 L22.0307048,15.6109578 C22.3134895,16.044647 19.9721068,17.7461313 20.2541788,18.1815342 C19.603375,18.5439654 20.1325985,18.1304112 20.6143586,17.308872 L19.9721068,17.7461313 C20.1772112,17.5132215 20.3883019,17.3567106 20.5875625,17.0868151 C19.7290888,17.644742 19.2531725,18.5026956 18.9635463,18.9800823 C18.6417077,19.1991404 18.9072459,18.4978404 18.1960083,19.3288045 C17.1778981,20.4889269 18.6638003,19.383926 18.052193,20.0810847 L17.3934074,20.3694017 C16.7008416,21.3474517 15.950265,21.845259 15.2230638,22.527138 C15.0785358,22.7014991 15.0195273,22.7988899 15.000713,22.8580099 L15.0266539,22.834876 L14.9990026,22.9057057 C15.0232331,22.9962421 15.2652535,22.8714333 14.8496285,23.2891288 L14.9990026,22.9057057 L15.000713,22.8580099 C14.171601,23.5281791 13.6118755,24.6124737 12.9861575,25.1177067 C13.0803715,24.9470585 12.5468721,25.3240554 12.4339863,25.3471893 L11.5296171,26.4831782 C11.9317015,25.9826577 11.8052751,25.8955485 11.7843228,25.7094777 C11.476595,26.0392072 11.3852316,26.2479835 11.1824077,26.479037 C11.2770494,26.3088171 11.3722611,26.1364553 11.1560392,26.2572657 L10.2627875,27.5057824 C10.3441736,27.460657 10.4735932,27.3444163 10.5813478,27.2460258 C10.3153821,27.5147789 9.80411769,28.1615286 9.33475791,28.4576997 C9.32763128,28.3827287 9.42070505,28.2125089 9.4121531,28.1379663 C9.85044078,27.9337596 9.93296714,27.6507263 10.0197695,27.4041075 C9.30026502,28.1615286 9.80867873,27.5611895 9.37808781,27.8413668 C8.86169228,28.3667349 8.78942826,28.7224544 9.01577,28.6750441 C8.38720132,29.2235461 8.17254726,29.3830558 7.67981214,30.0916387 L7.64888257,29.8324533 L7.14289191,30.430936 L7.41356128,29.8063206 C6.2569094,30.7672344 7.46729606,30.2495776 6.21044378,31.3452963 L6.080169,31.2210587 C5.6768018,31.7228645 5.73609536,32.0932925 5.23238522,32.2922155 C4.87020994,32.8091583 6.16269537,31.720294 5.15755562,32.7794555 C4.90997653,32.8959819 4.47069112,33.2398488 4.14856749,33.5108867 C3.90155853,33.8640357 4.43520051,33.4924653 4.67921629,33.2499877 C4.70045364,33.2272822 4.72112086,33.2057191 4.74321341,33.1818712 C4.72568191,33.2025775 4.70344682,33.2258542 4.67921629,33.2499877 C4.35367188,33.595711 4.10523759,33.811199 3.90284133,33.9527157 C3.7950867,34.0284007 3.69987494,34.0835222 3.61278753,34.1270768 C3.5684599,34.1479259 3.52712545,34.1670613 3.48721633,34.1856255 L3.42763771,34.2109015 L3.39200457,34.2117583 C3.29893079,34.2130435 3.1974476,34.2260385 3.083279,34.2875861 C2.97139093,34.3472773 2.83883563,34.4639464 2.7297982,34.6270261 C2.76628654,34.6525877 2.80847619,34.6824333 2.85351648,34.7145637 C2.82543756,34.6240273 2.906111,34.6274545 2.98649938,34.6331666 C3.06859814,34.6410207 3.14998425,34.6513025 3.17649531,34.6270261 C3.2412051,34.6091759 3.31375418,34.5659069 3.41381205,34.4633752 C3.39841853,34.5317773 3.33157075,34.5689058 3.22452879,34.6270261 C3.23521873,34.7278443 3.26272752,34.9109163 3.53824299,35.0067363 L3.4674043,34.9866012 C3.43961045,34.9893145 3.40084159,34.9910281 3.35850941,34.9894573 C3.27512785,34.9873153 3.17578264,34.968751 3.17578264,34.968751 C3.22367359,35.0204453 3.29436975,35.0630002 3.35565876,35.090561 C3.46498125,35.1623903 3.56218846,35.22608 3.62476027,35.2673497 L3.4538637,35.3467476 C4.3669274,35.8212782 4.6394497,36.7439211 5.33928466,36.8684443 C4.82645244,36.8081819 5.86964838,37.3732489 6.05679366,37.7373937 C5.32702686,37.3252675 4.4250807,36.0941726 4.1403006,36.2275495 C4.34298193,36.557279 4.68263707,36.6925124 4.87762163,37.0112462 C5.07360393,37.1489072 5.17565726,37.2361591 4.91254212,37.0677957 L4.87762163,37.0112462 C4.66738608,36.8624466 4.35096376,36.6565263 4.24050101,36.6302508 C4.99920192,37.6277219 5.74250932,37.8831944 6.32945848,38.3617235 L5.34227784,37.4692118 C5.6269154,37.3361204 5.80066262,37.8569189 6.22769022,37.957023 C6.585447,38.540083 7.11552566,38.7454321 7.42966746,39.1983996 C7.32918199,39.0954395 7.30181574,39.1092913 7.20118774,39.0057599 C8.23027296,40.0265077 8.17482778,40.6526939 8.57577193,41.0666765 C8.94849462,41.4942253 9.81965374,42.1392614 9.63350619,41.775545 C10.0191994,42.0458689 8.21131612,40.4754768 9.06722426,40.7904977 C9.33874882,41.6897211 10.3865058,41.8780767 11.4465206,43.3684999 C10.7777577,42.920816 11.5981753,43.8730189 11.0162147,43.4581795 C11.6486318,44.0413823 11.7176176,44.017106 12.0766571,44.1991784 L12.1617491,44.4803552 C13.1737304,45.0554184 12.542026,44.4727867 13.8595972,45.5582238 C13.3805452,45.2314931 14.1998224,46.1828392 13.823964,45.9446456 C14.1497935,46.2846569 14.5045571,46.5803996 14.8064411,46.7650424 L14.7481453,46.7351968 C16.0142622,47.9026021 15.6201596,47.8557631 16.8362475,48.8560902 L16.7853634,48.6864416 C18.3941286,49.9799409 20.1237615,51.9183335 21.6977487,53.3490655 L21.2574656,52.8192705 C21.2406468,52.8011347 21.2266786,52.7847125 21.2175565,52.7714319 L21.2574656,52.8192705 C21.4815268,53.0631761 22.34841,53.729918 22.6977573,54.2514305 C22.7486414,54.2971271 22.7807113,54.3309711 22.7580486,54.3392536 L22.6977573,54.2514305 C22.5984121,54.1631789 22.4106967,54.028374 22.3311635,53.9325539 C22.2784265,54.0123801 22.3626632,54.2922718 22.7064518,54.6704112 L22.9460491,54.7088249 L23.013752,54.9331666 C23.5617898,55.4856671 22.9967907,54.626571 23.5451135,55.1789286 C23.5768983,55.7896922 25.8736682,57.5894242 26.093596,58.3192846 C26.6764117,58.4845063 25.0834676,57.2462713 25.6829596,57.4674714 C25.8190783,57.6665372 25.855139,57.7813499 26.1957919,58.1562048 L26.1977873,57.9077296 C27.7900188,59.6454856 28.318102,60.3883409 29.8252414,61.8454912 L29.7390092,61.8126468 C30.2173486,62.3891379 30.5243637,62.651465 30.8680098,62.7792726 C30.9193215,62.9477788 30.5093978,62.5970574 30.6630479,62.8541008 C31.912346,63.4642932 32.284071,64.9492899 33.0739865,65.2921572 C32.7474444,65.4710879 33.7203718,66.9279526 33.0175436,66.6185009 L33.4278949,66.9696507 C33.1357031,67.0112061 32.2297661,65.7772551 31.8363761,65.7325581 L30.809999,64.3546629 C30.7850558,64.4556238 30.4948595,64.3515212 30.6658986,64.5660096 C30.811852,64.7089543 30.9650745,64.8621807 31.065845,64.9492899 C30.8470575,64.761791 30.7284704,64.6442651 30.6658986,64.5660096 C30.3660101,64.272409 30.0981913,64.0217917 30.3969396,64.5013204 C27.953076,61.2015976 24.5947234,58.6611523 21.9963545,55.6044782 C21.7905374,55.4278323 21.8414216,55.5970525 21.8756294,55.7094376 C21.5164473,55.0268446 21.2940965,55.2950266 20.9866537,55.0325567 L20.4572877,54.0377989 C20.0788637,53.7968921 20.2494752,54.1099138 20.1804894,54.1339045 C18.6925918,52.7354458 17.514275,51.102792 16.2109571,50.0709057 C15.9223286,49.6147965 16.4861875,49.9725152 16.0249521,49.4528592 C16.4354459,50.3265211 14.624712,48.2931652 14.7212066,48.6754458 C14.7279056,48.6932961 14.7343196,48.7110035 14.7397358,48.7282825 C14.7303287,48.7067194 14.7247699,48.6898688 14.7212066,48.6754458 C14.4488268,47.9468707 13.0426004,46.9025606 13.5971947,46.7666132 C13.0306277,46.1574204 12.9607867,46.4304576 13.0983307,46.631951 C12.4308506,45.9362203 11.8829554,45.3832915 11.2151902,44.9366072 C10.9244238,44.4803552 8.01533383,41.9073511 7.6739683,41.0319757 C7.91527596,41.6193198 7.55238801,41.089382 7.07960745,40.7663642 L7.28599462,41.2783089 L6.40542835,40.3629489 C6.20802073,40.1944427 6.16312296,40.1363223 6.17766129,40.123613 C6.03299072,39.9639605 6.3015221,40.0719187 5.95374261,39.6462263 C5.35282525,39.0247526 5.23951185,39.0787317 4.82488458,38.8212599 L4.89586581,38.9376434 L4.46712781,38.5370842 C4.16681166,38.2267757 5.6964713,39.4654391 4.78027188,38.3904266 C4.72368645,38.4181302 3.93818941,38.033422 3.78026331,37.6562822 C4.2802676,38.1730822 4.32231471,38.003148 4.18020973,37.7705237 L3.47937704,37.0462326 L3.52156668,37.4752095 C3.15311996,37.0946425 2.78196513,36.7116478 2.40767458,36.325226 C1.86847383,35.763729 1.32528217,35.1978052 0.777244406,34.6270261 C1.28665584,34.1377869 1.79948806,33.6456917 2.31517093,33.1505976 C2.66309296,32.8220105 3.01301044,32.4912813 3.36449578,32.1586958 C4.0597697,31.4969519 4.75575628,30.8223559 5.44219318,30.126768 C5.58116244,30.3259766 6.99380283,28.5896486 7.04525709,29.0354761 L6.93778753,29.09531 C6.4270933,29.656093 7.28913034,29.1361514 7.69677351,28.6717597 C7.16199128,29.0490422 8.2650509,27.6041729 7.1205143,28.6767578 L7.85911812,27.7017066 C7.85826292,26.7482185 10.1826842,25.4535767 11.3265082,24.0002821 C11.253389,24.1106679 11.2548143,24.1597918 11.2582351,24.1860673 C12.2586712,22.8780022 13.9721979,21.7243059 14.1634766,21.3807246 L14.3966599,21.4088565 C15.1813018,20.2203166 15.2810746,20.0860828 16.5380694,18.98965 C16.5437707,19.0262073 16.4454232,19.1998544 16.658937,19.0410587 C16.844942,18.6610629 17.0329425,18.2790679 17.86405,17.4997981 L17.8721743,17.5739123 L19.1094996,16.2912659 C19.5034597,16.7041061 21.0197213,13.8836263 21.83458,13.9426035 C21.963572,13.5777447 22.8469889,12.6181161 23.2000421,12.1520108 C23.1705379,12.1307334 23.2068837,12.0474799 23.3257559,11.8869706 C23.3836241,11.8852569 23.324188,11.9886455 23.2000421,12.1520108 C23.2204243,12.1664338 23.2638967,12.1585797 23.3508416,12.1094559 C23.6170924,11.4074419 24.813796,10.7793992 25.3247753,10.2183307 C25.6220982,9.81677183 25.4024555,9.89916851 25.1811024,9.98256481 C26.0429969,9.46248039 26.896197,7.88137807 27.2207436,7.70116211 C27.7432681,7.21092329 27.5639621,7.66703246 27.7921567,7.61762302 C28.5053898,6.82578664 27.3009895,7.37871549 28.4706118,6.52875875 C28.3706965,6.66370652 28.1684428,6.89518835 28.2759123,6.83464036 C28.6953857,6.48249094 29.8474765,6.25629278 30.1381005,5.77862052 L29.812271,5.9604073 C30.4109078,5.15214871 31.803166,4.62378179 31.6440997,4.23807393 L31.4515382,4.17752594 C32.1408257,3.65501389 32.2565622,3.51378284 32.3720136,3.36826774 C32.4298818,3.29529598 32.4873224,3.22118181 32.6164569,3.09794379 C32.6805966,3.03611058 32.7629804,2.96213921 32.8721604,2.8696036 C33.0010098,2.76178819 33.1590785,2.62926805 33.3556309,2.46447469 L33.3524952,2.50945728 C33.7809481,2.04835004 34.1017889,1.84742781 34.3363976,1.59266927 C34.4709483,1.7167641 34.5882526,1.78102494 34.732068,1.78031093 L34.4927558,1.48471105 C34.9407357,1.91797193 35.1884573,2.16616158 35.431903,2.41620766 C35.6291681,2.62112835 35.8285711,2.82819106 36.1945948,3.20861524 C36.2930848,3.26859203 36.6499864,3.56576272 36.7017257,3.70299532 C36.9007012,3.56504871 38.3496874,5.19798811 38.6405964,5.5100102 C38.0804434,4.99806549 38.2623149,5.32451057 38.3456965,5.54571067 C38.798665,5.7236418 39.0308506,5.92784848 39.3686528,6.46535472 C39.6414602,6.31741198 39.9523237,6.18032218 40.8267611,7.03142134 C40.6611382,6.929318 40.4342264,6.73724948 40.4767011,6.86677078 C40.5211712,6.9982913 40.7690354,7.15137491 40.8525595,7.20335479 C40.8950342,7.33273328 40.5844557,7.08868489 40.6079736,7.25876191 C41.3916177,7.64104252 41.6289344,8.25309134 42.5441361,9.02679188 C42.2131755,8.82158559 42.4023162,9.09376596 42.4258341,9.26298618 C42.7299986,9.08991031 43.3736757,10.6274581 43.3601351,9.99798741 C44.8295035,11.8392747 47.5433238,14.2157835 47.9888806,15.0600281 C48.0763956,15.3204988 48.6766003,15.6413746 48.9686496,15.9256931 L48.8246917,15.9912391 C49.8199967,16.6084288 49.5222461,16.5487376 50.6600837,17.3063016 C50.1435456,17.0378341 50.2504451,17.259177 50.5470554,17.7536998 L51.4147937,18.1875319 L51.3791606,18.4761345 C51.7072706,18.6786276 51.9775123,18.9987893 52.2476116,19.3202364 C52.6846164,19.4072027 53.6774984,20.4313777 53.9427515,20.499637 C54.0144454,21.0098681 54.775997,21.2242137 54.7846915,21.642766 C54.9105477,21.7077408 55.0590667,21.8062741 55.2138571,21.9200872 C55.1700996,21.6840357 55.2256873,21.5255257 55.441054,21.8351201 L55.5061914,21.8932405 L55.5188768,21.67661 C55.5961294,21.518814 55.8160572,22.04204 56.0500957,22.4721593 C56.1464477,22.6062502 56.228404,22.7360571 56.3112154,22.8595807 C56.346706,22.8965664 56.3820541,22.9325525 56.4052869,22.9568288 L56.3412898,22.9051345 C56.4747003,23.0986311 56.6286354,23.2825599 56.9050061,23.4729148 C57.6454629,24.6046196 59.25152,25.2886406 60.0152095,26.5889944 C59.8873578,26.4066364 59.6801154,26.1754402 59.5764942,26.161874 C60.4515017,27.014544 61.1271062,28.0547128 61.7702132,28.5039675 L61.8491762,28.346457 C62.5357556,28.9265182 63.0629836,29.3782006 63.5648409,29.8967142 L63.7264728,29.7906124 C64.418611,30.5817347 66.2235011,31.9580592 66.4018093,32.6894903 C66.4635259,32.7071978 66.5343646,32.754608 66.6348501,32.84543 C66.7890703,32.9908023 66.971512,33.1770159 67.1632183,33.3797946 C67.5489115,33.7864943 67.9652492,34.2493152 68.3336959,34.6270261 C68.1720639,34.7853934 68.0320969,34.9273385 67.9204939,35.0511477 Z M58.8836434,44.077654 C59.0143457,44.0340994 58.7925651,43.9265696 58.973724,43.8000471 C59.7452528,42.8842587 58.8480102,44.3862488 58.8836434,44.077654 Z M56.2034608,46.8670029 L56.2476459,46.8158798 C56.3096475,46.7320552 56.2091621,46.7623291 56.1750968,46.7454785 C56.3085073,46.6526573 56.4158343,46.6005346 56.6337666,46.369624 L56.2476459,46.8158798 C56.2373835,46.8298744 56.2237004,46.8461538 56.2034608,46.8670029 Z M54.7365155,46.7831782 L55.0599219,46.5102838 L54.9850923,46.7990292 L54.7365155,46.7831782 Z M55.3516861,46.8730006 C55.0569287,47.267705 54.7608885,47.6638374 54.7065836,47.4177897 L54.6488579,47.4754817 C54.953165,47.1301868 55.2081558,46.8028849 55.3516861,46.8730006 Z M54.1659575,23.3285421 C54.1566929,22.9649685 54.3312953,23.2160142 54.8036483,23.5544546 C54.8489737,23.5774457 54.9169617,23.6200007 55.0507998,23.7205332 C54.9604341,23.6649833 54.8791906,23.609005 54.8036483,23.5544546 C54.5871413,23.4477816 55.2379451,24.1036706 55.0173046,24.009707 C54.4912169,23.322116 54.7722911,24.0649713 54.1659575,23.3285421 Z M54.2805537,47.8577623 C54.3828921,47.7645127 54.4823799,47.6595533 54.5774491,47.5543083 C54.4145344,47.7480905 54.3019336,47.9558672 54.2805537,47.8577623 Z M54.3200353,48.748132 L54.2529024,48.6060441 L54.5234292,48.4181168 L54.3200353,48.748132 Z M29.0591288,8.97595442 C29.2683667,8.78017305 29.372843,8.68249657 29.4840185,8.66007668 L29.4924279,8.73433365 L29.0591288,8.97595442 Z M18.0539034,46.143997 C18.5667356,45.9455024 19.021272,44.7426823 20.2671492,43.7366431 C20.6546953,43.4237642 21.1140778,42.7100404 21.5275648,42.2082347 C22.6185092,40.8846041 22.8563961,39.6857824 24.2784436,38.4948148 C25.345585,37.6005895 25.2770269,37.0448046 25.7356967,36.6378193 C26.5558292,35.9096725 26.9914087,35.0909894 27.2392729,34.722275 C27.6702914,34.080095 28.1864019,33.5338778 28.8637167,33.0102233 C29.8443408,32.251517 29.326805,33.2475601 29.5698231,33.4657613 C29.838497,33.7065253 29.2673689,34.1500679 29.092624,34.6642974 C28.7838984,36.0230572 29.3839606,35.8204214 28.5095232,36.8713003 C28.1597483,37.2922803 28.460492,37.7653829 28.0316115,38.3780029 C27.6387917,38.9394998 27.8401902,39.5646864 27.3323466,40.4567697 C26.434819,42.0330168 25.8052526,42.278636 25.4673078,43.282676 C24.9825545,44.7231184 24.5238847,46.2176828 23.9751343,47.3349647 C23.6098233,48.0789624 23.2033204,48.6554536 22.7201349,48.9356308 C22.1284822,49.2794977 22.4420539,49.6977644 22.1656832,50.0970384 C21.8297339,50.5834216 21.1515639,50.5610017 20.2118466,50.4866019 C19.5164301,50.4316232 18.6344386,50.1453055 18.4150809,49.5191193 C18.100654,48.6196103 17.2098254,46.4711561 18.0539034,46.143997 Z M23.276012,14.4025683 L23.6188028,14.3691527 L23.5147541,14.4665436 L23.276012,14.4025683 Z M19.2776881,19.066763 C19.3244388,19.0164968 19.3711895,18.9675157 19.4185103,18.9231044 C19.3717596,18.9763695 19.3245813,19.0236369 19.2776881,19.066763 C19.1189068,19.2379825 18.9625485,19.4330498 18.8027695,19.5829918 C18.583697,19.4598966 18.9150852,19.401919 19.2776881,19.066763 Z M16.328689,24.8463832 C16.2855017,24.6246119 17.1388442,24.7464219 17.299906,24.5663487 C17.5460598,24.2913123 17.7431823,24.5365031 18.5356635,23.4919074 C18.710836,23.2605684 19.2762628,23.3375386 19.2762628,23.1176237 C19.2762628,22.9963849 19.4562814,23.1747445 19.4606999,22.928554 C19.4658311,22.637381 20.9205186,22.7444824 21.2072941,22.7921783 C21.5275648,22.8454434 21.6036772,23.3615293 21.8616612,23.3673842 C22.4659993,23.3803792 22.348695,23.8076424 22.477687,23.8364883 C23.0371274,23.9608688 22.7935392,24.2727481 22.9885238,24.2626091 C23.1907775,24.251899 23.6570016,24.1842109 23.8093689,24.2254806 C24.1297821,24.3123042 24.100848,24.6780198 24.2088877,24.7002969 C24.6343475,24.7882628 24.4117116,25.6002343 24.4939529,25.9225381 C24.5147626,26.0040779 24.7328375,26.1531631 24.7922736,26.2127115 C24.8549879,26.2754015 25.0013688,26.5004572 25.0863183,26.5248764 C25.4388013,26.6258373 26.0846164,26.2449847 26.1642922,26.6032746 C26.2053415,26.7887742 26.430543,26.7356519 26.4643232,26.8457522 C26.6441994,27.4350955 26.4687417,27.5224902 26.4600473,27.9798846 C26.4583369,28.0555696 26.7024952,28.3610228 26.7961391,28.5369547 C26.8584258,28.6537667 26.7855917,28.9376568 26.6486179,28.941798 C24.9536204,28.9909219 23.4394968,28.8941022 22.3667967,28.1242573 C22.0220104,27.8769245 21.2449227,27.9050565 20.7815493,27.9371869 C20.447453,27.9607492 20.253181,28.194373 19.9889256,28.2407837 C19.7853891,28.2770553 19.8178866,28.6224931 19.5150048,28.6149246 C19.3270044,28.6097837 19.0224122,28.3029025 18.8345543,28.2966192 C18.6008009,28.2886223 18.2564422,28.316897 18.0226887,28.3267504 C17.8363986,28.3344617 17.805184,28.022868 17.6509638,28.0390046 C17.3577742,28.0694214 16.903808,27.5948908 16.6938575,27.0263965 C16.3664602,26.1391685 16.1888646,26.3647955 16.0956483,25.8818395 C16.0236693,25.5095551 16.4608167,25.5238353 16.328689,24.8463832 Z M15.1478066,34.4482382 C15.142818,34.3649847 15.1770258,34.0515346 15.4546792,33.9050199 C15.812436,33.7165214 15.8259766,33.5924266 15.8626075,32.97081 C15.897528,32.3751834 16.0580197,32.4899961 16.4139235,32.1499849 C16.6703396,31.9047941 17.0513292,32.293358 17.4127918,32.0248904 C17.8966899,31.6650297 17.7608564,31.6317569 18.3453825,31.7796996 C18.4477209,31.8055468 18.6710694,31.9236439 18.776401,31.9196455 C18.8740358,31.9160754 18.9889171,31.9203595 19.0795678,31.8848018 C19.454571,31.7371447 19.6620984,31.4412592 20.0587666,31.4409736 C20.7038691,31.4404024 20.4414666,31.8823742 21.0368252,31.9931884 C21.3513946,32.0514516 21.2593185,32.1357047 21.5566415,32.1648363 C21.9141132,32.2001083 21.9238054,32.1065731 22.4483253,32.0600197 C22.8783461,32.0213204 22.9058549,31.8476733 23.5502447,31.7838409 C24.4184106,31.6977313 24.7453803,31.8897999 24.4767064,32.9473905 C24.317355,33.5740051 25.0901666,33.0195055 24.7291316,33.6441209 C24.6434695,33.7920636 24.4121392,33.7417973 24.301819,33.9868453 C24.1220854,34.385691 23.853554,34.5313489 23.5587966,34.5227808 C23.1239297,34.510357 23.0312835,34.8976357 22.3201885,34.9093454 C21.8055034,34.9176279 21.7444994,35.4789821 20.5249907,35.154679 C19.8682006,34.9798896 19.1525445,35.6997538 18.9839284,35.7253153 C18.5084398,35.7971447 18.315023,36.3132306 17.9023912,36.4393247 C17.4789269,36.5687032 17.4341717,37.2787141 16.9971668,37.4814927 C16.5662908,37.681701 16.7818001,37.8944757 16.3733017,37.9905814 C15.9770611,38.0842594 15.875578,37.6621371 15.4079286,37.4436502 C15.2330411,37.3621104 15.3680194,36.9975372 15.1556459,36.5150097 C15.1039066,36.3983405 15.1557884,34.5754747 15.1478066,34.4482382 Z M53.8273001,40.4446316 C53.8285829,40.5821498 53.5241333,40.5153185 53.6990208,41.0755302 C54.0087441,42.0670036 53.6070873,41.985321 52.9414602,42.86241 C52.7201071,43.1544399 52.5918277,43.7967627 52.3468142,43.8900123 C52.2426229,43.9299968 51.188452,44.0068242 51.0765639,44.0068242 C50.5866794,44.0068242 50.7414698,43.7386423 50.3420935,43.5452886 C50.2216535,43.487311 50.1900113,43.3899202 50.1089102,43.282676 C49.9719364,43.1014604 49.9455679,42.7268911 49.9690858,42.5002645 C50.0313725,41.9046379 50.3420935,41.9164905 50.2722526,40.5615863 C50.2599947,40.3181091 50.4390157,39.642085 50.2607074,39.4758637 C50.2247892,39.4427336 50.1972804,39.4140305 50.1670635,39.3834709 C50.1616473,39.4501593 50.1586541,39.5129922 50.160507,39.5636868 C50.1625025,39.6170947 50.1602219,39.9631037 50.1483917,40.0155119 C50.0973651,40.2582751 49.9819137,40.3146819 49.841234,40.3862256 C49.6308559,40.4936126 49.6230167,40.7532264 49.1780299,40.7916401 C49.0162555,40.8060631 49.005423,41.0059857 48.8621777,41.040401 C48.5431898,41.1169428 48.6460984,40.7136703 48.0926444,40.7252372 C47.7403038,40.7323773 47.835373,40.6241335 47.3698616,40.6782554 C47.0560049,40.7150983 47.0085416,40.780216 46.6235611,40.7777883 C46.3704232,40.7765031 46.2742137,40.5034659 45.9797414,40.4974683 C45.8729845,40.4950406 45.8122656,40.3862256 45.7026581,40.2816946 C45.6318194,40.2128641 45.5353248,40.0316486 45.3765435,40.0243657 L45.2344386,40.2227175 C44.980588,40.509892 44.3123953,40.8843185 44.0146447,41.1262249 L43.9416681,41.2054799 C44.0197759,41.8969266 44.0257623,42.5419626 43.6268136,43.0537646 C43.3326264,43.4306187 43.4650391,43.9150026 43.3842231,44.0663726 C42.9961069,44.7979466 42.7261502,44.4896374 42.4416552,44.7562485 C42.0114919,45.1592353 41.6059867,45.1256769 41.4055859,44.5516134 C41.1530182,43.8281791 41.0509648,42.6540621 41.0077775,41.4255376 C40.5603677,41.4503851 39.6902063,41.3302888 39.6454511,41.3130097 C39.4238129,41.2271858 39.4403467,40.9875643 38.8342982,40.9895635 C38.7051636,40.9898491 38.6344675,40.7033886 37.982666,40.7033886 C37.7916723,40.7033886 37.7135645,40.4337786 37.5355413,40.2542767 C37.4934942,40.2120073 37.3702035,40.1671675 37.3156135,40.1328951 C37.1984518,40.2658436 37.1103666,40.4547705 36.9474519,40.6245619 C36.7323702,40.8486181 36.5170035,41.0546812 36.4039752,41.1080891 C36.2166873,41.1976258 36.3593625,41.6978608 36.2728452,41.8469459 C36.223814,41.9306278 35.9661151,41.8813612 35.8335598,42.0185938 C35.6602402,42.1979529 35.1422768,42.2335106 34.8942701,42.2206584 C34.8362593,42.2179452 34.7638528,41.8989258 34.7029914,41.5867609 C34.463109,41.9237733 34.0942347,42.3653167 33.8365358,42.6055095 C33.292489,43.1114565 33.0791177,43.271109 32.8691672,44.7194056 C32.7626954,45.4552636 32.6291423,45.8729591 32.0299354,46.2723759 C31.4119141,46.6846449 30.2636717,47.0603567 29.593626,46.7397665 C28.7941608,46.3572002 28.7512585,45.2087876 28.8011449,44.3221308 C28.8230949,43.9334241 29.0964724,43.7209349 29.092624,43.423193 C29.0809363,42.5235412 29.4321366,42.3587478 29.9083379,41.823098 C30.0997592,41.6081812 30.4672082,41.2660279 30.6428083,40.935156 C30.8044403,40.6311308 31.1000528,40.4219261 31.1907036,40.1179009 C31.3111436,39.7142 31.2115133,39.3931814 31.3889664,39.0894418 C31.5206665,38.8639577 31.785492,38.5679294 32.111464,38.2456255 C32.2939057,38.0652668 32.2467274,37.9681615 32.4380062,37.4669269 C32.6257216,36.9746889 32.7108135,36.1749984 32.7290577,35.4582758 C32.7495824,34.6817193 32.6242962,33.9284394 32.8574795,33.7764982 C33.0222472,33.669254 32.7675415,33.1096135 33.2769529,32.7840252 C33.5251021,32.6253723 33.4871885,32.3636165 33.6968539,32.1531265 C34.0219707,31.8273954 34.2624232,31.8195413 34.3611982,31.8146861 C35.2541648,31.7704175 35.0021672,32.1259942 36.0520622,31.9152186 C36.9400402,31.7370019 37.3178941,31.8149717 38.2198402,31.8146861 C38.2198402,31.8146861 39.2242673,31.7401435 40.3964552,31.6537484 C40.3958851,31.3839956 40.3948874,31.1143857 40.3948874,30.8396349 C40.3948874,30.5688826 40.6594278,30.6778404 40.6286408,30.2887053 L40.6015596,30.2154479 C39.8820551,30.3548226 39.216428,30.4560691 38.6237775,30.7713756 C38.1730895,31.0108543 37.5385345,31.0902522 37.1095114,31.1390904 C36.9207983,31.1607963 36.7896683,30.8567711 36.3545164,30.6778404 C36.2292302,30.6265745 36.0626096,29.9265597 36.0125807,29.8058922 C35.8902877,29.5120059 36.1983006,29.3290767 36.1897487,28.9992044 C36.1840474,28.7804319 36.2084205,28.0899849 36.1524052,27.7038486 C36.1060821,27.3832584 35.9829339,27.3666934 35.9347579,27.1433513 C35.8292838,26.650542 35.6392879,26.8940192 35.6085008,26.2556948 C35.6053651,26.1891492 35.5956729,26.1268876 35.5835576,26.0670536 C35.2198145,26.1290296 34.8530782,26.2275629 34.5553276,26.4599015 C34.3676122,26.606559 33.870316,26.5207351 33.813303,26.6761035 C33.6850237,27.0263965 33.3697416,26.8880215 33.2769529,27.0615258 C33.1053437,27.3834012 33.3991033,27.5309155 33.0732739,27.8263726 C32.8714477,28.0093018 32.6505222,28.0008765 32.233757,28.0074454 C31.5397658,28.0181555 31.6184438,27.8427948 31.3547586,27.7408343 C31.0913583,27.6391594 30.9911579,27.6694334 30.9050683,27.4819345 C30.7631058,27.1721972 30.4271565,27.0965123 30.2988772,26.8864507 C30.1388131,26.6236953 30.1992469,25.7844487 30.2115047,25.5082698 C30.2231924,25.2455144 30.440127,25.0524463 30.4622195,24.8776568 C30.5554358,24.1359439 31.124711,24.3074489 31.2867705,23.9638676 C31.4384252,23.642849 31.9903113,23.6232851 32.1917099,23.6261412 C32.8067379,23.6348521 32.9276056,23.1493257 33.3447984,23.4422124 C33.5980788,23.6201435 34.0677237,23.6311392 34.9132269,23.5840146 C35.0489179,23.1130541 35.2821012,22.6588013 35.7329318,22.5495579 C36.1464188,22.4497394 35.7852412,21.9219437 36.038094,21.8742478 C36.7841095,21.734302 37.210567,20.7992353 37.838423,20.4747895 C38.3124864,20.2295987 38.531559,19.9598459 39.1521458,19.840178 C39.5562257,19.762351 39.4403467,20.1751912 39.6652631,20.2450213 C40.8150734,20.6033112 40.0508137,21.2205009 40.004063,21.4669769 C39.8622431,22.2169723 39.8260398,22.3239309 39.5875828,22.7297738 C39.4450503,22.9715374 39.7264096,23.0700707 39.7292602,23.349534 C41.5141957,23.3028377 41.1125389,23.1414716 41.8478645,23.0946326 C42.2163112,23.0712131 43.1126986,23.0557905 44.1225419,23.0693567 C44.118551,22.8842855 44.124965,22.6535176 44.1524737,22.331785 C44.177702,22.0411832 44.0050951,20.759108 44.0843432,20.0765151 C44.1007344,19.9312856 44.2903027,20.0899384 44.3627093,19.5755661 C44.4031886,19.2836791 44.5799289,19.4397615 44.6623128,19.2281292 C44.7703525,18.9508079 45.3578718,18.9932201 45.6154281,19.014926 C45.7026581,19.0223517 46.0926272,19.4129148 46.7210533,19.3886385 C47.1251332,19.3730731 47.5182381,19.8273258 47.5739683,19.9375689 C47.9197523,20.6250171 47.5294981,21.0081545 47.5758212,21.7555795 C47.6039001,22.2028349 47.6334044,22.7798973 47.5897894,23.3615293 C47.8338052,23.4866238 47.7824935,23.4849101 48.1349765,23.4527797 C48.4861768,23.4210777 48.5453278,23.4644895 48.8741505,23.3656706 C49.4411451,23.1948795 50.5473404,23.2525715 51.9195016,23.3828068 C52.6575353,23.4527797 52.0829864,24.3404361 51.6723501,24.5473561 C51.341817,24.7141486 51.1066383,25.2596518 50.932606,25.274646 C49.6740433,25.3837466 49.7669746,25.1812536 49.1144604,25.3213422 C48.3791348,25.4791383 47.8407893,25.3059196 47.5447491,25.4848503 C47.4841728,25.5214076 47.1013303,25.5315466 47.1191468,25.7983004 C47.1301218,26.0353516 47.1473683,26.2522676 47.0783825,26.4891759 C46.9674922,26.8691717 46.850758,27.4125328 46.8279528,27.7495452 C46.7817722,28.4501312 46.6721647,28.6957504 46.4721915,28.9650747 C46.2642364,29.244538 45.9927119,28.8072787 45.7104974,29.011771 C45.4951306,29.1685674 44.7918749,29.5569885 44.5296149,29.6033991 C44.2535293,29.6526658 43.8699742,29.8258844 43.6376461,29.8473047 C43.6252457,30.2041666 43.7067744,30.2965594 43.871542,30.4365052 C44.0839156,30.6165784 44.0016743,30.9377398 43.9855681,31.2694685 C43.9835726,31.3093103 43.980722,31.3492948 43.9781564,31.3889937 L44.0146447,31.3862805 C45.0021104,31.3862805 45.5616934,31.6773107 46.5916338,31.5242271 C46.850758,31.4856706 46.9642139,31.7307186 47.218207,31.7561373 C47.8008802,31.8146861 47.9526774,31.4761028 48.7571312,31.4525405 C49.1004922,31.4425444 49.3979577,31.0438416 49.8527792,30.8569139 C50.2207983,30.7056868 50.392265,30.662989 50.7964874,30.740102 C51.0658739,30.7915107 51.0903896,30.9627301 51.4960373,30.9737259 C51.9276259,30.9854356 52.0901131,31.3640034 52.253883,31.5109465 C52.9682563,32.1526981 52.6968742,32.7021997 52.7079918,33.765074 C52.715546,34.4168218 52.719822,35.5209658 52.8017782,36.0771791 C52.829287,36.2645352 52.8603591,36.6261095 53.1281778,36.7546312 C53.2664344,36.8210341 53.1802022,37.0943569 53.3262981,37.1399107 C53.6645279,37.2450128 53.4522969,37.7038353 53.6062321,37.7122606 C53.8156125,37.7239703 53.8558066,38.1940741 53.8647862,38.2756139 C53.984371,39.4123168 53.8207436,39.4602983 53.8273001,40.4446316 Z M51.2014224,50.3355176 C51.2524491,50.2529781 51.3421021,50.1907165 51.3944115,50.1073202 C51.7176754,49.8337118 51.5631701,50.0834723 51.2789602,50.3763589 L51.2014224,50.3355176 Z M53.4282089,48.735137 C53.0654635,48.9880391 53.089409,48.7825472 52.5108692,49.4699954 C52.2029989,49.9679456 53.1712227,49.1508332 53.395569,49.040733 C52.9798014,49.5806669 53.0219911,49.6229362 53.0523505,49.6827702 L53.113782,49.6626352 L53.0624703,49.7119018 C53.0747281,49.7693081 53.0462216,49.8761239 52.7704211,50.2544061 C52.3932799,50.4681805 52.1914537,50.5867061 51.9494334,50.792912 L51.0802697,51.7886694 L51.1087763,51.774532 C51.2560124,51.6641462 51.3986875,51.5607576 51.5302451,51.4757905 C51.5212655,51.5440498 51.249741,51.7042735 51.1087763,51.774532 C50.9355992,51.9059097 50.7567208,52.0501396 50.5757044,52.2043657 C50.3257023,52.4704055 50.1016411,52.7034582 49.9420046,52.9615012 C49.6502404,53.2618135 49.7056855,53.0791699 49.7085362,53.0051986 C49.5327935,53.1831297 49.3757226,53.3550631 49.2316222,53.5219985 C49.1723286,53.6315276 49.1158857,53.743627 49.0253776,53.866865 C49.0714156,53.8557265 49.0912276,53.8588681 48.9991516,53.9028511 L49.0253776,53.866865 L48.9241794,53.9057072 L48.8841278,53.9585438 C48.8603248,53.9442637 48.8862658,53.9244142 48.9241794,53.9057072 C49.0091288,53.7874672 49.1144604,53.6573747 49.2316222,53.5219985 C49.3152888,53.3684865 49.4116408,53.2166881 49.6411183,53.0304745 C49.7025498,52.9580739 49.7099615,52.9716401 49.7085362,53.0051986 C49.9796332,52.7327326 50.2775263,52.4588386 50.5757044,52.2043657 C50.7259337,52.044142 50.88443,51.8734937 51.0480574,51.6707151 C50.3115915,52.2796222 51.4170742,50.9885505 50.5152706,51.9486075 C50.810313,51.5541887 50.5509037,51.6395843 51.1193237,51.0543822 C51.5313854,50.8884464 51.1079211,51.4092448 51.0681545,51.6769983 C51.4929016,51.2251732 51.7366323,50.9748415 51.9494334,50.792912 L52.1325878,50.5834216 L52.080991,50.6663895 L53.0624703,49.7119018 L53.0523505,49.6827702 C52.4559942,49.896259 51.8090388,49.8554177 52.194732,49.3121994 C52.7782604,48.9527671 53.227238,48.3088734 53.1591074,48.1674996 C53.3406939,48.0404059 53.1867587,48.2893096 53.227238,48.3088734 L53.7142718,47.6859717 C54.0433795,47.7396652 53.0368145,48.8666575 53.4282089,48.735137 Z M53.2764117,49.8537041 L53.2595929,49.6305047 L53.5552054,49.2350863 L53.2764117,49.8537041 Z M50.5573177,52.7294481 C50.3758737,53.0296177 50.1749028,53.3636312 49.8757269,53.6907903 C50.0298046,53.4416011 49.5245266,53.8410179 49.6388378,53.5734072 C50.0540352,53.2829482 50.3351094,53.0184791 50.5573177,52.7294481 C50.6662126,52.550089 50.7655578,52.3844388 50.8750228,52.2382097 C50.7836594,52.4162836 50.6754772,52.5757933 50.5573177,52.7294481 Z M48.9752061,53.0227632 L48.895958,52.9836355 L49.3895483,52.6861792 L48.6696162,53.5195709 C48.6785958,53.4188956 48.5109775,53.4416011 48.9752061,53.0227632 Z M48.3380855,55.0943899 L48.5031382,54.7433829 L48.6573584,54.4941937 L48.3380855,55.0943899 Z M48.0868005,54.964583 C47.8054412,55.1936372 47.6741687,55.1979213 47.6150177,55.2086314 C47.6778745,55.146227 47.7403038,55.0852506 47.7954639,55.0311287 L47.7856292,55.0336991 C48.0161044,54.8137842 48.1373996,54.6988287 48.1881412,54.6505617 C48.1295603,54.7071113 47.9923014,54.8397742 47.7954639,55.0311287 L48.0868005,54.964583 Z M47.3948048,55.1646484 L47.2062342,55.3345827 L46.7662362,55.9329225 C46.8674343,55.7692716 46.7367319,55.8128261 46.6972504,55.7928339 L47.2062342,55.3345827 L47.4066351,55.0619739 L47.3948048,55.1646484 Z M46.7616751,56.4781401 C46.6818569,56.4392979 46.3601609,56.7109071 46.1764364,56.8394288 L46.4344203,56.4891358 C46.3645794,56.4707144 46.4064839,56.363613 46.8205411,55.9649101 L46.4344203,56.4891358 C46.5165191,56.5095565 46.7469943,56.4123084 46.7616751,56.4781401 Z M45.9676261,55.9716218 C45.496841,56.3327678 45.776775,55.9492019 45.8792559,55.7856938 C45.8687085,55.7796961 45.8622946,55.7705568 45.8230981,55.7895494 C45.9389771,55.6790208 45.9254365,55.7118652 45.8792559,55.7856938 C45.9265768,55.8131117 45.7549675,56.0258865 45.9805966,55.8688045 C46.2120695,55.6598853 46.222902,55.557782 46.2750689,55.4739573 C46.5951971,55.3372959 46.7642407,55.3058795 46.9529539,55.296169 C46.9951435,55.2791755 47.0166659,55.2763195 47.005976,55.2937413 C46.9880169,55.2943125 46.9704854,55.2953122 46.9529539,55.296169 C46.7974508,55.358859 46.3434845,55.6253273 46.0179401,55.8899392 L45.9676261,55.9716218 Z M45.512092,57.0446351 C45.8195348,56.5471134 45.4559342,56.8014435 45.5705304,56.5316908 C46.2060831,56.088291 45.7167688,56.7137631 45.512092,57.0446351 Z M44.1561796,59.1938032 C44.260656,59.0261538 43.8847976,59.3833013 43.7550929,59.4257135 L44.1014471,58.9478984 C44.4123106,58.7789638 44.5420153,58.7352664 44.1561796,59.1938032 Z M44.3540148,58.4193887 C44.2864544,58.591465 44.2238826,58.6417312 44.1684374,58.6611523 L43.77519,59.1725258 C43.9275573,58.9401871 43.9634755,58.796814 43.9821473,58.8900637 C44.011224,58.6351623 44.0789269,58.690141 44.1684374,58.6611523 L44.3540148,58.4193887 Z M43.6156961,59.0295811 L44.2184663,58.136641 L44.3602862,57.9908403 L43.6156961,59.0295811 Z M43.2421182,59.3843009 C42.8950513,59.8634012 43.2183152,59.590364 43.4902674,59.4001519 C42.7297135,60.2151222 42.4812793,60.1985572 43.2421182,59.3843009 Z M42.700922,60.4353227 C42.6745534,60.4501741 42.6593024,60.4556006 42.6156875,60.4838753 C43.2864458,59.7313095 42.8364704,60.1614287 43.0076521,60.1371524 C42.8520065,60.2820963 42.7639214,60.3699195 42.700922,60.4353227 Z M40.4080004,61.5511765 L40.612107,61.2203046 L40.9755651,60.9665457 C41.053958,61.006673 40.5101962,61.3860976 40.4080004,61.5511765 Z M39.1622656,63.3174929 L39.2494956,62.9270726 L39.3790577,62.882804 C39.9749864,62.4205543 40.5499628,61.4056614 41.018895,61.3132686 C40.5141871,61.7136851 39.7807145,62.6500369 39.1622656,63.3174929 Z M38.0403917,64.3839373 L38.0509391,64.2826907 L38.3970082,63.8047329 L38.0403917,64.3839373 Z M35.0990894,67.984258 C35.108354,67.9354198 34.9289055,67.8940072 35.1307316,67.7113637 C35.0936732,67.6905146 35.3959848,67.6379635 35.0990894,67.984258 Z M33.4593946,67.5798431 L33.529093,67.3065203 C33.5644411,67.419905 33.7682627,67.5942661 33.8733092,67.6845169 L33.4593946,67.5798431 Z M32.5017182,66.6764785 L32.6888635,66.7955753 L32.877149,67.1650037 L32.5017182,66.6764785 Z M34.4760795,0.0165650171 L1.42532579e-05,34.55791 L34.778106,69.4017094 L69.2533161,34.8602216 L34.4760795,0.0165650171 Z" id="Fill-31" fill="#FFFFFF" mask="url(#mask-2)"></path>
                </g>
            </g>
        </g>
    </g>
</svg>