<?xml version="1.0" encoding="UTF-8" standalone="no"?>
<svg width="110px" height="110px" viewBox="0 0 110 110" version="1.1" xmlns="http://www.w3.org/2000/svg" xmlns:xlink="http://www.w3.org/1999/xlink">
    <!-- Generator: Sketch 49.1 (51147) - http://www.bohemiancoding.com/sketch -->
    <title>Page 1</title>
    <desc>Created with Sketch.</desc>
    <defs></defs>
    <g id="1.0_Homepage-" stroke="none" stroke-width="1" fill="none" fill-rule="evenodd">
        <g id="B-1-1-首頁" transform="translate(-665.000000, -32.000000)">
            <g id="Page-1" transform="translate(665.000000, 32.000000)">
                <polygon id="Fill-1" fill="#C8171E" points="54.760814 0 0 54.7599113 55.2405444 110 110 55.2396359"></polygon>
                <g id="Group-168" transform="translate(1.549296, 2.323944)" fill="#FEFEFE">
                    <path d="M54.6750661,104.901492 C54.3544538,105.190548 54.639518,105.256088 54.6248006,105.333381 C55.0964358,104.785328 54.6161966,104.868496 54.6750661,104.901492" id="Fill-2"></path>
                    <polygon id="Fill-4" points="59.3140502 99.4752461 59.2972951 99.635481 59.8638007 98.7188197"></polygon>
                    <path d="M64.0286364,94.7757974 C63.2837108,94.9217942 62.3705544,96.5282115 61.4236612,97.2597778 L61.2178444,97.3298382 L61.0795011,97.9477258 C62.061716,96.8913957 63.2268791,95.409505 64.0286364,94.7757974" id="Fill-6"></path>
                    <path d="M67.1879357,92.9143602 C66.916004,92.9527804 67.6308155,92.2720644 66.5652776,93.4630913 C66.6347889,93.4183431 66.6587895,93.409755 66.7009039,93.3862509 C66.8007556,93.2827423 66.9406839,93.1439775 67.1879357,92.9143602" id="Fill-8"></path>
                    <path d="M68.9254462,91.0321986 L68.3752429,91.788625 C68.5812861,91.7212766 69.1783586,91.1560473 69.0126184,91.4215989 C69.6255404,90.6959087 69.4194972,90.7648391 68.9254462,91.0321986" id="Fill-10"></path>
                    <path d="M69.3267777,90.1959486 L69.0319774,90.5783428 C69.1200552,90.5478326 69.2194541,90.4680542 69.3267777,90.1959486" id="Fill-12"></path>
                    <path d="M68.4071456,91.3877439 L69.032068,90.5784332 C68.8898755,90.6243115 68.782099,90.537301 68.7359091,90.9407133 C68.7062479,90.7931344 68.6491898,91.0200398 68.4071456,91.3877439" id="Fill-14"></path>
                    <path d="M67.9547562,91.7479448 C67.5227447,92.0489785 67.0089951,92.481093 67.560557,91.7230846 C66.351921,93.0115181 66.7463466,93.0377343 67.9547562,91.7479448" id="Fill-16"></path>
                    <path d="M63.9598723,94.2271114 L63.3824984,94.6284897 L63.0584897,95.1523608 C63.2206073,94.8911032 64.0844039,94.2903917 63.9598723,94.2271114" id="Fill-18"></path>
                    <path d="M73.1513929,87.1235285 C73.1280716,87.0193419 72.7619486,87.1732488 72.63153,87.1409306 L72.2219342,87.6953119 C72.513791,87.4919107 73.0245971,87.0622822 73.1513929,87.1235285" id="Fill-20"></path>
                    <path d="M72.6315527,87.1409532 L73.2449275,86.3113024 C72.5874005,86.9422981 72.5206063,87.1117991 72.6315527,87.1409532" id="Fill-22"></path>
                    <polygon id="Fill-24" points="69.1114059 89.748353 68.1538709 91.1615392 69.3366949 89.5176056"></polygon>
                    <polygon id="Fill-26" points="75.9179649 84.3781776 75.6557692 84.9336888 76.1629525 83.9838053"></polygon>
                    <path d="M77.7220432,82.526481 C77.5404534,82.9500075 78.3431163,82.3178818 78.0983551,82.7122541 C78.5736131,82.1944851 78.8928669,81.665868 79.181101,81.1908133 C78.8281104,81.6482399 78.3816079,82.0667944 77.7220432,82.526481" id="Fill-28"></path>
                    <path d="M79.6857484,80.4134366 C79.511857,80.6446359 79.3540414,80.9070234 79.1810557,81.1906551 C79.3687588,80.9474777 79.5406124,80.6952602 79.6857484,80.4134366" id="Fill-30"></path>
                    <path d="M74.5070442,85.1144447 C74.601009,85.0974946 74.8095428,85.0907145 75.2567246,84.7282084 L74.7936934,84.833525 C74.7060684,84.9191795 74.6068959,85.0156821 74.5070442,85.1144447" id="Fill-32"></path>
                    <path d="M74.7781156,84.8374575 L74.7935122,84.8333894 C75.1064262,84.5307737 75.3244698,84.3208185 75.4175289,84.2310959 C75.3369229,84.3074844 75.1442386,84.4896414 74.7781156,84.8374575" id="Fill-34"></path>
                    <path d="M74.4345215,85.1886268 L74.5103277,85.1145577 L74.4345215,85.1886268 Z" id="Fill-36"></path>
                    <path d="M71.1664494,88.0200305 C71.4915902,87.4966115 72.2688939,86.5067257 71.2592821,87.2082338 C71.0772395,87.6353763 71.6548398,87.232868 71.1664494,88.0200305" id="Fill-38"></path>
                    <path d="M73.8576231,85.3137552 L73.0492996,86.0389934 C73.1117919,86.0706336 73.3194201,86.0017032 73.1586611,86.2607007 L73.8576231,85.3137552 Z" id="Fill-40"></path>
                    <polygon id="Fill-42" points="74.1760391 84.8822735 73.857691 85.31371 74.1572462 85.0447685"></polygon>
                    <path d="M78.2036183,81.5580202 C78.4572099,81.1496358 78.8129176,80.7810277 79.2102866,80.3597613 C78.7366136,80.7624956 78.2633935,81.1959661 77.8327405,81.6274026 C77.828212,81.7442453 77.7401342,82.033527 78.2036183,81.5580202" id="Fill-44"></path>
                    <path d="M76.5238382,83.1399891 L76.5901686,83.0524313 C76.5273916,83.0834315 76.4842768,83.1160882 76.5238382,83.1399891" id="Fill-46"></path>
                    <polygon id="Fill-48" points="83.2466817 76.3372543 83.1445803 76.3706209 83.1613998 76.418896"></polygon>
                    <path d="M77.7255753,81.6672692 C77.3612637,81.961975 77.2079766,82.2022144 77.0750674,82.4449398 C77.3042056,82.1807442 77.5534953,81.9086386 77.832899,81.627267 C77.8349367,81.5741567 77.8233893,81.5526866 77.7255753,81.6672692" id="Fill-50"></path>
                    <path d="M80.7265384,79.2068608 C80.5175517,79.3413315 80.2909041,79.5047305 80.0570111,79.6796555 C80.2809416,79.5684629 80.7125003,79.3148894 80.7265384,79.2068608" id="Fill-52"></path>
                    <path d="M76.7495321,82.9912297 L76.7057066,83.0508636 C76.8589773,82.9779777 76.8258121,82.9727716 76.7495321,82.9912297" id="Fill-54"></path>
                    <path d="M76.7475945,82.9908233 C76.891372,82.7960102 76.9808083,82.6185992 77.0749995,82.4450302 C76.8891077,82.6592794 76.7217825,82.8651666 76.5866091,83.0522957 L76.7475945,82.9908233 Z" id="Fill-56"></path>
                    <path d="M83.3142376,73.9710884 C83.4224669,74.1946037 82.7090139,75.2136436 81.7820458,75.7827149 C81.1693502,76.6421979 82.1970758,76.7068342 83.1446482,76.3689623 C83.0961941,76.2742677 83.0291734,76.2075973 83.6896439,75.3528604 C83.3334834,75.5273334 81.7954047,76.8202869 82.2842479,76.0322203 C83.2035177,74.944476 83.1654789,75.2694659 83.7417207,74.8694436 C83.1199683,75.0775908 84.7187279,73.2939884 84.1961479,73.2090119 L83.4224669,74.1946037 C83.3579369,74.1638675 83.6024717,73.7697212 83.3142376,73.9710884" id="Fill-58"></path>
                    <path d="M81.68353,77.7945786 L81.3925788,78.1261225 C81.7770419,77.7995506 82.0976542,77.6119695 82.6967646,77.2736455 C83.1348895,76.6751941 83.1799473,76.5061451 83.160475,76.4150665 L81.6015655,77.9256593 L81.68353,77.7945786 Z" id="Fill-60"></path>
                    <path d="M79.9926622,79.5251158 C80.0556073,79.1013633 80.7283045,78.2773626 80.073721,78.5399761 C79.1707535,79.4659035 79.58284,79.3309807 79.1141482,79.9549703 C80.5467147,78.4357895 78.7905924,80.4790673 79.9605104,79.5151717 C79.7008054,79.8360936 79.4490251,80.1061652 79.2103772,80.3597387 C79.4977056,80.1156572 79.7818642,79.8876219 80.0569658,79.6797007 L80.011908,79.7018488 L80.0051154,79.7090809 L80.0039833,79.7050129 C79.917264,79.7463711 79.882848,79.7538291 79.9686616,79.6946168 L79.9949264,79.6604906 L79.9935679,79.5255678 C80.4593162,79.1359415 80.1085899,79.5056797 79.9949264,79.6604906 L80.0039833,79.7050129 L80.011908,79.7018488 L81.3926241,78.1261677 C81.0543509,78.4138674 80.6671708,78.8100477 79.9926622,79.5251158" id="Fill-62"></path>
                    <path d="M71.6604098,86.0390039 C71.7255557,86.0075304 71.736216,86.0229122 71.753983,86.0328512 C71.8307368,85.9102703 71.8530049,85.8560791 71.6604098,86.0390039" id="Fill-64"></path>
                    <path d="M72.3783685,85.5342195 C72.2957248,85.6671083 72.2785168,85.8286992 71.9108089,86.1593391 C71.5523842,86.4077146 71.8249953,86.0709726 71.7498235,86.0278064 C71.5870267,86.2863519 71.1421091,86.8936174 71.8902046,86.3218341 L71.9699048,86.1925613 C72.6278846,85.6598762 73.6189299,85.1201851 73.5396825,85.2490058 C73.2029943,85.2600799 72.9342324,85.2978221 72.3783685,85.5342195" id="Fill-66"></path>
                    <path d="M76.1824247,82.4412785 L77.3260779,81.1223349 L76.5419815,81.5930956 L76.6678716,81.65502 C75.930418,82.3178818 76.1964628,82.2819476 76.1824247,82.4412785" id="Fill-68"></path>
                    <polygon id="Fill-70" points="83.4738872 76.2862684 83.5003784 76.6395084 83.9432582 75.6604708"></polygon>
                    <polygon id="Fill-72" points="85.0517708 74.6649802 85.1584151 74.8898515 85.4812917 74.3677885"></polygon>
                    <path d="M36.8195181,19.5076423 L36.5043398,19.9162527 C36.6612497,19.7307056 36.7554409,19.6048228 36.8195181,19.5076423" id="Fill-74"></path>
                    <path d="M39.4557508,16.909321 L39.4377468,16.7566865 C39.3579134,16.9306188 39.3403833,17.0177033 39.4557508,16.909321" id="Fill-76"></path>
                    <path d="M87.906579,33.3049772 C87.5347955,32.6242613 87.1854277,31.7961924 87.0627074,32.0459239 L87.0427824,32.3887679 C87.4435478,32.7243798 87.7064227,33.0265436 87.906579,33.3049772" id="Fill-78"></path>
                    <path d="M59.8851749,7.50220397 C59.9182324,7.56977836 59.9512899,7.64096877 59.9854795,7.71125518 C60.1752204,7.77679556 60.3543195,7.83804192 60.5150785,7.89341224 C60.3248847,7.77543955 60.1106903,7.64232478 59.8851749,7.50220397" id="Fill-80"></path>
                    <path d="M58.7608128,7.88159237 L58.1836653,7.07047366 C58.2982344,7.2675468 58.4827677,7.52948232 58.7608128,7.88159237" id="Fill-82"></path>
                    <path d="M22.6947337,33.9911398 L22.4572179,34.5977273 C23.117462,33.9368995 22.7332253,34.1341986 22.6947337,33.9911398" id="Fill-84"></path>
                    <path d="M101.38681,58.2266843 C101.913239,57.8431601 102.304722,57.5111642 102.631674,57.2024464 C101.979354,57.646087 101.380244,57.9308486 101.38681,58.2266843" id="Fill-86"></path>
                    <path d="M35.9221432,16.5526299 C35.733308,16.8066554 35.675797,16.9384142 35.7226662,16.9720884 C35.9196526,16.7133169 36.0140702,16.5499179 35.9221432,16.5526299" id="Fill-88"></path>
                    <path d="M103.946207,55.889876 C103.847714,55.9518003 103.759862,56.0211827 103.662501,56.0874011 C103.360682,56.4501332 103.049579,56.8085713 102.631606,57.2024916 C103.114788,56.8763717 103.625595,56.4607553 103.946207,55.889876" id="Fill-90"></path>
                    <path d="M34.9244637,83.5995353 L35.0246701,83.7450705 C35.0623363,83.7313452 35.009035,83.6752609 34.9244637,83.5995353" id="Fill-92"></path>
                    <path d="M48.2177618,100.53022 C48.0574556,100.392359 47.8142793,100.14986 47.5824241,99.9236327 C47.6818229,100.047481 47.8702053,100.23348 48.2177618,100.53022" id="Fill-94"></path>
                    <path d="M89.2038363,69.2543432 C89.2580851,69.157083 89.2881706,69.0730749 89.2531103,69.0203036 C89.2696929,69.0946094 89.2490831,69.173648 89.2038363,69.2543432" id="Fill-96"></path>
                    <path d="M103.925611,51.430819 L103.896236,51.4002921 C103.951432,51.5297356 103.94243,51.5065446 103.925611,51.430819" id="Fill-98"></path>
                    <path d="M90.9809478,68.739723 C91.1306122,68.6355364 91.2963525,68.5071676 91.4695646,68.3604928 C91.3855624,68.4165411 91.2354452,68.5306718 90.9809478,68.739723" id="Fill-100"></path>
                    <path d="M91.1352765,68.7571703 C91.0109713,68.8672329 90.9138366,68.9533394 90.8212303,69.0360559 C90.80923,69.1090543 90.8656089,69.0900702 91.1352765,68.7571703" id="Fill-102"></path>
                    <path d="M92.0383119,67.8306553 C91.8467596,68.0268244 91.6570187,68.1999414 91.469542,68.3606284 C91.5490158,68.3059361 91.5863753,68.288082 91.574375,68.3127161 C91.6726417,68.2112415 91.8098529,68.0677307 92.0383119,67.8306553" id="Fill-104"></path>
                    <path d="M6.61629725,56.3149618 L6.67177043,56.4047692 C7.08974385,56.6719236 6.92762631,56.5335839 6.61629725,56.3149618" id="Fill-106"></path>
                    <polygon id="Fill-108" points="77.1796513 26.3673026 77.2298729 26.3983028 77.1839154 26.3391422"></polygon>
                    <path d="M75.8240001,25.2836934 C76.5693785,25.5759131 76.8376875,25.898643 77.183659,26.3391196 L77.304115,25.4131922 L75.8240001,25.2836934 Z" id="Fill-110"></path>
                    <path d="M58.9039597,7.84473155 C58.8665304,7.74077095 58.8854819,7.68381862 58.9075131,7.6293523 C58.7701144,7.56584594 58.7267627,7.60291015 58.9039597,7.84473155" id="Fill-112"></path>
                    <polygon id="Fill-114" points="22.7405449 33.8789301 22.6974301 33.9175029 22.6948243 33.9965415"></polygon>
                    <path d="M98.553014,47.6600382 C98.3458386,47.3951646 98.2505153,47.2265676 98.2007027,47.1004589 C98.1388897,47.1370711 98.2045518,47.286006 98.553014,47.6600382" id="Fill-116"></path>
                    <path d="M88.1502308,71.912804 L88.8340226,71.1256414 C88.4875983,71.4910856 88.3171032,71.573576 88.105173,71.7204769 C88.1683445,71.7514391 88.3773312,71.6795706 88.1502308,71.912804" id="Fill-118"></path>
                    <path d="M80.5107364,77.0410902 C80.4278663,77.1730749 80.2854474,77.2716115 80.2041622,77.4022403 L80.3273353,77.4668767 C80.7790455,77.003348 81.024486,76.6080717 80.5107364,77.0410902" id="Fill-120"></path>
                    <path d="M86.7972287,71.9222961 C86.5692226,71.8113294 86.1641552,72.3293244 85.6805196,72.8757956 L85.7724466,72.7844911 C85.8584866,73.1738913 86.3289898,72.5469637 86.7972287,71.9222961" id="Fill-122"></path>
                    <path d="M85.5671732,73.0004353 C85.4161503,73.1669983 85.2583348,73.3333352 85.095538,73.4806881 C85.1295011,73.636177 85.3083738,73.3071191 85.5671732,73.0004353" id="Fill-124"></path>
                    <path d="M92.5510652,67.0588382 C92.2632839,67.2593014 92.6153688,67.4294804 92.4077406,67.4981848 C92.3511353,67.9865736 93.7766828,65.6097178 92.5510652,67.0588382" id="Fill-126"></path>
                    <polygon id="Fill-128" points="85.8199045 71.7801638 86.2147829 71.80525 86.3338804 71.3482753"></polygon>
                    <path d="M90.0453983,67.8701603 L89.1632616,68.6342708 C89.2110364,68.6573229 89.1268078,68.7825276 89.0135972,68.9260385 C89.5282525,68.4261236 90.1266835,67.9124226 90.0453983,67.8701603" id="Fill-130"></path>
                    <path d="M89.0136878,68.9259933 C88.7458316,69.1863468 88.4983533,69.4412762 88.3851427,69.6225293 C88.5266559,69.4776625 88.8271168,69.1637466 89.0136878,68.9259933" id="Fill-132"></path>
                    <polygon id="Fill-134" points="86.8830196 70.5927529 87.1708009 70.3934198 87.7669677 69.8277385"></polygon>
                    <path d="M98.9415073,59.0706636 L99.7803976,58.1130961 C99.8005491,57.9496971 99.5114093,58.1506123 99.205288,58.5133444 C99.040227,58.7779919 98.7341056,59.138916 98.9415073,59.0706636" id="Fill-136"></path>
                    <path d="M95.6473515,61.2110543 C95.9342271,61.0114951 95.997625,61.0426833 96.2038947,60.9742049 L95.9706809,60.6876352 L95.6473515,61.2110543 Z" id="Fill-138"></path>
                    <path d="M98.2089444,58.5329161 C98.225926,58.3717772 99.3066341,57.0239053 98.1835852,58.177416 C98.1638866,58.339911 97.3236378,59.2988346 98.2089444,58.5329161" id="Fill-140"></path>
                    <polygon id="Fill-142" points="97.8755166 45.560034 98.1080511 45.7851313 98.5015711 45.3263486"></polygon>
                    <path d="M84.9135633,34.6602167 C85.8767588,35.8259314 85.4302563,34.6500466 86.2659768,35.7382429 C86.6164767,35.8871778 85.5826378,34.8489278 85.9265715,35.0179768 C85.1762118,34.4821276 84.8990724,34.0850433 84.9135633,34.6602167" id="Fill-144"></path>
                    <path d="M85.9264809,35.0178638 C86.0464841,35.1041963 86.1757706,35.1925628 86.3190951,35.2807033 C86.1067121,35.1213724 85.9984828,35.05425 85.9264809,35.0178638" id="Fill-146"></path>
                    <polygon id="Fill-148" points="50.4986603 103.263638 51.0950536 104.036789 50.7959513 103.452123"></polygon>
                    <path d="M52.1308171,104.260779 L52.0198707,104.693345 L52.6776241,104.859004 C52.5107517,104.716171 52.1869695,104.440224 52.1308171,104.260779" id="Fill-150"></path>
                    <path d="M45.7183894,11.5630633 L45.7048042,11.4457687 C45.5281957,11.4810249 45.362229,11.6358358 45.0300692,11.9454576 L45.7183894,11.5630633 Z" id="Fill-152"></path>
                    <polygon id="Fill-154" points="36.2224003 20.6424986 36.3874613 20.4808717 35.8431449 20.5362461"></polygon>
                    <path d="M28.7371213,28.7324283 C29.0656584,28.4252925 29.3849122,27.996794 29.7152606,27.6880762 C29.0656584,28.4252925 28.3442807,28.512529 28.7371213,28.7324283" id="Fill-156"></path>
                    <path d="M8.88338415,61.2933865 L8.71266261,61.0174389 C9.2759984,61.4637915 9.08195548,61.374973 8.88338415,61.2933865 M93.8961426,65.4915869 C93.8089704,65.6350977 93.8445185,65.6556639 93.922181,65.6346457 C93.9504836,65.503565 94.2058867,65.2427595 94.5133666,64.9634218 C94.3793253,64.992124 94.1945656,65.1037687 93.8961426,65.4915869 M95.1333076,64.4323188 L95.14961,64.3959325 C95.7817778,63.9224598 95.5546774,64.0874408 95.1333076,64.4323188 M61.3822941,9.77141534 C61.1302873,9.65389466 60.8787335,9.33658882 60.6337458,8.93837451 C60.882809,9.15533577 61.1407027,9.42676334 61.3822941,9.77141534 M43.2670184,12.9159976 C43.061428,13.2059573 42.6977956,13.8303989 42.3971084,13.8923233 C42.4480531,13.3793003 42.7774959,13.2717237 43.2670184,12.9159976 M30.5946803,25.8254186 L31.6149339,25.1334026 C30.8498569,26.4335881 30.0089288,27.0880879 31.0427677,26.5144966 C30.5946803,25.8254186 34.3141003,23.1326129 33.8648808,22.4462469 L34.5491254,22.0021544 C34.3820266,22.1578693 34.3894985,22.2173076 34.2239847,22.3712145 C35.5947382,21.5469877 34.6285992,21.1462874 36.1245637,19.8146877 C36.6616346,19.3660751 37.0879856,19.1050435 36.8194501,19.5075519 L37.7776644,18.2706467 C38.1082392,17.9623809 38.1288436,18.1388879 37.7998537,18.4460237 L39.4305387,16.7277357 L39.4348407,16.7568899 C39.584505,16.428736 39.9886668,15.7505061 40.1944836,15.4275502 C40.7018933,15.0842542 40.0414229,15.7014638 40.2212013,15.6632696 L41.011411,14.5992554 C41.5369345,14.36896 40.91088,15.2797453 40.2485982,15.8985369 C41.683429,15.6002152 40.8753319,14.9868476 43.0777303,13.4511687 L42.2737088,14.3978882 C43.1617325,14.1562928 43.7282382,13.3569262 44.9203455,12.5686336 C44.5802609,12.6983583 42.4299394,14.0421621 43.2950946,12.8954315 C43.6220467,12.6549661 44.0164723,12.302178 44.4455404,11.6451922 C44.6529421,11.8420394 45.1336342,11.263024 45.7857271,10.5890881 L46.0087519,10.9016479 C46.6492973,10.1081573 46.4559336,10.0286048 46.7575266,9.48642769 C47.5837373,8.7141812 47.9573322,8.75621745 48.3207381,8.74288337 C49.644396,7.50643019 47.1032716,9.29342257 48.5688957,7.72926748 C49.7370023,6.7680839 50.3755099,5.91221693 51.4895019,4.47982061 C52.3277129,3.82758083 51.5232386,4.77362232 51.8676252,4.58332922 L52.3145805,3.71006014 C52.4816793,3.55366724 52.4952645,3.67163992 52.5016043,3.73107827 C52.7570074,3.3932063 52.6401741,3.3758042 52.6157206,3.26958359 C52.5826631,3.17149902 52.571342,3.05375233 52.8281036,2.72514643 C52.8167826,2.47812699 53.1306022,2.29868195 53.4131758,2.19178333 C53.597709,2.48829705 53.7652607,2.78435877 53.925114,2.99815601 C54.0059464,3.10663664 54.0883636,3.19703717 54.184819,3.2713916 L54.3924472,3.42190847 C54.486412,3.48835286 54.5835467,3.5480172 54.6827191,3.60067551 C54.8735921,3.9430675 54.3895038,3.63593171 54.3677673,3.82057479 C56.0747563,5.08550413 55.8023716,4.93385725 57.3189404,5.85684661 L58.1836427,7.07047366 C57.6203069,6.10680406 58.8346035,6.84379434 59.8851975,7.50213617 C59.7117589,7.13465803 59.565038,6.8187082 59.450469,6.62299106 L60.959113,7.84159014 C61.0802483,8.05018935 60.8502044,8.00476308 60.5151011,7.89334444 C60.631708,7.96204884 60.7417487,8.02758922 60.8293737,8.07889151 C61.2179123,8.66491292 60.8103543,8.56682835 60.3108693,8.36704319 C60.2015079,8.14669191 60.0912408,7.92588863 59.9855021,7.71118738 C59.4844321,7.53761837 58.9887963,7.40246959 58.902077,7.6293749 C59.0220802,7.68700524 59.219293,7.83074207 59.4226192,8.00363308 C59.2899364,7.95956282 59.1939338,7.94306473 59.2081983,8.01041312 C59.2265385,8.08499355 59.4280533,8.16771003 59.7199101,8.32229493 L59.7314576,8.93023846 L59.9257269,8.8866202 L61.5235809,10.8557696 C63.102189,11.8309653 64.6558908,12.4983472 66.8068916,14.3990182 C66.0855139,14.1158386 66.3413698,14.6482977 66.0544942,14.880401 C65.7757698,14.0539142 64.366751,13.4292466 63.3714037,12.3245522 C63.8914931,12.9006295 63.6469583,12.9040195 63.46401,12.807517 L65.5885195,14.4290764 C65.3335693,14.5988034 65.8276202,14.9852656 66.2292913,15.561343 C66.2793304,14.7732764 67.9068455,16.6771114 68.7975862,17.3101411 C68.7045271,17.4979482 68.3771222,17.45885 67.4807209,16.4963104 C68.1916833,17.8362722 69.2997883,17.3284472 70.0392797,18.6021906 C69.808783,18.3786753 69.7080256,18.2351645 69.5465873,18.2168584 C70.2025294,18.6216267 71.40075,20.0156028 70.9725876,19.8334458 L70.7434495,19.6101565 C72.2011487,21.1650455 75.3314209,24.1964011 75.9133232,24.0648683 C75.8818507,24.1261147 75.2859103,24.2965197 75.1224342,24.2773096 L79.013255,25.7668842 C78.4696178,25.8358146 78.6512076,27.4718381 77.2276979,26.3956199 C77.5426497,26.7976762 77.9363961,27.2921671 78.8013248,27.9398868 C78.6000364,27.6519612 78.6333203,26.8887547 78.9962734,27.1952125 C79.5738737,28.4522318 79.4516063,28.0137893 80.2936665,29.4342075 C79.9927528,29.002093 80.8805501,28.9304506 81.4459236,29.5250601 C81.282674,29.5060759 81.0200255,30.0462191 80.7576034,29.8844021 L82.6733526,30.8557558 C82.2282087,30.5807122 82.2107742,31.1906897 82.4005151,31.6463084 C82.3427778,31.404713 83.6403973,32.9015197 84.0717295,33.2391656 L83.5688482,32.5191254 C85.1291162,34.2182033 85.8430221,33.4656189 87.4358948,35.1052585 C87.1426794,35.0069479 86.3533753,35.2202931 87.1168674,36.1007942 C87.7352235,36.235943 89.9469051,36.6086192 91.5640049,37.8523044 L91.7005368,38.2638528 L92.9564949,39.2033403 C91.9090707,38.8830964 89.2262067,37.7300377 87.8810387,36.9808433 C88.3814294,37.6988495 87.8885106,37.3128393 88.8147995,38.2123245 C89.0081631,38.6638751 88.1201394,37.9110648 87.8432264,37.6502592 L89.8882621,39.8573881 C90.0761916,39.4817739 91.7983507,41.1998358 91.9516379,40.884564 L89.3484741,38.8690843 C89.5359508,38.4948261 91.4838518,39.4049334 92.9424567,40.9593705 C93.2137093,41.4543133 92.1542848,41.1738457 92.0917925,41.2988244 C92.3845551,41.397135 93.7077602,42.5422836 93.7774979,42.7493008 L92.9870617,42.261138 C93.7204398,43.2044675 94.7300516,43.2557698 95.4713544,44.5310952 C95.8010236,44.8960873 96.1467686,45.9307213 96.3743219,45.8242747 C96.12707,44.9367675 97.0112445,43.8334291 97.6305063,43.9706119 C97.7312637,44.1136708 99.1518299,46.1018043 99.3907042,46.6568635 C99.7113166,47.4804123 97.9282501,46.396962 98.2008612,47.1005041 C98.2984487,47.0446818 98.7103087,47.2657111 98.8731055,47.3671857 C99.1728871,47.7977182 98.4836612,47.4539702 99.3128154,48.2124306 C99.7305624,48.0598797 100.903877,49.8493581 99.9289073,48.3462233 C100.787949,49.0409514 100.696248,49.2292105 101.621858,50.1277917 C101.569102,49.8904903 101.930017,49.9384026 102.4132,50.1323117 C102.654112,50.2294923 102.925591,50.3630591 103.190957,50.5156099 C103.453152,50.6656748 103.710593,50.8369838 103.95943,51.044905 C103.828106,51.0586911 103.901013,51.3201746 103.924335,51.4293333 C104.329855,51.8485657 104.668807,52.2151398 104.962249,52.5414857 C104.470462,52.9769902 104.032111,53.3659385 103.577005,53.7700288 C103.155635,54.142931 102.642791,54.6184378 102.105946,55.1522529 C101.899903,55.2200533 101.099505,55.8521789 101.282453,55.4245845 C101.119203,55.688554 101.018899,55.9805477 100.568773,56.4452064 C99.4346299,57.0838861 101.551441,55.3870682 100.578736,55.7653944 C100.686739,55.9889097 99.6225595,57.1767726 99.0737146,57.931617 C99.5310853,57.9872133 100.630586,56.4759426 101.18079,55.7201942 C101.53695,56.0702702 100.769609,57.5749869 99.3809681,59.2883029 C98.2345979,60.6072465 98.6172496,59.5938567 98.4535472,59.8578262 C96.073861,62.1101553 97.0956996,62.4448632 94.9161698,64.1113969 C93.9278415,64.648602 94.4341192,63.6989445 94.1015065,63.7050465 C95.0221349,62.6168502 95.7885704,62.3072284 96.4601355,61.6188284 L95.5155065,62.3497167 C95.7598149,61.9555704 96.3743219,61.2292022 96.8052013,60.9297504 C95.9629147,61.366159 92.8507562,64.7988929 90.8756846,66.3978522 C90.633414,66.7897385 90.1629109,67.4153101 90.512958,67.2469391 L91.0477647,66.6502956 C91.7494438,66.3126497 90.2337807,67.9644933 91.0344058,67.3339496 C90.4035966,68.2189708 89.7530886,69.2687468 88.5827178,70.2326424 L88.124215,70.1763681 C88.2227082,70.2290264 88.9757849,69.632609 89.197904,69.2542828 C88.8664235,69.81228 87.2119643,70.5427162 87.0604885,71.365361 L87.9863245,70.7953857 C87.3541567,71.6847009 86.6846294,72.8976499 85.6573567,73.7616529 C86.3422807,73.5851459 85.8466448,73.5144075 86.8159537,73.1396973 C85.8640792,73.3528166 89.2540565,70.7366254 87.9288136,71.2853566 C88.9635581,70.9402526 89.2699059,70.2380665 90.4658624,69.6308009 C90.3537839,69.5743006 89.9847175,69.7878719 90.8213436,69.0361915 C90.8324382,68.9751711 90.8856472,68.8599105 90.9207424,68.7875901 L90.9809705,68.7396778 L90.9273086,68.77403 C90.9490451,68.7265697 90.9490451,68.7211457 90.90761,68.786686 C90.6814153,68.9387849 90.4830704,69.0477176 90.3728033,69.0621816 C90.573186,68.4741262 91.8431821,67.2182369 92.1710399,66.6914279 C92.6825253,66.2606694 92.0702825,66.9856816 92.4185182,66.8188926 L92.9069086,66.031278 C93.1577832,66.1555788 94.4719315,65.0924686 93.4711501,66.3112937 L94.4796298,65.3214079 C95.1742899,64.8388951 96.0263126,64.0725247 96.4470031,63.4946393 C96.9587148,63.0645588 97.4298972,62.0979512 97.1661166,62.6545924 L98.6186082,60.9724647 L98.679289,61.0059129 C100.250199,59.484698 101.554385,57.5144186 103.662592,56.0872203 C103.899428,55.8033627 104.137397,55.512951 104.433103,55.1911251 C104.626014,54.9843339 104.923305,54.6799101 105.206105,54.4005725 C105.499094,54.1101608 105.826046,53.797827 106.200546,53.449107 L106.763429,53.2127096 C106.940717,53.0167665 107.163063,52.7921212 107.419824,52.5414857 C106.834525,51.9437122 106.173376,51.211242 105.560454,50.5675902 C105.255917,50.2468944 104.966098,49.9519627 104.721111,49.7218933 C104.561484,49.5783825 104.448952,49.5031241 104.350912,49.4750999 C104.067659,48.3175212 101.200488,46.1393205 100.100987,44.8872733 L99.8442258,45.0551922 C99.0469969,44.2348075 98.2094652,43.5197393 97.1187946,42.601722 L96.9935837,42.8510014 C95.9717451,42.1400013 94.8985089,40.4938077 93.5085096,39.1443539 C93.6733442,39.165598 94.0025605,39.5317202 94.2054338,39.8203238 C92.9922694,37.7623559 90.440956,36.6795836 89.2646983,34.8887492 C88.8256677,34.5874895 88.5811329,34.2963998 88.3692027,33.990168 L88.4708658,34.0719805 C88.4339591,34.0335602 88.3778067,33.9766079 88.3214278,33.9182996 C88.1898771,33.7225824 88.0599114,33.5171472 87.9066243,33.304932 C88.016665,33.5053952 88.1264792,33.6911682 88.2392369,33.8373911 C87.9494179,33.5562455 87.4934057,33.1471831 87.0222233,32.7706649 L87.0426012,32.3889487 L86.9391268,32.2967401 C86.5972309,31.8067693 86.5087002,32.0578568 86.5784379,32.4312109 C86.3325446,32.2510879 86.0963873,32.095373 85.8964575,31.9925424 C85.8826458,31.3299065 84.6731041,30.9906786 84.5592142,30.1831759 C84.1038813,30.0665592 82.2979464,28.1808042 81.7153648,28.310755 C81.7479694,28.2499606 81.644495,28.1030598 81.8765766,28.3290611 C81.4441123,27.8160381 81.0121007,27.3036932 80.4865773,26.9807373 L80.5431826,26.5239886 L79.1647307,25.8373966 C78.6935483,25.0547541 78.5237325,24.7046781 79.3442827,25.1293345 C77.5367628,23.9303976 78.0097565,24.0248661 76.4286577,23.0480884 L76.6573431,22.9443538 C76.1934062,22.4943852 75.2399468,21.9865603 75.1009242,21.5743339 C74.3931317,20.2379881 70.0820733,16.4773263 67.7481243,13.5632654 C67.7694079,14.5592531 66.74689,12.125897 66.2637073,12.3998106 C66.2263478,12.1322251 65.925887,11.7012405 66.4516369,12.0260044 C64.9977867,10.8013033 64.6207956,9.8328877 63.3759322,9.22788219 C63.3385727,8.95871462 63.8321707,9.34517687 63.7644708,9.14019368 C63.631788,9.0581552 63.2382681,8.81565579 63.1673983,8.60728258 C63.0999248,8.4027514 63.4603872,8.70649716 63.7234886,8.8680881 C62.3343949,7.52112028 61.8405704,7.73808154 61.4072004,7.97221889 C60.8705823,7.12177596 60.5019687,6.79836808 59.7821759,6.51677044 C59.6497196,6.16669441 59.3610326,5.65005541 60.2506412,6.46027012 C59.7885157,5.96645725 57.4867185,3.38213224 57.1706345,3.60067551 C57.0884437,3.38326225 56.5214852,2.91317952 56.3650282,2.81780696 C55.7835787,2.21619147 55.4668155,1.88826357 55.1534487,1.56372568 C54.7667214,1.16799738 54.3732014,0.775659104 53.6615598,0.0897451212 L54.0417209,0.557567838 C53.8134884,0.558697844 53.6269174,0.456997254 53.4131758,0.260602113 C53.0404866,0.663788455 52.5308127,0.981772301 51.8501907,1.71153054 L51.8553984,1.64011412 C51.5429373,1.90137164 51.2918362,2.11064886 51.0871515,2.28150585 C50.9137129,2.4279547 50.7828415,2.54502338 50.680952,2.64288195 C50.4758144,2.83792108 50.3845667,2.95521576 50.2926397,3.07047643 C50.1092386,3.30099777 49.9253847,3.52451307 48.8304121,4.35145187 L49.136307,4.44750243 C49.388993,5.05770597 47.1773114,5.89391083 46.2263426,7.17307825 L46.7439413,6.88515258 C46.2822686,7.64135297 44.4521066,7.99956505 43.7857492,8.55665829 C43.6150276,8.65248285 43.9363192,8.28613472 44.0950405,8.07256348 C42.2370286,9.41772329 44.1502872,8.54264621 43.0172759,9.79582348 C42.6547756,9.87401994 42.9398398,9.15217175 42.1097799,9.92826025 C41.5939926,10.2132479 40.2386357,12.7157604 38.8696935,13.5386312 C39.2210991,13.4066465 39.5700141,13.2762437 39.0976996,13.9119854 C38.2859798,14.7997185 36.384948,15.7936723 35.9619933,16.9046948 C35.8238764,16.9826652 35.754818,16.9948693 35.7226662,16.9722692 C35.1615946,17.7097114 33.7582364,19.2284403 33.5535517,19.8058736 C32.2588756,19.7125351 29.8502076,24.176513 29.2243796,23.5229172 L27.2588177,25.552861 L27.2459117,25.4355663 C25.9258765,26.6688555 25.6270006,27.273183 25.3317475,27.8747985 C24.9923422,28.1261119 25.1485728,27.8512943 25.1395159,27.793438 C23.1427079,29.5286761 22.9842131,29.7411173 21.7377648,31.6221262 L21.3673398,31.577604 C21.0634827,32.1213631 18.3414478,33.9474537 16.7521978,36.0173998 C16.7467637,35.9758155 16.7444995,35.8978451 16.8606536,35.723372 C15.0438504,38.0233874 11.3511481,40.0723153 11.3525066,41.5813261 L10.1791923,43.124463 C11.997354,41.4271932 10.2450809,43.7136484 11.0946129,43.116553 C10.4470485,43.8515092 9.07765348,44.674154 9.88892041,43.7868729 L10.0596419,43.6921783 C9.97790391,42.9866022 7.73384405,45.7345522 7.51308344,45.4192804 C6.42263926,46.5201327 5.31725128,47.5877629 4.21276899,48.635053 C3.65418805,49.1614101 3.09832416,49.6848291 2.54563017,50.2050841 C1.72666493,50.9884047 0.911775266,51.7672052 0.102546132,52.5414857 C0.973135394,53.444813 1.83602634,54.3404562 2.69257749,55.2290933 C3.28715939,55.8406529 3.87676002,56.4470144 4.46205865,57.0488559 L4.395038,56.3699479 L5.50835072,57.5164526 C5.73409259,57.8846087 5.66729835,58.1535503 4.87301301,57.3356516 C5.12388763,57.932521 6.3716945,58.5413686 6.46158369,58.4975243 C7.91701875,60.1988622 5.48706713,58.2385268 5.96413646,58.7296276 L6.64521123,59.3633353 L6.53245351,59.1793703 C7.19111259,59.5870766 7.37111739,59.5014221 8.32593531,60.4849798 C8.87840288,61.1586898 8.45159904,60.9878328 8.6814165,61.2407282 C8.65832154,61.2606163 8.7296442,61.3525989 9.04323747,61.6192804 L10.4420672,63.0681748 L10.1144359,62.2579601 C10.8652483,62.7689491 11.4417165,63.60764 11.0583856,62.6780966 C11.6006642,64.0634846 16.222146,68.1355763 16.6838187,68.8576505 C17.7446017,69.5648086 18.6149645,70.4398856 19.6752947,71.540738 C19.4567983,71.2220762 19.5677446,70.7899617 20.4677687,71.7538573 C19.565254,71.9742086 21.932487,73.7033446 22.2827605,74.8584373 C21.8765609,73.9187238 25.0011726,77.4398243 24.3243998,76.005394 C25.057325,76.8275867 24.1613766,76.2614535 24.6198794,76.9833016 C26.6905007,78.6163871 28.5620978,81.2002601 30.925708,83.413491 C31.0352958,83.3755228 30.7642697,82.8803539 31.3654179,83.2613921 L32.2063459,84.8357172 C32.6947363,85.2511077 33.0479533,84.8266772 33.6185346,85.9069635 C33.5641935,85.7291004 33.4833611,85.4615149 33.8103133,85.7408525 C37.9379705,90.5784106 43.2729053,94.5989739 47.1551221,99.8214123 C46.6805434,99.0622739 47.1059887,99.4589062 47.5826052,99.9237909 C47.3106734,99.5841109 47.7716668,99.7488658 47.8112905,99.5890829 L49.4417491,101.769996 C50.0666715,101.840508 51.5058042,103.793385 51.9699675,103.727619 L51.3181011,103.171882 C52.4345837,103.661627 50.8892594,101.356187 51.4077638,101.073008 C50.1529379,100.530152 49.562658,98.1799647 47.5778503,97.2142611 C47.3337684,96.8076848 47.9849555,97.362744 47.9034439,97.0958364 C47.3575426,96.8935653 46.8700579,96.4786269 46.1099621,95.5660336 L46.2471733,95.6180139 C43.8527698,93.3118965 43.0138795,92.1364636 40.484529,89.3860277 L40.4813591,89.77927 C39.9404391,89.1860165 39.8829281,89.0043115 39.6669223,88.6894916 C38.7143686,88.3391896 41.2448512,90.298847 40.3190152,90.0375895 C39.9696474,88.8822707 36.3210972,86.0342022 36.2708317,85.0673686 C35.3995632,84.1931955 36.2970966,85.5528194 35.4265073,84.6786463 L35.3189573,84.3233723 L34.9383434,84.2625779 C34.3922156,83.6641264 34.2584007,83.2211639 34.3421765,83.0948291 C34.4687459,83.246476 34.7667161,83.4598213 34.9245317,83.5994901 C34.3281384,82.7122089 32.7805499,81.5589242 32.5731482,81.2572125 L33.3361874,82.1713878 C30.8355924,79.9070806 28.0879719,76.8393388 25.5323566,74.7922189 L25.6131889,75.0607085 C23.6813638,73.4775693 24.3076447,73.5516977 22.2961193,71.704137 L22.3887256,71.7513713 C21.9091656,71.4591516 21.3458298,70.9911028 20.8280047,70.4529937 C21.4253036,70.8299639 20.1238349,69.3243432 20.88461,69.8414342 C18.791573,68.1238242 19.7950715,69.0456836 18.1874814,68.1355763 L18.052308,67.6908057 C17.4821796,67.402428 17.3723653,67.4408482 16.3677347,66.5178589 C17.2922122,67.1743927 15.9889322,65.6674159 17.0513002,66.37593 C15.3674062,64.0171544 13.7032108,63.7190586 13.2716522,62.2961544 C11.9119932,61.7973695 14.7841453,64.2829319 14.1714497,63.8548854 C14.4669293,64.4305108 13.0830434,63.4096628 12.4911785,62.7330149 C11.8540294,62.0780631 11.9421073,61.0868213 10.3073467,59.471364 C10.4672,59.6352149 10.5106728,59.6132928 10.6705262,59.7764657 C10.1712676,59.0593636 9.32920736,58.7341477 8.76089031,57.8113843 C8.0825326,57.6534094 7.80675165,56.8289566 7.35436223,57.0398158 L8.922555,58.452324 C7.99015277,57.6947676 6.80936656,57.2906773 5.60435328,55.7116061 C5.77960324,55.7534164 6.28225816,56.0793103 6.61622933,56.3150296 C6.30648522,55.8103687 5.76692365,55.5963455 5.4449528,55.0745084 C5.89734223,54.8631972 7.33013517,56.8117805 8.48941137,57.4640203 C8.19212042,56.8877169 6.53494414,55.9932038 7.34960738,56.0888023 C6.23787961,55.8917292 5.8049624,54.4315347 4.35450862,53.6805323 L4.62598756,53.5548756 C4.52658868,53.4895612 4.37216946,53.3887646 4.19873088,53.275086 C4.10114337,53.2314677 3.98883848,53.1641193 3.91276098,53.0823069 C3.91276098,53.0823069 4.07080293,53.111461 4.2032593,53.115077 C4.27027995,53.1175631 4.3318665,53.114851 4.37601862,53.110557 L4.48854993,53.1424232 C4.05087787,52.9907763 4.0071786,52.7010426 3.99019701,52.5414857 C4.16023928,52.4495032 4.26643079,52.3907428 4.29088428,52.2822622 C4.13193664,52.4449832 4.01668828,52.5132355 3.91389309,52.5414857 C3.87177876,52.5799059 3.74249229,52.5636338 3.61207372,52.5512038 C3.4843722,52.5421637 3.35621783,52.5367397 3.4008228,52.6800245 C3.32927372,52.6294002 3.26225306,52.5819399 3.20428925,52.5414857 C3.37750142,52.2833922 3.58807308,52.0987491 3.76581367,52.0042806 C3.947177,51.906874 4.10861526,51.8863079 4.25624184,51.8844999 L4.31284713,51.8829179 L4.40749116,51.8431417 C4.47088908,51.8137615 4.53655121,51.7830253 4.60696818,51.7502551 C4.74553792,51.6810987 4.89656081,51.5940882 5.06773519,51.4745335 C5.41031037,51.2356501 5.83417073,50.867268 6.4027142,50.2543524 C6.09613998,50.6168585 5.02652654,51.389557 5.45831165,50.7750595 C5.96979699,50.346109 6.66762693,49.8018978 7.06092044,49.6174807 C8.65764228,47.941229 6.60468185,49.664489 7.18001795,48.8463643 C7.97996382,48.5315444 7.88577263,47.945297 8.52654444,47.1511284 L8.73349336,47.3475235 C10.7300749,45.6138675 8.80753307,46.4331222 10.6447142,44.9121334 L10.2147404,45.9006631 L11.0185354,44.9534916 L11.0676688,45.36391 C11.8504067,44.2422655 12.1913969,43.9898221 13.1901405,43.121751 C12.8303574,43.1965574 12.9451529,42.6340402 13.7657031,41.8023553 C14.4497213,41.3589408 13.6420771,42.3092763 14.7848246,41.1103393 C14.6471605,41.5006436 14.5158363,41.9485782 13.8195913,42.2717601 C13.8331766,42.3897328 13.68555,42.6591263 13.6966446,42.777777 C14.4422494,42.3092763 15.254422,41.2852643 15.6769239,40.8601559 C15.5059759,41.0158708 15.3001591,41.1998358 15.1708726,41.2712523 L16.5898539,39.2953228 C16.9333347,39.1041257 16.7820854,39.3769093 16.6317418,39.6463028 C16.9539391,39.2808587 17.099075,38.9504448 17.5879182,38.4283818 C17.6212021,38.7226355 17.8220377,38.8607223 17.1833037,39.6528569 L18.6199458,37.8550164 C18.7992713,37.8184042 19.6467656,37.2217607 19.4971012,37.4918323 C20.4913164,36.6922397 21.3802458,34.9762117 22.6973376,33.9155875 C22.7274516,33.822023 22.8209635,33.6681161 23.0505545,33.3919425 C24.2057552,32.3130122 25.3980889,31.5249457 26.4982691,29.9772887 L27.5447876,29.520766 C28.5163607,28.4174276 26.1559204,30.1664518 27.7732466,28.3301911 C28.903088,27.0150895 28.4812654,28.1249819 28.9925244,27.7785219 C29.4526121,27.0227735 30.2086323,25.6651836 31.5725932,24.7819705 C31.25583,25.209113 30.9205003,25.4568104 30.5946803,25.8254186" id="Fill-158"></path>
                    <path d="M41.4350676,42.9031851 C41.2863089,42.6247515 40.8984495,42.1411087 40.9011666,42.021554 C40.9149783,41.2976718 41.1937027,41.159359 40.9079592,40.2266516 C40.8542974,40.0526306 40.496552,40.1364771 40.4313427,39.8429014 C40.3047733,39.2758641 39.2788591,39.8788356 38.7189197,39.7188266 C38.5839727,39.6801804 38.3514382,39.3240024 38.2518129,39.2247878 C38.1573953,39.1307712 37.8109709,38.8948259 37.7779134,38.7655531 C37.6472685,38.2556942 38.0009383,36.9704247 37.3250712,36.8312079 C37.153444,36.7959517 37.1994074,36.2171623 36.6904127,36.0797535 C36.4483685,36.0146651 35.707745,36.1215638 35.3864534,36.1385139 C35.0767093,36.154786 35.463663,35.6609731 34.5749601,35.4641259 C34.3700489,35.4184737 34.5563935,34.7425038 33.5963679,34.7214856 C33.1865457,34.7124456 33.0656368,33.8959028 32.5568685,33.8113783 C32.1013092,33.7358939 29.7904551,33.5663929 29.7823039,34.0274356 C29.7752849,34.4168359 29.489315,34.1345602 29.489315,34.3264353 C29.489315,34.6744774 28.5911023,34.5528886 28.3128308,34.9187848 C27.0539293,36.5719844 26.7407888,36.1841661 26.3499859,36.6192186 C26.0939036,36.9042063 24.7383203,36.7116532 24.8069259,37.0624072 C25.0168183,38.1345574 24.3223847,38.1119573 24.4367274,38.7011427 C24.5848068,39.4654792 24.8669275,39.1083971 25.3870169,40.5125433 C25.7205352,41.4122545 26.4416865,42.1632568 26.9074348,42.1151186 C27.1524224,42.0895804 27.2020087,42.5827153 27.4979411,42.5705112 C27.8692718,42.5546911 28.4163052,42.5103949 28.7876359,42.5228249 C29.0860589,42.532769 29.5699209,43.0186718 29.8685704,43.0263559 C30.3497153,43.0385599 30.2980913,42.4918628 30.6214206,42.4346844 C31.0412054,42.361008 31.3498174,41.9912698 31.8805486,41.9539796 C32.6166437,41.9031293 33.8510917,41.8583811 34.3988044,42.2500413 C36.1028499,43.4681884 38.5081216,43.6218693 41.2007217,43.5438989 C41.4183124,43.5375708 41.5340136,43.0880542 41.4350676,42.9031851" id="Fill-160"></path>
                    <path d="M38.1515083,50.9859413 C38.7250331,49.9974115 37.4973777,50.8749746 37.7505165,49.8835069 C38.1773203,48.2095152 37.6579102,47.9057694 36.2787791,48.0418222 C35.2551292,48.1428448 35.2114299,48.4176624 34.5283173,48.4786827 C33.6950875,48.5525851 33.6796909,48.700616 33.1118267,48.6450197 C32.6395122,48.5986894 32.7857803,48.4653486 32.2860688,48.3729141 C31.3403077,48.1979891 31.7571491,47.498063 30.732367,47.499193 C30.102237,47.499645 29.7725678,47.9679198 29.1768538,48.2016051 C29.03285,48.2578794 28.8503545,48.2510994 28.6952561,48.2567494 C28.5279308,48.2628515 28.1731289,48.0761744 28.0105585,48.0350421 C27.0820055,47.8011308 27.2977848,47.8540151 26.5290851,48.4233124 C25.9548811,48.8481949 25.349431,48.2330193 24.9423258,48.6215155 C24.3769522,49.1593987 24.122002,48.9776936 24.0663024,49.9203451 C24.0083386,50.9041288 23.9868286,51.1005239 23.4185115,51.3986197 C22.9774431,51.630723 22.9231021,52.1267959 22.9310268,52.2585547 C22.9437064,52.4599218 22.8612891,55.3450546 22.94348,55.5294717 C23.2808475,56.2931301 23.0664267,56.8698854 23.3442454,56.9991582 C24.0871331,57.3449402 24.248345,58.0130001 24.8777957,57.8647432 C25.5267187,57.7126443 25.1843699,57.3756764 25.868841,57.0590485 C26.5630482,56.7379007 26.6341445,55.6144482 27.3068417,55.409691 C27.9623308,55.2101318 28.2695843,54.3931371 29.0249252,54.2796844 C29.2927814,54.2392302 30.4296419,53.0999576 31.4729905,53.3765832 C33.4102498,53.8898321 33.507158,53.001421 34.3247647,52.9883129 C35.4543798,52.9697808 35.6015535,52.3568652 36.2923644,52.3765274 C36.7606033,52.3900874 37.1871807,52.1593401 37.4726978,51.5283444 C37.6479477,51.1405262 38.0154292,51.2200786 38.1515083,50.9859413" id="Fill-162"></path>
                    <path d="M45.8413135,50.7036656 C45.455039,50.3583356 46.2774006,48.7819765 44.7193967,49.9827215 C43.6434435,50.8116943 42.823799,51.6759233 42.1388751,52.6922512 C41.7453551,53.2757866 41.0534121,54.5714521 39.7503585,55.7238328 C39.0217353,56.3679365 39.1308703,57.2477596 37.4354288,58.6627539 C35.1766516,60.5476048 34.7985283,62.4448858 33.0657274,64.539692 C32.4088797,65.3338606 31.6791243,66.4634152 31.0632588,66.958584 C29.0843381,68.5507633 28.3620547,70.4543723 27.5473915,70.7685142 C26.2065255,71.2862832 27.6216576,74.6864729 28.121369,76.1100552 C28.4696048,77.1010709 29.8709252,77.5542036 30.9756339,77.6412141 C32.4684284,77.7589607 33.5455137,77.794669 34.0794148,77.0246825 C34.5182189,76.3927828 34.0203189,75.730825 34.9599666,75.1868398 C35.7277606,74.7434252 36.3732873,73.8310579 36.9538311,72.6535911 C37.825326,70.8851308 38.5541757,68.5200271 39.3242339,66.2403519 C39.8610785,64.6511106 40.8611806,64.2626144 42.2869545,61.7680119 C43.093693,60.3559557 42.7735335,59.3667479 43.3977766,58.4778848 C44.0790778,57.5083392 43.6013292,56.7595968 44.1569666,56.0935709 C45.5458339,54.4299753 44.5926009,54.7508971 45.0830291,52.6004947 C45.3606214,51.7866639 46.2678909,51.0847039 45.8413135,50.7036656" id="Fill-164"></path>
                    <path d="M76.8256419,58.5179096 C76.1669828,58.5179096 75.2979785,58.5554258 74.6452064,58.4591493 C74.4928249,58.4365491 74.5091273,58.0774331 74.3551609,58.0349448 C73.9756791,57.9300802 73.5135535,58.0503129 73.0921838,58.060709 C73.1456192,57.8378717 73.1920355,57.5924342 73.2259987,57.3022486 C73.2499993,57.0995254 73.5013268,57.041669 73.5534037,56.8778181 C73.6799731,56.4811858 73.5642719,56.5435622 73.7071436,56.2029782 C73.874016,55.8040859 74.3859542,55.7900738 74.518637,55.3529872 C74.5636948,55.2054084 74.5804499,54.4776842 74.5016554,54.1780064 C74.4464086,53.9682772 74.431012,54.0277155 74.2283651,53.7829561 C73.9254136,53.415704 74.0848141,53.2669951 73.5989143,53.1729786 C72.7595712,53.0109356 72.6893806,52.8231285 72.155706,52.73205 L72.0137399,52.733858 L71.9897393,52.7462881 L71.9012086,52.8468587 C71.6867878,53.1756906 71.6480698,53.5284786 71.4080634,53.8570846 C71.2029259,54.1373262 71.0600541,54.1278341 70.8397464,54.4116918 C70.6995917,54.5922668 70.7641217,54.8105841 70.6226085,55.0176013 C70.4634344,55.2517386 70.4109047,55.1590781 70.2476551,55.3905035 C70.1344445,55.5500604 70.2623725,56.6660549 70.2476551,56.8943162 C70.197616,57.6582006 69.4388788,57.2749024 69.3272532,57.5985363 C69.2135898,57.9275942 69.0503401,57.9714384 68.9190159,58.067489 C68.7856538,58.1648956 68.8105602,58.6234522 68.6178758,58.8101293 C68.5397605,58.8858398 68.4473807,58.9446001 68.3495667,58.9940944 C68.1854114,58.3879589 67.8801957,57.9413803 67.8530252,57.714927 C67.7814761,57.1241595 67.4862229,56.5733943 67.5564135,56.2477264 C67.7712871,55.2433766 68.1485048,55.2535467 68.3461704,53.9061268 C68.4109269,53.4672323 68.4050399,52.7700182 68.3930396,52.037774 C69.3829528,51.9907657 70.3649412,51.9647756 71.3591564,51.9853417 C71.686335,51.9921217 71.6107103,52.3647979 71.9505684,52.3971161 C72.191707,52.4199422 72.3114837,52.7806403 72.7473444,52.8034664 C73.4517406,52.8405306 74.4185588,52.8787249 74.9323084,52.8414347 C75.2565434,52.8179305 76.3467612,52.8622268 76.4137819,52.5446949 C76.4466129,52.386946 76.9141726,52.2443392 77.0058731,52.7119359 C77.1190837,53.2841712 76.8976438,54.5301165 76.8951532,54.8365742 C76.8768131,56.7404093 76.7280544,57.6462226 77.2465588,58.3115704 C77.2981828,58.3766588 77.3375801,58.4320291 77.3812794,58.4910155 C77.2028595,58.5050275 77.0190055,58.5179096 76.8256419,58.5179096 M62.526468,58.9940944 C62.2386867,58.8148753 62.3102358,58.5267237 61.6930118,58.4779074 C61.4455335,58.4577933 61.3015297,58.1850097 61.0452209,58.1818457 C60.4250534,58.1746136 60.4130531,57.9777665 60.1483668,57.9194581 C60.1628578,57.7461151 60.176443,57.6674667 60.1513103,57.4482454 C60.1295739,57.2534323 60.2246707,57.0450591 60.3589385,56.869908 C60.5686044,56.5984805 60.6713996,56.4963279 60.7483828,56.2045602 C60.7993276,56.009295 60.9648414,55.9414947 61.0889202,55.8477041 C61.1779037,55.7803557 61.3834941,55.4931081 61.4310425,55.3954755 C61.5408568,55.1663102 61.8245625,54.0570957 61.7480321,53.7829561 C61.5628196,53.1176083 61.2317919,53.1239363 61.0997884,52.8466327 C61.0388811,52.7180379 60.9234064,52.6242474 60.7746477,52.558933 C61.1122416,52.4027661 61.1539031,52.1878389 61.3964001,52.212247 C61.6259911,52.2348471 61.9266784,52.4260442 62.1558166,52.4156482 C62.4558246,52.4018621 62.7479079,52.385138 63.0399911,52.3688659 C63.038859,52.561871 63.038859,52.7451581 63.0375005,52.9420052 C63.0343306,53.4419201 63.4337375,53.6353773 63.452304,54.3558694 C63.4812859,55.5021481 63.5224946,56.3186908 63.5252116,57.3440588 C63.5265701,57.8539178 63.9723934,57.4496014 63.9633365,59.1877775 C62.8577221,59.106191 62.965725,59.269138 62.526468,58.9940944 M57.0631524,57.8308656 C56.9947733,57.9917786 56.966697,57.9156161 56.8512223,58.0466969 C56.7280492,58.1850097 56.4882692,58.4833314 56.3417747,58.5961061 C56.075277,58.8033493 55.8119492,59.1785115 55.5449987,59.3857547 C55.3964665,59.5014673 55.2468021,59.617406 55.1218176,59.7591088 C55.0024937,59.8947096 54.8442253,60.0108743 54.731694,60.1543851 C54.7239957,59.8174172 54.718788,59.5037273 54.6934288,58.9949984 C54.671466,58.5626579 54.6664847,57.6211364 54.896755,57.0911633 C55.0609103,56.7153231 55.4551095,56.7295612 55.5449987,56.4628797 C55.9353488,55.305527 56.2761126,55.4180756 56.9522061,54.6146409 C57.4084447,54.0733678 57.7489821,53.4871204 58.4893792,53.3580737 L58.6256847,53.3164894 C58.5518714,53.3811258 58.4651521,53.4457622 58.3424318,53.5101725 C57.9448363,53.7185457 58.1556344,55.7238554 57.9609122,56.0431952 C57.79087,56.3202729 57.7417366,56.9544325 57.589808,57.1948979 C57.4829372,57.3643989 57.2030807,57.5038417 57.0631524,57.8308656 M60.9890685,40.1060347 C60.9566903,39.6773102 61.1194871,39.7932489 61.1654506,39.5335734 C61.2317919,39.1647392 61.0241638,39.3107361 61.0191825,39.127675 C61.0146541,38.9238218 61.0058237,38.7041486 60.996314,38.4799553 L61.0345791,38.4790512 C62.8903268,38.4795033 61.6551995,38.0112285 63.3033189,38.1549654 C63.947487,38.2110137 64.7639616,38.0270486 64.9070598,37.742965 C65.0682716,37.4213651 65.9841451,37.6286083 66.6742768,37.6545985 C67.1031184,37.6704186 67.4556561,37.6136922 67.618,37.9434281 C67.7801176,38.270678 68.1731847,38.261186 68.2474508,38.257796 C68.6740282,38.2392639 68.4478335,38.5093354 68.5449682,38.5301275 C68.5105522,38.6946565 68.4711549,38.8618975 68.44489,39.0214544 C68.3925867,39.3468963 68.0599741,39.0650727 67.9415558,39.5936897 C67.8858562,39.8434212 66.0106364,39.4580889 65.8392356,39.7430766 C65.7584033,39.8777734 65.8369714,40.0319063 65.5226989,40.0739425 C64.5810134,40.1991472 62.449032,40.0493084 60.9890685,40.1060347 M84.3756546,61.7485984 C84.3652393,60.1907713 84.6251707,60.1146089 84.434977,58.3158644 C84.4209389,58.1868177 84.3570881,57.4425954 84.0244754,57.4242893 C83.7799406,57.4109552 84.1170817,56.684813 83.5797843,56.518476 C83.3477027,56.4461556 83.4846875,56.0138151 83.2648325,55.9087245 C82.8396136,55.7053233 82.7902538,55.133088 82.7463281,54.8365742 C82.6163624,53.9562991 82.6095698,52.208631 82.5975695,51.177387 C82.5799086,49.4952592 83.010788,48.6256062 81.8761917,47.6099563 C81.6160338,47.3774009 81.3579137,46.7782714 80.6723105,46.7597393 C80.027916,46.7423372 79.9889716,46.4713617 79.5610356,46.3900012 C78.9189053,46.2679605 78.6465207,46.3355349 78.0619013,46.5748703 C77.3393914,46.870706 76.8668505,47.5017016 76.3211756,47.5175217 C75.0434811,47.554586 74.8021162,48.0904351 73.876733,47.9980005 C73.4730242,47.9577723 73.2927929,47.569954 72.8813857,47.6309744 C71.2452666,47.8732478 70.3563372,47.4126571 68.7876916,47.4126571 L68.7297278,47.4169512 C68.7338034,47.3541228 68.7383318,47.2908424 68.7415017,47.2277881 C68.7670873,46.702787 68.8975059,46.1945101 68.5603648,45.9095224 C68.298622,45.6880411 68.1691091,45.5415923 68.1885813,44.977041 C68.5576477,44.9431408 69.1671734,44.6690012 69.6057512,44.5910307 C70.0223661,44.5175803 71.1395279,43.9028567 71.4814239,43.6544813 C71.9299641,43.3310734 72.3612964,44.0230894 72.6916448,43.5808049 C73.0093137,43.1545664 73.1834315,42.7658441 73.256792,41.6570817 C73.2927929,41.1237186 73.4784583,40.2637836 73.6546139,39.6623941 C73.7642017,39.2874579 73.7365784,38.944162 73.7193704,38.5689998 C73.6910677,38.1468293 74.2992349,38.1307832 74.3954639,38.0729269 C74.8657406,37.7897472 75.7209332,38.0638868 76.8890398,37.8141554 C77.9253693,37.5924481 77.7779692,37.912918 79.7772678,37.740253 C80.053728,37.7165228 80.4273229,36.8531978 80.9523935,36.5892283 C81.6044864,36.2615264 82.5174164,34.8569282 81.3450077,34.7459616 C79.1652515,34.5398484 77.4079971,34.4485438 76.5072938,34.7190674 C75.9849402,34.8754603 75.8909755,34.8065299 75.3330738,34.8569282 C74.7731343,34.9077785 74.8546459,34.9104905 74.4670129,34.7125134 C74.5362978,33.79201 74.4894286,32.8787387 74.4445972,32.1709026 C74.3712368,30.9880117 74.9909514,30.3816502 74.4418802,29.2936799 C74.3533495,29.1189809 73.72888,28.4002967 73.0869761,28.4249309 C72.0886853,28.4633511 71.4691971,27.8452375 71.330401,27.8334854 C70.9214844,27.7991332 69.9881765,27.7320108 69.8165493,28.1709054 C69.6856778,28.5058393 69.4049156,28.2588199 69.3403856,28.7205406 C69.2255901,29.5348233 68.92445,29.2837359 68.8984116,29.5133532 C68.7725214,30.5936395 69.0467174,32.6229052 69.0066409,33.0825919 C68.9627152,33.5919989 68.9527526,33.956991 68.9590924,34.2501147 C67.3548987,34.2286446 65.9309362,34.2530527 65.3456375,34.2901169 C64.1775309,34.3642454 64.8155857,34.6196268 61.9801138,34.6933033 C61.9755854,34.2512447 61.5284036,34.0953038 61.7548248,33.7126836 C62.1338537,33.0701618 62.1913647,32.9011129 62.4164273,31.714154 C62.4906935,31.3240757 63.70499,30.347298 61.8782243,29.7802607 C61.5211582,29.6697461 61.7052385,29.0163763 61.0633346,29.139547 C60.077497,29.3289361 59.7294877,29.7556266 58.976411,30.1438968 C57.9790259,30.6573718 57.3015739,32.1372284 56.1164857,32.3587097 C55.7148146,32.4341941 56.2885657,33.269495 55.631718,33.4274699 C54.9153216,33.6001349 54.545123,34.3192711 54.3295701,35.0646234 C52.9862135,35.1392039 52.2401559,35.1218018 51.8380319,34.8402041 C51.1750708,34.3764494 50.9832921,35.1450799 50.0062849,35.1312938 C49.6863519,35.1267738 48.8096492,35.157736 48.5687372,35.6657869 C48.3112963,36.2095461 47.4069703,35.9381185 47.2588909,37.1117433 C47.2237956,37.3885949 46.8791827,37.6941487 46.8606161,38.1099911 C46.8411439,38.5470776 46.7451413,39.8752874 46.9994123,40.2911298 C47.2029649,40.6235777 47.7368659,40.7433584 47.9623814,41.2335552 C48.0991397,41.530295 48.2583138,41.4821567 48.67674,41.6432956 C49.0953927,41.8046606 48.9706347,42.0821902 50.0730792,42.0652401 C50.7351346,42.054618 51.0860873,42.0681781 51.4066997,41.7786704 C51.9240719,41.3110737 51.457418,41.0776143 51.7302555,40.5682074 C51.8776556,40.2936158 52.3784992,40.5126111 52.5822782,39.9582298 C52.6728466,39.7123404 53.4626036,39.8481672 53.7610266,39.6160639 C54.2340204,39.2483597 54.8166019,39.0924188 55.3944287,38.9941082 C55.4136745,39.0890288 55.4290711,39.1875654 55.433826,39.292882 C55.4829593,40.3031078 55.7847787,39.9177756 55.9523304,40.6974801 C56.0286343,41.0511722 56.2244886,41.0771623 56.2980754,41.5845353 C56.3868325,42.1956428 56.3483409,43.2885852 56.3573978,43.6348192 C56.370983,44.1568822 55.881687,44.4463899 56.0757299,44.9115006 C56.1554301,45.1024717 56.4201164,46.2103301 56.6191406,46.2912386 C57.3104043,46.5746443 57.5184853,47.0558011 57.8184933,47.0214489 C58.4997945,46.9441564 59.5080478,46.8184997 60.2239915,46.4394955 C61.1654506,45.9404846 62.2228372,45.7802496 63.3658111,45.5594464 L63.4088312,45.675611 C63.4577381,46.2912386 63.0375005,46.1190256 63.0375005,46.5472981 C63.0375005,46.9821246 63.038859,47.4090411 63.0399911,47.8357316 C61.1779037,47.9726884 59.582314,48.0904351 59.582314,48.0904351 C58.149521,48.0911131 57.5492786,47.9674903 56.1386749,48.249766 C54.4708569,48.5833439 54.8711694,48.0206007 53.452641,48.0904351 C53.2957312,48.0983451 52.9137587,48.1107752 52.3970657,48.6262842 C52.0642266,48.9591841 52.1244547,49.3736705 51.7302555,49.624532 C50.9210263,50.140041 51.3256409,51.0257401 51.0638981,51.1954671 C50.6934731,51.4357065 50.8922708,52.6280894 50.8598926,53.8570846 C50.8306843,54.9913851 50.6957373,56.2569925 50.3973142,57.036019 C50.0936835,57.8292836 50.1686289,57.9829645 49.8788098,58.2684042 C49.3609847,58.7784891 48.9402942,59.2469898 48.7308547,59.6038459 C48.4491868,60.0845507 48.6074552,60.5926017 48.4161293,61.2315074 C48.2721255,61.7126642 47.802528,62.0437561 47.5457665,62.5249129 C47.2668156,63.0485579 46.6831019,63.5900571 46.3790184,63.930189 C45.6225454,64.77792 45.0646437,65.0387255 45.0832102,66.4625338 C45.0890972,66.9337465 44.6550478,67.2700364 44.620179,67.885212 C44.5409316,69.2884542 44.6088579,71.1059567 45.8790805,71.7114142 C46.9434863,72.2187872 48.7675349,71.6241777 49.749297,70.9717119 C50.7011714,70.3395863 50.913328,69.6785324 51.0824646,68.5139477 C51.4159829,66.2218424 51.7549354,65.9691729 52.6191848,65.1684502 C53.0283278,64.788316 53.6145321,64.08952 53.9955989,63.5561569 C54.0922807,64.0501957 54.2070762,64.5550827 54.2994561,64.5593767 C54.6934288,64.5797168 55.5162432,64.5234425 55.7915713,64.2395848 C56.002143,64.0223976 56.4115124,64.100368 56.4894013,63.9679313 C56.6268389,63.7319859 56.4001914,62.9403033 56.6977087,62.7986005 C56.8770343,62.714076 57.219383,62.3879561 57.5610525,62.03336 C57.8198519,61.7646445 57.9597801,61.4654187 58.1458983,61.2552375 C58.2326176,61.3094778 58.4284719,61.3804422 58.4952661,61.4473386 C58.7780661,61.7314223 58.9021449,62.1581128 59.2055492,62.1581128 C60.2409731,62.1581128 60.3532779,62.6114714 60.5584155,62.6110194 C61.5211582,62.6078554 61.4948933,62.9870856 61.8469782,63.1226864 C61.9180744,63.1502585 63.3003754,63.3403256 64.0108849,63.3010014 C64.079717,65.2452907 64.2418345,67.1034735 64.6430528,68.2483961 C64.9614009,69.1569214 65.605569,69.2100317 66.288908,68.572256 C66.7408446,68.1503116 67.1696862,68.6382484 67.7862309,67.4804437 C67.9146117,67.2408823 67.7042665,66.4742858 68.1713733,65.8778684 C68.8053525,65.0678797 68.7958428,64.0470317 68.671764,62.9527334 L68.7876916,62.8273026 C69.2606854,62.4444564 70.3219212,61.851881 70.7254037,61.3973923 L70.9511456,61.0834765 C71.2033787,61.0950026 71.3566658,61.3817982 71.4691971,61.4907309 C71.643315,61.6561638 71.7397704,61.8283768 71.9093598,61.8322189 C72.3771459,61.8417109 72.5297537,62.2738254 72.9321041,62.2758594 C73.5436676,62.2797015 73.6190658,62.1766449 74.1176451,62.1183365 C74.8571366,62.032682 74.7061137,62.203991 75.2656003,62.192691 C76.14502,62.1743848 75.9813175,62.8126126 76.4882744,62.6914759 C76.7158276,62.6370095 76.7330357,62.3206077 76.9900236,62.2977816 C77.6969104,62.2369872 77.7091372,61.8261168 78.0435612,61.6561638 C78.2670388,61.5429372 78.45044,61.4536667 78.5314987,61.0694644 C78.5502917,60.986522 78.5539144,60.4389208 78.5507445,60.3541703 C78.5475746,60.2741658 78.5525559,60.1747252 78.5611599,60.0691826 C78.6091612,60.1175469 78.6528605,60.1629732 78.7099186,60.2154055 C78.9931714,60.478471 78.7085601,61.5483612 78.7280323,61.9336935 C78.839205,64.0779939 78.345607,64.0592358 78.2464345,65.0018873 C78.209075,65.3605514 78.2511894,65.9533528 78.4687801,66.2401485 C78.5976137,66.4098754 78.6478792,66.5640083 78.839205,66.6557649 C79.4734106,66.9617706 79.2275173,67.3862011 80.0059532,67.3862011 C80.1836937,67.3862011 81.8583045,67.2646124 82.0238183,67.201332 C82.4130362,67.0537532 82.6168153,66.0371993 82.9684473,65.5750266 C84.025834,64.1867005 84.6638887,64.3161993 84.1716492,62.7470722 C83.8940569,61.860469 84.3776924,61.9662376 84.3756546,61.7485984" id="Fill-166"></path>
                </g>
            </g>
        </g>
    </g>
</svg>