<?xml version="1.0" encoding="UTF-8"?>
<svg width="262px" height="438px" viewBox="0 0 262 438" version="1.1" xmlns="http://www.w3.org/2000/svg" xmlns:xlink="http://www.w3.org/1999/xlink">
    <!-- Generator: Sketch 50.2 (55047) - http://www.bohemiancoding.com/sketch -->
    <title>Page 1 Copy 2</title>
    <desc>Created with Sketch.</desc>
    <defs>
        <polygon id="path-1" points="0.4968 0.0310464 0.665 0.0310464 0.665 12.7694079 0.4968 12.7694079"></polygon>
        <polygon id="path-3" points="0.4518 0.00973703415 0.665 0.00973703415 0.665 5.55046103 0.4518 5.55046103"></polygon>
        <polygon id="path-5" points="0.334 0.6202224 0.665 0.6202224 0.665 11.9733264 0.334 11.9733264"></polygon>
        <polygon id="path-7" points="0.3725 0.4651668 0.665 0.4651668 0.665 3.1548277 0.3725 3.1548277"></polygon>
        <polygon id="path-9" points="0.4323 0.118928634 0.665 0.118928634 0.665 1.88292863 0.4323 1.88292863"></polygon>
        <polygon id="path-11" points="0.4557 0.0762398341 3.8107 0.0762398341 3.8107 0.227414634 0.4557 0.227414634"></polygon>
        <polygon id="path-13" points="0 0.0303408 0.9996 0.0303408 0.9996 12.768845 0 12.768845"></polygon>
        <polygon id="path-15" points="0.4557 0.607724158 0.665 0.607724158 0.665 3.36895015 0.4557 3.36895015"></polygon>
        <polygon id="path-17" points="0.000169972478 0.887292 261.664975 0.887292 261.664975 437.333702 0.000169972478 437.333702"></polygon>
        <polygon id="path-19" points="0.8542 0.0757106341 4.2082 0.0757106341 4.2082 0.227414634 0.8542 0.227414634"></polygon>
    </defs>
    <g id="Mobille" stroke="none" stroke-width="1" fill="none" fill-rule="evenodd">
        <g id="Mobile--Pricing" transform="translate(-29.000000, -366.000000)">
            <g id="Page-1-Copy-2" transform="translate(29.000000, 366.000000)">
                <polygon id="Fill-1" fill="#FF722D" points="261.045 253.631196 261.133 257 261 251"></polygon>
                <g id="Group-108">
                    <g id="Group-4" transform="translate(261.000000, 225.792000)">
                        <mask id="mask-2" fill="white">
                            <use xlink:href="#path-1"></use>
                        </mask>
                        <g id="Clip-3"></g>
                        <path d="M0.5338,0.0310464 C0.5648,3.5378784 0.5558,7.2740304 0.4968,12.1109184 C0.5698,14.7251664 0.6198,8.5229424 0.6648,11.2888944 C0.6518,6.9970824 0.5898,3.3314904 0.5338,0.0310464" id="Fill-2" fill="#FF722D" mask="url(#mask-2)"></path>
                    </g>
                    <g id="Group-7" transform="translate(261.000000, 220.272585)">
                        <mask id="mask-4" fill="white">
                            <use xlink:href="#path-3"></use>
                        </mask>
                        <g id="Clip-6"></g>
                        <path d="M0.5338,5.55046103 C0.5048,3.57301703 0.4768,1.75786103 0.4518,0.00973703415 C0.4928,1.85664503 0.5158,3.68944103 0.5338,5.55046103" id="Fill-5" fill="#FF722D" mask="url(#mask-4)"></path>
                    </g>
                    <path d="M1.2946,154.248394 L1.3056,155.509654 C1.3016,155.00515 1.2976,154.594138 1.2946,154.248394" id="Fill-8" fill="#FF722D"></path>
                    <path d="M1.3063,155.552342 L1.3223,157.374554 C1.3163,156.651314 1.3103,156.055082 1.3063,155.552342" id="Fill-10" fill="#FF722D"></path>
                    <path d="M1.3014,131.609218 L1.2524,131.055322 C1.2794,132.103138 1.2984,132.53179 1.3014,131.609218" id="Fill-12" fill="#FF722D"></path>
                    <path d="M164.4606,1.2557916 C161.8786,1.0917396 158.9946,0.8412516 159.3056,1.0370556 L160.0996,1.2258036 C161.9026,1.1922876 163.2856,1.2152196 164.4606,1.2557916" id="Fill-14" fill="#FF722D"></path>
                    <path d="M27.3659,3.0663612 L30.7699,3.1898412 C29.2289,3.1333932 28.1359,3.0945852 27.3659,3.0663612" id="Fill-16" fill="#FF722D"></path>
                    <path d="M1.4088,277.892093 L1.5198,281.540045 C1.5188,275.833505 1.4638,278.347205 1.4088,277.892093" id="Fill-18" fill="#FF722D"></path>
                    <path d="M0.1432,145.340546 C0.1632,147.252722 0.1852,148.072982 0.2092,148.01477 C0.1902,146.044382 0.1692,144.931298 0.1432,145.340546" id="Fill-20" fill="#FF722D"></path>
                    <g id="Group-24" transform="translate(261.000000, 8.820000)">
                        <mask id="mask-6" fill="white">
                            <use xlink:href="#path-5"></use>
                        </mask>
                        <g id="Clip-23"></g>
                        <path d="M0.359,0.6202224 C0.351,1.3152384 0.342,1.9908504 0.334,2.6982144 C0.342,5.5752984 0.35,8.4612024 0.36,11.9733264 C0.406,8.4753144 0.434,4.4692704 0.359,0.6202224" id="Fill-22" fill="#FF722D" mask="url(#mask-6)"></path>
                    </g>
                    <path d="M165.109,435.204907 C165.295,435.213727 165.516,435.222547 165.684,435.229603 C165.741,435.203143 165.485,435.201379 165.109,435.204907" id="Fill-25" fill="#FF722D"></path>
                    <g id="Group-29" transform="translate(261.000000, 119.952000)">
                        <mask id="mask-8" fill="white">
                            <use xlink:href="#path-7"></use>
                        </mask>
                        <g id="Clip-28"></g>
                        <path d="M0.3835,0.4651668 C0.3795,1.4777028 0.3755,2.2697388 0.3725,3.0282588 C0.3915,3.3986988 0.4035,3.0723588 0.3835,0.4651668" id="Fill-27" fill="#FF722D" mask="url(#mask-8)"></path>
                    </g>
                    <path d="M121.3747,3.233412 C121.2967,3.231648 121.1987,3.22812 121.1287,3.226356 L121.1847,3.242232 C121.2627,3.238704 121.3037,3.23694 121.3747,3.233412" id="Fill-30" fill="#FF722D"></path>
                    <path d="M1.2672,144.23981 L1.2692,145.42169 C1.2702,144.957758 1.2692,144.578498 1.2672,144.23981" id="Fill-32" fill="#FF722D"></path>
                    <path d="M31.0163,3.0974076 C30.6723,3.0621276 30.5783,3.0215556 30.4963,2.9827476 C30.0193,3.0180276 30.0093,3.0603636 31.0163,3.0974076" id="Fill-34" fill="#FF722D"></path>
                    <path d="M1.3893,277.216657 L1.3873,277.553581 C1.3953,277.740565 1.4023,277.839349 1.4093,277.892269 L1.3893,277.216657 Z" id="Fill-36" fill="#FF722D"></path>
                    <g id="Group-40" transform="translate(261.000000, 146.184585)">
                        <mask id="mask-10" fill="white">
                            <use xlink:href="#path-9"></use>
                        </mask>
                        <g id="Clip-39"></g>
                        <path d="M0.4323,0.118928634 L0.4363,0.771608634 C0.4363,0.489368634 0.4343,0.284744634 0.4323,0.118928634" id="Fill-38" fill="#FF722D" mask="url(#mask-10)"></path>
                    </g>
                    <path d="M163.8131,3.200778 C160.6651,3.31191 159.0111,3.248406 160.4581,3.544758 C165.6731,3.652362 161.6961,3.26781 166.4101,3.401874 C167.6341,3.297798 162.5571,3.29427 163.8131,3.200778" id="Fill-41" fill="#FF722D"></path>
                    <path d="M163.8131,3.200778 C164.0811,3.190194 164.5091,3.17079 165.4191,3.131982 C164.8501,3.156678 164.3161,3.17961 163.8131,3.200778" id="Fill-43" fill="#FF722D"></path>
                    <g id="Group-47" transform="translate(251.000000, 437.244585)">
                        <mask id="mask-12" fill="white">
                            <use xlink:href="#path-11"></use>
                        </mask>
                        <g id="Clip-46"></g>
                        <polygon id="Fill-45" fill="#FF722D" mask="url(#mask-12)" points="0.4557 0.134451834 3.8107 0.227943834 1.6457 0.0762398341"></polygon>
                    </g>
                    <path d="M1.4831,86.0810832 L1.5751,81.4558752 L1.5361,81.0060552 C1.4931,81.9215712 1.4901,83.3063112 1.4831,86.0810832" id="Fill-48" fill="#FF722D"></path>
                    <polygon id="Fill-50" fill="#FF722D" points="1.4528 161.702352 1.4568 160.322904 1.3088 162.9054"></polygon>
                    <path d="M1.6403,229.054694 C1.6333,226.304618 1.6263,223.07297 1.6193,220.314074 C1.6463,226.304618 1.4573,229.797338 1.6403,229.054694" id="Fill-52" fill="#FF722D"></path>
                    <polygon id="Fill-54" fill="#FF722D" points="0.1979 250.939408 0.0649 257.238652 0.1529 253.701832"></polygon>
                    <g id="Group-58" transform="translate(0.000000, 225.792000)">
                        <mask id="mask-14" fill="white">
                            <use xlink:href="#path-13"></use>
                        </mask>
                        <g id="Clip-57"></g>
                        <path d="M0.1676,12.1102128 C0.1076,7.2750888 0.1006,3.5389368 0.1316,0.0303408 C0.0756,3.3307848 0.0136,6.9981408 -0.0004,11.2881888 C0.0446,8.5240008 0.0956,14.7244608 0.1676,12.1102128" id="Fill-56" fill="#FF722D" mask="url(#mask-14)"></path>
                    </g>
                    <path d="M0.1315,225.823046 C0.1495,223.962026 0.1725,222.12923 0.2135,220.282322 C0.1885,222.030446 0.1605,223.845602 0.1315,225.823046" id="Fill-59" fill="#FF722D"></path>
                    <path d="M260.3708,154.248394 C260.3678,154.594138 260.3638,155.00515 260.3598,155.509654 L260.3708,154.248394 Z" id="Fill-61" fill="#FF722D"></path>
                    <path d="M260.3424,157.374907 L260.3594,155.552695 C260.3544,156.055435 260.3494,156.651667 260.3424,157.374907" id="Fill-63" fill="#FF722D"></path>
                    <path d="M260.4128,131.05444 L260.3638,131.608336 C260.3658,132.532672 260.3868,132.10402 260.4128,131.05444" id="Fill-65" fill="#FF722D"></path>
                    <path d="M101.5661,1.2265092 L102.3591,1.0377612 C102.6701,0.8401932 99.7861,1.0924452 97.2041,1.2564972 C98.3781,1.2141612 99.7621,1.1912292 101.5661,1.2265092" id="Fill-67" fill="#FF722D"></path>
                    <path d="M234.2985,3.0663612 C233.5295,3.0945852 232.4365,3.1333932 230.8955,3.1898412 L234.2985,3.0663612 Z" id="Fill-69" fill="#FF722D"></path>
                    <path d="M260.1452,281.540574 L260.2552,277.892622 C260.2022,278.34597 260.1462,275.834034 260.1452,281.540574" id="Fill-71" fill="#FF722D"></path>
                    <g id="Group-75" transform="translate(261.000000, 144.648000)">
                        <mask id="mask-16" fill="white">
                            <use xlink:href="#path-15"></use>
                        </mask>
                        <g id="Clip-74"></g>
                        <path d="M0.4557,3.3660648 C0.4797,3.4242768 0.5027,2.6040168 0.5217,0.6918408 C0.4947,0.2825928 0.4747,1.3974408 0.4557,3.3660648" id="Fill-73" fill="#FF722D" mask="url(#mask-16)"></path>
                    </g>
                    <path d="M0.3053,9.4402224 C0.2303,13.2892704 0.2583,17.2953144 0.3053,20.7933264 C0.3153,17.2812024 0.3233,14.3952984 0.3303,11.5182144 C0.3233,10.8108504 0.3143,10.1352384 0.3053,9.4402224" id="Fill-76" fill="#FF722D"></path>
                    <path d="M95.9801,435.229074 C96.1491,435.222018 96.3711,435.213198 96.5551,435.204378 C96.1801,435.20085 95.9241,435.202614 95.9801,435.229074" id="Fill-78" fill="#FF722D"></path>
                    <path d="M0.2917,122.980435 C0.2887,122.221915 0.2857,121.429879 0.2817,120.417343 C0.2627,123.022771 0.2737,123.350875 0.2917,122.980435" id="Fill-80" fill="#FF722D"></path>
                    <path d="M140.5368,3.2265324 C140.4668,3.2282964 140.3688,3.2318244 140.2908,3.2335884 C140.3618,3.2371164 140.4028,3.2388804 140.4808,3.2424084 L140.5368,3.2265324 Z" id="Fill-82" fill="#FF722D"></path>
                    <g id="Group-86">
                        <mask id="mask-18" fill="white">
                            <use xlink:href="#path-17"></use>
                        </mask>
                        <g id="Clip-85"></g>
                        <path d="M261.0387,372.011018 L261.0057,372.981218 C260.9897,371.16959 260.9807,369.172742 260.9887,367.45637 C261.0067,368.871098 261.0277,369.065138 261.0507,368.707046 C261.0507,369.858938 261.0477,370.973786 261.0387,372.011018 Z M261.1477,375.563714 C261.1327,380.605226 261.0507,377.71403 261.0097,373.475138 L261.1417,376.473938 C261.1407,375.983546 261.1387,375.484334 261.1377,374.97983 L261.1477,375.563714 Z M260.3857,105.87281 C260.3137,104.306378 260.3927,100.03397 260.4177,97.8924744 C260.4577,101.545718 260.5227,103.431434 260.3857,105.87281 Z M1.2477,97.8924744 C1.2727,100.03397 1.3517,104.306378 1.2797,105.87281 C1.1417,103.431434 1.2077,101.545718 1.2477,97.8924744 Z M252.6777,435.49385 C256.3837,435.340382 249.5847,435.082838 258.3507,435.08813 C254.1647,434.96465 250.1137,435.398594 245.7487,435.165746 L248.5927,435.435638 C247.0217,435.442694 245.2537,435.342146 244.4007,435.310394 L244.7567,435.518546 C239.3647,435.153398 234.7247,435.694946 231.5197,435.21161 C233.7497,435.59087 227.4987,435.190442 225.3577,435.338618 C229.5277,435.589106 237.0987,435.363314 238.4797,435.62615 C235.6227,435.536186 232.5497,435.497378 229.4707,435.724934 C229.3197,435.717878 229.2217,435.709058 229.1447,435.700238 C229.1127,435.686126 229.0607,435.673778 229.0187,435.659666 C229.2217,435.60851 230.5957,435.562646 229.9767,435.490322 C229.5767,435.532658 229.1507,435.562646 228.6977,435.589106 C227.6837,435.447986 225.5457,435.606746 223.8407,435.37919 C220.1857,435.566174 217.3277,435.294518 214.3487,435.409178 C215.1377,435.425054 215.1927,435.425054 215.9837,435.439166 C213.7387,435.437402 211.9627,435.481502 210.4807,435.54677 C207.8757,435.518546 205.3137,435.479738 202.4137,435.44093 C202.2627,435.417998 202.0637,435.395066 201.8017,435.37037 C201.6127,435.391538 201.4227,435.407414 201.2317,435.425054 C198.7977,435.393302 196.0977,435.359786 192.9087,435.331562 L193.6887,435.500906 C192.6037,435.477974 191.4317,435.451514 190.1447,435.437402 C189.8447,435.421526 189.5477,435.407414 189.1997,435.395066 C189.0737,435.40565 188.9777,435.417998 188.8937,435.428582 C187.0277,435.421526 184.9377,435.446222 182.5447,435.532658 C182.5987,435.534422 182.6427,435.536186 182.6937,435.539714 C177.9107,435.52913 173.2587,435.515018 172.0057,435.271586 C168.5027,435.269822 171.5747,435.43211 170.4547,435.490322 C169.9697,435.470918 169.2837,435.447986 168.1997,435.419762 L167.8507,435.380954 L167.6737,435.407414 C166.8737,435.38801 165.8927,435.366842 164.6617,435.340382 C165.9887,435.395066 165.5177,435.446222 164.7157,435.49385 C163.2767,435.430346 162.5207,435.32627 162.4457,435.24689 C163.1267,435.236306 164.3807,435.216902 165.1087,435.204554 C161.7257,435.063434 155.7687,435.232778 153.9497,435.215138 L157.7177,435.289226 C149.3947,435.377426 139.7647,435.315686 130.8327,435.366842 C121.9007,435.315686 112.2697,435.377426 103.9467,435.289226 L107.7157,435.215138 C105.8957,435.232778 99.9377,435.063434 96.5557,435.204554 C97.2847,435.216902 98.5377,435.236306 99.2187,435.24689 C99.1437,435.32627 98.3887,435.430346 96.9497,435.49385 C96.1477,435.446222 95.6767,435.395066 97.0027,435.340382 C95.7717,435.366842 94.7917,435.38801 93.9917,435.407414 L93.8147,435.380954 L93.4647,435.419762 C92.3817,435.447986 91.6957,435.470918 91.2107,435.490322 C90.0907,435.43211 93.1627,435.269822 89.6597,435.271586 C88.4057,435.515018 83.7547,435.52913 78.9717,435.539714 C79.0217,435.536186 79.0667,435.534422 79.1207,435.532658 C76.7267,435.446222 74.6377,435.421526 72.7707,435.428582 C72.6867,435.417998 72.5907,435.40565 72.4657,435.395066 C72.1177,435.407414 71.8207,435.421526 71.5197,435.437402 C70.2337,435.451514 69.0607,435.477974 67.9767,435.500906 L68.7567,435.331562 C65.5677,435.359786 62.8677,435.393302 60.4327,435.425054 C60.2427,435.407414 60.0527,435.391538 59.8637,435.37037 C59.6007,435.395066 59.4027,435.417998 59.2517,435.44093 C56.3517,435.479738 53.7897,435.518546 51.1837,435.54677 C49.7017,435.481502 47.9257,435.437402 45.6817,435.439166 C46.4727,435.425054 46.5277,435.425054 47.3167,435.409178 C44.3377,435.294518 41.4787,435.566174 37.8237,435.37919 C36.1187,435.606746 33.9817,435.447986 32.9677,435.589106 C32.5147,435.562646 32.0887,435.532658 31.6877,435.490322 C31.0697,435.562646 32.4437,435.60851 32.6457,435.659666 C32.6037,435.673778 32.5527,435.686126 32.5197,435.700238 C32.4427,435.709058 32.3447,435.717878 32.1947,435.724934 C29.1157,435.497378 26.0427,435.536186 23.1847,435.62615 C24.5667,435.363314 32.1377,435.589106 36.3077,435.338618 C34.1667,435.190442 27.9157,435.59087 30.1447,435.21161 C26.9407,435.694946 22.3007,435.153398 16.9087,435.518546 L17.2647,435.310394 C16.4107,435.342146 14.6427,435.442694 13.0727,435.435638 L15.9157,435.165746 C11.5517,435.398594 7.5007,434.96465 3.3127,435.08813 C12.0807,435.082838 5.2807,435.340382 8.9877,435.49385 C6.4887,435.557354 4.8127,435.562646 3.5637,435.536186 C2.9407,435.51149 2.4247,435.488558 1.9607,435.470918 C1.8517,435.463862 1.7477,435.456806 1.6447,435.44975 L1.4907,435.425054 C1.3987,435.407414 1.3107,435.391538 1.2247,435.373898 C1.2367,435.181622 1.2487,434.99111 1.2607,434.79707 C1.2677,434.66477 1.2727,434.712398 1.2787,434.440742 C1.2847,434.22377 1.2917,434.00327 1.2977,433.77395 C1.3157,432.851378 1.3377,431.817674 1.3637,430.533482 C1.3997,428.095634 1.4217,424.721102 1.4117,419.527886 C1.4097,422.868902 1.3337,429.027026 1.2837,424.92749 C1.3087,420.86147 1.3527,415.493618 1.4157,412.997558 C1.3917,398.850278 1.2937,415.170806 1.2207,409.14851 C1.3647,404.331026 1.1617,402.201878 1.1157,395.999654 L1.2357,395.955554 C1.3127,379.834358 0.9847,391.679618 1.0787,377.165426 L1.2457,383.300618 L1.2027,375.731294 L1.3397,377.294198 C1.2377,369.06161 1.2647,366.498518 1.3027,358.43351 C1.2177,360.306878 1.0837,357.378638 1.0797,350.237966 C1.1517,345.367562 1.1947,352.96511 1.1777,342.843278 C1.2527,345.127658 1.3477,347.632538 1.2367,352.037246 C1.2757,352.48883 1.3117,354.289874 1.3517,354.75557 C1.4337,349.509434 1.3697,341.574962 1.3687,337.90937 C1.3587,339.318806 1.3467,340.999898 1.3407,341.871314 L1.1737,327.198362 C1.2187,324.889286 1.2547,326.722082 1.2907,328.535474 C1.2667,325.568426 1.2487,323.501018 1.2117,319.138646 C1.3097,320.26937 1.4107,319.997714 1.4577,326.184062 L1.3487,312.204362 C1.3917,311.269442 1.4657,305.026646 1.5017,306.843566 C1.5597,299.09255 1.3107,287.82941 1.3877,277.55411 C1.3687,277.019618 1.3507,275.94887 1.3367,273.765038 C1.3577,264.107138 1.4787,255.551738 1.3447,244.103378 L1.5197,237.610094 C1.4797,228.645446 1.2987,246.40187 1.2317,231.473138 C1.1767,220.906778 1.3827,227.528834 1.4317,223.820906 C1.3427,218.567714 1.1627,209.430194 1.3057,199.721138 C1.3387,202.935146 1.3117,205.454138 1.3257,208.456466 L1.4227,201.05825 C1.5837,209.987618 1.5277,216.447386 1.6647,209.502518 C1.3257,208.456466 1.6307,180.74579 1.2907,179.717378 L1.3617,174.841682 C1.3687,176.23877 1.3697,176.462798 1.3757,177.84401 C1.5387,168.358982 1.1307,170.798594 1.1787,158.577602 C1.2047,154.317542 1.2537,151.345202 1.2947,154.248746 L1.2107,144.758426 C1.2157,142.463462 1.2567,142.567538 1.2677,144.23981 L1.2417,130.946306 L1.2527,131.05391 C1.2127,128.975918 1.1247,124.303082 1.0817,122.023994 C1.1307,118.346054 1.1177,123.869138 1.1597,122.928926 L1.0777,114.91331 C1.1657,111.648146 1.2507,118.29137 1.2387,123.828566 C1.5777,116.34215 1.1527,117.178286 1.3517,101.023574 L1.3937,108.592898 C1.5867,103.71191 1.5177,97.8078024 1.6377,89.2506384 C1.5737,91.2792384 1.3347,106.380842 1.2497,97.6807944 C1.2747,95.2323624 1.2877,92.0007144 1.2197,87.3084744 C1.3407,87.2626104 1.3097,82.6815024 1.3037,76.9485024 L1.4637,77.3401104 C1.4177,71.1414144 1.3357,71.6318064 1.2647,67.9838544 C1.2797,61.0742664 1.4027,59.6436624 1.5077,58.0172544 C1.5327,46.9534464 1.3097,65.6571384 1.2787,52.5612024 C1.2937,50.3773704 1.3007,48.3505344 1.3027,46.3766184 C1.3147,45.4187664 1.3277,44.4679704 1.3417,44.2192464 C1.3467,38.7120384 1.3237,39.5728704 1.2947,41.5344384 C1.2827,38.2022424 1.2567,34.7906664 1.2227,30.8287224 C1.2417,28.4861304 1.2637,26.3605104 1.2897,24.9881184 C1.3017,25.2421344 1.3117,25.2633024 1.3227,24.7094064 L1.3097,24.1431624 C1.3217,23.7639024 1.3337,23.5116504 1.3477,23.4410904 C1.3097,22.1851224 1.2847,21.9663864 1.2687,22.3156584 L1.2187,20.0453904 C1.2267,19.6678944 1.2327,19.3009824 1.2397,18.9287784 C1.2277,19.3327344 1.2177,19.5108984 1.2077,19.5497064 L1.1947,19.0011024 C1.1977,17.6040144 1.2367,18.0538344 1.2577,18.2849184 C1.2137,14.0301504 1.1217,16.9760304 1.0717,12.4813584 C1.0647,9.3608424 1.0597,6.5454984 1.0547,3.8906784 C1.0597,3.5925624 1.0637,3.3191424 1.0687,3.0051504 C1.6767,3.0316104 2.3267,3.0633624 2.9997,3.0933504 C3.8017,3.1145184 4.6307,3.1392144 5.4617,3.1586184 C7.1247,3.1886064 8.7987,3.1762584 10.2877,3.0774744 C11.5957,3.1586184 9.6567,3.2521104 10.0567,3.3614784 C17.3357,3.1286304 16.2977,3.1938984 22.2737,2.8799064 L22.4717,2.8869624 C22.4407,2.8940184 22.4227,2.9010744 22.3787,2.9081304 L23.0227,2.9081304 L27.3657,3.0668904 C26.2857,3.0051504 25.9327,2.9398824 26.0537,2.8746144 C27.4657,2.8446264 28.4387,2.8093464 30.5717,2.8534464 C30.5497,2.8587384 30.5447,2.8675584 30.5277,2.8746144 C27.0497,3.0351384 28.7017,2.9663424 30.4917,2.9751624 C30.4957,2.9769264 30.4917,2.9804544 30.4967,2.9822184 C30.5437,2.9804544 30.6117,2.9769264 30.6667,2.9769264 C31.5967,2.9839824 32.5167,3.0139704 32.7287,3.1127544 C34.2157,3.1268664 34.7617,3.1092264 34.9727,3.0774744 L35.7157,3.2309424 L36.0837,3.1074624 L37.7627,3.1462704 C37.3487,3.1727304 36.7827,3.2009544 35.9427,3.2221224 C37.2317,3.2115384 37.8557,3.1850784 38.0787,3.1515624 L44.8257,3.3032664 C45.5217,3.2697504 46.2077,3.2309424 46.8917,3.1938984 C46.5677,3.2750424 46.2097,3.3491304 45.7767,3.4002864 C46.0717,3.5766864 49.4567,3.2133024 51.1607,3.1938984 C52.0337,3.1445064 52.8137,3.1251024 53.5617,3.1162824 C55.5257,3.1568544 54.9867,3.2697504 54.3627,3.3103224 L57.8807,3.2115384 C59.4487,3.2820984 60.9777,3.3526584 62.8057,3.3032664 L59.8467,3.1533264 L61.0447,3.1198104 C61.7917,3.1198104 62.7427,3.1303944 63.6847,3.1462704 C64.1837,3.2538744 65.9427,3.2327064 67.8847,3.3067944 C66.3677,2.9381184 72.1847,2.9822184 76.3097,2.9257704 C76.9207,2.9663424 77.4727,3.0104424 77.9527,3.0545424 C77.2747,3.1215744 75.8697,3.1621464 73.2397,3.1427424 C75.4347,3.2891544 76.9497,3.2080104 78.3727,3.0933504 C79.5417,3.2150664 80.1797,3.3350184 80.0307,3.4320384 L68.7167,3.1233384 C68.3187,3.3702984 76.7487,3.3720624 76.2857,3.6666504 L86.7037,3.5802144 C85.3877,3.5731584 81.3677,3.5008344 82.9477,3.3667704 C87.4227,3.3773544 85.2677,3.3209064 88.2547,3.2080104 C87.0497,3.1339224 85.6037,3.0316104 84.0607,2.9169504 C87.0007,2.8657944 91.2187,2.9557584 89.9717,3.0651264 L88.8607,3.0686544 C89.7507,3.0739464 90.7537,3.0792384 91.8287,3.0810024 C91.9997,3.1056984 92.1547,3.1286304 92.2827,3.1462704 C92.9077,3.1356864 93.3897,3.1145184 93.7737,3.0845304 C97.2567,3.0862944 101.2137,3.0704184 104.5917,3.0210264 C105.9157,3.0968784 107.5097,3.1462704 109.7507,3.1251024 L106.7527,3.2379984 C108.6377,3.2873904 115.4857,3.1815504 114.7517,3.2803344 C116.2227,3.1497984 117.5777,2.8534464 116.3447,2.7405504 L118.1017,2.8622664 L115.2127,3.3844104 C117.7557,3.1462704 119.2017,3.1762584 121.1287,3.2256504 L120.4117,3.0245544 L122.6097,3.1797864 C122.2547,3.2009544 121.8497,3.2203584 121.3747,3.2327064 C123.1327,3.2803344 125.3077,3.3314904 129.0147,3.2185944 C128.6427,3.2044824 128.2127,3.1533264 127.8467,3.0898224 C129.3527,3.0174984 129.9687,3.0033864 130.8327,2.9522304 C131.6957,3.0033864 132.3117,3.0174984 133.8177,3.0898224 C133.4517,3.1533264 133.0227,3.2044824 132.6507,3.2185944 C136.3567,3.3314904 138.5327,3.2803344 140.2907,3.2327064 C139.8147,3.2203584 139.4107,3.2009544 139.0557,3.1797864 L141.2537,3.0245544 L140.5367,3.2256504 C142.4637,3.1762584 143.9097,3.1462704 146.4527,3.3844104 L143.5637,2.8622664 L145.3207,2.7405504 C144.0877,2.8534464 145.4427,3.1497984 146.9137,3.2803344 C146.1797,3.1815504 153.0267,3.2873904 154.9117,3.2379984 L151.9147,3.1251024 C154.1557,3.1462704 155.7497,3.0968784 157.0727,3.0210264 C160.4517,3.0704184 164.4087,3.0862944 167.8917,3.0845304 C168.2757,3.1145184 168.7567,3.1356864 169.3827,3.1462704 C169.5107,3.1286304 169.6657,3.1056984 169.8367,3.0810024 C170.9117,3.0792384 171.9147,3.0739464 172.8037,3.0686544 L171.6937,3.0651264 C170.4457,2.9557584 174.6647,2.8657944 177.6037,2.9169504 C176.0607,3.0316104 174.6157,3.1339224 173.4107,3.2080104 C176.3977,3.3209064 174.2427,3.3773544 178.7177,3.3667704 C180.2977,3.5008344 176.2777,3.5731584 174.9617,3.5802144 L185.3797,3.6666504 C184.9157,3.3720624 193.3467,3.3702984 192.9487,3.1233384 L181.6337,3.4320384 C181.4857,3.3350184 182.1237,3.2150664 183.2917,3.0933504 C184.7147,3.2080104 186.2307,3.2891544 188.4257,3.1427424 C185.7957,3.1621464 184.3907,3.1215744 183.7127,3.0545424 C184.1927,3.0104424 184.7447,2.9663424 185.3547,2.9257704 C189.4797,2.9822184 195.2977,2.9381184 193.7797,3.3067944 C195.7227,3.2327064 197.4817,3.2538744 197.9797,3.1462704 C198.9227,3.1303944 199.8737,3.1198104 200.6207,3.1198104 L201.8187,3.1533264 L198.8597,3.3032664 C200.6857,3.3526584 202.2167,3.2820984 203.7837,3.2115384 L207.3027,3.3103224 C206.6777,3.2697504 206.1387,3.1568544 208.1027,3.1162824 C208.8507,3.1251024 209.6317,3.1445064 210.5047,3.1938984 C212.2077,3.2133024 215.5937,3.5766864 215.8877,3.4002864 C215.4557,3.3491304 215.0977,3.2750424 214.7727,3.1938984 C215.4567,3.2309424 216.1427,3.2697504 216.8397,3.3032664 L223.5867,3.1515624 C223.8097,3.1850784 224.4337,3.2115384 225.7227,3.2221224 C224.8817,3.2009544 224.3157,3.1727304 223.9017,3.1462704 L225.5807,3.1074624 L225.9497,3.2309424 L226.6927,3.0774744 C226.9037,3.1092264 227.4497,3.1268664 228.9357,3.1127544 C229.1487,3.0139704 230.0687,2.9839824 230.9977,2.9769264 C231.0537,2.9769264 231.1217,2.9804544 231.1687,2.9822184 C231.1737,2.9804544 231.1697,2.9769264 231.1737,2.9751624 C232.9627,2.9663424 234.6157,3.0351384 231.1367,2.8746144 C231.1197,2.8675584 231.1147,2.8587384 231.0927,2.8534464 C233.2267,2.8093464 234.1987,2.8446264 235.6117,2.8746144 C235.7327,2.9398824 235.3797,3.0051504 234.2987,3.0668904 L238.6427,2.9081304 L239.2857,2.9081304 C239.2427,2.9010744 239.2247,2.8940184 239.1927,2.8869624 L239.3917,2.8799064 C245.3677,3.1938984 244.3287,3.1286304 251.6077,3.3614784 C252.0087,3.2521104 250.0687,3.1586184 251.3767,3.0774744 C252.8667,3.1762584 254.5407,3.1886064 256.2037,3.1586184 C257.0347,3.1392144 257.8627,3.1145184 258.6657,3.0933504 C259.3387,3.0633624 259.9887,3.0316104 260.5967,3.0051504 C260.6017,3.3191424 260.6057,3.5925624 260.6097,3.8906784 C260.6047,6.5454984 260.6007,9.3608424 260.5937,12.4813584 C260.5427,16.9760304 260.4517,14.0301504 260.4077,18.2849184 C260.4277,18.0538344 260.4667,17.6040144 260.4697,19.0011024 L260.4577,19.5497064 C260.4477,19.5108984 260.4367,19.3327344 260.4257,18.9287784 C260.4317,19.3009824 260.4387,19.6678944 260.4457,20.0453904 L260.3957,22.3156584 C260.3797,21.9663864 260.3557,22.1851224 260.3177,23.4410904 C260.3307,23.5116504 260.3437,23.7639024 260.3547,24.1431624 L260.3427,24.7094064 C260.3527,25.2633024 260.3637,25.2421344 260.3747,24.9881184 C260.4007,26.3605104 260.4227,28.4861304 260.4427,30.8287224 C260.4087,34.7906664 260.3827,38.2022424 260.3697,41.5344384 C260.3417,39.5728704 260.3187,38.7120384 260.3237,44.2192464 C260.3377,44.4679704 260.3507,45.4187664 260.3627,46.3766184 C260.3637,48.3505344 260.3717,50.3773704 260.3867,52.5612024 C260.3557,65.6571384 260.1317,46.9534464 260.1567,58.0172544 C260.2617,59.6436624 260.3857,61.0742664 260.4007,67.9838544 C260.3287,71.6318064 260.2477,71.1414144 260.2017,77.3401104 L260.3617,76.9485024 C260.3547,82.6815024 260.3247,87.2626104 260.4457,87.3084744 C260.3777,92.0007144 260.3897,95.2323624 260.4157,97.6807944 C260.3307,106.380842 260.0907,91.2792384 260.0277,89.2506384 C260.1477,97.8078024 260.0787,103.71191 260.2707,108.592898 L260.3137,101.023574 C260.5127,117.178286 260.0877,116.34215 260.4267,123.828566 C260.4137,118.29137 260.4997,111.648146 260.5877,114.91331 L260.5057,122.928926 C260.5477,123.869138 260.5347,118.346054 260.5837,122.023994 C260.5407,124.303082 260.4517,128.975918 260.4127,131.05391 L260.4227,130.946306 L260.3977,144.23981 C260.4077,142.567538 260.4497,142.463462 260.4547,144.758426 L260.3707,154.248746 C260.4107,151.345202 260.4607,154.317542 260.4867,158.577602 C260.5347,170.798594 260.1267,168.358982 260.2897,177.84401 C260.2957,176.462798 260.2967,176.23877 260.3027,174.841682 L260.3737,179.717378 C260.0347,180.74579 260.3397,208.456466 259.9997,209.502518 C260.1377,216.447386 260.0817,209.987618 260.2417,201.05825 L260.3397,208.456466 C260.3517,205.454138 260.3267,202.935146 260.3597,199.721138 C260.5027,209.430194 260.3227,218.567714 260.2337,223.820906 C260.2827,227.528834 260.4887,220.906778 260.4327,231.473138 C260.3667,246.40187 260.1847,228.645446 260.1447,237.610094 L260.3207,244.103378 C260.1857,255.551738 260.3067,264.107138 260.3287,273.765038 C260.3147,275.94887 260.2967,277.019618 260.2777,277.55411 C260.3537,287.82941 260.1057,299.09255 260.1637,306.843566 C260.1997,305.026646 260.2737,311.269442 260.3167,312.204362 L260.2077,326.184062 C260.2547,319.997714 260.3547,320.26937 260.4537,319.138646 C260.4167,323.501018 260.3987,325.568426 260.3747,328.535474 C260.4097,326.722082 260.4457,324.889286 260.4917,327.198362 L260.3247,341.871314 C260.3177,340.999898 260.3067,339.318806 260.2967,337.90937 C260.2957,341.574962 260.2317,349.509434 260.3137,354.75557 C260.3527,354.289874 260.3897,352.48883 260.4287,352.037246 C260.3167,347.632538 260.4127,345.127658 260.4877,342.843278 C260.4707,352.96511 260.5137,345.367562 260.5847,350.237966 C260.5817,357.378638 260.4477,360.306878 260.3617,358.43351 C260.4007,366.498518 260.4277,369.06161 260.3257,377.294198 L260.4627,375.731294 L260.4197,383.300618 L260.5867,377.165426 C260.6807,391.679618 260.3517,379.834358 260.4287,395.955554 L260.5497,395.999654 C260.5037,402.201878 260.2997,404.331026 260.4437,409.14851 C260.3717,415.170806 260.2737,398.850278 260.2497,412.997558 C260.3107,415.493618 260.3567,420.86147 260.3817,424.92749 C260.3317,429.027026 260.2547,422.868902 260.2537,419.527886 C260.2427,424.721102 260.2657,428.095634 260.3017,430.533482 C260.3277,431.817674 260.3487,432.851378 260.3677,433.77395 C260.3737,434.00327 260.3797,434.22377 260.3857,434.440742 C260.3927,434.712398 260.3977,434.66477 260.4037,434.79707 C260.4167,434.99111 260.4287,435.181622 260.4397,435.373898 C260.3527,435.391538 260.2667,435.407414 260.1747,435.425054 L260.0197,435.44975 C259.9177,435.456806 259.8117,435.463862 259.7037,435.470918 C259.2407,435.488558 258.7237,435.51149 258.1007,435.536186 C256.8517,435.562646 255.1767,435.557354 252.6777,435.49385 Z M222.1877,435.63497 L225.2007,435.668486 C224.3247,435.666722 223.3327,435.656138 222.1877,435.63497 Z M215.0017,437.150246 C214.3157,437.09027 213.6237,437.033822 216.0967,437.095562 L215.0017,437.150246 Z M46.6637,437.150246 L45.5687,437.095562 C48.0417,437.033822 47.3497,437.09027 46.6637,437.150246 Z M39.4767,435.63497 C38.3327,435.656138 37.3407,435.666722 36.4647,435.668486 L39.4767,435.63497 Z M0.6597,372.981218 L0.6267,372.011018 C0.6177,370.973786 0.6137,369.858938 0.6137,368.707046 C0.6377,369.065138 0.6587,368.871098 0.6767,367.45637 C0.6837,369.172742 0.6757,371.16959 0.6597,372.981218 Z M0.5277,374.97983 C0.5257,375.484334 0.5247,375.983546 0.5237,376.473938 L0.6547,373.475138 C0.6137,377.71403 0.5327,380.605226 0.5167,375.563714 L0.5277,374.97983 Z M1.2017,28.4543784 C1.1937,27.6252984 1.1867,26.7785784 1.1797,25.8930504 C1.2037,22.9859784 1.2267,22.9383504 1.2477,23.5434024 C1.2297,25.5137904 1.2357,28.8459864 1.2017,28.4543784 Z M83.2617,2.8569744 C83.7007,2.8622664 84.1627,2.8763784 84.6677,2.9081304 C84.3897,2.9081304 84.1437,2.9081304 83.9257,2.9063664 C83.7067,2.8904904 83.4837,2.8728504 83.2617,2.8569744 Z M54.4987,3.1074624 L54.4657,3.1074624 L54.4987,3.1074624 Z M36.3057,2.5764984 C35.6237,2.4636024 35.3107,2.3489424 36.3517,2.2519224 C36.4517,2.2431024 36.5787,2.2325184 36.7097,2.2254624 C38.3327,2.3171904 37.6017,2.4459624 36.3057,2.5764984 Z M37.9437,2.7617184 C39.0877,2.7440784 40.3837,2.7528984 41.8187,2.8075824 C40.9167,2.8763784 39.5197,2.8428624 37.9437,2.7617184 Z M124.6077,1.8814824 C124.5267,1.8532584 124.3927,1.8285624 124.2327,1.8056304 C125.2527,1.8109224 124.6777,1.8320904 124.6077,1.8814824 Z M122.7587,3.1709664 C122.2287,3.0492504 122.6737,2.7282024 122.2917,2.6629344 C123.2137,2.6576424 124.0437,2.7087984 124.6867,2.7811224 C124.6417,2.9381184 124.1827,3.0810024 122.7587,3.1709664 Z M137.4327,1.8056304 C137.2717,1.8285624 137.1377,1.8532584 137.0577,1.8814824 C136.9877,1.8320904 136.4127,1.8109224 137.4327,1.8056304 Z M136.9777,2.7811224 C137.6217,2.7087984 138.4507,2.6576424 139.3737,2.6629344 C138.9907,2.7282024 139.4357,3.0492504 138.9067,3.1709664 C137.4827,3.0810024 137.0237,2.9381184 136.9777,2.7811224 Z M223.7217,2.7617184 C222.1447,2.8428624 220.7487,2.8763784 219.8457,2.8075824 C221.2817,2.7528984 222.5777,2.7440784 223.7217,2.7617184 Z M225.3127,2.2519224 C226.3537,2.3489424 226.0417,2.4636024 225.3597,2.5764984 C224.0627,2.4459624 223.3327,2.3171904 224.9557,2.2254624 C225.0867,2.2325184 225.2137,2.2431024 225.3127,2.2519224 Z M207.1997,3.1074624 L207.1667,3.1074624 L207.1997,3.1074624 Z M177.7397,2.9063664 C177.5197,2.9081304 177.2747,2.9081304 176.9977,2.9081304 C177.5027,2.8763784 177.9637,2.8622664 178.4037,2.8569744 C178.1817,2.8728504 177.9587,2.8904904 177.7397,2.9063664 Z M260.4177,23.5434024 C260.4377,22.9383504 260.4617,22.9859784 260.4857,25.8930504 C260.4777,26.7785784 260.4707,27.6252984 260.4637,28.4543784 C260.4297,28.8459864 260.4347,25.5137904 260.4177,23.5434024 Z M261.2607,371.444774 L261.3707,359.700062 C261.7767,353.82947 261.4217,333.143042 261.4527,316.090454 L261.4767,318.325442 C261.5177,317.14709 261.5277,312.124982 261.5577,313.987766 C261.5247,308.431166 261.4857,309.313166 261.4237,312.301382 C261.5097,302.81459 261.4487,291.971282 261.4007,284.005058 L261.4007,284.01035 C261.4277,281.86709 261.4517,277.808126 261.5077,277.524122 C261.4747,277.215422 261.4217,278.908862 261.3767,279.612698 C261.3597,276.516878 261.3527,274.209566 261.3737,273.182918 L261.2497,271.77701 C261.3187,266.825462 261.3647,263.475626 261.3927,260.420378 C261.4027,259.801214 261.4127,259.042694 261.4197,258.072494 L261.4077,258.35297 C261.4347,253.870646 261.4217,249.395378 261.3787,240.525986 C261.3587,240.737666 261.3227,242.598686 261.2977,240.047942 C261.3897,236.168906 261.4797,232.265174 261.4557,221.227826 L261.4167,221.67941 L261.4357,204.413378 C261.3427,204.44513 261.3097,202.652906 261.3057,199.864022 C261.3287,198.089438 261.3617,196.265462 261.4117,193.698842 C261.3907,191.746094 261.3717,190.49189 261.3537,189.64517 C261.3557,189.437018 261.3567,189.228866 261.3577,189.01895 C261.3637,188.15459 261.3697,187.283174 261.3757,186.413522 L261.4617,187.48427 L261.3867,184.594838 C261.4127,179.874374 261.4207,175.360298 261.3617,172.386194 L261.4337,172.75487 L261.3737,169.10339 L261.3427,171.558878 C261.3207,170.756258 261.2927,170.098286 261.2567,169.639646 C261.3157,167.826254 261.3537,163.35275 261.3847,158.729306 C261.3907,158.503514 261.3967,158.28125 261.4047,158.02547 C261.3977,158.173646 261.3927,158.291834 261.3867,158.38709 C261.4117,154.49747 261.4327,150.544346 261.4557,148.01477 C261.4397,147.975962 261.4227,147.624926 261.4047,146.69177 C261.4127,146.450102 261.4177,146.183738 261.4247,145.929722 C261.4277,145.998518 261.4307,146.106122 261.4327,146.30369 L261.4307,145.702166 C261.5297,141.270998 261.4637,134.807702 261.4097,128.89301 C261.4207,128.300306 261.4307,127.721714 261.4447,127.083146 C261.4287,127.162526 261.4127,127.483574 261.3987,127.642334 C261.3877,126.29111 261.3777,124.98575 261.3707,123.749186 C261.3717,123.500462 261.3717,123.260558 261.3727,122.980082 C261.3717,122.918342 261.3687,122.831906 261.3657,122.743706 C261.3627,121.851122 261.3607,120.992054 261.3637,120.203546 C261.4127,115.414286 261.4777,117.485222 261.5437,119.573798 C261.3807,110.101118 261.7247,93.4224984 261.6557,89.9632944 C261.6407,83.0219544 261.5097,87.3772704 261.4247,85.4721504 C261.4617,75.1598064 261.7697,87.2079264 261.6177,73.3640544 C261.6017,74.9728224 261.5887,77.9469264 261.5657,76.7950344 C261.5517,74.3924664 261.4527,71.1290664 261.3577,67.7898144 L261.2887,54.4345704 L261.3167,54.3075624 C261.3227,48.5092944 261.2897,42.5487384 261.2657,36.4276584 L261.3177,36.8192664 C261.2837,33.3230184 261.2677,30.9963024 261.2597,29.3293224 C261.2637,29.8708704 261.2727,30.3118704 261.2947,30.5994024 C261.3207,26.6621544 261.3417,23.5381104 261.3597,20.7915624 C261.3147,24.2295984 261.2537,27.1684224 261.2587,29.0100384 C261.2387,24.3036864 261.2997,25.2227304 261.2677,18.8934984 C261.2817,16.4609424 261.3007,14.0089824 261.3337,11.5182144 C261.3207,8.4417984 261.3087,5.3054064 261.2917,1.3117104 C259.9217,1.3064184 258.3207,1.2993624 256.4407,1.2923064 L255.6087,1.1194344 C252.3347,1.1794104 245.7747,0.9465624 244.3677,1.1264904 C240.8347,0.6643224 228.4737,1.0259424 222.7137,0.9447984 L222.4957,1.1670624 C221.7307,1.1670624 220.9727,1.1670624 220.2107,1.1705904 C219.2117,1.1300184 217.9497,1.1017944 216.3297,1.0982664 C216.9517,1.1300184 217.7757,1.1547144 218.2017,1.1811744 C215.6377,1.2058704 212.9517,1.2517344 209.8097,1.3099464 L209.8227,1.3187664 C207.6227,1.3399344 205.1687,1.3875624 201.9077,1.3258224 C203.2067,1.3928544 202.9987,1.4457744 202.4757,1.5039864 C199.3737,1.4510664 195.9397,1.3769784 192.4917,1.3875624 C192.9487,1.3117104 194.6507,1.3293504 195.8547,1.3769784 C187.8377,0.9306864 178.9387,1.7015544 171.6677,1.3752144 C169.8557,1.4475384 168.5437,1.4228424 167.2717,1.3752144 C167.4407,1.3699224 167.5917,1.3663944 167.7227,1.3646304 C167.5357,1.3628664 167.2607,1.3611024 166.9777,1.3611024 C166.1777,1.3258224 165.3517,1.2923064 164.4607,1.2552624 C165.2237,1.2940704 165.9487,1.3293504 166.5787,1.3611024 C165.1817,1.3822704 163.0627,1.4104944 160.9837,1.4404824 L160.0997,1.2270384 C159.9307,1.2305664 159.7947,1.2305664 159.6187,1.2340944 C157.5797,1.1547144 157.9787,1.3328784 159.0667,1.4934024 C158.0237,1.5410304 157.0667,1.5868944 156.3187,1.6221744 C154.6627,1.2781944 150.8687,1.7368344 148.6077,1.3716864 C147.7977,1.4739984 144.4317,1.5039864 141.5237,1.5816024 C140.6527,1.5516144 139.5857,1.5110424 138.2137,1.4510664 C139.2717,1.5233904 139.8007,1.5816024 139.9227,1.6345224 C138.8567,1.6768584 137.9617,1.7297784 137.4427,1.8056304 C136.5567,1.7879904 135.6747,1.7738784 134.8027,1.7668224 L131.8607,1.5551424 L130.8907,1.8232704 C130.8717,1.8232704 130.8517,1.8232704 130.8327,1.8250344 C130.8127,1.8232704 130.7937,1.8232704 130.7737,1.8232704 L129.8047,1.5551424 L126.8617,1.7668224 C125.9907,1.7738784 125.1077,1.7879904 124.2227,1.8056304 C123.7037,1.7297784 122.8077,1.6768584 121.7427,1.6345224 C121.8647,1.5816024 122.3927,1.5233904 123.4517,1.4510664 C122.0797,1.5110424 121.0127,1.5516144 120.1417,1.5816024 C117.2337,1.5039864 113.8677,1.4739984 113.0567,1.3716864 C110.7967,1.7368344 107.0017,1.2781944 105.3457,1.6221744 C104.5987,1.5868944 103.6417,1.5410304 102.5987,1.4934024 C103.6857,1.3328784 104.0847,1.1547144 102.0467,1.2340944 C101.8707,1.2305664 101.7347,1.2305664 101.5657,1.2270384 L100.6817,1.4404824 C98.6017,1.4104944 96.4827,1.3822704 95.0867,1.3611024 C95.7167,1.3293504 96.4417,1.2940704 97.2037,1.2552624 C96.3117,1.2923064 95.4867,1.3258224 94.6867,1.3611024 C94.4047,1.3611024 94.1287,1.3628664 93.9427,1.3646304 C94.0737,1.3663944 94.2247,1.3699224 94.3927,1.3752144 C93.1217,1.4228424 91.8097,1.4475384 89.9977,1.3752144 C82.7267,1.7015544 73.8277,0.9306864 65.8097,1.3769784 C67.0147,1.3293504 68.7167,1.3117104 69.1727,1.3875624 C65.7247,1.3769784 62.2917,1.4510664 59.1887,1.5039864 C58.6667,1.4457744 58.4587,1.3928544 59.7577,1.3258224 C56.4967,1.3875624 54.0427,1.3399344 51.8417,1.3187664 L51.8557,1.3099464 C48.7127,1.2517344 46.0277,1.2058704 43.4637,1.1811744 C43.8897,1.1547144 44.7137,1.1300184 45.3357,1.0982664 C43.7157,1.1017944 42.4537,1.1300184 41.4547,1.1705904 C40.6927,1.1670624 39.9337,1.1670624 39.1697,1.1670624 L38.9517,0.9447984 C33.1917,1.0259424 20.8307,0.6643224 17.2977,1.1264904 C15.8907,0.9465624 9.3297,1.1794104 6.0567,1.1194344 L5.2247,1.2923064 C3.3447,1.2993624 1.7437,1.3064184 0.3737,1.3117104 C0.3567,5.3054064 0.3447,8.4417984 0.3307,11.5182144 C0.3637,14.0089824 0.3837,16.4609424 0.3977,18.8934984 C0.3657,25.2227304 0.4267,24.3036864 0.4067,29.0100384 C0.4107,27.1684224 0.3507,24.2295984 0.3057,20.7915624 C0.3237,23.5381104 0.3447,26.6621544 0.3707,30.5994024 C0.3917,30.3118704 0.4017,29.8708704 0.4057,29.3293224 C0.3977,30.9963024 0.3807,33.3230184 0.3477,36.8192664 L0.3987,36.4276584 C0.3757,42.5487384 0.3417,48.5092944 0.3487,54.3075624 L0.3757,54.4345704 L0.3077,67.7898144 C0.2127,71.1290664 0.1137,74.3924664 0.0997,76.7950344 C0.0767,77.9469264 0.0627,74.9728224 0.0467,73.3640544 C-0.1053,87.2079264 0.2037,75.1598064 0.2407,85.4721504 C0.1557,87.3772704 0.0247,83.0219544 0.0097,89.9632944 C-0.0603,93.4224984 0.2837,110.101118 0.1217,119.573798 C0.1867,117.485222 0.2527,115.414286 0.3017,120.203546 C0.3037,120.992054 0.3027,121.851122 0.2997,122.743706 C0.2967,122.831906 0.2937,122.918342 0.2917,122.980082 C0.2927,123.260558 0.2937,123.500462 0.2947,123.749186 C0.2877,124.98575 0.2777,126.29111 0.2667,127.642334 C0.2527,127.483574 0.2367,127.162526 0.2207,127.083146 C0.2347,127.721714 0.2437,128.300306 0.2547,128.89301 C0.2007,134.807702 0.1347,141.270998 0.2347,145.702166 L0.2317,146.30369 C0.2337,146.106122 0.2367,145.998518 0.2407,145.929722 C0.2467,146.183738 0.2527,146.450102 0.2607,146.69177 C0.2427,147.624926 0.2257,147.975962 0.2097,148.01477 C0.2327,150.544346 0.2537,154.49747 0.2787,158.38709 C0.2727,158.291834 0.2677,158.173646 0.2607,158.02547 C0.2677,158.28125 0.2737,158.503514 0.2807,158.729306 C0.3107,163.35275 0.3497,167.826254 0.4087,169.639646 C0.3727,170.098286 0.3447,170.756258 0.3217,171.558878 L0.2917,169.10339 L0.2317,172.75487 L0.3037,172.386194 C0.2447,175.360298 0.2527,179.874374 0.2787,184.594838 L0.2037,187.48427 L0.2897,186.413522 C0.2957,187.283174 0.3007,188.15459 0.3067,189.01895 C0.3087,189.23063 0.3097,189.437018 0.3107,189.646934 C0.2937,190.495418 0.2747,191.746094 0.2537,193.698842 C0.3037,196.265462 0.3367,198.089438 0.3587,199.864022 C0.3557,202.652906 0.3227,204.44513 0.2277,204.413378 L0.2487,221.67941 L0.2097,221.227826 C0.1847,232.265174 0.2757,236.168906 0.3677,240.047942 C0.3417,242.598686 0.3067,240.737666 0.2857,240.525986 C0.2437,249.395378 0.2297,253.870646 0.2577,258.35297 L0.2447,258.072494 C0.2527,259.042694 0.2627,259.801214 0.2727,260.420378 C0.2997,263.475626 0.3467,266.825462 0.4157,271.77701 L0.2917,273.182918 C0.3117,274.209566 0.3057,276.516878 0.2887,279.612698 C0.2437,278.908862 0.1907,277.215422 0.1567,277.524122 C0.2137,277.808126 0.2377,281.86709 0.2637,284.01035 L0.2637,284.005058 C0.2167,291.971282 0.1547,302.81459 0.2417,312.301382 C0.1797,309.313166 0.1407,308.431166 0.1077,313.987766 C0.1377,312.124982 0.1467,317.14709 0.1877,318.325442 L0.2127,316.090454 C0.2437,333.143042 -0.1123,353.82947 0.2937,359.700062 L0.4047,371.444774 C0.4267,362.189066 0.4947,365.050274 0.5607,367.287026 C0.5497,369.682538 0.5387,372.067466 0.5297,374.33597 C0.3087,372.300314 0.4537,393.288386 0.2957,392.882666 C0.2777,407.51681 0.2597,421.96397 0.2427,436.194158 C0.2417,436.231202 0.2417,436.259426 0.2417,436.29647 L0.2417,436.291178 C0.2417,436.562834 0.2417,436.838018 0.2407,437.106146 C0.5897,437.109674 0.9347,437.109674 1.2817,437.113202 L2.9787,437.330174 L3.5477,437.123786 C10.9587,437.164358 18.2637,437.201402 25.4317,437.238446 L24.9217,437.148482 C25.1647,437.150246 25.3707,437.15201 25.5377,437.15201 C25.3327,437.15201 25.1257,437.150246 24.9197,437.148482 L23.6347,436.92269 L23.7947,436.917398 L25.8077,436.924454 C26.0057,437.017946 26.7317,437.123786 25.5377,437.15201 C26.5197,437.153774 27.4447,437.159066 27.9547,437.173178 C27.7057,437.174942 27.4397,437.174942 27.1407,437.173178 C27.4717,437.203166 27.8677,437.217278 28.2957,437.224334 C28.1447,437.247266 27.7037,437.279018 26.8377,437.321354 C30.0987,437.219042 33.3757,437.15201 36.6577,437.09909 C36.0817,437.21375 31.6137,437.32841 33.2287,437.333702 L36.4507,437.31077 L35.7247,437.271962 C37.2337,437.19611 37.9527,437.11673 39.2047,437.069102 C40.5777,437.051462 41.9487,437.026766 43.3247,437.017946 C46.3157,437.083214 44.8577,437.217278 46.0397,437.227862 C46.0397,437.227862 46.1347,437.247266 46.4107,437.250794 C46.6867,437.247266 47.1427,437.243738 47.8527,437.238446 L54.8307,437.264906 L52.0407,437.01089 C52.3027,437.000306 52.5657,436.991486 52.8287,436.98443 C63.2817,436.986194 73.7317,437.076158 84.0327,437.023238 C84.1357,437.026766 84.2307,437.030294 84.3087,437.033822 C84.4127,437.02853 84.5167,437.025002 84.6207,437.021474 C87.7727,437.003834 90.9137,436.97561 94.0317,436.920926 C95.5177,436.947386 94.6637,437.044406 94.0927,437.109674 C98.1397,436.841546 97.9637,437.250794 100.1777,437.289602 L104.9487,436.97561 C105.7027,436.987958 106.4987,436.998542 107.2967,437.01089 C107.5067,437.088506 106.6817,437.16083 106.7997,437.21375 C108.6707,437.226098 110.5267,437.224334 112.3737,437.215514 C112.3987,437.217278 112.4267,437.220806 112.4507,437.22257 C112.4317,437.220806 112.4247,437.217278 112.4087,437.215514 C116.1087,437.199638 119.7527,437.157302 123.2697,437.118494 C123.3877,437.127314 123.5107,437.13437 123.6607,437.141426 C124.7397,437.113202 125.8497,437.095562 126.9777,437.084978 C128.2837,437.076158 129.5707,437.069102 130.8327,437.067338 C132.0947,437.069102 133.3817,437.076158 134.6867,437.084978 C135.8157,437.095562 136.9257,437.113202 138.0047,437.141426 C138.1547,437.13437 138.2777,437.127314 138.3947,437.118494 C141.9127,437.157302 145.5567,437.199638 149.2567,437.215514 C149.2407,437.217278 149.2337,437.220806 149.2147,437.22257 C149.2387,437.220806 149.2667,437.217278 149.2917,437.215514 C151.1387,437.224334 152.9947,437.226098 154.8647,437.21375 C154.9837,437.16083 154.1577,437.088506 154.3687,437.01089 C155.1657,436.998542 155.9627,436.987958 156.7167,436.97561 L161.4867,437.289602 C163.7017,437.250794 163.5257,436.841546 167.5727,437.109674 C167.0007,437.044406 166.1477,436.947386 167.6337,436.920926 C170.7517,436.97561 173.8927,437.003834 177.0437,437.021474 C177.1487,437.025002 177.2527,437.02853 177.3567,437.033822 C177.4347,437.030294 177.5297,437.026766 177.6317,437.023238 C187.9327,437.076158 198.3827,436.986194 208.8367,436.98443 C209.0997,436.991486 209.3627,437.000306 209.6247,437.01089 L206.8347,437.264906 L213.8107,437.238446 C214.5217,437.243738 214.9767,437.247266 215.2547,437.250794 C215.5307,437.247266 215.6257,437.227862 215.6257,437.227862 C216.8077,437.217278 215.3487,437.083214 218.3407,437.017946 C219.7157,437.026766 221.0877,437.051462 222.4607,437.069102 C223.7127,437.11673 224.4307,437.19611 225.9397,437.271962 L225.2147,437.31077 L228.4347,437.333702 C230.0507,437.32841 225.5837,437.21375 225.0067,437.09909 C228.2897,437.15201 231.5657,437.219042 234.8277,437.321354 C233.9617,437.279018 233.5187,437.247266 233.3697,437.224334 C233.7977,437.217278 234.1937,437.203166 234.5237,437.173178 C234.2257,437.174942 233.9597,437.174942 233.7107,437.173178 C234.2207,437.159066 235.1447,437.153774 236.1277,437.15201 C234.9337,437.123786 235.6597,437.017946 235.8577,436.924454 L237.8697,436.917398 L238.0297,436.92269 L236.7447,437.148482 C236.5387,437.150246 236.3327,437.15201 236.1277,437.15201 C236.2937,437.15201 236.5007,437.150246 236.7437,437.148482 L236.2327,437.238446 C243.4017,437.201402 250.7067,437.164358 258.1167,437.123786 L258.6857,437.330174 L260.3827,437.113202 C260.7307,437.109674 261.0747,437.109674 261.4237,437.106146 C261.4237,436.838018 261.4237,436.562834 261.4227,436.291178 C261.4227,436.294706 261.4237,436.294706 261.4237,436.29647 C261.4237,436.259426 261.4227,436.231202 261.4227,436.194158 C261.4047,421.96397 261.3877,407.51681 261.3697,392.882666 C261.2117,393.288386 261.3567,372.300314 261.1347,374.33597 C261.1267,372.067466 261.1147,369.682538 261.1037,367.287026 C261.1707,365.050274 261.2387,362.189066 261.2607,371.444774 Z" id="Fill-84" fill="#FF722D" mask="url(#mask-18)"></path>
                    </g>
                    <path d="M260.3961,145.421514 L260.3981,144.239634 C260.3961,144.578322 260.3951,144.957582 260.3961,145.421514" id="Fill-87" fill="#FF722D"></path>
                    <path d="M231.1686,2.9818656 C231.0876,3.0206736 230.9926,3.0630096 230.6486,3.0965256 C231.6556,3.0594816 231.6466,3.0189096 231.1686,2.9818656" id="Fill-89" fill="#FF722D"></path>
                    <path d="M260.2555,277.892093 C260.2635,277.839173 260.2705,277.740389 260.2775,277.555169 L260.2765,277.216481 L260.2555,277.892093 Z" id="Fill-91" fill="#FF722D"></path>
                    <path d="M0.2321,146.303514 C0.2301,146.46933 0.2291,146.673954 0.2291,146.956194 L0.2321,146.303514 Z" id="Fill-93" fill="#FF722D"></path>
                    <path d="M95.2555,3.4022268 C99.9695,3.2681628 95.9915,3.6527148 101.2075,3.5451108 C102.6535,3.2487588 101.0005,3.3122628 97.8525,3.2011308 C99.1085,3.2928588 94.0305,3.2963868 95.2555,3.4022268" id="Fill-95" fill="#FF722D"></path>
                    <path d="M97.8522,3.200778 C97.3482,3.17961 96.8152,3.156678 96.2452,3.131982 C97.1552,3.17079 97.5842,3.190194 97.8522,3.200778" id="Fill-97" fill="#FF722D"></path>
                    <g id="Group-101" transform="translate(6.000000, 437.244585)">
                        <mask id="mask-20" fill="white">
                            <use xlink:href="#path-19"></use>
                        </mask>
                        <g id="Clip-100"></g>
                        <polygon id="Fill-99" fill="#FF722D" mask="url(#mask-20)" points="0.8542 0.227414634 4.2082 0.133922634 3.0192 0.0757106341"></polygon>
                    </g>
                    <path d="M260.1295,81.0062316 L260.0905,81.4560516 L260.1815,86.0812596 C260.1755,83.3064876 260.1715,81.9217476 260.1295,81.0062316" id="Fill-102" fill="#FF722D"></path>
                    <polygon id="Fill-104" fill="#FF722D" points="260.3551 162.904694 260.2091 160.322198 260.2111 161.701646"></polygon>
                    <path d="M260.0456,220.313898 C260.0386,223.072794 260.0316,226.304442 260.0246,229.054518 C260.2076,229.797162 260.0196,226.304442 260.0456,220.313898" id="Fill-106" fill="#FF722D"></path>
                </g>
            </g>
        </g>
    </g>
</svg>