<?xml version="1.0" encoding="UTF-8" standalone="no"?>
<svg width="803px" height="169px" viewBox="0 0 803 169" version="1.1" xmlns="http://www.w3.org/2000/svg" xmlns:xlink="http://www.w3.org/1999/xlink">
    <!-- Generator: Sketch 49.1 (51147) - http://www.bohemiancoding.com/sketch -->
    <title>Page 1 Copy 4</title>
    <desc>Created with Sketch.</desc>
    <defs>
        <polygon id="path-1" points="0 0 1112 0 1112 187 0 187"></polygon>
    </defs>
    <g id="2.0_Pricing" stroke="none" stroke-width="1" fill="none" fill-rule="evenodd">
        <g id="B-2-1-價格方案">
            <g id="Page-1-Copy-4" transform="translate(-272.000000, 0.000000)">
                <mask id="mask-2" fill="white">
                    <use xlink:href="#path-1"></use>
                </mask>
                <g id="Clip-2"></g>
                <path d="M967.848005,68.5874746 C967.937293,68.4402289 968.026581,68.2909093 968.111811,68.1436636 C968.286329,68.1084075 968.458818,68.0669299 968.631306,68.0254522 C968.345178,68.2577272 968.083401,68.4423028 967.848005,68.5874746 Z M961.127034,72.888709 C960.205742,73.6166421 959.245893,74.2782109 958.304308,74.9771096 C961.735818,71.7148909 958.521441,72.8658963 954.61305,74.4233828 C954.237634,74.5540374 953.8541,74.686766 953.472596,74.8194945 C955.152838,73.7638878 956.676826,72.745611 958.079058,71.7605164 C959.122107,71.8890971 960.215888,72.0425645 961.212264,71.9513136 C961.662764,71.9036143 962.080795,71.8413978 962.484622,71.7750335 L961.127034,72.888709 Z M494.618218,168.403487 L492.077562,168.218911 C497.800127,167.758509 496.201056,168.067518 494.618218,168.403487 Z M-37,0 L-37,187 C-35.7804036,185.641606 -34.5323973,184.252104 -33.233659,182.804534 L-32.4442697,181.929355 L-31.6629974,181.20557 C-31.1394436,180.724429 -30.6260361,180.23914 -30.0517503,179.789107 L-29.2116289,179.100578 L-28.7367778,178.689949 L-27.7830168,177.866617 C-25.2910628,175.583271 -22.3628138,173.581974 -19.5827022,171.688518 C-16.8512933,169.720403 -13.9189858,168.343344 -11.4189146,167.229669 C-13.985952,168.065444 -16.57937,168.91781 -11.4189146,165.52701 C-7.44558723,162.953321 -1.34354664,160.846255 4.38307742,158.372112 C10.2558095,156.180018 16.0209899,154.099912 19.6777498,151.665173 C20.8527021,151.383125 21.339729,151.40179 21.4290172,151.501336 C24.7834147,150.149164 30.2989938,148.110537 35.4675662,146.121683 C40.6767242,144.248966 45.6403396,142.753696 47.6229447,141.689794 C49.4635004,142.092127 53.0553234,141.424337 57.4568286,140.341769 C61.911095,139.462443 67.1689557,138.137231 72.2279471,136.847276 C74.7604867,136.204372 77.2422944,135.575985 79.5353792,134.995298 C81.8568738,134.547339 83.9977627,134.167818 85.8241134,133.894066 C89.4727562,133.352782 91.8612171,133.263605 91.9363004,134.051681 L102.955283,132.268141 C106.622189,131.619015 110.347945,131.384667 114.041232,130.924264 L113.495356,131.305859 C120.605948,130.68162 125.397074,130.053233 129.033541,129.420699 C130.849746,129.103395 132.377793,128.786091 133.761761,128.468786 C135.145728,128.190886 136.391706,127.94202 137.635653,127.693154 C140.953524,127.72841 138.561004,128.15563 138.301257,128.336058 C148.752041,128.085118 154.486782,127.900542 159.791316,127.460879 C165.091792,126.950704 169.982353,126.477858 178.74072,125.633788 L180.579246,126.643769 C182.951473,126.324391 190.516623,126.654138 200.035969,126.890561 C204.788539,127.104171 210.007843,127.496135 215.330641,127.676563 C217.988996,127.759518 220.673731,127.844547 223.328028,127.927503 C225.978266,128.078896 228.604152,128.184664 231.159014,128.234438 C230.949998,128.336058 230.513703,128.501969 228.89028,128.51856 C234.622992,128.709357 240.936078,129.030809 247.206548,130.098859 C250.345842,130.588295 253.499341,131.079806 256.602108,131.565094 C259.704875,132.040014 262.714295,132.792833 265.634427,133.352782 C268.5505,133.95006 271.352934,134.503787 273.990996,134.987002 C276.614853,135.561468 279.07028,136.079939 281.306545,136.463607 C285.775017,137.249609 289.372927,137.500549 291.625427,137.135545 C296.617452,138.062571 301.62977,138.883829 306.625854,139.902106 C287.540489,134.833535 309.874729,138.991671 302.133031,136.440795 C309.738767,138.13101 321.31783,142.654149 312.031852,140.374951 L310.631649,139.812929 C306.763845,140.75862 334.209837,146.849616 333.38595,147.994399 C371.033125,158.388703 408.942078,165.663887 445.592878,167.623707 L441.465325,165.88994 L454.215282,166.640686 C457.545328,167.167452 458.663461,168.061296 449.552,167.52416 C454.310658,168.625392 464.866965,167.638224 465.128742,167.194413 C482.947837,168.1007 458.109468,168.847298 463.574315,168.971731 L471.015679,168.9821 L469.343554,168.77886 C475.384716,168.258315 475.928563,167.609189 486.872462,167.864277 C490.332382,168.1007 491.229323,168.264537 491.596622,168.457408 C491.961893,168.650279 491.79955,168.828633 493.173372,168.81619 C493.157138,168.924032 494.084518,168.946844 497.382096,168.733234 L513.583856,168.366157 L507.055666,167.372767 C514.194668,166.758897 522.202202,166.350342 514.704017,165.763433 C520.189157,166.221761 535.289019,165.475163 549.63196,162.891104 C551.4299,162.613204 553.219724,162.335304 554.981138,162.061551 C556.732405,161.731804 558.443087,161.335692 560.113183,160.987279 C563.451347,160.273864 566.600787,159.601925 569.411338,159.002573 C575.056791,157.903415 579.224929,156.694341 580.897054,156.46414 C585.63339,154.732447 590.440751,153.411383 595.436835,151.804123 C600.434948,150.205159 605.751658,148.693298 611.608156,146.947088 C608.631204,147.598288 606.539018,146.905611 616.598152,143.846632 C613.751074,147.693686 635.3081,139.103661 643.94268,138.33425 C636.336944,139.342158 672.234882,128.97274 660.375778,130.774945 C668.787137,128.360944 661.175314,131.57339 667.701473,130.297952 C687.269806,123.072542 711.909307,118.667613 737.007424,114.096774 C737.346313,113.671628 733.02395,113.833391 738.354865,112.38582 C742.906536,112.292495 747.407476,111.975191 751.955089,112.068516 C756.93291,111.299105 756.31398,109.43261 765.630398,109.600594 C764.30122,109.449201 762.314556,109.219 765.670983,108.704677 C768.796072,108.424703 771.927249,108.144728 775.066543,107.864754 C778.215983,107.702991 781.371511,107.541228 784.537186,107.379465 C790.858388,107.028979 797.201913,106.614202 803.565731,106.176613 C816.360332,105.811609 829.234075,105.444532 842.134199,105.079528 L851.915321,104.785037 C855.176372,104.664752 858.431335,104.312192 861.690356,104.096508 C864.945319,103.824829 868.210428,103.675509 871.461332,103.327097 L881.201869,102.165722 L886.074167,101.6037 L890.918055,100.809402 L900.613948,99.2581375 L910.253021,97.3128348 L912.669892,96.8441371 L915.056323,96.2489326 L919.845421,95.0771884 C912.854556,96.4998725 917.367672,95.0336368 922.524068,93.4097861 C919.112851,94.2891127 922.329258,92.5283856 921.519576,92.2629285 C925.060667,91.435449 928.496235,90.20771 932.008916,89.1894332 C935.503334,88.1047921 938.894259,86.6904036 942.362296,85.4419257 C943.849757,83.8491832 949.180671,81.3377103 954.020501,78.2579933 C956.506367,76.8560481 958.762925,75.1243554 960.595363,73.832326 C961.660735,73.0027726 962.48868,72.2603223 963.067025,71.6526744 C963.41606,71.571793 963.765096,71.4929854 964.043108,71.374774 C964.759443,71.0346571 965.216031,70.6385454 965.285026,70.1885127 C965.347934,70.4124921 965.07804,72.3474254 964.893375,72.7248722 C966.003391,71.4535816 966.93483,70.1014096 967.760746,68.7305726 C968.473023,68.6579867 969.197475,68.5957702 969.907723,68.4630416 C969.934103,68.4236378 969.960484,68.3821602 969.986864,68.3427564 C970.526653,69.7094456 970.960918,71.1694596 969.499838,72.0508601 C970.327783,72.1338154 971.301837,72.0736728 972.720303,71.125908 C972.143988,71.0657654 970.906128,69.3693287 971.527087,69.0478768 C973.822201,70.1532567 973.010489,69.5331655 975.703342,70.1221484 C974.869309,70.0620058 974.907865,67.5754195 975.98947,67.2145638 C975.944826,67.6148233 976.906704,69.3631071 976.590137,69.7592188 C977.239506,68.6559128 977.860465,67.5609023 978.453015,66.4762612 C977.941636,67.1378301 979.092237,68.3614213 979.950622,68.6787255 C979.483888,68.3821602 982.308644,67.6666704 982.899164,67.0963524 L981.555781,67.1440517 C984.684929,66.0200069 983.063535,62.7806009 985.924818,61.426355 C985.801032,62.0277812 986.407786,64.5081458 987.984536,64.0041921 C988.051502,63.2492985 988.138761,61.4035422 988.504031,59.5225299 C988.50606,59.520456 988.50809,59.520456 988.512148,59.5183821 C989.557227,58.952212 990.59013,58.3611552 991.631149,57.7866894 C991.018307,59.9020506 990.22283,62.1688052 989.54911,63.4919429 C990.860024,63.3986182 990.214713,64.0498176 991.777257,63.1248655 C992.635642,63.3820271 991.357197,64.4604465 990.902638,64.7445685 L994.809,63.0792401 C993.999317,61.9510475 996.97424,60.269128 996.284285,59.3338065 L992.956268,62.8283002 C992.158762,61.6938859 993.435178,58.079107 996.126001,56.8368508 C997.049323,56.9509144 996.809868,59.2840333 997.083821,59.6594062 C997.19949,59.0559061 999.104982,57.4548681 999.506779,57.6145571 L998.766093,58.8962171 C1000.45851,58.5166964 1000.23123,55.9450809 1002.58925,56.0840311 C1003.22442,55.8102785 1005.24355,56.5900587 1004.94119,55.8144262 C1003.89002,55.3332853 1002.54461,53.647218 1001.63955,52.0710666 C1002.30718,51.6770287 1002.9809,51.2850647 1003.64448,50.8868791 L1003.83117,51.4157194 L1004.20862,51.1689272 L1003.92858,50.7147468 C1004.60636,50.3082656 1005.27602,49.8893411 1005.95177,49.4787122 C1006.76957,50.3621866 1005.71028,52.6870099 1006.90553,53.0623829 C1006.7513,52.7139704 1007.05164,51.9860373 1007.19977,51.7205802 C1007.97699,51.6272555 1007.53461,52.8943983 1008.7887,51.9279686 C1008.30167,50.5757966 1011.56475,50.3559649 1008.81711,50.5135801 C1009.91698,49.3625747 1010.35124,49.91008 1011.85088,48.9083942 C1011.21978,48.5890162 1011.3395,47.1455933 1011.80015,45.8701549 C1012.344,45.5279642 1012.88378,45.1795517 1013.42763,44.8352871 C1013.48851,44.8622476 1013.55142,44.8871342 1013.59809,44.9057991 C1016.29703,43.3296477 1018.04627,42.9667181 1020.49358,41.3719017 C1020.90349,41.5129257 1022.29964,41.0857057 1022.12106,41.9297763 C1022.34022,41.4859652 1022.40719,40.867948 1023.13773,40.3411816 C1025.24412,40.3971764 1021.56504,41.614546 1023.4543,42.1081303 C1023.11135,41.3553106 1024.79768,39.8662622 1025.58707,38.7214786 C1024.58055,37.8857035 1022.99162,40.1607537 1022.19006,41.3076113 C1021.86537,40.7932882 1021.77405,40.1172021 1021.86334,39.3623086 C1024.45067,37.6492808 1027.02177,35.9155142 1029.57866,34.156861 C1031.59779,33.4392973 1035.70708,29.9323603 1038.68809,28.80002 C1038.90116,28.3271745 1039.2847,27.7195267 1039.25629,27.3773359 C1041.18613,26.0002773 1043.10989,24.6190709 1045.0235,23.2233473 C1046.3405,22.2652131 1047.62909,21.2759707 1048.94,20.309541 C1048.9948,20.433974 1049.06176,20.558407 1049.18555,20.6579534 L1050.03987,19.4862092 C1050.1251,19.4239927 1050.21033,19.3617762 1050.29353,19.2974858 C1050.34427,19.5484257 1050.2083,20.0191973 1050.64257,19.917577 C1050.52081,19.685302 1050.54516,19.3597023 1050.67098,19.0195854 C1057.52182,13.9282015 1064.31991,8.75800996 1071.05711,3.50901086 C1071.9784,2.78937329 1073.35831,1.5325999 1075,0 L-37,0 Z" id="Fill-1" fill="#FF4E36" mask="url(#mask-2)"></path>
            </g>
        </g>
    </g>
</svg>