<?xml version="1.0" encoding="UTF-8" standalone="no"?>
<svg width="622px" height="223px" viewBox="0 0 622 223" version="1.1" xmlns="http://www.w3.org/2000/svg" xmlns:xlink="http://www.w3.org/1999/xlink">
    <!-- Generator: Sketch 49.1 (51147) - http://www.bohemiancoding.com/sketch -->
    <title>Page 1</title>
    <desc>Created with Sketch.</desc>
    <defs>
        <polygon id="path-1" points="0.22968 0.345 5.30328 0.345 5.30328 1 0.22968 1"></polygon>
        <polygon id="path-3" points="0.97212 0.906 5.79732 0.906 5.79732 1.9052 0.97212 1.9052"></polygon>
    </defs>
    <g id="1.0_Homepage-" stroke="none" stroke-width="1" fill="none" fill-rule="evenodd">
        <g id="B-1-1-首頁" transform="translate(-818.000000, -4078.000000)">
            <g id="Page-1" transform="translate(1132.000000, 4190.000000) scale(-1, 1) translate(-1132.000000, -4190.000000) translate(818.000000, 4078.000000)">
                <g id="Group-76" transform="translate(5.000000, 222.000000)">
                    <mask id="mask-2" fill="white">
                        <use xlink:href="#path-1"></use>
                    </mask>
                    <g id="Clip-75"></g>
                    <polygon id="Fill-74" fill="#FFC536" mask="url(#mask-2)" points="0.22968 1 5.30328 0.345 1.15608 0.526"></polygon>
                </g>
                <path d="M295.956688,195.339 L294.687874,195 C291.934883,195.285 289.81111,195.398 288,195.442 C291.999751,195.51 296.489902,195.746 295.956688,195.339" id="Fill-77" fill="#FFC536"></path>
                <path d="M132,211 C128.122647,211.063 124.975106,210.942 124,211.384 C127.215543,211.295 129.76442,211.16 132,211" id="Fill-79" fill="#FFC536"></path>
                <path d="M601.965014,145.683349 C600.623447,145.113349 600.016163,144.924349 600,145.026349 C601.381975,145.609349 602.180912,145.912349 601.965014,145.683349" id="Fill-81" fill="#FFC536"></path>
                <path d="M142,210 C141.446682,210.012 140.905213,210.023 140.342417,210.035 C138.072275,210.296 135.78673,210.544 133,210.746 C135.795024,210.701 138.983412,210.553 142,210" id="Fill-83" fill="#FFC536"></path>
                <path d="M40,3.161 C39.2845708,3.097 38.076732,3.041 36,3 C36.9594259,3.019 38.5249793,3.096 40,3.161" id="Fill-85" fill="#FFC536"></path>
                <path d="M52.942742,219 C50.983742,219.221 52.636742,219.078 52.942742,219" id="Fill-87" fill="#FFC536"></path>
                <path d="M42.764,217 C42.613,217.12 42.345,217.213 42,217.287 C42.413,217.197 42.724,217.105 42.764,217" id="Fill-89" fill="#FFC536"></path>
                <path d="M50,219.118 C50.8814433,219.098 51.8973037,219.059 53,219 C52.5134814,219.006 51.6022998,219.039 50,219.118" id="Fill-91" fill="#FFC536"></path>
                <path d="M50,219 C49.2465053,219.051 48.6541562,219.09 48.0895908,219.127 C47.8217557,219.224 48.0706979,219.247 50,219" id="Fill-93" fill="#FFC536"></path>
                <path d="M53.5646023,218.291 C54.2876454,218.229 55.308708,218.143 57,218 C55.5891229,218.116 54.2712983,218.199 53,218.267 C53.4878969,218.258 53.6953788,218.266 53.5646023,218.291" id="Fill-95" fill="#FFC536"></path>
                <path d="M473.713392,174.956895 C472.5286,174.943372 473.479633,174.579488 475.03721,174.097587 C474.382683,174.231585 473.762605,174.359436 473.277861,174.459013 C471.883916,174.478682 471.332735,174.39017 471.319202,174.234044 L476.13588,173.761978 C475.754483,173.878765 475.384159,173.991864 475.03721,174.097587 C475.754483,173.957443 476.549266,173.802546 477.369885,173.641502 L479.471261,173.434974 C481.058366,173.512422 482.425245,173.577577 483.376277,173.586182 L473.713392,174.956895 Z M345.715233,187.646129 C346.204898,187.321584 345.915774,186.955241 345.535607,186.564311 L351.553072,185.975458 L345.715233,187.646129 Z M326.551865,189.960974 C326.775782,189.87492 326.96156,189.786408 327.072288,189.700354 C327.184246,189.823288 328.02209,189.804848 326.551865,189.960974 Z M256.131163,196.675622 L248.367882,197.900044 C250.389288,197.246035 253.983035,196.225684 258.006161,195.146325 L270.960135,193.876418 C267.282727,195.009868 262.838834,196.170364 258.124271,196.887068 L256.131163,196.675622 Z M214.76186,201.044692 C213.887107,201.065591 201.677473,201.42087 198.807151,201.23524 C198.29657,201.193442 198.002525,201.125828 197.872112,201.041004 L206.500303,200.19399 L206.766051,201.108618 L207.708471,200.077202 L216.163188,199.248628 C216.261613,199.967791 215.813779,200.654992 214.76186,201.044692 Z M167.179473,204.590105 C167.431688,204.387264 166.608608,204.248349 165.967614,204.168442 L173.070216,203.471407 C171.159538,203.913969 169.042168,204.327026 167.179473,204.590105 Z M107.998918,210.870796 C91.50287,212.305435 94.1369719,214.049866 80.3820633,214.646096 C74.8887121,214.520703 80.0080479,213.361437 78.7568188,213.004929 C85.8803358,212.055879 89.7705881,212.346003 94.6106427,211.845662 L88.6165538,212.118575 C90.868028,211.677243 95.623191,211.044133 98.2400685,210.980208 C97.6864273,210.961768 96.8559654,210.987584 95.811429,211.045363 L129.637677,207.729836 C126.449934,208.694867 120.566573,209.849216 113.375389,210.869567 C104.627858,211.984577 109.507282,210.574526 107.998918,210.870796 Z M80.086788,215.467294 C80.1606068,215.448854 80.2110497,215.436561 80.2725654,215.420579 C84.2292547,215.265682 82.8242363,215.311168 80.086788,215.467294 Z M303.957152,82.5856123 L305.476589,83.0798064 C301.934516,82.4737424 302.949525,82.5388974 303.957152,82.5856123 Z M4.82726116,218.570145 L4.82726116,219.236447 L4.79158206,218.572604 C4.80265489,218.557852 4.81495803,218.56154 4.82726116,218.570145 Z M4.82726116,207.508555 L4.82726116,216.72122 C4.77312736,216.187686 4.72760575,215.563182 4.69315696,214.835414 C4.59104091,212.701282 4.60949562,210.037305 4.82726116,207.508555 Z M627.956606,161.447692 L627.844648,161.369014 L627.625652,161.215347 L627.196272,160.912929 C626.921912,160.713776 626.656164,160.519541 626.394108,160.330223 C626.743517,160.641245 627.085544,160.952268 627.295928,161.177237 C627.34391,161.232557 627.388201,161.285419 627.428801,161.332134 C627.489087,161.364097 627.363595,161.353033 627.293467,161.353033 C627.215957,161.351803 627.142138,161.350574 627.073241,161.348115 C626.791499,161.340739 626.562661,161.328446 626.400259,161.307547 C626.071765,161.268208 626.037317,161.205512 626.32398,161.098559 C625.673144,160.770326 624.71965,160.245398 623.404445,159.496731 C619.771328,157.294985 615.493527,154.272041 610.713758,151.231887 C609.600324,150.527476 608.494272,149.826753 607.411596,149.140782 C606.572522,148.624459 605.74452,148.133953 604.942356,147.681557 C603.334336,146.779222 601.833353,146.019491 600.507074,145.568323 C599.874693,145.112239 599.660619,144.895875 599.672922,144.811051 C595.500927,142.718716 586.214519,137.860369 583.479531,137.036713 C582.042525,135.16443 575.545237,131.943562 569.414583,129.245164 C563.338064,126.443501 557.618335,124.188893 558.077242,123.329586 C553.764992,121.266755 549.342013,119.430123 544.962096,117.507437 L545.382864,117.482851 C543.306094,116.503068 541.518448,115.786363 539.979325,115.19751 C538.442663,114.603739 537.154525,114.140279 536.031248,113.76656 C533.781004,113.026498 532.217275,112.586395 530.621558,112.238492 C528.677663,111.38656 530.193409,111.75905 530.39395,111.727087 C524.147647,109.265951 520.750751,107.794432 517.431364,106.90562 C515.785204,106.424949 514.190717,106.004515 512.323101,105.545972 C511.388062,105.322232 510.386587,105.08374 509.273153,104.816974 C508.156028,104.574794 506.904799,104.384247 505.515774,104.129773 L504.540136,103.242191 C502.999783,103.065166 498.415633,101.393265 492.346495,100.173761 C490.83567,99.8393813 489.247335,99.4902491 487.614708,99.1300529 C485.969779,98.8559103 484.270715,98.6125013 482.558119,98.3703215 C479.130464,97.9535757 475.636373,97.6364063 472.339132,97.5687927 C472.473236,97.5110138 472.754978,97.4151253 473.805666,97.4151253 C458.975463,96.8385655 438.527647,94.0086277 433.067515,96.0173672 L423.344345,96.2558589 C435.894776,96.8336481 421.44351,97.1606522 426.596064,97.6954146 C421.652663,97.6695985 413.852473,96.5963857 419.922842,96.6922742 L420.868953,96.8336481 C423.135191,95.7801048 405.288259,95.8526358 405.661044,95.0523363 C380.989561,94.0602599 357.0698,91.4552912 334.302842,87.9307771 L336.796688,89.2228121 L328.84517,87.9516758 C326.797928,87.378804 326.158165,86.8329776 331.82253,87.7340829 C328.915298,86.8219135 322.267912,86.558835 322.064911,86.7346305 C311.063444,84.4296204 326.57032,86.467864 323.179575,85.8433599 L318.565898,85.106986 L319.583368,85.3934219 C315.792771,85.0664178 315.391689,85.3516244 308.628653,83.9882878 C304.402525,82.8843416 306.558035,82.9679366 304.888499,82.5671722 C304.911875,82.5069346 304.353313,82.3532672 302.324525,81.9758603 C299.029745,81.2566971 295.760801,80.4182881 292.494318,79.5835671 L296.259078,81.2394864 C291.813954,80.5092592 287.009579,78.9307882 291.358738,80.8264285 C290.562725,80.4711497 289.393927,80.0580918 287.949539,79.6020072 C286.512532,79.1164184 284.806087,78.5718213 282.923707,78.0050962 C281.036405,77.4518937 278.980551,76.8470591 276.848417,76.2213257 C274.723665,75.5710055 272.525094,74.8985572 270.344978,74.2322556 C261.624514,71.576884 253.306362,68.7371115 251.405527,67.8052727 C248.3605,66.9803865 245.368377,66.0534651 242.292593,64.8536305 C239.215578,63.6587132 235.944173,62.4687133 232.443931,60.8681143 C234.141764,61.7618436 234.892255,62.9543021 228.819426,60.2325462 C230.266275,59.9473396 227.532518,58.6085897 223.919086,56.8752221 C220.341333,55.0607182 215.843306,52.9130634 213.695178,51.220264 C217.628492,54.0833939 196.791897,42.8939528 202.990218,47.2691693 C198.043126,44.691246 202.975454,46.5721342 199.342337,44.3617832 C196.276395,43.0402441 193.110798,41.5515149 189.848005,39.9509159 C188.221531,39.142011 186.563067,38.3208127 184.881228,37.483633 C183.16248,36.725131 181.417895,35.9543357 179.649934,35.1724762 C176.112782,33.6062987 172.487047,31.9983236 168.803487,30.3657618 C166.975241,29.5113714 165.043648,28.8794913 163.134201,28.1615575 C161.209991,27.4780451 159.275937,26.7920741 157.336963,26.1011858 C157.023233,26.2192023 159.499854,27.4620637 156.074661,26.5707931 C153.467626,25.2738408 150.882736,23.8785413 148.233871,22.6553493 C145.086728,21.8009589 144.991994,22.9651427 139.541704,20.5089239 C140.289734,20.9293577 141.403168,21.5587792 139.301792,20.9859073 C131.72675,18.2235832 123.813372,16.2824573 115.892611,14.1962695 C111.916237,13.2189452 107.875886,12.4530672 103.85399,11.5826954 L97.8033071,10.3312286 L91.7021808,9.28997865 C75.441123,6.40595 59.0201244,4.3332849 42.7467635,2.24709708 C47.1389838,3.03756189 44.1923822,2.78677679 40.8127102,2.60483465 C43.0038991,2.82365695 40.7278185,3.13467965 41.141204,3.4506197 C36.6050369,2.96257222 32.0651789,2.35036154 27.5019449,2 C24.9896441,2.66630159 12.7996947,1.80084713 11.3713004,2.68842969 C12.8169191,2.62819209 14.2649985,2.53230367 15.7093869,2.5015702 C12.5880808,2.99330569 15.2381767,3.56003085 18.1650933,4.16978285 C9.64640041,4.126756 4.82726116,4.42917333 4.82726116,4.42917333 L4.82726116,196.41992 C4.82357022,196.138401 4.82357022,195.854424 4.79773363,195.590116 L4.52337365,195.800333 C4.5369071,198.626583 4.7054601,200.710312 4.82726116,199.043329 L4.82726116,206.611138 C4.40526352,201.971613 2.87106219,205.320332 2,209.780373 C2.10580699,209.862739 2.20915335,209.903307 2.32111191,210.600342 C2.37524572,210.948245 2.43430078,211.45965 2.49704678,212.223069 C2.52411369,212.605393 2.55610185,213.050414 2.59301126,213.567966 C2.62746005,214.132232 2.66067852,214.530538 2.69635762,215.634484 C2.76894614,214.636261 2.9965542,211.506365 3.16264656,209.212419 C3.34104207,207.018049 3.54035291,205.630126 3.75934877,207.914237 C3.88607109,211.497759 3.84301011,212.96559 3.7359728,213.973647 C3.6646146,214.535455 3.60925048,214.974329 3.54158322,215.51278 C3.4689947,216.133596 3.39517588,216.890868 3.32996924,218.072263 C3.60925048,216.168017 3.81840383,218.50499 4.04970283,220.822293 C5.67986864,220.524794 7.35432576,220.21623 8.452996,219.938399 C9.09891076,219.776126 9.53567216,219.624918 9.71160704,219.487232 L53.0444902,215.238637 C52.7885849,215.336984 52.8328762,215.407056 53.3815962,215.431643 L57.3961102,214.946054 C61.1461067,215.114474 49.8973474,216.421261 55.0142226,216.169246 C49.6549756,217.071581 43.6633473,218.250517 36.0378622,218.695538 L34.5368794,218.084556 C34.7214264,218.288626 39.5454869,218.046447 41.6579358,217.606343 C38.5243265,218.250517 29.9108994,217.734195 26.5386092,219.056963 L31.9138503,219.054504 C26.5336879,219.961756 19.9145996,221.414835 13.1589464,221.838957 C16.2962466,222.27906 14.7042205,221.601694 19.5725723,222 C15.3193774,221.327552 36.7981962,220.356374 30.0253186,219.875703 C35.0314655,220.40186 38.5636965,219.470021 45.0634444,219.698678 C44.8407576,219.47125 42.7443029,219.447893 48.4086677,219.016395 C48.6559608,218.919277 49.248972,218.769298 49.6266784,218.675868 C49.7989223,218.668492 49.860438,218.666033 50.009306,218.658657 L49.6943457,218.658657 C49.9367175,218.59842 49.9564025,218.588585 49.5786962,218.661116 C48.2204297,218.684473 47.1180685,218.661116 46.6616221,218.566457 C49.4101432,217.723131 58.4000463,216.860135 61.4106242,216.267594 C64.7743022,216.057377 60.0351333,216.689257 61.8916769,216.774081 L66.3884739,215.890187 C66.8916723,216.394215 75.3857589,215.928296 67.5191323,217.026096 L74.6315765,216.353647 C78.8490923,216.250383 84.6180338,215.807821 88.1465739,215.230032 C91.5127125,215.019815 96.5582295,213.790476 93.6780648,214.50718 L104.797641,213.073771 L104.913291,213.200393 C115.922139,212.191106 127.472325,210.069268 140.149479,209.829547 C143.84042,209.327976 147.651932,208.783379 153.862556,208.330983 L155.118707,208.687491 C159.856645,208.055611 169.445711,207.764258 171.44128,207.068452 C176.697181,207.844165 194.551495,205.084299 202.936084,204.490529 L203.191989,203.838979 C208.952318,203.310363 214.454282,202.59243 221.576569,201.64338 L221.084443,201.138122 C227.201563,200.083349 236.962873,199.976397 246.703268,198.963422 C246.061044,199.238793 243.583192,199.425653 241.822613,199.469909 C253.586874,199.568256 266.299706,196.160529 276.946842,196.02899 C279.558798,195.571676 281.471936,195.45243 283.330941,195.409403 C283.086108,195.43399 282.867112,195.467182 282.681335,195.502833 C282.950774,195.477017 283.350626,195.440137 283.76155,195.402027 C284.93404,195.381129 286.139747,195.36023 287.44634,195.336872 C286.329215,195.311056 285.264994,195.30491 284.342259,195.344248 C286.371046,195.132802 289.441909,194.762771 292.445105,194.331273 L293.788608,194.794734 C294.03221,194.762771 294.22783,194.739414 294.483735,194.707451 C297.464786,194.636149 296.836095,194.196046 295.213311,193.908381 C296.722907,193.662513 298.104549,193.409269 299.16877,193.162172 C301.667538,193.877647 307.052621,192.064373 310.434754,192.75772 C312.271613,192.114776 323.659397,191.067379 326.535871,189.965891 C329.884785,189.756904 333.226318,189.544228 336.191374,188.960292 L337.691127,189.570044 L344.936445,187.841594 C349.443084,187.861264 351.318082,187.944859 346.945547,188.956604 C357.555774,187.020396 355.592193,187.771522 364.603011,186.000045 L364.20685,186.527431 C367.457339,186.191822 372.592669,185.032555 374.593159,185.240313 C381.957818,185.448072 410.598293,181.839962 429.354428,180.865097 C425.593358,179.794343 438.098268,180.652421 438.728189,179.475944 C439.850235,179.704601 442.469573,179.641905 439.474989,180.230758 C448.973012,178.964539 453.845055,179.361616 460.332499,177.785603 C461.457006,178.01549 458.343082,178.47895 459.333485,178.584673 C460.090128,178.435924 462.330529,177.994591 463.343077,178.097855 C464.33348,178.203578 461.974968,178.51706 460.481367,178.813331 C470.209459,177.801585 471.092824,176.666905 471.70429,175.620738 C476.68214,175.59861 479.137846,175.292504 482.638089,174.304116 C484.386365,174.455325 487.283754,174.508186 481.246604,175.215056 C484.654573,174.92862 502.079508,173.64642 502.348947,172.830139 C503.434083,172.923569 507.111492,172.420769 507.998548,172.242515 C515.638797,171.540563 516.3167,171.54548 523.80808,170.735346 L521.716547,170.812794 C524.584408,169.578538 527.928401,169.991596 533.96186,169.285955 L533.798229,169.399055 C547.724151,168.721689 539.750487,168.485656 553.500474,167.921389 L552.697079,167.407526 C553.848653,166.020832 564.884568,166.964964 572.774571,165.704892 L569.875951,165.650801 C574.167286,164.792722 582.160635,166.178187 586.527018,165.910191 C587.487894,165.926173 585.045721,166.233507 583.730515,166.443724 C595.19827,166.071235 585.131843,165.530326 593.605014,164.519809 C595.213034,164.781658 591.690646,165.771276 597.414065,165.288146 C598.133799,165.301669 599.521593,165.124644 601.321542,164.848043 C602.219671,164.705439 603.223607,164.545625 604.298902,164.375976 C604.834088,164.287464 605.38896,164.197722 605.957365,164.106751 C606.856724,163.982588 607.776999,163.857196 608.712037,163.729344 C612.346384,163.260966 616.21203,162.764313 619.911584,162.288559 C621.695539,162.072196 623.46473,161.87796 625.240073,161.714458 C626.157887,161.63701 627.051095,161.56202 627.914775,161.489489 L627.998437,161.482113 C628.008279,161.477196 627.968909,161.458756 627.956606,161.447692 Z" id="Fill-97" fill="#FFC536"></path>
                <path d="M29.436,221 L29,221.056 C29.19,221.035 29.327,221.018 29.436,221" id="Fill-99" fill="#FFC536"></path>
                <path d="M29,221.218 C29.118274,221.307 29.913699,221.38 29.0519886,221.487 L34,221 C31.3277879,221.225 30.3595009,221.193 29,221.218" id="Fill-101" fill="#FFC536"></path>
                <path d="M16.6144237,220.490957 C15.6560626,221.142957 19.3356096,220.643957 23,220.147957 C22.5604597,219.776957 19.4650233,220.176957 16,220.543957 C16.2086942,220.525957 16.4068954,220.508957 16.6144237,220.490957" id="Fill-103" fill="#FFC536"></path>
                <path d="M12.0498396,220.28 C11.6994209,220.54 13.2511217,220.218 15,220 C14.0183992,220.108 13.0142945,220.212 12.0498396,220.28" id="Fill-105" fill="#FFC536"></path>
                <path d="M61.3544387,217.276871 C59.4945356,217.311871 60.2609935,217.880871 59.1950153,217.794871 C57.1977775,218.463871 71.4347999,216.248871 61.3544387,217.276871" id="Fill-107" fill="#FFC536"></path>
                <polygon id="Fill-109" fill="#FFC536" points="20 218.172 21.2198762 218.567 23 218"></polygon>
                <path d="M48.9957861,216 L43.4610791,216.329 C43.5538461,216.405 42.8569345,216.514 42,216.624 C45.4033867,216.353 49.1430536,216.137 48.9957861,216" id="Fill-111" fill="#FFC536"></path>
                <path d="M42,217 C40.0015694,217.14 38.1025373,217.294 37,217.458 C38.0803034,217.372 40.4043945,217.181 42,217" id="Fill-113" fill="#FFC536"></path>
                <path d="M115.236112,209.217518 C113.664094,209.457518 111.21093,209.713518 112.247874,209.800518 L118.865416,209.147518 C119.52053,208.924518 117.699493,208.959518 115.236112,209.217518" id="Fill-115" fill="#FFC536"></path>
                <g id="Group-119" transform="translate(12.000000, 0.000000)">
                    <mask id="mask-4" fill="white">
                        <use xlink:href="#path-3"></use>
                    </mask>
                    <g id="Clip-118"></g>
                    <path d="M5.79732,1.1172 C4.19052,1.0442 2.58732,0.9422 0.97212,0.9052 C2.01612,1.0002 3.05412,1.1152 4.08852,1.2382 L5.79732,1.1172 Z" id="Fill-117" fill="#FFC536" mask="url(#mask-4)"></path>
                </g>
                <path d="M9,2.615 L7.85410514,2 L5,2.687 C6.11045481,2.599 8.17306556,2.497 9,2.615" id="Fill-120" fill="#FFC536"></path>
            </g>
        </g>
    </g>
</svg>