<?xml version="1.0" encoding="UTF-8"?>
<svg width="262px" height="285px" viewBox="0 0 262 285" version="1.1" xmlns="http://www.w3.org/2000/svg" xmlns:xlink="http://www.w3.org/1999/xlink">
    <!-- Generator: Sketch 50.2 (55047) - http://www.bohemiancoding.com/sketch -->
    <title>Page 1 Copy 2</title>
    <desc>Created with Sketch.</desc>
    <defs>
        <polygon id="path-1" points="0.4968 0.0202048 0.665 0.0202048 0.665 8.31024959 0.4968 8.31024959"></polygon>
        <polygon id="path-3" points="0.4518 1.0063368 0.665 1.0063368 0.665 4.6122048 0.4518 4.6122048"></polygon>
        <polygon id="path-5" points="0.334 0.4036368 0.665 0.4036368 0.665 7.7921648 0.334 7.7921648"></polygon>
        <polygon id="path-7" points="0.3725 0.3027276 0.665 0.3027276 0.665 2.05314183 0.3725 2.05314183"></polygon>
        <polygon id="path-9" points="0.4323 1.077398 0.665 1.077398 0.665 2.225398 0.4323 2.225398"></polygon>
        <polygon id="path-11" points="0.4557 1.0496164 3.8107 1.0496164 3.8107 1.148 0.4557 1.148"></polygon>
        <polygon id="path-13" points="0 0.0197456 0.9996 0.0197456 0.9996 8.30988325 0 8.30988325"></polygon>
        <polygon id="path-15" points="0.4557 0.395503023 0.665 0.395503023 0.665 2.19249137 0.4557 2.19249137"></polygon>
        <polygon id="path-17" points="0.000169972478 0.577444 261.664975 0.577444 261.664975 284.613997 0.000169972478 284.613997"></polygon>
        <polygon id="path-19" points="0.8542 1.049272 4.2082 1.049272 4.2082 1.148 0.8542 1.148"></polygon>
    </defs>
    <g id="1.0_Homepage-" stroke="none" stroke-width="1" fill="none" fill-rule="evenodd">
        <g id="Landing-Page" transform="translate(-277.000000, -3783.000000)">
            <g id="Page-1-Copy-2" transform="translate(277.000000, 3782.000000)">
                <polygon id="Fill-1" fill="#FF722D" points="261.5121 165.678556 261.6001 167.980296 261.4671 163.880788"></polygon>
                <g id="Group-108" transform="translate(0.000000, 0.570556)">
                    <g id="Group-4" transform="translate(261.000000, 146.944000)">
                        <mask id="mask-2" fill="white">
                            <use xlink:href="#path-1"></use>
                        </mask>
                        <g id="Clip-3"></g>
                        <path d="M0.5338,0.0202048 C0.5648,2.3024288 0.5558,4.7338928 0.4968,7.8817088 C0.5698,9.5830448 0.6198,5.5466768 0.6648,7.3467408 C0.6518,4.5536568 0.5898,2.1681128 0.5338,0.0202048" id="Fill-2" fill="#FF722D" mask="url(#mask-2)"></path>
                    </g>
                    <g id="Group-7" transform="translate(261.000000, 142.352000)">
                        <mask id="mask-4" fill="white">
                            <use xlink:href="#path-3"></use>
                        </mask>
                        <g id="Clip-6"></g>
                        <path d="M0.5338,4.6122048 C0.5048,3.3252968 0.4768,2.1440048 0.4518,1.0063368 C0.4928,2.2082928 0.5158,3.4010648 0.5338,4.6122048" id="Fill-5" fill="#FF722D" mask="url(#mask-4)"></path>
                    </g>
                    <path d="M1.2946,100.383875 L1.3056,101.204695 C1.3016,100.876367 1.2976,100.608883 1.2946,100.383875" id="Fill-8" fill="#FF722D"></path>
                    <path d="M1.3063,101.232477 L1.3223,102.418361 C1.3163,101.947681 1.3103,101.559657 1.3063,101.232477" id="Fill-10" fill="#FF722D"></path>
                    <path d="M1.3014,85.6504432 L1.2524,85.2899712 C1.2794,85.9718832 1.2984,86.2508472 1.3014,85.6504432" id="Fill-12" fill="#FF722D"></path>
                    <path d="M164.4606,0.8172612 C161.8786,0.7104972 158.9946,0.5474812 159.3056,0.6749092 L160.0996,0.7977452 C161.9026,0.7759332 163.2856,0.7908572 164.4606,0.8172612" id="Fill-14" fill="#FF722D"></path>
                    <path d="M27.3659,1.9955684 L30.7699,2.0759284 C29.2289,2.0391924 28.1359,2.0139364 27.3659,1.9955684" id="Fill-16" fill="#FF722D"></path>
                    <path d="M1.4088,180.85041 L1.5198,183.224474 C1.5188,179.510694 1.4638,181.146594 1.4088,180.85041" id="Fill-18" fill="#FF722D"></path>
                    <path d="M0.1432,94.5867048 C0.1632,95.8311368 0.1852,96.3649568 0.2092,96.3270728 C0.1902,95.0447568 0.1692,94.3203688 0.1432,94.5867048" id="Fill-20" fill="#FF722D"></path>
                    <g id="Group-24" transform="translate(261.000000, 5.740000)">
                        <mask id="mask-6" fill="white">
                            <use xlink:href="#path-5"></use>
                        </mask>
                        <g id="Clip-23"></g>
                        <path d="M0.359,0.4036368 C0.351,0.8559488 0.342,1.2956328 0.334,1.7559808 C0.342,3.6283688 0.35,5.5064968 0.36,7.7921648 C0.406,5.5156808 0.434,2.9085728 0.359,0.4036368" id="Fill-22" fill="#FF722D" mask="url(#mask-6)"></path>
                    </g>
                    <path d="M165.109,283.22859 C165.295,283.23433 165.516,283.24007 165.684,283.244662 C165.741,283.227442 165.485,283.226294 165.109,283.22859" id="Fill-25" fill="#FF722D"></path>
                    <g id="Group-29" transform="translate(261.000000, 78.064000)">
                        <mask id="mask-8" fill="white">
                            <use xlink:href="#path-7"></use>
                        </mask>
                        <g id="Clip-28"></g>
                        <path d="M0.3835,0.3027276 C0.3795,0.9616796 0.3755,1.4771316 0.3725,1.9707716 C0.3915,2.2118516 0.4035,1.9994716 0.3835,0.3027276" id="Fill-27" fill="#FF722D" mask="url(#mask-8)"></path>
                    </g>
                    <path d="M121.3747,2.104284 C121.2967,2.103136 121.1987,2.10084 121.1287,2.099692 L121.1847,2.110024 C121.2627,2.107728 121.3037,2.10658 121.3747,2.104284" id="Fill-30" fill="#FF722D"></path>
                    <path d="M1.2672,93.8703528 L1.2692,94.6395128 C1.2702,94.3375888 1.2692,94.0907688 1.2672,93.8703528" id="Fill-32" fill="#FF722D"></path>
                    <path d="M31.0163,2.0157732 C30.6723,1.9928132 30.5783,1.9664092 30.4963,1.9411532 C30.0193,1.9641132 30.0093,1.9916652 31.0163,2.0157732" id="Fill-34" fill="#FF722D"></path>
                    <path d="M1.3893,180.41084 L1.3873,180.630108 C1.3953,180.751796 1.4023,180.816084 1.4093,180.850524 L1.3893,180.41084 Z" id="Fill-36" fill="#FF722D"></path>
                    <g id="Group-40" transform="translate(261.000000, 94.136000)">
                        <mask id="mask-10" fill="white">
                            <use xlink:href="#path-9"></use>
                        </mask>
                        <g id="Clip-39"></g>
                        <path d="M0.4323,1.077398 L0.4363,1.502158 C0.4363,1.318478 0.4343,1.18531 0.4323,1.077398" id="Fill-38" fill="#FF722D" mask="url(#mask-10)"></path>
                    </g>
                    <path d="M163.8131,2.083046 C160.6651,2.15537 159.0111,2.114042 160.4581,2.306906 C165.6731,2.376934 161.6961,2.12667 166.4101,2.213918 C167.6341,2.146186 162.5571,2.14389 163.8131,2.083046" id="Fill-41" fill="#FF722D"></path>
                    <path d="M163.8131,2.083046 C164.0811,2.076158 164.5091,2.06353 165.4191,2.038274 C164.8501,2.054346 164.3161,2.06927 163.8131,2.083046" id="Fill-43" fill="#FF722D"></path>
                    <g id="Group-47" transform="translate(251.000000, 283.556000)">
                        <mask id="mask-12" fill="white">
                            <use xlink:href="#path-11"></use>
                        </mask>
                        <g id="Clip-46"></g>
                        <polygon id="Fill-45" fill="#FF722D" mask="url(#mask-12)" points="0.4557 1.0875004 3.8107 1.1483444 1.6457 1.0496164"></polygon>
                    </g>
                    <path d="M1.4831,56.0210224 L1.5751,53.0109664 L1.5361,52.7182264 C1.4931,53.3140384 1.4901,54.2152184 1.4831,56.0210224" id="Fill-48" fill="#FF722D"></path>
                    <polygon id="Fill-50" fill="#FF722D" points="1.4528 105.234864 1.4568 104.337128 1.3088 106.0178"></polygon>
                    <path d="M1.6403,149.067341 C1.6333,147.277609 1.6263,145.174473 1.6193,143.379001 C1.6463,147.277609 1.4573,149.550649 1.6403,149.067341" id="Fill-52" fill="#FF722D"></path>
                    <polygon id="Fill-54" fill="#FF722D" points="0.1979 163.309773 0.0649 167.409281 0.1529 165.107541"></polygon>
                    <g id="Group-58" transform="translate(0.000000, 146.944000)">
                        <mask id="mask-14" fill="white">
                            <use xlink:href="#path-13"></use>
                        </mask>
                        <g id="Clip-57"></g>
                        <path d="M0.1676,7.8812496 C0.1076,4.7345816 0.1006,2.3031176 0.1316,0.0197456 C0.0756,2.1676536 0.0136,4.5543456 -0.0004,7.3462816 C0.0446,5.5473656 0.0956,9.5825856 0.1676,7.8812496" id="Fill-56" fill="#FF722D" mask="url(#mask-14)"></path>
                    </g>
                    <path d="M0.1315,146.964205 C0.1495,145.753065 0.1725,144.560293 0.2135,143.358337 C0.1885,144.496005 0.1605,145.677297 0.1315,146.964205" id="Fill-59" fill="#FF722D"></path>
                    <path d="M260.3708,100.383875 C260.3678,100.608883 260.3638,100.876367 260.3598,101.204695 L260.3708,100.383875 Z" id="Fill-61" fill="#FF722D"></path>
                    <path d="M260.3424,102.41859 L260.3594,101.232706 C260.3544,101.559886 260.3494,101.94791 260.3424,102.41859" id="Fill-63" fill="#FF722D"></path>
                    <path d="M260.4128,85.2893972 L260.3638,85.6498692 C260.3658,86.2514212 260.3868,85.9724572 260.4128,85.2893972" id="Fill-65" fill="#FF722D"></path>
                    <path d="M101.5661,0.7982044 L102.3591,0.6753684 C102.6701,0.5467924 99.7861,0.7109564 97.2041,0.8177204 C98.3781,0.7901684 99.7621,0.7752444 101.5661,0.7982044" id="Fill-67" fill="#FF722D"></path>
                    <path d="M234.2985,1.9955684 C233.5295,2.0139364 232.4365,2.0391924 230.8955,2.0759284 L234.2985,1.9955684 Z" id="Fill-69" fill="#FF722D"></path>
                    <path d="M260.1452,183.224818 L260.2552,180.850754 C260.2022,181.14579 260.1462,179.511038 260.1452,183.224818" id="Fill-71" fill="#FF722D"></path>
                    <g id="Group-75" transform="translate(261.000000, 94.136000)">
                        <mask id="mask-16" fill="white">
                            <use xlink:href="#path-15"></use>
                        </mask>
                        <g id="Clip-74"></g>
                        <path d="M0.4557,2.1906136 C0.4797,2.2284976 0.5027,1.6946776 0.5217,0.4502456 C0.4947,0.1839096 0.4747,0.9094456 0.4557,2.1906136" id="Fill-73" fill="#FF722D" mask="url(#mask-16)"></path>
                    </g>
                    <path d="M0.3053,6.1436368 C0.2303,8.6485728 0.2583,11.2556808 0.3053,13.5321648 C0.3153,11.2464968 0.3233,9.3683688 0.3303,7.4959808 C0.3233,7.0356328 0.3143,6.5959488 0.3053,6.1436368" id="Fill-76" fill="#FF722D"></path>
                    <path d="M95.9801,283.244318 C96.1491,283.239726 96.3711,283.233986 96.5551,283.228246 C96.1801,283.22595 95.9241,283.227098 95.9801,283.244318" id="Fill-78" fill="#FF722D"></path>
                    <path d="M0.2917,80.0348864 C0.2887,79.5412464 0.2857,79.0257944 0.2817,78.3668424 C0.2627,80.0624384 0.2737,80.2759664 0.2917,80.0348864" id="Fill-80" fill="#FF722D"></path>
                    <path d="M140.5368,2.0998068 C140.4668,2.1009548 140.3688,2.1032508 140.2908,2.1043988 C140.3618,2.1066948 140.4028,2.1078428 140.4808,2.1101388 L140.5368,2.0998068 Z" id="Fill-82" fill="#FF722D"></path>
                    <g id="Group-86">
                        <mask id="mask-18" fill="white">
                            <use xlink:href="#path-17"></use>
                        </mask>
                        <g id="Clip-85"></g>
                        <path d="M261.0387,242.102409 L261.0057,242.733809 C260.9897,241.554813 260.9807,240.255277 260.9887,239.138273 C261.0067,240.058969 261.0277,240.185249 261.0507,239.952205 C261.0507,240.701849 261.0477,241.427385 261.0387,242.102409 Z M261.1477,244.414481 C261.1327,247.695465 261.0507,245.813893 261.0097,243.055249 L261.1417,245.006849 C261.1407,244.687705 261.1387,244.362821 261.1377,244.034493 L261.1477,244.414481 Z M260.3857,68.9013528 C260.3137,67.8819288 260.3927,65.1014728 260.4177,63.7078008 C260.4577,66.0853088 260.5227,67.3125208 260.3857,68.9013528 Z M1.2477,63.7078008 C1.2727,65.1014728 1.3517,67.8819288 1.2797,68.9013528 C1.1417,67.3125208 1.2077,66.0853088 1.2477,63.7078008 Z M252.6777,283.416633 C256.3837,283.316757 249.5847,283.149149 258.3507,283.152593 C254.1647,283.072233 250.1137,283.354641 245.7487,283.203105 L248.5927,283.378749 C247.0217,283.383341 245.2537,283.317905 244.4007,283.297241 L244.7567,283.432705 C239.3647,283.195069 234.7247,283.547505 231.5197,283.232953 C233.7497,283.479773 227.4987,283.219177 225.3577,283.315609 C229.5277,283.478625 237.0987,283.331681 238.4797,283.502733 C235.6227,283.444185 232.5497,283.418929 229.4707,283.567021 C229.3197,283.562429 229.2217,283.556689 229.1447,283.550949 C229.1127,283.541765 229.0607,283.533729 229.0187,283.524545 C229.2217,283.491253 230.5957,283.461405 229.9767,283.414337 C229.5767,283.441889 229.1507,283.461405 228.6977,283.478625 C227.6837,283.386785 225.5457,283.490105 223.8407,283.342013 C220.1857,283.463701 217.3277,283.286909 214.3487,283.361529 C215.1377,283.371861 215.1927,283.371861 215.9837,283.381045 C213.7387,283.379897 211.9627,283.408597 210.4807,283.451073 C207.8757,283.432705 205.3137,283.407449 202.4137,283.382193 C202.2627,283.367269 202.0637,283.352345 201.8017,283.336273 C201.6127,283.350049 201.4227,283.360381 201.2317,283.371861 C198.7977,283.351197 196.0977,283.329385 192.9087,283.311017 L193.6887,283.421225 C192.6037,283.406301 191.4317,283.389081 190.1447,283.379897 C189.8447,283.369565 189.5477,283.360381 189.1997,283.352345 C189.0737,283.359233 188.9777,283.367269 188.8937,283.374157 C187.0277,283.369565 184.9377,283.385637 182.5447,283.441889 C182.5987,283.443037 182.6427,283.444185 182.6937,283.446481 C177.9107,283.439593 173.2587,283.430409 172.0057,283.271985 C168.5027,283.270837 171.5747,283.376453 170.4547,283.414337 C169.9697,283.401709 169.2837,283.386785 168.1997,283.368417 L167.8507,283.343161 L167.6737,283.360381 C166.8737,283.347753 165.8927,283.333977 164.6617,283.316757 C165.9887,283.352345 165.5177,283.385637 164.7157,283.416633 C163.2767,283.375305 162.5207,283.307573 162.4457,283.255913 C163.1267,283.249025 164.3807,283.236397 165.1087,283.228361 C161.7257,283.136521 155.7687,283.246729 153.9497,283.235249 L157.7177,283.283465 C149.3947,283.340865 139.7647,283.300685 130.8327,283.333977 C121.9007,283.300685 112.2697,283.340865 103.9467,283.283465 L107.7157,283.235249 C105.8957,283.246729 99.9377,283.136521 96.5557,283.228361 C97.2847,283.236397 98.5377,283.249025 99.2187,283.255913 C99.1437,283.307573 98.3887,283.375305 96.9497,283.416633 C96.1477,283.385637 95.6767,283.352345 97.0027,283.316757 C95.7717,283.333977 94.7917,283.347753 93.9917,283.360381 L93.8147,283.343161 L93.4647,283.368417 C92.3817,283.386785 91.6957,283.401709 91.2107,283.414337 C90.0907,283.376453 93.1627,283.270837 89.6597,283.271985 C88.4057,283.430409 83.7547,283.439593 78.9717,283.446481 C79.0217,283.444185 79.0667,283.443037 79.1207,283.441889 C76.7267,283.385637 74.6377,283.369565 72.7707,283.374157 C72.6867,283.367269 72.5907,283.359233 72.4657,283.352345 C72.1177,283.360381 71.8207,283.369565 71.5197,283.379897 C70.2337,283.389081 69.0607,283.406301 67.9767,283.421225 L68.7567,283.311017 C65.5677,283.329385 62.8677,283.351197 60.4327,283.371861 C60.2427,283.360381 60.0527,283.350049 59.8637,283.336273 C59.6007,283.352345 59.4027,283.367269 59.2517,283.382193 C56.3517,283.407449 53.7897,283.432705 51.1837,283.451073 C49.7017,283.408597 47.9257,283.379897 45.6817,283.381045 C46.4727,283.371861 46.5277,283.371861 47.3167,283.361529 C44.3377,283.286909 41.4787,283.463701 37.8237,283.342013 C36.1187,283.490105 33.9817,283.386785 32.9677,283.478625 C32.5147,283.461405 32.0887,283.441889 31.6877,283.414337 C31.0697,283.461405 32.4437,283.491253 32.6457,283.524545 C32.6037,283.533729 32.5527,283.541765 32.5197,283.550949 C32.4427,283.556689 32.3447,283.562429 32.1947,283.567021 C29.1157,283.418929 26.0427,283.444185 23.1847,283.502733 C24.5667,283.331681 32.1377,283.478625 36.3077,283.315609 C34.1667,283.219177 27.9157,283.479773 30.1447,283.232953 C26.9407,283.547505 22.3007,283.195069 16.9087,283.432705 L17.2647,283.297241 C16.4107,283.317905 14.6427,283.383341 13.0727,283.378749 L15.9157,283.203105 C11.5517,283.354641 7.5007,283.072233 3.3127,283.152593 C12.0807,283.149149 5.2807,283.316757 8.9877,283.416633 C6.4887,283.457961 4.8127,283.461405 3.5637,283.444185 C2.9407,283.428113 2.4247,283.413189 1.9607,283.401709 C1.8517,283.397117 1.7477,283.392525 1.6447,283.387933 L1.4907,283.371861 C1.3987,283.360381 1.3107,283.350049 1.2247,283.338569 C1.2367,283.213437 1.2487,283.089453 1.2607,282.963173 C1.2677,282.877073 1.2727,282.908069 1.2787,282.731277 C1.2847,282.590073 1.2917,282.446573 1.2977,282.297333 C1.3157,281.696929 1.3377,281.024201 1.3637,280.188457 C1.3997,278.601921 1.4217,276.405797 1.4117,273.026085 C1.4097,275.200397 1.3337,279.208065 1.2837,276.540113 C1.3087,273.893973 1.3527,270.400609 1.4157,268.776189 C1.3917,259.569229 1.2937,270.190525 1.2207,266.271253 C1.3647,263.136065 1.1617,261.750429 1.1157,257.714061 L1.2357,257.685361 C1.3127,247.193789 0.9847,254.902609 1.0787,245.456865 L1.2457,249.449609 L1.2027,244.523541 L1.3397,245.540669 C1.2377,240.182953 1.2647,238.514909 1.3027,233.266253 C1.2177,234.485429 1.0837,232.579749 1.0797,227.932645 C1.1517,224.763017 1.1947,229.707453 1.1777,223.120229 C1.2527,224.606889 1.3477,226.237049 1.2367,229.103605 C1.2757,229.397493 1.3117,230.569601 1.3517,230.872673 C1.4337,227.458521 1.3697,222.294817 1.3687,219.909273 C1.3587,220.826525 1.3467,221.920569 1.3407,222.487681 L1.1737,212.938617 C1.2187,211.435885 1.2547,212.628657 1.2907,213.808801 C1.2667,211.877865 1.2487,210.532409 1.2117,207.693405 C1.3097,208.429273 1.4107,208.252481 1.4577,212.278517 L1.3487,203.180617 C1.3917,202.572177 1.4657,198.509405 1.5017,199.691845 C1.5597,194.647533 1.3107,187.317553 1.3877,180.630453 C1.3687,180.282609 1.3507,179.585773 1.3367,178.164549 C1.3577,171.879249 1.4787,166.311449 1.3447,158.860929 L1.5197,154.635141 C1.4797,148.801005 1.2987,160.356773 1.2317,150.641249 C1.1767,143.764729 1.3827,148.074321 1.4317,145.661225 C1.3427,142.242481 1.1627,136.295841 1.3057,129.977249 C1.3387,132.068905 1.3117,133.708249 1.3257,135.662145 L1.4227,130.847433 C1.5837,136.658609 1.5277,140.862585 1.6647,136.342909 C1.3257,135.662145 1.6307,117.628213 1.2907,116.958929 L1.3617,113.785857 C1.3687,114.695073 1.3697,114.840869 1.3757,115.739753 C1.5387,109.566957 1.1307,111.154641 1.1787,103.201297 C1.2047,100.428877 1.2537,98.4944968 1.2947,100.384105 L1.2107,94.2078648 C1.2157,92.7143168 1.2567,92.7820488 1.2677,93.8703528 L1.2417,85.2190248 L1.2527,85.2890528 C1.2127,83.9367088 1.1247,80.8956568 1.0817,79.4124408 C1.1307,77.0188608 1.1177,80.6132488 1.1597,80.0013648 L1.0777,74.7848528 C1.1657,72.6599048 1.2507,76.9832728 1.2387,80.5868448 C1.5777,75.7147328 1.1527,76.2588848 1.3517,65.7455008 L1.3937,70.6715688 C1.5867,67.4950528 1.5177,63.6526968 1.6377,58.0837488 C1.5737,59.4039488 1.3347,69.2319768 1.2497,63.5700408 C1.2747,61.9766168 1.2877,59.8734808 1.2197,56.8198008 C1.3407,56.7899528 1.3097,53.8085968 1.3037,50.0775968 L1.4637,50.3324528 C1.4177,46.2983808 1.3357,46.6175248 1.2647,44.2434608 C1.2797,39.7467448 1.4027,38.8157168 1.5077,37.7572608 C1.5327,30.5570048 1.3097,42.7292488 1.2787,34.2064968 C1.2937,32.7852728 1.3007,31.4662208 1.3027,30.1816088 C1.3147,29.5582448 1.3277,28.9394728 1.3417,28.7776048 C1.3467,25.1935488 1.3237,25.7537728 1.2947,27.0303488 C1.2827,24.8617768 1.2567,22.6415448 1.2227,20.0631368 C1.2417,18.5385928 1.2637,17.1552528 1.2897,16.2621088 C1.3017,16.4274208 1.3117,16.4411968 1.3227,16.0807248 L1.3097,15.7122168 C1.3217,15.4653968 1.3337,15.3012328 1.3477,15.2553128 C1.3097,14.4379368 1.2847,14.2955848 1.2687,14.5228888 L1.2187,13.0454128 C1.2267,12.7997408 1.2327,12.5609568 1.2397,12.3187288 C1.2277,12.5816208 1.2177,12.6975688 1.2077,12.7228248 L1.1947,12.3657968 C1.1977,11.4565808 1.2367,11.7493208 1.2577,11.8997088 C1.2137,9.1307328 1.1217,11.0478928 1.0717,8.1227888 C1.0647,6.0919768 1.0597,4.2597688 1.0547,2.5320288 C1.0597,2.3380168 1.0637,2.1600768 1.0687,1.9557328 C1.6767,1.9729528 2.3267,1.9936168 2.9997,2.0131328 C3.8017,2.0269088 4.6307,2.0429808 5.4617,2.0556088 C7.1247,2.0751248 8.7987,2.0670888 10.2877,2.0028008 C11.5957,2.0556088 9.6567,2.1164528 10.0567,2.1876288 C17.3357,2.0360928 16.2977,2.0785688 22.2737,1.8742248 L22.4717,1.8788168 C22.4407,1.8834088 22.4227,1.8880008 22.3787,1.8925928 L23.0227,1.8925928 L27.3657,1.9959128 C26.2857,1.9557328 25.9327,1.9132568 26.0537,1.8707808 C27.4657,1.8512648 28.4387,1.8283048 30.5717,1.8570048 C30.5497,1.8604488 30.5447,1.8661888 30.5277,1.8707808 C27.0497,1.9752488 28.7017,1.9304768 30.4917,1.9362168 C30.4957,1.9373648 30.4917,1.9396608 30.4967,1.9408088 C30.5437,1.9396608 30.6117,1.9373648 30.6667,1.9373648 C31.5967,1.9419568 32.5167,1.9614728 32.7287,2.0257608 C34.2157,2.0349448 34.7617,2.0234648 34.9727,2.0028008 L35.7157,2.1026768 L36.0837,2.0223168 L37.7627,2.0475728 C37.3487,2.0647928 36.7827,2.0831608 35.9427,2.0969368 C37.2317,2.0900488 37.8557,2.0728288 38.0787,2.0510168 L44.8257,2.1497448 C45.5217,2.1279328 46.2077,2.1026768 46.8917,2.0785688 C46.5677,2.1313768 46.2097,2.1795928 45.7767,2.2128848 C46.0717,2.3276848 49.4567,2.0911968 51.1607,2.0785688 C52.0337,2.0464248 52.8137,2.0337968 53.5617,2.0280568 C55.5257,2.0544608 54.9867,2.1279328 54.3627,2.1543368 L57.8807,2.0900488 C59.4487,2.1359688 60.9777,2.1818888 62.8057,2.1497448 L59.8467,2.0521648 L61.0447,2.0303528 C61.7917,2.0303528 62.7427,2.0372408 63.6847,2.0475728 C64.1837,2.1176008 65.9427,2.1038248 67.8847,2.1520408 C66.3677,1.9121088 72.1847,1.9408088 76.3097,1.9040728 C76.9207,1.9304768 77.4727,1.9591768 77.9527,1.9878768 C77.2747,2.0315008 75.8697,2.0579048 73.2397,2.0452768 C75.4347,2.1405608 76.9497,2.0877528 78.3727,2.0131328 C79.5417,2.0923448 80.1797,2.1704088 80.0307,2.2335488 L68.7167,2.0326488 C68.3187,2.1933688 76.7487,2.1945168 76.2857,2.3862328 L86.7037,2.3299808 C85.3877,2.3253888 81.3677,2.2783208 82.9477,2.1910728 C87.4227,2.1979608 85.2677,2.1612248 88.2547,2.0877528 C87.0497,2.0395368 85.6037,1.9729528 84.0607,1.8983328 C87.0007,1.8650408 91.2187,1.9235888 89.9717,1.9947648 L88.8607,1.9970608 C89.7507,2.0005048 90.7537,2.0039488 91.8287,2.0050968 C91.9997,2.0211688 92.1547,2.0360928 92.2827,2.0475728 C92.9077,2.0406848 93.3897,2.0269088 93.7737,2.0073928 C97.2567,2.0085408 101.2137,1.9982088 104.5917,1.9660648 C105.9157,2.0154288 107.5097,2.0475728 109.7507,2.0337968 L106.7527,2.1072688 C108.6377,2.1394128 115.4857,2.0705328 114.7517,2.1348208 C116.2227,2.0498688 117.5777,1.8570048 116.3447,1.7835328 L118.1017,1.8627448 L115.2127,2.2025528 C117.7557,2.0475728 119.2017,2.0670888 121.1287,2.0992328 L120.4117,1.9683608 L122.6097,2.0693848 C122.2547,2.0831608 121.8497,2.0957888 121.3747,2.1038248 C123.1327,2.1348208 125.3077,2.1681128 129.0147,2.0946408 C128.6427,2.0854568 128.2127,2.0521648 127.8467,2.0108368 C129.3527,1.9637688 129.9687,1.9545848 130.8327,1.9212928 C131.6957,1.9545848 132.3117,1.9637688 133.8177,2.0108368 C133.4517,2.0521648 133.0227,2.0854568 132.6507,2.0946408 C136.3567,2.1681128 138.5327,2.1348208 140.2907,2.1038248 C139.8147,2.0957888 139.4107,2.0831608 139.0557,2.0693848 L141.2537,1.9683608 L140.5367,2.0992328 C142.4637,2.0670888 143.9097,2.0475728 146.4527,2.2025528 L143.5637,1.8627448 L145.3207,1.7835328 C144.0877,1.8570048 145.4427,2.0498688 146.9137,2.1348208 C146.1797,2.0705328 153.0267,2.1394128 154.9117,2.1072688 L151.9147,2.0337968 C154.1557,2.0475728 155.7497,2.0154288 157.0727,1.9660648 C160.4517,1.9982088 164.4087,2.0085408 167.8917,2.0073928 C168.2757,2.0269088 168.7567,2.0406848 169.3827,2.0475728 C169.5107,2.0360928 169.6657,2.0211688 169.8367,2.0050968 C170.9117,2.0039488 171.9147,2.0005048 172.8037,1.9970608 L171.6937,1.9947648 C170.4457,1.9235888 174.6647,1.8650408 177.6037,1.8983328 C176.0607,1.9729528 174.6157,2.0395368 173.4107,2.0877528 C176.3977,2.1612248 174.2427,2.1979608 178.7177,2.1910728 C180.2977,2.2783208 176.2777,2.3253888 174.9617,2.3299808 L185.3797,2.3862328 C184.9157,2.1945168 193.3467,2.1933688 192.9487,2.0326488 L181.6337,2.2335488 C181.4857,2.1704088 182.1237,2.0923448 183.2917,2.0131328 C184.7147,2.0877528 186.2307,2.1405608 188.4257,2.0452768 C185.7957,2.0579048 184.3907,2.0315008 183.7127,1.9878768 C184.1927,1.9591768 184.7447,1.9304768 185.3547,1.9040728 C189.4797,1.9408088 195.2977,1.9121088 193.7797,2.1520408 C195.7227,2.1038248 197.4817,2.1176008 197.9797,2.0475728 C198.9227,2.0372408 199.8737,2.0303528 200.6207,2.0303528 L201.8187,2.0521648 L198.8597,2.1497448 C200.6857,2.1818888 202.2167,2.1359688 203.7837,2.0900488 L207.3027,2.1543368 C206.6777,2.1279328 206.1387,2.0544608 208.1027,2.0280568 C208.8507,2.0337968 209.6317,2.0464248 210.5047,2.0785688 C212.2077,2.0911968 215.5937,2.3276848 215.8877,2.2128848 C215.4557,2.1795928 215.0977,2.1313768 214.7727,2.0785688 C215.4567,2.1026768 216.1427,2.1279328 216.8397,2.1497448 L223.5867,2.0510168 C223.8097,2.0728288 224.4337,2.0900488 225.7227,2.0969368 C224.8817,2.0831608 224.3157,2.0647928 223.9017,2.0475728 L225.5807,2.0223168 L225.9497,2.1026768 L226.6927,2.0028008 C226.9037,2.0234648 227.4497,2.0349448 228.9357,2.0257608 C229.1487,1.9614728 230.0687,1.9419568 230.9977,1.9373648 C231.0537,1.9373648 231.1217,1.9396608 231.1687,1.9408088 C231.1737,1.9396608 231.1697,1.9373648 231.1737,1.9362168 C232.9627,1.9304768 234.6157,1.9752488 231.1367,1.8707808 C231.1197,1.8661888 231.1147,1.8604488 231.0927,1.8570048 C233.2267,1.8283048 234.1987,1.8512648 235.6117,1.8707808 C235.7327,1.9132568 235.3797,1.9557328 234.2987,1.9959128 L238.6427,1.8925928 L239.2857,1.8925928 C239.2427,1.8880008 239.2247,1.8834088 239.1927,1.8788168 L239.3917,1.8742248 C245.3677,2.0785688 244.3287,2.0360928 251.6077,2.1876288 C252.0087,2.1164528 250.0687,2.0556088 251.3767,2.0028008 C252.8667,2.0670888 254.5407,2.0751248 256.2037,2.0556088 C257.0347,2.0429808 257.8627,2.0269088 258.6657,2.0131328 C259.3387,1.9936168 259.9887,1.9729528 260.5967,1.9557328 C260.6017,2.1600768 260.6057,2.3380168 260.6097,2.5320288 C260.6047,4.2597688 260.6007,6.0919768 260.5937,8.1227888 C260.5427,11.0478928 260.4517,9.1307328 260.4077,11.8997088 C260.4277,11.7493208 260.4667,11.4565808 260.4697,12.3657968 L260.4577,12.7228248 C260.4477,12.6975688 260.4367,12.5816208 260.4257,12.3187288 C260.4317,12.5609568 260.4387,12.7997408 260.4457,13.0454128 L260.3957,14.5228888 C260.3797,14.2955848 260.3557,14.4379368 260.3177,15.2553128 C260.3307,15.3012328 260.3437,15.4653968 260.3547,15.7122168 L260.3427,16.0807248 C260.3527,16.4411968 260.3637,16.4274208 260.3747,16.2621088 C260.4007,17.1552528 260.4227,18.5385928 260.4427,20.0631368 C260.4087,22.6415448 260.3827,24.8617768 260.3697,27.0303488 C260.3417,25.7537728 260.3187,25.1935488 260.3237,28.7776048 C260.3377,28.9394728 260.3507,29.5582448 260.3627,30.1816088 C260.3637,31.4662208 260.3717,32.7852728 260.3867,34.2064968 C260.3557,42.7292488 260.1317,30.5570048 260.1567,37.7572608 C260.2617,38.8157168 260.3857,39.7467448 260.4007,44.2434608 C260.3287,46.6175248 260.2477,46.2983808 260.2017,50.3324528 L260.3617,50.0775968 C260.3547,53.8085968 260.3247,56.7899528 260.4457,56.8198008 C260.3777,59.8734808 260.3897,61.9766168 260.4157,63.5700408 C260.3307,69.2319768 260.0907,59.4039488 260.0277,58.0837488 C260.1477,63.6526968 260.0787,67.4950528 260.2707,70.6715688 L260.3137,65.7455008 C260.5127,76.2588848 260.0877,75.7147328 260.4267,80.5868448 C260.4137,76.9832728 260.4997,72.6599048 260.5877,74.7848528 L260.5057,80.0013648 C260.5477,80.6132488 260.5347,77.0188608 260.5837,79.4124408 C260.5407,80.8956568 260.4517,83.9367088 260.4127,85.2890528 L260.4227,85.2190248 L260.3977,93.8703528 C260.4077,92.7820488 260.4497,92.7143168 260.4547,94.2078648 L260.3707,100.384105 C260.4107,98.4944968 260.4607,100.428877 260.4867,103.201297 C260.5347,111.154641 260.1267,109.566957 260.2897,115.739753 C260.2957,114.840869 260.2967,114.695073 260.3027,113.785857 L260.3737,116.958929 C260.0347,117.628213 260.3397,135.662145 259.9997,136.342909 C260.1377,140.862585 260.0817,136.658609 260.2417,130.847433 L260.3397,135.662145 C260.3517,133.708249 260.3267,132.068905 260.3597,129.977249 C260.5027,136.295841 260.3227,142.242481 260.2337,145.661225 C260.2827,148.074321 260.4887,143.764729 260.4327,150.641249 C260.3667,160.356773 260.1847,148.801005 260.1447,154.635141 L260.3207,158.860929 C260.1857,166.311449 260.3067,171.879249 260.3287,178.164549 C260.3147,179.585773 260.2967,180.282609 260.2777,180.630453 C260.3537,187.317553 260.1057,194.647533 260.1637,199.691845 C260.1997,198.509405 260.2737,202.572177 260.3167,203.180617 L260.2077,212.278517 C260.2547,208.252481 260.3547,208.429273 260.4537,207.693405 C260.4167,210.532409 260.3987,211.877865 260.3747,213.808801 C260.4097,212.628657 260.4457,211.435885 260.4917,212.938617 L260.3247,222.487681 C260.3177,221.920569 260.3067,220.826525 260.2967,219.909273 C260.2957,222.294817 260.2317,227.458521 260.3137,230.872673 C260.3527,230.569601 260.3897,229.397493 260.4287,229.103605 C260.3167,226.237049 260.4127,224.606889 260.4877,223.120229 C260.4707,229.707453 260.5137,224.763017 260.5847,227.932645 C260.5817,232.579749 260.4477,234.485429 260.3617,233.266253 C260.4007,238.514909 260.4277,240.182953 260.3257,245.540669 L260.4627,244.523541 L260.4197,249.449609 L260.5867,245.456865 C260.6807,254.902609 260.3517,247.193789 260.4287,257.685361 L260.5497,257.714061 C260.5037,261.750429 260.2997,263.136065 260.4437,266.271253 C260.3717,270.190525 260.2737,259.569229 260.2497,268.776189 C260.3107,270.400609 260.3567,273.893973 260.3817,276.540113 C260.3317,279.208065 260.2547,275.200397 260.2537,273.026085 C260.2427,276.405797 260.2657,278.601921 260.3017,280.188457 C260.3277,281.024201 260.3487,281.696929 260.3677,282.297333 C260.3737,282.446573 260.3797,282.590073 260.3857,282.731277 C260.3927,282.908069 260.3977,282.877073 260.4037,282.963173 C260.4167,283.089453 260.4287,283.213437 260.4397,283.338569 C260.3527,283.350049 260.2667,283.360381 260.1747,283.371861 L260.0197,283.387933 C259.9177,283.392525 259.8117,283.397117 259.7037,283.401709 C259.2407,283.413189 258.7237,283.428113 258.1007,283.444185 C256.8517,283.461405 255.1767,283.457961 252.6777,283.416633 Z M222.1877,283.508473 L225.2007,283.530285 C224.3247,283.529137 223.3327,283.522249 222.1877,283.508473 Z M215.0017,284.494605 C214.3157,284.455573 213.6237,284.418837 216.0967,284.459017 L215.0017,284.494605 Z M46.6637,284.494605 L45.5687,284.459017 C48.0417,284.418837 47.3497,284.455573 46.6637,284.494605 Z M39.4767,283.508473 C38.3327,283.522249 37.3407,283.529137 36.4647,283.530285 L39.4767,283.508473 Z M0.6597,242.733809 L0.6267,242.102409 C0.6177,241.427385 0.6137,240.701849 0.6137,239.952205 C0.6377,240.185249 0.6587,240.058969 0.6767,239.138273 C0.6837,240.255277 0.6757,241.554813 0.6597,242.733809 Z M0.5277,244.034493 C0.5257,244.362821 0.5247,244.687705 0.5237,245.006849 L0.6547,243.055249 C0.6137,245.813893 0.5327,247.695465 0.5167,244.414481 L0.5277,244.034493 Z M1.2017,18.5179288 C1.1937,17.9783688 1.1867,17.4273288 1.1797,16.8510328 C1.2037,14.9591288 1.2267,14.9281328 1.2477,15.3218968 C1.2297,16.6042128 1.2357,18.7727848 1.2017,18.5179288 Z M83.2617,1.8593008 C83.7007,1.8627448 84.1627,1.8719288 84.6677,1.8925928 C84.3897,1.8925928 84.1437,1.8925928 83.9257,1.8914448 C83.7067,1.8811128 83.4837,1.8696328 83.2617,1.8593008 Z M54.4987,2.0223168 L54.4657,2.0223168 L54.4987,2.0223168 Z M36.3057,1.6767688 C35.6237,1.6032968 35.3107,1.5286768 36.3517,1.4655368 C36.4517,1.4597968 36.5787,1.4529088 36.7097,1.4483168 C38.3327,1.5080128 37.6017,1.5918168 36.3057,1.6767688 Z M37.9437,1.7973088 C39.0877,1.7858288 40.3837,1.7915688 41.8187,1.8271568 C40.9167,1.8719288 39.5197,1.8501168 37.9437,1.7973088 Z M124.6077,1.2244568 C124.5267,1.2060888 124.3927,1.1900168 124.2327,1.1750928 C125.2527,1.1785368 124.6777,1.1923128 124.6077,1.2244568 Z M122.7587,2.0636448 C122.2287,1.9844328 122.6737,1.7754968 122.2917,1.7330208 C123.2137,1.7295768 124.0437,1.7628688 124.6867,1.8099368 C124.6417,1.9121088 124.1827,2.0050968 122.7587,2.0636448 Z M137.4327,1.1750928 C137.2717,1.1900168 137.1377,1.2060888 137.0577,1.2244568 C136.9877,1.1923128 136.4127,1.1785368 137.4327,1.1750928 Z M136.9777,1.8099368 C137.6217,1.7628688 138.4507,1.7295768 139.3737,1.7330208 C138.9907,1.7754968 139.4357,1.9844328 138.9067,2.0636448 C137.4827,2.0050968 137.0237,1.9121088 136.9777,1.8099368 Z M223.7217,1.7973088 C222.1447,1.8501168 220.7487,1.8719288 219.8457,1.8271568 C221.2817,1.7915688 222.5777,1.7858288 223.7217,1.7973088 Z M225.3127,1.4655368 C226.3537,1.5286768 226.0417,1.6032968 225.3597,1.6767688 C224.0627,1.5918168 223.3327,1.5080128 224.9557,1.4483168 C225.0867,1.4529088 225.2137,1.4597968 225.3127,1.4655368 Z M207.1997,2.0223168 L207.1667,2.0223168 L207.1997,2.0223168 Z M177.7397,1.8914448 C177.5197,1.8925928 177.2747,1.8925928 176.9977,1.8925928 C177.5027,1.8719288 177.9637,1.8627448 178.4037,1.8593008 C178.1817,1.8696328 177.9587,1.8811128 177.7397,1.8914448 Z M260.4177,15.3218968 C260.4377,14.9281328 260.4617,14.9591288 260.4857,16.8510328 C260.4777,17.4273288 260.4707,17.9783688 260.4637,18.5179288 C260.4297,18.7727848 260.4347,16.6042128 260.4177,15.3218968 Z M261.2607,241.733901 L261.3707,234.090517 C261.7767,230.269973 261.4217,216.807377 261.4527,205.709661 L261.4767,207.164177 C261.5177,206.397313 261.5277,203.128957 261.5577,204.341245 C261.5247,200.725045 261.4857,201.299045 261.4237,203.243757 C261.5097,197.069813 261.4487,190.013057 261.4007,184.828689 L261.4007,184.832133 C261.4277,183.437313 261.4517,180.795765 261.5077,180.610937 C261.4747,180.410037 261.4217,181.512117 261.3767,181.970169 C261.3597,179.955429 261.3527,178.453845 261.3737,177.785709 L261.2497,176.870753 C261.3187,173.648317 261.3647,171.468265 261.3927,169.479929 C261.4027,169.076981 261.4127,168.583341 261.4197,167.951941 L261.4077,168.134473 C261.4347,165.217405 261.4217,162.304929 261.3787,156.532785 C261.3587,156.670545 261.3227,157.881685 261.2977,156.221677 C261.3897,153.697225 261.4797,151.156701 261.4557,143.973665 L261.4167,144.267553 L261.4357,133.030929 C261.3427,133.051593 261.3097,131.885225 261.3057,130.070237 C261.3287,128.915349 261.3617,127.728317 261.4117,126.057977 C261.3907,124.787141 261.3717,123.970913 261.3537,123.419873 C261.3557,123.284409 261.3567,123.148945 261.3577,123.012333 C261.3637,122.449813 261.3697,121.882701 261.3757,121.316737 L261.4617,122.013573 L261.3867,120.133149 C261.4127,117.061101 261.4207,114.123369 261.3617,112.187841 L261.4337,112.427773 L261.3737,110.051413 L261.3427,111.649429 C261.3207,111.127089 261.2927,110.698885 261.2567,110.400405 C261.3157,109.220261 261.3537,106.308933 261.3847,103.300025 C261.3907,103.153081 261.3967,103.008433 261.4047,102.841973 C261.3977,102.938405 261.3927,103.015321 261.3867,103.077313 C261.4117,100.545973 261.4327,97.9733048 261.4557,96.3270728 C261.4397,96.3018168 261.4227,96.0733648 261.4047,95.4660728 C261.4127,95.3087968 261.4177,95.1354488 261.4247,94.9701368 C261.4277,95.0149088 261.4307,95.0849368 261.4327,95.2135128 L261.4307,94.8220448 C261.5297,91.9382688 261.4637,87.7319968 261.4097,83.8827528 C261.4207,83.4970248 261.4307,83.1204808 261.4447,82.7049048 C261.4287,82.7565648 261.4127,82.9655008 261.3987,83.0688208 C261.3877,82.1894528 261.3777,81.3399328 261.3707,80.5351848 C261.3717,80.3733168 261.3717,80.2171888 261.3727,80.0346568 C261.3717,79.9944768 261.3687,79.9382248 261.3657,79.8808248 C261.3627,79.2999368 261.3607,78.7408608 261.3637,78.2277048 C261.4127,75.1108848 261.4777,76.4586368 261.5437,77.8178688 C261.3807,71.6531088 261.7247,60.7987688 261.6557,58.5475408 C261.6407,54.0301608 261.5097,56.8645728 261.4247,55.6247328 C261.4617,48.9135248 261.7697,56.7543648 261.6177,47.7448608 C261.6017,48.7918368 261.5887,50.7273648 261.5657,49.9777208 C261.5517,48.4141448 261.4527,46.2903448 261.3577,44.1171808 L261.2887,35.4256728 L261.3167,35.3430168 C261.3227,31.5695408 261.2897,27.6904488 261.2657,23.7068888 L261.3177,23.9617448 C261.2837,21.6864088 261.2677,20.1721968 261.2597,19.0873368 C261.2637,19.4397728 261.2727,19.7267728 261.2947,19.9138968 C261.3207,17.3515608 261.3417,15.3184528 261.3597,13.5310168 C261.3147,15.7684688 261.2537,17.6810368 261.2587,18.8795488 C261.2387,15.8166848 261.2997,16.4147928 261.2677,12.2957688 C261.2817,10.7126768 261.3007,9.1169568 261.3337,7.4959808 C261.3207,5.4938688 261.3087,3.4527248 261.2917,0.8536528 C259.9217,0.8502088 258.3207,0.8456168 256.4407,0.8410248 L255.6087,0.7285208 C252.3347,0.7675528 245.7747,0.6160168 244.3677,0.7331128 C240.8347,0.4323368 228.4737,0.6676768 222.7137,0.6148688 L222.4957,0.7595168 C221.7307,0.7595168 220.9727,0.7595168 220.2107,0.7618128 C219.2117,0.7354088 217.9497,0.7170408 216.3297,0.7147448 C216.9517,0.7354088 217.7757,0.7514808 218.2017,0.7687008 C215.6377,0.7847728 212.9517,0.8146208 209.8097,0.8525048 L209.8227,0.8582448 C207.6227,0.8720208 205.1687,0.9030168 201.9077,0.8628368 C203.2067,0.9064608 202.9987,0.9409008 202.4757,0.9787848 C199.3737,0.9443448 195.9397,0.8961288 192.4917,0.9030168 C192.9487,0.8536528 194.6507,0.8651328 195.8547,0.8961288 C187.8377,0.6056848 178.9387,1.1073608 171.6677,0.8949808 C169.8557,0.9420488 168.5437,0.9259768 167.2717,0.8949808 C167.4407,0.8915368 167.5917,0.8892408 167.7227,0.8880928 C167.5357,0.8869448 167.2607,0.8857968 166.9777,0.8857968 C166.1777,0.8628368 165.3517,0.8410248 164.4607,0.8169168 C165.2237,0.8421728 165.9487,0.8651328 166.5787,0.8857968 C165.1817,0.8995728 163.0627,0.9179408 160.9837,0.9374568 L160.0997,0.7985488 C159.9307,0.8008448 159.7947,0.8008448 159.6187,0.8031408 C157.5797,0.7514808 157.9787,0.8674288 159.0667,0.9718968 C158.0237,1.0028928 157.0667,1.0327408 156.3187,1.0557008 C154.6627,0.8318408 150.8687,1.1303208 148.6077,0.8926848 C147.7977,0.9592688 144.4317,0.9787848 141.5237,1.0292968 C140.6527,1.0097808 139.5857,0.9833768 138.2137,0.9443448 C139.2717,0.9914128 139.8007,1.0292968 139.9227,1.0637368 C138.8567,1.0912888 137.9617,1.1257288 137.4427,1.1750928 C136.5567,1.1636128 135.6747,1.1544288 134.8027,1.1498368 L131.8607,1.0120768 L130.8907,1.1865728 C130.8717,1.1865728 130.8517,1.1865728 130.8327,1.1877208 C130.8127,1.1865728 130.7937,1.1865728 130.7737,1.1865728 L129.8047,1.0120768 L126.8617,1.1498368 C125.9907,1.1544288 125.1077,1.1636128 124.2227,1.1750928 C123.7037,1.1257288 122.8077,1.0912888 121.7427,1.0637368 C121.8647,1.0292968 122.3927,0.9914128 123.4517,0.9443448 C122.0797,0.9833768 121.0127,1.0097808 120.1417,1.0292968 C117.2337,0.9787848 113.8677,0.9592688 113.0567,0.8926848 C110.7967,1.1303208 107.0017,0.8318408 105.3457,1.0557008 C104.5987,1.0327408 103.6417,1.0028928 102.5987,0.9718968 C103.6857,0.8674288 104.0847,0.7514808 102.0467,0.8031408 C101.8707,0.8008448 101.7347,0.8008448 101.5657,0.7985488 L100.6817,0.9374568 C98.6017,0.9179408 96.4827,0.8995728 95.0867,0.8857968 C95.7167,0.8651328 96.4417,0.8421728 97.2037,0.8169168 C96.3117,0.8410248 95.4867,0.8628368 94.6867,0.8857968 C94.4047,0.8857968 94.1287,0.8869448 93.9427,0.8880928 C94.0737,0.8892408 94.2247,0.8915368 94.3927,0.8949808 C93.1217,0.9259768 91.8097,0.9420488 89.9977,0.8949808 C82.7267,1.1073608 73.8277,0.6056848 65.8097,0.8961288 C67.0147,0.8651328 68.7167,0.8536528 69.1727,0.9030168 C65.7247,0.8961288 62.2917,0.9443448 59.1887,0.9787848 C58.6667,0.9409008 58.4587,0.9064608 59.7577,0.8628368 C56.4967,0.9030168 54.0427,0.8720208 51.8417,0.8582448 L51.8557,0.8525048 C48.7127,0.8146208 46.0277,0.7847728 43.4637,0.7687008 C43.8897,0.7514808 44.7137,0.7354088 45.3357,0.7147448 C43.7157,0.7170408 42.4537,0.7354088 41.4547,0.7618128 C40.6927,0.7595168 39.9337,0.7595168 39.1697,0.7595168 L38.9517,0.6148688 C33.1917,0.6676768 20.8307,0.4323368 17.2977,0.7331128 C15.8907,0.6160168 9.3297,0.7675528 6.0567,0.7285208 L5.2247,0.8410248 C3.3447,0.8456168 1.7437,0.8502088 0.3737,0.8536528 C0.3567,3.4527248 0.3447,5.4938688 0.3307,7.4959808 C0.3637,9.1169568 0.3837,10.7126768 0.3977,12.2957688 C0.3657,16.4147928 0.4267,15.8166848 0.4067,18.8795488 C0.4107,17.6810368 0.3507,15.7684688 0.3057,13.5310168 C0.3237,15.3184528 0.3447,17.3515608 0.3707,19.9138968 C0.3917,19.7267728 0.4017,19.4397728 0.4057,19.0873368 C0.3977,20.1721968 0.3807,21.6864088 0.3477,23.9617448 L0.3987,23.7068888 C0.3757,27.6904488 0.3417,31.5695408 0.3487,35.3430168 L0.3757,35.4256728 L0.3077,44.1171808 C0.2127,46.2903448 0.1137,48.4141448 0.0997,49.9777208 C0.0767,50.7273648 0.0627,48.7918368 0.0467,47.7448608 C-0.1053,56.7543648 0.2037,48.9135248 0.2407,55.6247328 C0.1557,56.8645728 0.0247,54.0301608 0.0097,58.5475408 C-0.0603,60.7987688 0.2837,71.6531088 0.1217,77.8178688 C0.1867,76.4586368 0.2527,75.1108848 0.3017,78.2277048 C0.3037,78.7408608 0.3027,79.2999368 0.2997,79.8808248 C0.2967,79.9382248 0.2937,79.9944768 0.2917,80.0346568 C0.2927,80.2171888 0.2937,80.3733168 0.2947,80.5351848 C0.2877,81.3399328 0.2777,82.1894528 0.2667,83.0688208 C0.2527,82.9655008 0.2367,82.7565648 0.2207,82.7049048 C0.2347,83.1204808 0.2437,83.4970248 0.2547,83.8827528 C0.2007,87.7319968 0.1347,91.9382688 0.2347,94.8220448 L0.2317,95.2135128 C0.2337,95.0849368 0.2367,95.0149088 0.2407,94.9701368 C0.2467,95.1354488 0.2527,95.3087968 0.2607,95.4660728 C0.2427,96.0733648 0.2257,96.3018168 0.2097,96.3270728 C0.2327,97.9733048 0.2537,100.545973 0.2787,103.077313 C0.2727,103.015321 0.2677,102.938405 0.2607,102.841973 C0.2677,103.008433 0.2737,103.153081 0.2807,103.300025 C0.3107,106.308933 0.3497,109.220261 0.4087,110.400405 C0.3727,110.698885 0.3447,111.127089 0.3217,111.649429 L0.2917,110.051413 L0.2317,112.427773 L0.3037,112.187841 C0.2447,114.123369 0.2527,117.061101 0.2787,120.133149 L0.2037,122.013573 L0.2897,121.316737 C0.2957,121.882701 0.3007,122.449813 0.3067,123.012333 C0.3087,123.150093 0.3097,123.284409 0.3107,123.421021 C0.2937,123.973209 0.2747,124.787141 0.2537,126.057977 C0.3037,127.728317 0.3367,128.915349 0.3587,130.070237 C0.3557,131.885225 0.3227,133.051593 0.2277,133.030929 L0.2487,144.267553 L0.2097,143.973665 C0.1847,151.156701 0.2757,153.697225 0.3677,156.221677 C0.3417,157.881685 0.3067,156.670545 0.2857,156.532785 C0.2437,162.304929 0.2297,165.217405 0.2577,168.134473 L0.2447,167.951941 C0.2527,168.583341 0.2627,169.076981 0.2727,169.479929 C0.2997,171.468265 0.3467,173.648317 0.4157,176.870753 L0.2917,177.785709 C0.3117,178.453845 0.3057,179.955429 0.2887,181.970169 C0.2437,181.512117 0.1907,180.410037 0.1567,180.610937 C0.2137,180.795765 0.2377,183.437313 0.2637,184.832133 L0.2637,184.828689 C0.2167,190.013057 0.1547,197.069813 0.2417,203.243757 C0.1797,201.299045 0.1407,200.725045 0.1077,204.341245 C0.1377,203.128957 0.1467,206.397313 0.1877,207.164177 L0.2127,205.709661 C0.2437,216.807377 -0.1123,230.269973 0.2937,234.090517 L0.4047,241.733901 C0.4267,235.710345 0.4947,237.572401 0.5607,239.028065 C0.5497,240.587049 0.5387,242.139145 0.5297,243.615473 C0.3087,242.290681 0.4537,255.949585 0.2957,255.685545 C0.2777,265.209353 0.2597,274.611473 0.2427,283.872389 C0.2417,283.896497 0.2417,283.914865 0.2417,283.938973 L0.2417,283.935529 C0.2417,284.112321 0.2417,284.291409 0.2407,284.465905 C0.5897,284.468201 0.9347,284.468201 1.2817,284.470497 L2.9787,284.611701 L3.5477,284.477385 C10.9587,284.503789 18.2637,284.527897 25.4317,284.552005 L24.9217,284.493457 C25.1647,284.494605 25.3707,284.495753 25.5377,284.495753 C25.3327,284.495753 25.1257,284.494605 24.9197,284.493457 L23.6347,284.346513 L23.7947,284.343069 L25.8077,284.347661 C26.0057,284.408505 26.7317,284.477385 25.5377,284.495753 C26.5197,284.496901 27.4447,284.500345 27.9547,284.509529 C27.7057,284.510677 27.4397,284.510677 27.1407,284.509529 C27.4717,284.529045 27.8677,284.538229 28.2957,284.542821 C28.1447,284.557745 27.7037,284.578409 26.8377,284.605961 C30.0987,284.539377 33.3757,284.495753 36.6577,284.461313 C36.0817,284.535933 31.6137,284.610553 33.2287,284.613997 L36.4507,284.599073 L35.7247,284.573817 C37.2337,284.524453 37.9527,284.472793 39.2047,284.441797 C40.5777,284.430317 41.9487,284.414245 43.3247,284.408505 C46.3157,284.450981 44.8577,284.538229 46.0397,284.545117 C46.0397,284.545117 46.1347,284.557745 46.4107,284.560041 C46.6867,284.557745 47.1427,284.555449 47.8527,284.552005 L54.8307,284.569225 L52.0407,284.403913 C52.3027,284.397025 52.5657,284.391285 52.8287,284.386693 C63.2817,284.387841 73.7317,284.446389 84.0327,284.411949 C84.1357,284.414245 84.2307,284.416541 84.3087,284.418837 C84.4127,284.415393 84.5167,284.413097 84.6207,284.410801 C87.7727,284.399321 90.9137,284.380953 94.0317,284.345365 C95.5177,284.362585 94.6637,284.425725 94.0927,284.468201 C98.1397,284.293705 97.9637,284.560041 100.1777,284.585297 L104.9487,284.380953 C105.7027,284.388989 106.4987,284.395877 107.2967,284.403913 C107.5067,284.454425 106.6817,284.501493 106.7997,284.535933 C108.6707,284.543969 110.5267,284.542821 112.3737,284.537081 C112.3987,284.538229 112.4267,284.540525 112.4507,284.541673 C112.4317,284.540525 112.4247,284.538229 112.4087,284.537081 C116.1087,284.526749 119.7527,284.499197 123.2697,284.473941 C123.3877,284.479681 123.5107,284.484273 123.6607,284.488865 C124.7397,284.470497 125.8497,284.459017 126.9777,284.452129 C128.2837,284.446389 129.5707,284.441797 130.8327,284.440649 C132.0947,284.441797 133.3817,284.446389 134.6867,284.452129 C135.8157,284.459017 136.9257,284.470497 138.0047,284.488865 C138.1547,284.484273 138.2777,284.479681 138.3947,284.473941 C141.9127,284.499197 145.5567,284.526749 149.2567,284.537081 C149.2407,284.538229 149.2337,284.540525 149.2147,284.541673 C149.2387,284.540525 149.2667,284.538229 149.2917,284.537081 C151.1387,284.542821 152.9947,284.543969 154.8647,284.535933 C154.9837,284.501493 154.1577,284.454425 154.3687,284.403913 C155.1657,284.395877 155.9627,284.388989 156.7167,284.380953 L161.4867,284.585297 C163.7017,284.560041 163.5257,284.293705 167.5727,284.468201 C167.0007,284.425725 166.1477,284.362585 167.6337,284.345365 C170.7517,284.380953 173.8927,284.399321 177.0437,284.410801 C177.1487,284.413097 177.2527,284.415393 177.3567,284.418837 C177.4347,284.416541 177.5297,284.414245 177.6317,284.411949 C187.9327,284.446389 198.3827,284.387841 208.8367,284.386693 C209.0997,284.391285 209.3627,284.397025 209.6247,284.403913 L206.8347,284.569225 L213.8107,284.552005 C214.5217,284.555449 214.9767,284.557745 215.2547,284.560041 C215.5307,284.557745 215.6257,284.545117 215.6257,284.545117 C216.8077,284.538229 215.3487,284.450981 218.3407,284.408505 C219.7157,284.414245 221.0877,284.430317 222.4607,284.441797 C223.7127,284.472793 224.4307,284.524453 225.9397,284.573817 L225.2147,284.599073 L228.4347,284.613997 C230.0507,284.610553 225.5837,284.535933 225.0067,284.461313 C228.2897,284.495753 231.5657,284.539377 234.8277,284.605961 C233.9617,284.578409 233.5187,284.557745 233.3697,284.542821 C233.7977,284.538229 234.1937,284.529045 234.5237,284.509529 C234.2257,284.510677 233.9597,284.510677 233.7107,284.509529 C234.2207,284.500345 235.1447,284.496901 236.1277,284.495753 C234.9337,284.477385 235.6597,284.408505 235.8577,284.347661 L237.8697,284.343069 L238.0297,284.346513 L236.7447,284.493457 C236.5387,284.494605 236.3327,284.495753 236.1277,284.495753 C236.2937,284.495753 236.5007,284.494605 236.7437,284.493457 L236.2327,284.552005 C243.4017,284.527897 250.7067,284.503789 258.1167,284.477385 L258.6857,284.611701 L260.3827,284.470497 C260.7307,284.468201 261.0747,284.468201 261.4237,284.465905 C261.4237,284.291409 261.4237,284.112321 261.4227,283.935529 C261.4227,283.937825 261.4237,283.937825 261.4237,283.938973 C261.4237,283.914865 261.4227,283.896497 261.4227,283.872389 C261.4047,274.611473 261.3877,265.209353 261.3697,255.685545 C261.2117,255.949585 261.3567,242.290681 261.1347,243.615473 C261.1267,242.139145 261.1147,240.587049 261.1037,239.028065 C261.1707,237.572401 261.2387,235.710345 261.2607,241.733901 Z" id="Fill-84" fill="#FF722D" mask="url(#mask-18)"></path>
                    </g>
                    <path d="M260.3961,94.639398 L260.3981,93.870238 C260.3961,94.090654 260.3951,94.337474 260.3961,94.639398" id="Fill-87" fill="#FF722D"></path>
                    <path d="M231.1686,1.9405792 C231.0876,1.9658352 230.9926,1.9933872 230.6486,2.0151992 C231.6556,1.9910912 231.6466,1.9646872 231.1686,1.9405792" id="Fill-89" fill="#FF722D"></path>
                    <path d="M260.2555,180.85041 C260.2635,180.81597 260.2705,180.751682 260.2775,180.631142 L260.2765,180.410726 L260.2555,180.85041 Z" id="Fill-91" fill="#FF722D"></path>
                    <path d="M0.2321,95.213398 C0.2301,95.32131 0.2291,95.454478 0.2291,95.638158 L0.2321,95.213398 Z" id="Fill-93" fill="#FF722D"></path>
                    <path d="M95.2555,2.2141476 C99.9695,2.1268996 95.9915,2.3771636 101.2075,2.3071356 C102.6535,2.1142716 101.0005,2.1555996 97.8525,2.0832756 C99.1085,2.1429716 94.0305,2.1452676 95.2555,2.2141476" id="Fill-95" fill="#FF722D"></path>
                    <path d="M97.8522,2.083046 C97.3482,2.06927 96.8152,2.054346 96.2452,2.038274 C97.1552,2.06353 97.5842,2.076158 97.8522,2.083046" id="Fill-97" fill="#FF722D"></path>
                    <g id="Group-101" transform="translate(6.000000, 283.556000)">
                        <mask id="mask-20" fill="white">
                            <use xlink:href="#path-19"></use>
                        </mask>
                        <g id="Clip-100"></g>
                        <polygon id="Fill-99" fill="#FF722D" mask="url(#mask-20)" points="0.8542 1.148 4.2082 1.087156 3.0192 1.049272"></polygon>
                    </g>
                    <path d="M260.1295,52.7183412 L260.0905,53.0110812 L260.1815,56.0211372 C260.1755,54.2153332 260.1715,53.3141532 260.1295,52.7183412" id="Fill-102" fill="#FF722D"></path>
                    <polygon id="Fill-104" fill="#FF722D" points="260.3551 106.017341 260.2091 104.336669 260.2111 105.234405"></polygon>
                    <path d="M260.0456,143.378886 C260.0386,145.174358 260.0316,147.277494 260.0246,149.067226 C260.2076,149.550534 260.0196,147.277494 260.0456,143.378886" id="Fill-106" fill="#FF722D"></path>
                </g>
            </g>
        </g>
    </g>
</svg>