<?xml version="1.0" encoding="UTF-8" standalone="no"?>
<svg width="24px" height="27px" viewBox="0 0 24 27" version="1.1" xmlns="http://www.w3.org/2000/svg" xmlns:xlink="http://www.w3.org/1999/xlink">
    <!-- Generator: Sketch 49.1 (51147) - http://www.bohemiancoding.com/sketch -->
    <title>Fill 1 Copy 3</title>
    <desc>Created with Sketch.</desc>
    <defs></defs>
    <g id="1.0_Homepage-" stroke="none" stroke-width="1" fill="none" fill-rule="evenodd">
        <g id="B-1-1-首頁" transform="translate(-708.000000, -955.000000)" fill="#FF5E0E">
            <path d="M732,968.477678 C729.047494,967.447721 726.545056,965.922481 724.547333,963.813197 C722.455782,961.569456 720.925139,958.663412 720.015724,955 C720.011084,955.019958 720.004898,955.038866 719.999742,955.058299 C719.995102,955.038866 719.988916,955.019958 719.98376,955 C719.074861,958.663412 717.543703,961.569456 715.452151,963.813197 C713.454428,965.922481 710.95199,967.447721 708,968.477678 C708.002578,968.478203 708.005155,968.479254 708.007733,968.479779 C708.005155,968.480829 708.002578,968.48188 708,968.48293 C710.772582,969.342716 713.076536,970.724571 714.948983,972.606435 C717.25036,975.006692 718.866067,978.202657 719.988916,982 C719.992009,981.987395 719.996649,981.975315 719.999742,981.962184 C720.003351,981.975315 720.007475,981.987395 720.011084,982 C721.133418,978.202657 722.749125,975.007217 725.049986,972.60696 C726.922432,970.725096 729.226903,969.342716 732,968.48293 C731.997422,968.48188 731.994845,968.480829 731.992267,968.479779 C731.994845,968.479254 731.997422,968.478203 732,968.477678" id="Fill-1-Copy-3"></path>
        </g>
    </g>
</svg>