<?xml version="1.0" encoding="UTF-8"?>
<svg width="24px" height="27px" viewBox="0 0 24 27" version="1.1" xmlns="http://www.w3.org/2000/svg" xmlns:xlink="http://www.w3.org/1999/xlink">
    <!-- Generator: Sketch 50.2 (55047) - http://www.bohemiancoding.com/sketch -->
    <title>Fill 1</title>
    <desc>Created with Sketch.</desc>
    <defs></defs>
    <g id="1.0_Homepage-" stroke="none" stroke-width="1" fill="none" fill-rule="evenodd">
        <g id="Landing-Page" transform="translate(-1021.000000, -3145.000000)" fill="#FFFFFF">
            <path d="M1045,3158.22931 C1042.04749,3157.21833 1039.54506,3155.7212 1037.54733,3153.65079 C1035.45578,3151.44839 1033.92514,3148.5959 1033.01572,3145 C1033.01108,3145.01959 1033.0049,3145.03815 1032.99974,3145.05723 C1032.9951,3145.03815 1032.98892,3145.01959 1032.98376,3145 C1032.07486,3148.5959 1030.5437,3151.44839 1028.45215,3153.65079 C1026.45443,3155.7212 1023.95199,3157.21833 1021,3158.22931 C1021.00258,3158.22982 1021.00516,3158.23086 1021.00773,3158.23137 C1021.00516,3158.2324 1021.00258,3158.23343 1021,3158.23446 C1023.77258,3159.07841 1026.07654,3160.43479 1027.94898,3162.28198 C1030.25036,3164.638 1031.86607,3167.77507 1032.98892,3171.50244 C1032.99201,3171.49007 1032.99665,3171.47821 1032.99974,3171.46532 C1033.00335,3171.47821 1033.00748,3171.49007 1033.01108,3171.50244 C1034.13342,3167.77507 1035.74912,3164.63852 1038.04999,3162.2825 C1039.92243,3160.43531 1042.2269,3159.07841 1045,3158.23446 C1044.99742,3158.23343 1044.99484,3158.2324 1044.99227,3158.23137 C1044.99484,3158.23086 1044.99742,3158.22982 1045,3158.22931" id="Fill-1"></path>
        </g>
    </g>
</svg>