<?xml version="1.0" encoding="UTF-8"?>
<svg width="1930px" height="668px" viewBox="0 0 1930 668" version="1.1" xmlns="http://www.w3.org/2000/svg" xmlns:xlink="http://www.w3.org/1999/xlink">
    <!-- Generator: Sketch 50 (54983) - http://www.bohemiancoding.com/sketch -->
    <title>Artboard</title>
    <desc>Created with Sketch.</desc>
    <defs></defs>
    <g id="Artboard" stroke="none" stroke-width="1" fill="none" fill-rule="evenodd">
        <g id="Group-Copy" transform="translate(-2.000000, 0.000000)" fill="#FBE1D8">
            <rect id="Rectangle-4-Copy-5" x="130" y="377" width="22" height="287"></rect>
            <rect id="Rectangle-4-Copy-10" x="422" y="384" width="22" height="281"></rect>
            <rect id="Rectangle-4" x="0" y="422" width="22" height="241"></rect>
            <rect id="Rectangle-4-Copy-2" x="293" y="323" width="22" height="339"></rect>
            <rect id="Rectangle-4-Copy-6" x="163" y="376" width="22" height="287"></rect>
            <rect id="Rectangle-4-Copy-11" x="455" y="374" width="22" height="293"></rect>
            <rect id="Rectangle-4" x="33" y="434" width="22" height="231"></rect>
            <rect id="Rectangle-4-Copy-3" x="325" y="334" width="22" height="331"></rect>
            <rect id="Rectangle-4-Copy-7" x="195" y="358" width="22" height="305"></rect>
            <rect id="Rectangle-4-Copy-12" x="487" y="346" width="22" height="320"></rect>
            <rect id="Rectangle-4" x="65" y="443" width="22" height="220"></rect>
            <rect id="Rectangle-4-Copy-13" x="357" y="344" width="22" height="318"></rect>
            <rect id="Rectangle-4-Copy-8" x="228" y="344" width="22" height="318"></rect>
            <rect id="Rectangle-4-Copy-14" x="520" y="318" width="22" height="348"></rect>
            <rect id="Rectangle-4-Copy-4" x="98" y="432" width="22" height="231"></rect>
            <rect id="Rectangle-4-Copy-15" x="390" y="393" width="22" height="274"></rect>
            <rect id="Rectangle-4-Copy-9" x="260" y="333" width="22" height="331"></rect>
            <rect id="Rectangle-4-Copy-16" x="552" y="279" width="22" height="388"></rect>
            <rect id="Rectangle-4-Copy-5" x="714" y="265" width="22" height="400"></rect>
            <rect id="Rectangle-4-Copy-17" x="1169" y="166" width="22" height="496"></rect>
            <rect id="Rectangle-4-Copy-10" x="1007" y="150" width="22" height="512"></rect>
            <rect id="Rectangle-4" x="585" y="258" width="22" height="408"></rect>
            <rect id="Rectangle-4-Copy-2" x="877" y="226" width="22" height="436"></rect>
            <rect id="Rectangle-4-Copy-19" x="1331" y="88" width="22" height="573"></rect>
            <rect id="Rectangle-4-Copy-34" x="1525" y="127" width="22" height="534"></rect>
            <rect id="Rectangle-4-Copy-21" x="1751" y="78" width="22" height="583"></rect>
            <rect id="Rectangle-4-Copy-6" x="747" y="273" width="22" height="392"></rect>
            <rect id="Rectangle-4-Copy-20" x="1201" y="189" width="22" height="473"></rect>
            <rect id="Rectangle-4-Copy-11" x="1039" y="141" width="22" height="520"></rect>
            <rect id="Rectangle-4" x="617" y="242" width="22" height="426"></rect>
            <rect id="Rectangle-4-Copy-3" x="909" y="205" width="22" height="458"></rect>
            <rect id="Rectangle-4-Copy-22" x="1364" y="90" width="22" height="573"></rect>
            <rect id="Rectangle-4-Copy-35" x="1558" y="109" width="22" height="554"></rect>
            <rect id="Rectangle-4-Copy-24" x="1784" y="60" width="22" height="603"></rect>
            <rect id="Rectangle-4-Copy-7" x="779" y="248" width="22" height="417"></rect>
            <rect id="Rectangle-4-Copy-23" x="1234" y="166" width="22" height="496"></rect>
            <rect id="Rectangle-4-Copy-27" x="1654" y="108" width="22" height="554"></rect>
            <rect id="Rectangle-4-Copy-12" x="1071" y="141" width="22" height="520"></rect>
            <rect id="Rectangle-4" x="650" y="232" width="22" height="435"></rect>
            <rect id="Rectangle-4-Copy-13" x="942" y="189" width="22" height="473"></rect>
            <rect id="Rectangle-4-Copy-25" x="1396" y="101" width="22" height="561"></rect>
            <rect id="Rectangle-4-Copy-36" x="1590" y="88" width="22" height="574"></rect>
            <rect id="Rectangle-4-Copy-28" x="1816" y="45" width="22" height="617"></rect>
            <rect id="Rectangle-4-Copy-40" x="1880" y="10" width="22" height="652"></rect>
            <rect id="Rectangle-4-Copy-8" x="812" y="219" width="22" height="445"></rect>
            <rect id="Rectangle-4-Copy-26" x="1266" y="141" width="22" height="520"></rect>
            <rect id="Rectangle-4-Copy-37" x="1460" y="127" width="22" height="534"></rect>
            <rect id="Rectangle-4-Copy-31" x="1686" y="127" width="22" height="534"></rect>
            <rect id="Rectangle-4-Copy-14" x="1104" y="141" width="22" height="520"></rect>
            <rect id="Rectangle-4-Copy-4" x="682" y="241" width="22" height="426"></rect>
            <rect id="Rectangle-4-Copy-15" x="974" y="166" width="22" height="496"></rect>
            <rect id="Rectangle-4-Copy-29" x="1428" y="116" width="22" height="546"></rect>
            <rect id="Rectangle-4-Copy-38" x="1622" y="95" width="22" height="567"></rect>
            <rect id="Rectangle-4-Copy-32" x="1848" y="22" width="22" height="640"></rect>
            <rect id="Rectangle-4-Copy-41" x="1912" y="0" width="22" height="662"></rect>
            <rect id="Rectangle-4-Copy-9" x="844" y="207" width="22" height="458"></rect>
            <rect id="Rectangle-4-Copy-30" x="1299" y="100" width="22" height="561"></rect>
            <rect id="Rectangle-4-Copy-39" x="1493" y="141" width="22" height="520"></rect>
            <rect id="Rectangle-4-Copy-33" x="1719" y="107" width="22" height="554"></rect>
            <rect id="Rectangle-4-Copy-16" x="1136" y="150" width="22" height="512"></rect>
        </g>
    </g>
</svg>