<?xml version="1.0" encoding="UTF-8"?>
<svg width="199px" height="4px" viewBox="0 0 199 4" version="1.1" xmlns="http://www.w3.org/2000/svg" xmlns:xlink="http://www.w3.org/1999/xlink">
    <!-- Generator: Sketch 50.2 (55047) - http://www.bohemiancoding.com/sketch -->
    <title>Page 1 Copy 8</title>
    <desc>Created with Sketch.</desc>
    <defs>
        <polygon id="path-1" points="1.02849349 0.6248 1.32450331 0.6248 1.32450331 1.6248 1.02849349 1.6248"></polygon>
        <polygon id="path-3" points="0.416556291 0.142 1.83442665 0.142 1.83442665 1.1418 0.416556291 1.1418"></polygon>
        <polygon id="path-5" points="1.28966887 0.2581 2.61417219 0.2581 2.61417219 1 1.28966887 1"></polygon>
        <polygon id="path-7" points="0.128244192 0.1737 1.4527475 0.1737 1.4527475 1 0.128244192 1"></polygon>
        <polygon id="path-9" points="0.71589404 0.4885 2.04039735 0.4885 2.04039735 1 0.71589404 1"></polygon>
        <polygon id="path-11" points="0.109246085 0.2828 1.4337494 0.2828 1.4337494 1 0.109246085 1"></polygon>
        <polygon id="path-13" points="1.12622517 0.0594 2.45072848 0.0594 2.45072848 1 1.12622517 1"></polygon>
        <polygon id="path-15" points="1.12211921 0.4445 2.44662252 0.4445 2.44662252 1 1.12211921 1"></polygon>
        <polygon id="path-17" points="0.796613267 0.0315 2.12111658 0.0315 2.12111658 1 0.796613267 1"></polygon>
        <polygon id="path-19" points="0 0.8996 1.32437086 0.8996 1.32437086 1.8996 0 1.8996"></polygon>
        <polygon id="path-21" points="0.0273509934 0.6366 1.3518543 0.6366 1.3518543 1 0.0273509934 1"></polygon>
        <polygon id="path-23" points="0.675099338 0.2894 1.99960265 0.2894 1.99960265 1 0.675099338 1"></polygon>
        <polygon id="path-25" points="1.24937701 0.788880824 2.57388032 0.788880824 2.57388032 1 1.24937701 1"></polygon>
        <polygon id="path-27" points="0.88397351 0.407887312 168.562119 0.407887312 168.562119 4 0.88397351 4"></polygon>
    </defs>
    <g id="3.0_Support" stroke="none" stroke-width="1" fill="none" fill-rule="evenodd">
        <g id="Support" transform="translate(-518.000000, -1131.000000)">
            <g id="Page-1-Copy-8" transform="translate(518.000000, 1130.000000)">
                <g id="Group-3" transform="translate(197.350993, 0.858400)">
                    <mask id="mask-2" fill="white">
                        <use xlink:href="#path-1"></use>
                    </mask>
                    <g id="Clip-2"></g>
                    <path d="M1.09218543,0.8538 C1.38622517,0.8718 1.2802649,0.6628 1.32397351,0.6248 C0.833907285,0.6708 1.10410596,0.9088 1.09218543,0.8538" id="Fill-1" fill="#FF5E0E" mask="url(#mask-2)"></path>
                </g>
                <polygon id="Fill-4" fill="#FF5E0E" points="193.60106 2.1877 193.687152 2.1017 192.973245 2.3117"></polygon>
                <path d="M189.073377,2.1838 C189.501192,2.5398 190.714437,2.1258 191.52106,2.2528 L191.65351,2.3338 L192.017748,2.0468 C191.037616,2.0928 189.763444,2.2838 189.073377,2.1838" id="Fill-6" fill="#FF5E0E"></path>
                <path d="M186.659073,1.4114 C186.808742,1.5504 186.137219,1.5314 187.221987,1.4554 C187.167682,1.4394 187.151788,1.4314 187.12,1.4204 C187.021987,1.4224 186.888212,1.4214 186.659073,1.4114" id="Fill-8" fill="#FF5E0E"></path>
                <path d="M187.120265,1.4202 C187.597086,1.4092 186.809007,1.3032 187.120265,1.4202" id="Fill-10" fill="#FF5E0E"></path>
                <path d="M185.063576,1.2151 C184.419868,1.2831 184.550993,1.3641 184.917881,1.4991 L185.545695,1.3751 C185.41457,1.2931 184.855629,1.2751 185.063576,1.2151" id="Fill-12" fill="#FF5E0E"></path>
                <path d="M184.322517,1.76 L184.648344,1.707 C184.591391,1.673 184.505298,1.661 184.322517,1.76" id="Fill-14" fill="#FF5E0E"></path>
                <path d="M184.964636,1.6672 C184.909007,1.7722 185.04543,1.6712 185.338146,1.5972 L184.648079,1.7072 C184.73947,1.7652 184.748742,1.8812 184.964636,1.6672" id="Fill-16" fill="#FF5E0E"></path>
                <path d="M185.729139,1.6516 C186.081457,1.7286 186.537086,1.7776 185.906623,1.9016 C187.107947,1.8516 186.930464,1.6006 185.729139,1.6516" id="Fill-18" fill="#FF5E0E"></path>
                <path d="M188.842384,2.553 L189.312583,2.657 L189.72053,2.537 C189.516556,2.597 188.813245,2.441 188.842384,2.553" id="Fill-20" fill="#FF5E0E"></path>
                <path d="M181.00543,1.3147 C180.965695,1.3907 181.216026,1.5167 181.263709,1.6147 L181.727285,1.5267 C181.488874,1.4747 181.037219,1.4267 181.00543,1.3147" id="Fill-22" fill="#FF5E0E"></path>
                <path d="M181.263444,1.6145 L180.569404,1.7445 C181.189272,1.7605 181.301854,1.6985 181.263444,1.6145" id="Fill-24" fill="#FF5E0E"></path>
                <polygon id="Fill-26" fill="#FF5E0E" points="184.210596 2.1565 185.350993 1.8825 183.990728 2.1595"></polygon>
                <polygon id="Fill-28" fill="#FF5E0E" points="178.046623 1.3948 178.353907 1.3048 178.747285 1.1288"></polygon>
                <g id="Group-32" transform="translate(174.834437, 0.858400)">
                    <mask id="mask-4" fill="white">
                        <use xlink:href="#path-3"></use>
                    </mask>
                    <g id="Clip-31"></g>
                    <path d="M1.76092715,0.4778 C2.05231788,0.3318 1.36225166,0.2308 1.66953642,0.1418 C1.19139073,0.1678 0.784768212,0.2928 0.416556291,0.4048 C0.807284768,0.3418 1.22317881,0.3588 1.76092715,0.4778" id="Fill-30" fill="#FF5E0E" mask="url(#mask-4)"></path>
                </g>
                <path d="M178.840795,1.4905 L179.113642,1.7045 C179.197086,1.7055 179.291126,1.7065 179.38649,1.7075 C179.33351,1.6615 179.228874,1.5415 178.840795,1.4905" id="Fill-33" fill="#FF5E0E"></path>
                <path d="M179.122781,1.7102 L179.11351,1.7042 C178.816821,1.6992 178.611523,1.6942 178.524106,1.6912 C178.598278,1.6932 178.779735,1.6992 179.122781,1.7102" id="Fill-35" fill="#FF5E0E"></path>
                <path d="M181.955364,2.3928 C182.248079,2.2468 181.776556,2.1428 182.391126,1.9628 C181.983179,2.0818 181.132848,2.2098 181.955364,2.3928" id="Fill-37" fill="#FF5E0E"></path>
                <path d="M180.586358,1.8254 L179.794305,1.9744 L180.532053,2.0234 C180.517483,1.9684 180.385033,1.8854 180.586358,1.8254" id="Fill-39" fill="#FF5E0E"></path>
                <polygon id="Fill-41" fill="#FF5E0E" points="179.433775 2.0432 179.79404 1.9752 179.521192 1.9572"></polygon>
                <path d="M175.897483,1.6272 C175.579603,1.7202 175.231258,1.7282 174.837881,1.7432 C175.259073,1.7842 175.694834,1.8082 176.109404,1.8072 C176.167682,1.7392 176.349139,1.6192 175.897483,1.6272" id="Fill-43" fill="#FF5E0E"></path>
                <path d="M177.465166,1.6868 C177.442649,1.6918 177.414834,1.6938 177.393642,1.6988 C177.437351,1.7168 177.473113,1.7228 177.465166,1.6868" id="Fill-45" fill="#FF5E0E"></path>
                <path d="M171.025033,1.7805 C171.030331,1.7675 171.03298,1.7565 171.039603,1.7435 L170.962781,1.7415 C170.983974,1.7535 171.002517,1.7675 171.025033,1.7805" id="Fill-47" fill="#FF5E0E"></path>
                <path d="M176.180132,1.8469 C176.496689,1.8879 176.686093,1.8359 176.86755,1.7699 C176.630464,1.7909 176.378808,1.8059 176.108609,1.8069 C176.083444,1.8369 176.078146,1.8579 176.180132,1.8469" id="Fill-49" fill="#FF5E0E"></path>
                <path d="M173.553775,1.5266 C173.719338,1.5716 173.906093,1.6096 174.103444,1.6446 C173.94053,1.5776 173.612053,1.4716 173.553775,1.5266" id="Fill-51" fill="#FF5E0E"></path>
                <path d="M177.287285,1.6399 C177.303179,1.6359 177.317748,1.6319 177.334967,1.6299 C177.231656,1.5839 177.243576,1.6069 177.287285,1.6399" id="Fill-53" fill="#FF5E0E"></path>
                <path d="M176.866887,1.7698 C177.060265,1.7528 177.239073,1.7298 177.39404,1.6988 C177.355629,1.6838 177.315894,1.6608 177.286755,1.6398 C177.123841,1.6698 176.996689,1.7228 176.866887,1.7698" id="Fill-55" fill="#FF5E0E"></path>
                <path d="M170.274172,2.0637 C170.529801,2.1707 171.891391,2.3167 171.276821,2.4957 C170.311258,2.5977 170.486093,2.4247 170.015894,2.3207 C170.41457,2.5677 168.788079,2.6797 168.998675,3.0427 L169.845033,2.9157 C169.860927,2.9717 169.553642,3.0617 169.789404,3.1127 C169.845033,2.9157 170.678146,2.7317 171.398675,2.9447 C172.10596,2.7957 171.643709,2.1447 171.025166,1.7807 C171.002649,1.8667 171.002649,1.9467 170.274172,2.0637" id="Fill-57" fill="#FF5E0E"></path>
                <path d="M171.039868,1.7434 L172.515364,1.7704 L172.413377,1.8004 L172.712715,1.7764 C172.370993,1.7414 172.12596,1.6624 171.675629,1.5074 C171.177616,1.6034 171.07298,1.6774 171.039868,1.7434" id="Fill-59" fill="#FF5E0E"></path>
                <path d="M174.135099,1.6575 L174.141722,1.6575 C174.141722,1.6585 174.140397,1.6595 174.140397,1.6605 C174.201325,1.6875 174.221192,1.7045 174.153642,1.6885 C174.148344,1.6905 174.131126,1.6915 174.123179,1.6925 C174.113907,1.7225 174.087417,1.7495 174.059603,1.7735 C173.647682,1.7295 173.994702,1.7185 174.123179,1.6925 C174.128477,1.6815 174.139073,1.6725 174.140397,1.6605 C174.139073,1.6595 174.137748,1.6585 174.135099,1.6575 L172.712583,1.7765 C173.01457,1.8055 173.390728,1.8005 174.059603,1.7745 C173.825166,1.9905 173.104636,2.0825 173.545695,2.3155 C174.42649,2.3005 174.162914,2.1365 174.688742,2.0425 C173.268874,2.0945 175.096689,1.9225 174.070199,1.8005 C174.349669,1.7625 174.6,1.7525 174.837086,1.7435 C174.581457,1.7175 174.335099,1.6845 174.103311,1.6445 C174.115232,1.6495 174.124503,1.6535 174.135099,1.6575" id="Fill-61" fill="#FF5E0E"></path>
                <path d="M181.196821,2.8557 C181.153113,2.8367 181.154437,2.8217 181.151788,2.8057 C181.059073,2.8327 181.024636,2.8507 181.196821,2.8557" id="Fill-63" fill="#FF5E0E"></path>
                <path d="M181.225298,2.5461 L181.124636,2.5751 C180.670331,2.5171 180.119338,2.3371 179.959073,2.2501 C180.110066,2.4191 180.262384,2.5521 180.612053,2.7261 C180.715364,2.6951 180.801457,2.6091 181.137881,2.6321 C181.429272,2.6961 181.136556,2.7351 181.151126,2.8061 C181.353775,2.7491 181.859735,2.6511 181.225298,2.5461" id="Fill-65" fill="#FF5E0E"></path>
                <path d="M176.713642,2.5979 L176.683179,2.4859 C177.356026,2.5299 177.210331,2.3919 177.293775,2.3059 L176.109669,2.4109 L176.713642,2.5979 Z" id="Fill-67" fill="#FF5E0E"></path>
                <polygon id="Fill-69" fill="#FF5E0E" points="170.984238 1.4065 170.29947 1.7275 170.826623 1.6345"></polygon>
                <polygon id="Fill-71" fill="#FF5E0E" points="169.34543 1.4641 168.938808 1.5831 169.288477 1.6611"></polygon>
                <g id="Group-75" transform="translate(80.794702, 3.858400)">
                    <mask id="mask-6" fill="white">
                        <use xlink:href="#path-5"></use>
                    </mask>
                    <g id="Clip-74"></g>
                    <path d="M1.63801325,0.2581 L1.28966887,0.3151 C1.45523179,0.2971 1.56119205,0.2791 1.63801325,0.2581" id="Fill-73" fill="#FF5E0E" mask="url(#mask-6)"></path>
                </g>
                <g id="Group-78" transform="translate(84.768212, 3.858400)">
                    <mask id="mask-8" fill="white">
                        <use xlink:href="#path-7"></use>
                    </mask>
                    <g id="Clip-77"></g>
                    <path d="M0.18410596,0.2717 L0.246357616,0.1737 C0.129801325,0.2277 0.0821192053,0.2677 0.18410596,0.2717" id="Fill-76" fill="#FF5E0E" mask="url(#mask-8)"></path>
                </g>
                <path d="M131.487152,1.6838 C130.979868,1.4988 130.41298,1.2118 130.475232,1.4348 L130.631523,1.6518 C130.985166,1.6128 131.256689,1.6368 131.487152,1.6838" id="Fill-79" fill="#FF5E0E"></path>
                <path d="M105.598543,2.9788 C105.64755,2.9998 105.696556,3.0228 105.746887,3.0448 C105.870066,2.9708 105.985298,2.9018 106.089934,2.8368 C105.941589,2.8818 105.774702,2.9288 105.598543,2.9788" id="Fill-81" fill="#FF5E0E"></path>
                <path d="M104.572848,3.7366 C104.722517,3.7856 104.937086,3.8326 105.240397,3.8766 L104.572848,3.7366 Z" id="Fill-83" fill="#FF5E0E"></path>
                <g id="Group-87" transform="translate(67.549669, 3.858400)">
                    <mask id="mask-10" fill="white">
                        <use xlink:href="#path-9"></use>
                    </mask>
                    <g id="Clip-86"></g>
                    <path d="M1.12251656,0.4885 L0.71589404,0.7095 C1.35165563,0.7085 1.07218543,0.5965 1.12251656,0.4885" id="Fill-85" fill="#FF5E0E" mask="url(#mask-10)"></path>
                </g>
                <path d="M153.524503,1.7415 C153.086093,1.6565 152.739073,1.6215 152.433113,1.6105 C152.960265,1.7355 153.38543,1.9225 153.524503,1.7415" id="Fill-88" fill="#FF5E0E"></path>
                <path d="M83.4247682,1.8147 C83.2115232,1.8537 83.121457,1.8977 83.126755,1.9467 C83.345298,1.9097 83.4698013,1.8687 83.4247682,1.8147" id="Fill-90" fill="#FF5E0E"></path>
                <path d="M151.169801,1.6116 C151.246623,1.6326 151.322119,1.6436 151.400265,1.6626 C151.720795,1.6266 152.042649,1.5966 152.433377,1.6106 C152.043974,1.5176 151.597616,1.4606 151.169801,1.6116" id="Fill-92" fill="#FF5E0E"></path>
                <g id="Group-96" transform="translate(18.543046, 3.858400)">
                    <mask id="mask-12" fill="white">
                        <use xlink:href="#path-11"></use>
                    </mask>
                    <g id="Clip-95"></g>
                    <path d="M0.223576159,0.3088 C0.18781457,0.2988 0.142781457,0.2938 0.110993377,0.2828 C0.0990728477,0.3118 0.149403974,0.3138 0.223576159,0.3088" id="Fill-94" fill="#FF5E0E" mask="url(#mask-12)"></path>
                </g>
                <path d="M4.22754967,1.9778 C4.37059603,1.9638 4.60370861,1.9638 4.82490066,1.9608 C4.71761589,1.9468 4.53615894,1.9488 4.22754967,1.9778" id="Fill-97" fill="#FF5E0E"></path>
                <path d="M163.095497,1.5667 C163.422649,1.5527 163.147152,1.5437 163.095497,1.5667" id="Fill-99" fill="#FF5E0E"></path>
                <path d="M147.918013,2.9612 C147.908742,2.9612 147.900795,2.9602 147.890199,2.9602 C147.986887,3.0032 147.970993,2.9952 147.918013,2.9612" id="Fill-101" fill="#FF5E0E"></path>
                <path d="M163.586358,1.6653 C163.464503,1.6393 163.322781,1.6163 163.169139,1.6013 C163.236689,1.6183 163.363841,1.6393 163.586358,1.6653" id="Fill-103" fill="#FF5E0E"></path>
                <path d="M163.520397,1.5627 C163.63298,1.5727 163.721722,1.5787 163.805166,1.5837 C163.84755,1.5477 163.810464,1.5247 163.520397,1.5627" id="Fill-105" fill="#FF5E0E"></path>
                <path d="M162.640795,1.5784 C162.82755,1.5754 163.00106,1.5854 163.169272,1.6004 C163.105695,1.5864 163.077881,1.5744 163.095099,1.5664 C162.999735,1.5704 162.864636,1.5744 162.640795,1.5784" id="Fill-107" fill="#FF5E0E"></path>
                <path d="M45.5063576,3.5862 C45.4851656,3.5792 45.46,3.5752 45.4361589,3.5652 C45.1076821,3.6552 45.252053,3.6422 45.5063576,3.5862" id="Fill-109" fill="#FF5E0E"></path>
                <g id="Group-113" transform="translate(121.854305, 3.858400)">
                    <mask id="mask-14" fill="white">
                        <use xlink:href="#path-13"></use>
                    </mask>
                    <g id="Clip-112"></g>
                    <path d="M1.13682119,0.0784 C1.15271523,0.0764 1.16066225,0.0704 1.17390728,0.0674 C1.15933775,0.0654 1.1394702,0.0624 1.12622517,0.0594 L1.13682119,0.0784 Z" id="Fill-111" fill="#FF5E0E" mask="url(#mask-14)"></path>
                </g>
                <path d="M121.818543,4.0979 C122.317881,3.8279 122.601325,3.8619 122.980132,3.9179 L122.592053,3.2929 L121.818543,4.0979 Z" id="Fill-114" fill="#FF5E0E"></path>
                <path d="M105.289404,3.7727 C105.221854,3.7317 105.203311,3.6867 105.187417,3.6417 C105.093377,3.6817 105.092053,3.7287 105.289404,3.7727" id="Fill-119" fill="#FF5E0E"></path>
                <g id="Group-123" transform="translate(67.549669, 3.858400)">
                    <mask id="mask-16" fill="white">
                        <use xlink:href="#path-15"></use>
                    </mask>
                    <g id="Clip-122"></g>
                    <path d="M1.19761589,0.4475 C1.18569536,0.4455 1.17245033,0.4465 1.1605298,0.4445 C1.14066225,0.4595 1.12874172,0.4735 1.12211921,0.4885 L1.19761589,0.4475 Z" id="Fill-121" fill="#FF5E0E" mask="url(#mask-16)"></path>
                </g>
                <path d="M143.513775,3.9133 C143.287285,3.8783 143.160132,3.8343 143.075364,3.7883 C143.063444,3.8483 143.166755,3.8973 143.513775,3.9133" id="Fill-124" fill="#FF5E0E"></path>
                <path d="M166.47404,1.4583 L165.766755,1.5203 C166.108477,1.5093 166.230331,1.5623 166.403841,1.6003 C166.387947,1.5433 166.252848,1.4623 166.47404,1.4583" id="Fill-126" fill="#FF5E0E"></path>
                <path d="M172.614702,2.9504 C172.718013,2.9214 172.83457,2.9474 172.935232,2.9174 L172.907417,2.8054 C172.467682,2.8124 172.159073,2.9034 172.614702,2.9504" id="Fill-128" fill="#FF5E0E"></path>
                <path d="M167.129139,2.259 C167.184768,2.462 167.628477,2.394 168.123841,2.356 C168.094702,2.357 168.066887,2.359 168.036424,2.356 C168.182119,2.072 167.654967,2.166 167.129139,2.259" id="Fill-130" fill="#FF5E0E"></path>
                <path d="M168.239603,2.3489 C168.391921,2.3389 168.548212,2.3339 168.697881,2.3439 C168.756159,2.2299 168.51245,2.3209 168.239603,2.3489" id="Fill-132" fill="#FF5E0E"></path>
                <path d="M162.022517,1.7336 C162.256954,1.7856 162.169536,1.4736 162.303311,1.5566 C162.565563,1.2976 160.736424,1.8696 162.022517,1.7336" id="Fill-134" fill="#FF5E0E"></path>
                <polygon id="Fill-136" fill="#FF5E0E" points="167.074834 2.8792 167.530464 2.9282 167.35298 2.6772"></polygon>
                <path d="M163.617351,2.7444 L164.409404,2.8134 C164.397483,2.7714 164.498146,2.7474 164.621325,2.7274 C164.133907,2.7204 163.598808,2.6704 163.617351,2.7444" id="Fill-138" fill="#FF5E0E"></path>
                <path d="M165.258808,2.6868 C165.12106,2.6888 164.825695,2.6978 164.621722,2.7278 C164.876026,2.7328 165.117086,2.7278 165.258808,2.6868" id="Fill-140" fill="#FF5E0E"></path>
                <polygon id="Fill-142" fill="#FF5E0E" points="165.65457 2.9329 166.447947 3.0029 166.21351 2.9509"></polygon>
                <path d="M155.105828,2.6956 L154.242252,2.7676 C154.15351,2.8536 154.389272,2.9056 154.711126,2.8726 C154.917748,2.8116 155.238278,2.7786 155.105828,2.6956" id="Fill-144" fill="#FF5E0E"></path>
                <path d="M157.311788,3.5022 L157.719735,3.3822 C157.485298,3.3292 157.469404,3.2732 157.338278,3.1912 L157.311788,3.5022 Z" id="Fill-146" fill="#FF5E0E"></path>
                <path d="M155.039868,3.6819 C155.127285,3.5969 155.99351,3.5249 155.198808,3.4539 C155.112715,3.5399 153.944503,3.7019 155.039868,3.6819" id="Fill-148" fill="#FF5E0E"></path>
                <polygon id="Fill-150" fill="#FF5E0E" points="142.177616 3.0618 142.397483 3.0578 142.365695 2.5478"></polygon>
                <g id="Group-154" transform="translate(129.801325, 3.858400)">
                    <mask id="mask-18" fill="white">
                        <use xlink:href="#path-17"></use>
                    </mask>
                    <g id="Clip-153"></g>
                    <path d="M1.5584106,0.0315 C0.941192053,0.1585 0.616688742,0.0865 0.90013245,0.4215 C1.92397351,0.5435 1.14384106,0.1075 2.06834437,0.2605 C2.30807947,0.1385 1.31205298,0.1355 1.5584106,0.0315" id="Fill-152" fill="#FF5E0E" mask="url(#mask-18)"></path>
                </g>
                <path d="M131.359735,3.8899 C131.459073,3.8689 131.563709,3.8449 131.674967,3.8119 C131.496159,3.8439 131.412715,3.8689 131.359735,3.8899" id="Fill-155" fill="#FF5E0E"></path>
                <polygon id="Fill-157" fill="#FF5E0E" points="1.81523179 1.7043 1.15562914 1.5993 1.5807947 1.7693"></polygon>
                <g id="Group-161" transform="translate(0.000000, 0.858400)">
                    <mask id="mask-20" fill="white">
                        <use xlink:href="#path-19"></use>
                    </mask>
                    <g id="Clip-160"></g>
                    <path d="M-0.000132450331,1.1936 C0.148211921,1.1786 0.438278146,1.1506 0.550860927,1.2236 L0.39589404,0.8996 L-0.000132450331,1.1936 Z" id="Fill-159" fill="#FF5E0E" mask="url(#mask-20)"></path>
                </g>
                <g id="Group-164" transform="translate(89.991722, 3.858400)">
                    <mask id="mask-22" fill="white">
                        <use xlink:href="#path-21"></use>
                    </mask>
                    <g id="Clip-163"></g>
                    <path d="M0.542582781,0.8186 L0.592913907,0.7406 C0.490927152,0.6566 0.337284768,0.6496 0.0273509934,0.6366 L0.542582781,0.8186 Z" id="Fill-162" fill="#FF5E0E" mask="url(#mask-22)"></path>
                </g>
                <g id="Group-167" transform="translate(80.794702, 3.858400)">
                    <mask id="mask-24" fill="white">
                        <use xlink:href="#path-23"></use>
                    </mask>
                    <g id="Clip-166"></g>
                    <polygon id="Fill-165" fill="#FF5E0E" mask="url(#mask-24)" points="0.808874172 0.5764 0.962516556 0.5824 0.675099338 0.2894"></polygon>
                </g>
                <g id="Group-170" transform="translate(72.847682, 3.858400)">
                    <mask id="mask-26" fill="white">
                        <use xlink:href="#path-25"></use>
                    </mask>
                    <g id="Clip-169"></g>
                    <path d="M1.2602649,0.9504 C1.56622517,0.9624 1.92516556,0.8964 2.23245033,0.9094 C1.56622517,0.9624 1.1781457,0.5844 1.2602649,0.9504" id="Fill-168" fill="#FF5E0E" mask="url(#mask-26)"></path>
                </g>
                <g id="Group-118" transform="translate(0.000000, 0.858400)">
                    <mask id="mask-28" fill="white">
                        <use xlink:href="#path-27"></use>
                    </mask>
                    <g id="Clip-117"></g>
                    <path d="M159.491921,0.9163 C158.960795,0.8223 159.148874,0.8593 159.517086,0.9043 C159.507815,0.9083 159.499868,0.9113 159.491921,0.9163 M106.649536,2.5333 C106.873377,2.5143 107.127682,2.5223 107.409801,2.5843 C107.232318,2.6643 106.958146,2.6243 106.649536,2.5333 M87.8164238,3.2293 C88.087947,2.9533 88.298543,3.0853 88.7051656,3.1653 C88.466755,3.2153 87.9912583,3.3713 87.8164238,3.2293 M42.0203974,1.1043 L42.2349669,1.1683 C41.7488742,1.2363 41.885298,1.1743 42.0203974,1.1043 M168.562119,0.9813 C168.148874,0.6793 168.352848,1.0173 167.70649,0.6623 C168.266755,1.1033 165.378013,0.6443 166.278675,1.1063 C165.615099,0.6953 165.130331,0.9333 164.262781,0.5823 C164.289272,0.6833 164.570066,0.7753 163.805828,0.7263 C163.771391,0.7553 163.689272,0.7933 163.637616,0.8143 C163.615099,0.8123 163.605828,0.8113 163.58596,0.8073 C163.601854,0.8113 163.613775,0.8153 163.628344,0.8183 C163.595232,0.8343 163.592583,0.8373 163.644238,0.8233 C163.825695,0.8673 163.97404,0.9203 164.033642,0.9773 C163.654834,1.2093 162.440265,1.2013 162.028344,1.3223 C161.575364,1.2733 162.219073,1.2063 161.971391,1.0983 L161.356821,1.2773 C161.295894,1.0533 160.152848,0.9043 161.220397,0.7733 L160.260132,0.7633 C159.693245,0.6373 158.914437,0.5873 158.434967,0.6823 C157.981987,0.6333 157.289272,0.9303 157.685298,0.7543 L156.176689,0.8943 L156.163444,0.8373 C154.676026,0.8093 153.101192,1.2093 151.40053,0.8043 C150.899868,0.8603 150.383311,0.9303 149.544901,0.8663 L149.381987,0.6723 C148.738278,0.7393 147.450861,0.4783 147.17404,0.6803 C146.481325,0.1573 144.05351,0.5653 142.923709,0.4733 L142.88,0.7273 C142.102517,0.7123 141.356821,0.7843 140.389934,0.8863 L140.449536,1.1103 C139.616424,1.2943 138.307815,0.9513 136.989934,0.9743 C137.08,0.8883 137.413775,0.9103 137.650861,0.9623 C136.076026,0.4563 134.329007,1.3303 132.902517,0.9623 C132.546225,1.0433 132.287947,1.0163 132.03894,0.9593 C132.072053,0.9593 132.101192,0.9543 132.127682,0.9473 C132.091921,0.9443 132.036291,0.9443 131.980662,0.9443 C131.824371,0.9063 131.662781,0.8613 131.486623,0.8253 C131.636291,0.8803 131.779338,0.9253 131.902517,0.9453 C131.628344,0.9503 131.21245,0.9783 130.804503,1.0343 L130.630993,0.7933 C130.597881,0.7973 130.571391,0.7963 130.536954,0.8003 C130.135629,0.7113 130.215099,0.9143 130.428344,1.0963 C130.223046,1.1353 130.034967,1.1833 129.889272,1.2403 C129.563444,0.8523 128.819073,1.3713 128.375364,0.9573 C128.099868,1.1593 126.323709,1.1093 126.10649,1.5343 C126.093245,1.4783 125.972715,1.4523 126.192583,1.4493 C125.738278,1.4003 125.283974,1.3523 124.876026,1.4723 L124.683974,1.1663 L123.690596,1.5773 C123.087947,1.3913 122.837616,1.2823 123.436291,1.0473 C121.989934,1.4093 122.262781,1.1843 121.032318,1.5433 L121.093245,1.3453 C120.65351,1.3523 119.950199,1.6173 119.685298,1.4533 C118.702517,1.0773 114.819073,1.4013 112.295894,1.0523 C112.784636,1.6353 111.12106,0.7913 111.021722,1.2423 C110.874702,1.1043 110.522384,1.0273 110.931656,0.9073 C109.642914,1.0433 108.996556,0.6883 108.10649,1.0693 C107.95947,0.9313 108.381987,0.8673 108.250861,0.7853 C108.14755,0.8153 107.841589,0.9053 107.707815,0.8233 C107.576689,0.7413 107.895894,0.7073 108.099868,0.6473 C106.784636,0.6703 106.650861,1.0963 106.555497,1.4943 C105.889272,1.3053 105.555497,1.3323 105.074702,1.5943 C104.841589,1.4633 104.454834,1.3263 105.272053,1.2793 C104.81245,1.2613 102.462781,1.0883 102.415099,1.4083 C102.272053,1.3273 101.772715,1.3853 101.652185,1.4213 C100.619073,1.4023 100.527682,1.3733 99.5144371,1.4033 L99.7965563,1.4563 C99.3952318,1.8423 98.9528477,1.5423 98.1356291,1.5883 L98.1594702,1.5493 C96.285298,1.2703 97.3501987,1.6823 95.5011921,1.3643 L95.6031788,1.6043 C95.4296689,2.1203 93.9647682,1.3003 92.8919205,1.4973 L93.28,1.6353 C92.693245,1.8113 91.6415894,0.9333 91.0535099,0.8683 C90.9250331,0.8233 91.2548344,0.7973 91.4349669,0.7643 C89.8945695,0.4593 91.2349669,1.0773 90.087947,1.1503 C89.874702,0.9803 90.3607947,0.7203 89.5872848,0.6873 C89.2031788,0.5513 87.3462252,1.2383 86.2919205,0.9133 C86.5250331,1.0443 86.7541722,1.1743 86.2217219,1.2723 C85.4045033,1.3183 84.0124503,0.7783 83.274702,1.1903 C83.1700662,1.1543 83.1316556,1.1203 83.1263576,1.0883 C82.5025166,1.1943 81.0972185,1.2653 80.7197351,1.4873 C80.1422517,0.6593 76.8362914,1.8913 76.8495364,1.1273 L74.9290066,1.1683 L74.9780132,1.0903 C73.7501987,1.0393 73.3157616,1.2223 72.8839735,1.4053 C72.6005298,1.3533 72.8071523,1.2823 72.8309934,1.2423 C71.0362914,1.0883 70.8574834,1.1203 69.3528477,1.5013 L69.1965563,1.2533 C68.7886093,1.3973 66.6018543,0.8643 64.8415894,1.1533 C64.8588079,1.1253 64.895894,1.0773 65.0349669,1.0433 C63.0535099,1.3333 60.293245,0.3553 59.5674172,1.2583 L58.2601325,1.4803 C59.9515232,1.5503 58.0084768,1.8713 58.7051656,2.0213 C58.0389404,2.0743 56.9846358,1.7493 57.8031788,1.7033 L57.9303311,1.7483 C58.2309934,1.2773 55.8296689,1.5813 55.874702,1.2613 C52.5475497,1.2843 49.3051656,1.0233 46.1886093,1.0043 L46.5475497,1.3693 L45.4601325,1.3493 C45.1740397,1.2643 45.077351,1.0623 45.8521854,1.0773 C45.4442384,0.8703 44.5515232,1.2513 44.5303311,1.3303 C43.0111258,1.1833 45.1223841,0.9043 44.6574834,0.8953 L44.0243709,0.9233 L44.1674172,0.9653 C43.6548344,1.1153 43.6084768,1.2733 42.677351,1.2553 C42.0866225,1.1823 42.3740397,1.0293 42.1422517,1.0163 C42.1435762,0.9893 42.0654305,0.9783 41.7859603,1.0053 L40.4164238,0.9743 L40.9647682,1.2633 C40.3568212,1.4043 39.6760265,1.2473 40.3078146,1.5743 C39.3806623,1.0703 35.1992053,1.3943 34.6296689,1.2363 C33.7793377,1.4473 32.9396026,1.4433 31.8998675,1.4183 C32.1581457,1.4783 32.3131126,1.8033 31.4164238,1.7643 C31.7449007,1.0943 29.7740397,1.4733 29.0495364,0.9903 C29.6972185,1.3113 26.4998675,1.0693 27.5170861,1.5233 C26.7687417,1.4693 27.4707285,1.2723 26.9038411,1.1153 C25.1223841,1.3743 22.9793377,0.9463 20.7780132,1.0333 C20.7435762,1.1213 21.1117881,1.2563 20.6402649,1.3873 L19.477351,0.9473 C19.0429139,0.9903 19.077351,1.4553 18.282649,1.1493 C18.3952318,1.2243 18.5621192,1.3353 18.2707285,1.3633 C13.9581457,0.9353 9.45880795,1.7153 5.0786755,0.9093 C5.67205298,1.0803 5.27735099,1.0973 4.82437086,1.1033 C5.1184106,1.1443 4.81774834,1.3203 4.87602649,1.4393 L3.0415894,1.1083 C2.70781457,1.4393 1.07602649,1.1313 0.88397351,1.4473 L1.46543046,1.3903 C0.693245033,1.7643 2.54622517,2.2203 2.43231788,2.6983 C3.29721854,2.2743 4.71311258,3.3273 6.13165563,2.7203 C6.44423841,2.8173 5.86410596,2.8743 6.03231788,2.9843 C6.39125828,2.7793 6.82569536,2.7363 7.62966887,2.8293 L7.53827815,2.8803 C9.7992053,2.8303 10.7687417,3.0323 13.3091391,3.1673 L13.1210596,2.9303 C13.666755,2.9623 13.7819868,3.0363 14.0376159,3.0963 C14.6627815,2.7363 12.5038411,3.0753 13.074702,2.6793 C13.7978808,3.1613 16.9237086,2.6873 17.4124503,3.2343 C18.2521854,3.2363 17.1660927,2.9603 18.0058278,2.9633 L18.2283444,3.1113 L18.4402649,2.9203 C18.9912583,2.9513 19.2680795,3.1373 19.2892715,3.2633 C19.1554967,3.2483 18.9091391,3.2983 18.7660927,3.3093 C19.48,3.4823 20.7793377,3.2493 21.0243709,3.3063 L20.2177483,3.2153 C22.5091391,3.0763 25.3064901,3.2703 27.5197351,2.9693 L27.3515232,2.8573 C29.0429139,2.6503 28.7064901,2.9803 30.5621192,2.8853 L30.4945695,2.9113 C30.866755,2.8003 31.3621192,2.7433 31.8707285,2.7563 C31.4018543,2.8873 32.7515232,3.0113 32.1369536,3.1553 C33.9700662,2.9343 33.0442384,2.9803 34.2548344,2.5653 L34.5343046,2.7513 C34.9462252,2.5833 34.9806623,2.4953 35.9078146,2.4473 C35.1475497,2.6053 36.4998675,2.7293 35.6482119,2.9393 C37.5925828,3.3463 38.5356291,2.5303 39.4283444,3.1233 C40.3210596,2.6103 37.7449007,2.8383 38.2455629,2.7283 C37.8270199,2.5613 38.9833113,2.3453 39.5939073,2.3963 C40.2137748,2.4083 40.6495364,3.0533 42.2124503,3.0433 C42.0574834,3.0413 42.0468874,3.0803 41.890596,3.0773 C42.4760265,3.2083 43.0376159,2.9003 43.7554967,3.1133 C44.1568212,2.8033 44.6866225,3.1313 44.8031788,2.7343 L43.3687417,2.8263 C44.1806623,2.7233 44.9435762,2.2603 46.282649,2.4843 C46.1780132,2.5643 45.7793377,2.6693 45.5064901,2.7283 C45.8972185,2.8453 46.2601325,2.6503 46.6654305,2.7703 C46.5501987,3.1663 44.9237086,2.8563 44.0535099,3.1583 C44.4733775,3.3263 45.6998675,2.8713 45.2627815,3.3013 C45.8919205,2.7553 46.8018543,3.3693 47.861457,2.9533 L47.7912583,3.1903 C47.9581457,3.1523 48.3064901,3.0413 48.6137748,3.0473 L48.0561589,3.3543 C48.9131126,3.0923 49.7078146,3.5843 50.5303311,3.4413 C48.8098013,3.4483 50.1435762,3.1553 49.4164238,2.9823 C51.5396026,2.6643 50.6362914,3.6033 53.0137748,3.4893 C52.6919205,3.5223 51.8058278,3.3473 52.3091391,3.2363 C52.7607947,3.2853 53.3581457,3.3773 53.6362914,3.5013 C55.2111258,3.4513 53.3939073,3.2573 54.064106,3.1113 C54.6005298,3.4003 54.8376159,2.9933 55.5276821,2.9003 L55.5329801,3.1433 C57.3276821,3.2973 56.0084768,2.6403 57.6243709,2.8263 L56.9409272,3.1613 L57.7833113,3.0743 L57.6098013,3.3493 C58.5263576,3.1453 58.8111258,3.1983 59.7091391,3.2753 C59.4998675,3.1053 59.8256954,2.8373 60.6217219,2.8303 C61.1634437,2.9733 60.3170861,3.0593 61.4442384,3.0243 C61.1899338,3.1763 60.9104636,3.3653 60.4203974,3.1433 C60.3713907,3.2213 60.1700662,3.2943 60.1184106,3.3713 C60.7025166,3.5363 61.5859603,3.4093 61.9925828,3.4073 C61.8362914,3.3983 61.6482119,3.3853 61.5515232,3.3513 L63.1846358,3.0173 C63.4415894,3.1073 63.2389404,3.1803 63.0362914,3.2513 C63.3674172,3.2253 63.5965563,3.1143 64.082649,3.0943 C63.9568212,3.2893 63.9872848,3.4923 63.298543,3.5843 L64.8535099,3.3663 C64.9581457,3.4513 65.6521854,3.6013 65.4508609,3.6733 C66.3131126,3.7883 67.5660927,3.2933 68.7104636,3.4443 C68.7687417,3.4063 68.8892715,3.3703 69.1316556,3.3423 C70.2071523,3.3873 71.1594702,3.6273 72.4336424,3.3583 L73.1554967,3.7103 C74.1528477,3.6303 72.1766887,3.2673 73.8389404,3.1353 C75.0150993,3.0223 74.277351,3.4343 74.690596,3.5323 C75.274702,3.3543 76.2919205,2.9943 77.3727152,3.2803 C77.0137748,3.3473 76.7343046,3.2953 76.4005298,3.3203 L77.2230464,3.5163 C76.2296689,3.8363 75.5104636,3.7263 76.2839735,4.0003 C76.4005298,3.3203 79.4839735,3.9303 79.5992053,3.2523 L80.1409272,3.3953 C79.9859603,3.3883 79.9607947,3.4283 79.8071523,3.4213 C80.8627815,3.7463 80.5912583,2.9303 81.9515232,3.0273 C82.4256954,3.0793 82.7554967,3.1783 82.4323179,3.2583 L83.4892715,3.0903 C83.7965563,3.1043 83.7210596,3.2213 83.4150993,3.2083 L85.0256954,3.1543 L85.0150993,3.1743 C85.2442384,3.0673 85.7647682,2.9023 86.0190728,2.8333 C86.4283444,2.9303 85.8137748,2.9043 85.9184106,2.9893 L86.8111258,2.8253 C87.1740397,3.0013 86.4349669,3.1723 85.8190728,3.1463 C86.6521854,3.8243 86.5594702,2.9763 88.3568212,3.3713 L87.5144371,3.4583 C88.0574834,3.8433 88.7144371,3.7033 89.666755,3.9433 C89.4402649,3.8183 87.7607947,3.3383 88.7290066,3.1693 C89.0018543,3.2213 89.3607947,3.2453 89.882649,3.1083 C89.887947,3.3503 90.3978808,3.2903 91.0362914,3.2763 L90.9925828,3.5973 C91.682649,3.5043 91.6283444,3.3423 92.0336424,3.1973 C92.8018543,3.2293 92.9621192,3.4773 93.1422517,3.6863 C94.3740397,3.7363 92.293245,3.2883 93.7501987,3.2283 C94.7740397,3.3503 95.493245,3.2203 96.7170861,3.0283 C97.4349669,3.1393 96.5925828,3.2243 96.8495364,3.3153 L97.485298,3.0613 C97.6402649,3.0663 97.5912583,3.1453 97.5647682,3.1843 C98.0998675,3.0853 97.6084768,2.8643 98.4508609,2.7773 C98.677351,2.4263 100.178013,3.2933 101.220397,2.8933 C101.477351,2.9833 101.095894,3.0883 101.17404,3.2123 C102.603179,2.9493 102.40053,3.0213 103.572715,2.6683 L104.572715,2.8783 C103.837616,2.6383 104.776689,2.3533 105.599205,2.1203 C105.338278,2.0043 105.115762,1.9023 104.966093,1.8543 L106.277351,1.6833 C106.436291,1.7353 106.303841,1.8463 106.089272,1.9783 C106.179338,1.9523 106.262781,1.9263 106.330331,1.9023 C106.799205,2.0203 106.555497,2.2053 106.219073,2.3843 C106.060132,2.3203 105.901192,2.2533 105.74755,2.1873 C105.423046,2.3813 105.119735,2.5963 105.187285,2.7833 C105.272053,2.7463 105.436291,2.7153 105.617748,2.6963 C105.53298,2.7493 105.478675,2.7973 105.518411,2.8283 C105.562119,2.8623 105.699868,2.7913 105.913113,2.7103 L106.211126,3.0663 L106.283974,2.9253 L108.00053,3.1473 C109.228344,2.7893 110.295894,2.2613 112.245563,2.1133 C111.762119,2.3753 112.140927,2.5403 112.114437,2.8503 C111.583311,2.5223 110.605828,2.9893 109.595232,2.9233 C110.123709,2.9573 110.007152,3.1053 109.873377,3.1563 L111.673377,2.8583 C111.633642,3.1113 112.057483,3.0483 112.527682,3.1523 C112.171391,2.6523 113.870728,2.8193 114.603179,2.6663 C114.649536,2.8343 114.473377,3.0063 113.578013,2.9653 C114.566093,3.3423 114.85351,2.3773 115.821722,2.6973 C115.603179,2.7013 115.485298,2.6763 115.399205,2.7613 C115.910464,2.6113 117.156821,2.7303 116.862781,2.8773 L116.645563,2.8803 C118.095894,2.9393 121.058808,2.8843 121.274702,2.4583 C121.289272,2.5143 121.083974,2.9713 120.997881,3.0573 L123.583311,1.6263 C123.355497,1.9913 124.230993,2.8613 123.028344,3.0673 C123.372715,3.1193 123.80053,3.1803 124.529007,3.0513 C124.293245,2.9993 123.940927,2.5233 124.262781,2.4903 C125.146225,2.8963 124.876026,2.7073 125.966093,3.0543 C125.61245,2.9763 126.004503,2.4023 126.562119,2.4213 C126.474702,2.5073 126.608477,2.9863 126.404503,3.0463 L127.792583,2.4843 C127.446887,2.5853 127.731656,2.9613 128.041589,3.1193 C127.897219,3.0103 129.242914,3.1303 129.61245,3.0743 L129.024371,2.9433 C130.591258,3.0283 130.572715,2.1523 132.127682,2.1833 C131.939603,2.2993 131.662781,2.8973 132.45351,2.9683 C132.815099,2.6803 134.057483,1.5833 135.433642,1.3613 L135.698543,1.5253 L136.754172,1.3383 C136.095894,1.7713 134.250861,2.6843 133.244238,3.0383 C133.830993,3.1683 133.407152,3.2323 134.286623,3.2173 C134.596556,3.3713 133.807152,3.4513 133.548874,3.4613 L135.593907,3.5613 C135.502517,3.2243 137.158146,3.2233 137.08,2.9433 L134.858808,3.2913 C134.768742,2.9563 136.143576,2.3373 137.592583,2.3963 C137.960795,2.5303 137.315762,2.9953 137.346225,3.1073 C137.534305,2.9913 138.722384,2.8863 138.854834,2.9683 L138.240265,3.1473 C139.046887,3.2743 139.556821,2.7023 140.526358,3.0233 C140.861457,3.0453 141.526358,3.4563 141.583311,3.2573 C141.037616,2.8733 140.930331,1.6873 141.29457,1.3983 C141.41245,1.4253 143.050861,1.7663 143.433642,1.9553 C143.984636,2.2563 142.605828,2.6723 143.074702,2.9303 C143.095894,2.8383 143.40053,2.7253 143.526358,2.6883 C143.878675,2.7673 143.380662,2.9733 144.144901,2.9323 C144.272053,2.5913 145.697219,2.9603 144.50649,2.6443 C145.25351,2.5463 145.299868,2.7133 146.176689,2.6983 C145.897219,2.4783 146.964768,1.9493 147.711788,1.8523 C147.668079,1.9383 147.836291,2.0513 147.918411,2.1033 C149.448212,2.1343 150.270728,2.2883 151.698543,2.2913 C151.829669,2.3743 152.518411,2.4743 152.225695,2.6203 C152.430993,2.5613 152.620397,2.4443 153.060132,2.4373 C153.911788,2.7303 152.078675,2.4823 152.727682,2.8363 C152.783311,2.6393 153.866755,2.5623 154.49457,2.4393 C154.301192,2.1333 153.044238,2.3813 152.416424,2.5043 C152.413775,2.0823 153.50649,1.6413 154.999205,1.4453 C156.184636,1.3413 155.513113,1.7183 155.719735,1.6583 C157.946225,1.7313 157.616424,0.9213 159.466755,1.2263 C160.20053,1.4943 159.499868,1.7613 159.662781,1.9543 C158.695894,2.0573 158.179338,1.7833 157.525033,1.7953 L158.331656,1.9223 C158.024371,2.0113 157.378013,2.0793 157.02702,2.0013 C157.642914,2.2423 160.789934,2.0473 162.509139,2.2703 C162.815099,2.1803 163.342252,2.0873 163.091921,1.9783 L162.548874,2.0173 C162.049536,1.8003 163.572715,1.7173 162.883974,1.6153 C163.613775,1.4633 164.430993,1.2243 165.457483,1.3463 L165.650861,1.6523 C165.628344,1.5623 164.979338,1.4703 164.690596,1.5633 C165.119735,1.4283 166.26543,1.9783 166.734305,1.5773 L166.015099,1.3643 C166.74755,1.2113 167.652185,0.8853 168.562119,0.9813" id="Fill-116" fill="#FF5E0E" mask="url(#mask-28)"></path>
                </g>
            </g>
        </g>
    </g>
</svg>